%TF.GenerationSoftware,KiCad,Pcbnew,(5.1.12-1-10_14)*%
%TF.CreationDate,2022-02-15T12:54:36-08:00*%
%TF.ProjectId,g3_power,67335f70-6f77-4657-922e-6b696361645f,rev?*%
%TF.SameCoordinates,Original*%
%TF.FileFunction,Soldermask,Bot*%
%TF.FilePolarity,Negative*%
%FSLAX46Y46*%
G04 Gerber Fmt 4.6, Leading zero omitted, Abs format (unit mm)*
G04 Created by KiCad (PCBNEW (5.1.12-1-10_14)) date 2022-02-15 12:54:36*
%MOMM*%
%LPD*%
G01*
G04 APERTURE LIST*
%ADD10C,5.000000*%
%ADD11C,0.300000*%
%ADD12C,0.300020*%
%ADD13C,0.100000*%
G04 APERTURE END LIST*
D10*
%TO.C,H104*%
X255000000Y-106000000D03*
%TD*%
%TO.C,H103*%
X213000000Y-106000000D03*
%TD*%
%TO.C,H102*%
X255000000Y-74000000D03*
%TD*%
%TO.C,H101*%
X213000000Y-74000000D03*
%TD*%
D11*
%TO.C,U102*%
X232750000Y-87000000D03*
D12*
X231250000Y-86000000D03*
X232750000Y-86000000D03*
X231250000Y-87000000D03*
%TD*%
D13*
%TO.C,JP3*%
G36*
X240110000Y-80820000D02*
G01*
X240110000Y-80320000D01*
X240110602Y-80320000D01*
X240110602Y-80295466D01*
X240115412Y-80246635D01*
X240124984Y-80198510D01*
X240139228Y-80151555D01*
X240158005Y-80106222D01*
X240181136Y-80062949D01*
X240208396Y-80022150D01*
X240239524Y-79984221D01*
X240274221Y-79949524D01*
X240312150Y-79918396D01*
X240352949Y-79891136D01*
X240396222Y-79868005D01*
X240441555Y-79849228D01*
X240488510Y-79834984D01*
X240536635Y-79825412D01*
X240585466Y-79820602D01*
X240610000Y-79820602D01*
X240610000Y-79820000D01*
X241110000Y-79820000D01*
X241110000Y-79820602D01*
X241134534Y-79820602D01*
X241183365Y-79825412D01*
X241231490Y-79834984D01*
X241278445Y-79849228D01*
X241323778Y-79868005D01*
X241367051Y-79891136D01*
X241407850Y-79918396D01*
X241445779Y-79949524D01*
X241480476Y-79984221D01*
X241511604Y-80022150D01*
X241538864Y-80062949D01*
X241561995Y-80106222D01*
X241580772Y-80151555D01*
X241595016Y-80198510D01*
X241604588Y-80246635D01*
X241609398Y-80295466D01*
X241609398Y-80320000D01*
X241610000Y-80320000D01*
X241610000Y-80820000D01*
X240110000Y-80820000D01*
G37*
G36*
X241609398Y-81620000D02*
G01*
X241609398Y-81644534D01*
X241604588Y-81693365D01*
X241595016Y-81741490D01*
X241580772Y-81788445D01*
X241561995Y-81833778D01*
X241538864Y-81877051D01*
X241511604Y-81917850D01*
X241480476Y-81955779D01*
X241445779Y-81990476D01*
X241407850Y-82021604D01*
X241367051Y-82048864D01*
X241323778Y-82071995D01*
X241278445Y-82090772D01*
X241231490Y-82105016D01*
X241183365Y-82114588D01*
X241134534Y-82119398D01*
X241110000Y-82119398D01*
X241110000Y-82120000D01*
X240610000Y-82120000D01*
X240610000Y-82119398D01*
X240585466Y-82119398D01*
X240536635Y-82114588D01*
X240488510Y-82105016D01*
X240441555Y-82090772D01*
X240396222Y-82071995D01*
X240352949Y-82048864D01*
X240312150Y-82021604D01*
X240274221Y-81990476D01*
X240239524Y-81955779D01*
X240208396Y-81917850D01*
X240181136Y-81877051D01*
X240158005Y-81833778D01*
X240139228Y-81788445D01*
X240124984Y-81741490D01*
X240115412Y-81693365D01*
X240110602Y-81644534D01*
X240110602Y-81620000D01*
X240110000Y-81620000D01*
X240110000Y-81120000D01*
X241610000Y-81120000D01*
X241610000Y-81620000D01*
X241609398Y-81620000D01*
G37*
%TD*%
M02*
