%TF.GenerationSoftware,KiCad,Pcbnew,(5.1.12-1-10_14)*%
%TF.CreationDate,2022-02-15T12:54:36-08:00*%
%TF.ProjectId,g3_power,67335f70-6f77-4657-922e-6b696361645f,rev?*%
%TF.SameCoordinates,Original*%
%TF.FileFunction,Copper,L4,Bot*%
%TF.FilePolarity,Positive*%
%FSLAX46Y46*%
G04 Gerber Fmt 4.6, Leading zero omitted, Abs format (unit mm)*
G04 Created by KiCad (PCBNEW (5.1.12-1-10_14)) date 2022-02-15 12:54:36*
%MOMM*%
%LPD*%
G01*
G04 APERTURE LIST*
%TA.AperFunction,EtchedComponent*%
%ADD10C,0.100000*%
%TD*%
%TA.AperFunction,ComponentPad*%
%ADD11C,5.000000*%
%TD*%
%TA.AperFunction,ComponentPad*%
%ADD12C,0.300000*%
%TD*%
%TA.AperFunction,SMDPad,CuDef*%
%ADD13R,2.600000X2.600000*%
%TD*%
%TA.AperFunction,ComponentPad*%
%ADD14C,0.500000*%
%TD*%
%TA.AperFunction,SMDPad,CuDef*%
%ADD15C,0.100000*%
%TD*%
%TA.AperFunction,ViaPad*%
%ADD16C,0.800000*%
%TD*%
%TA.AperFunction,Conductor*%
%ADD17C,0.279400*%
%TD*%
%TA.AperFunction,Conductor*%
%ADD18C,0.250000*%
%TD*%
G04 APERTURE END LIST*
D10*
%TO.C,JP3*%
G36*
X240560000Y-81220000D02*
G01*
X240560000Y-80720000D01*
X241160000Y-80720000D01*
X241160000Y-81220000D01*
X240560000Y-81220000D01*
G37*
%TD*%
D11*
%TO.P,H104,1*%
%TO.N,Net-(H104-Pad1)*%
X255000000Y-106000000D03*
%TD*%
%TO.P,H103,1*%
%TO.N,Net-(H103-Pad1)*%
X213000000Y-106000000D03*
%TD*%
%TO.P,H102,1*%
%TO.N,Net-(H102-Pad1)*%
X255000000Y-74000000D03*
%TD*%
%TO.P,H101,1*%
%TO.N,Net-(H101-Pad1)*%
X213000000Y-74000000D03*
%TD*%
D12*
%TO.P,U102,11*%
%TO.N,GND*%
X232750000Y-87000000D03*
X231250000Y-86000000D03*
X232750000Y-86000000D03*
X231250000Y-87000000D03*
X232000000Y-86500000D03*
%TD*%
D13*
%TO.P,U101,25*%
%TO.N,GND*%
X222000000Y-87000000D03*
D14*
X223050000Y-88050000D03*
X222000000Y-88050000D03*
X220950000Y-88050000D03*
X223050000Y-87000000D03*
X222000000Y-87000000D03*
X220950000Y-87000000D03*
X223050000Y-85950000D03*
X222000000Y-85950000D03*
X220950000Y-85950000D03*
%TD*%
%TA.AperFunction,SMDPad,CuDef*%
D15*
%TO.P,JP3,1*%
%TO.N,/~CC_QON*%
G36*
X240110000Y-80820000D02*
G01*
X240110000Y-80320000D01*
X240110602Y-80320000D01*
X240110602Y-80295466D01*
X240115412Y-80246635D01*
X240124984Y-80198510D01*
X240139228Y-80151555D01*
X240158005Y-80106222D01*
X240181136Y-80062949D01*
X240208396Y-80022150D01*
X240239524Y-79984221D01*
X240274221Y-79949524D01*
X240312150Y-79918396D01*
X240352949Y-79891136D01*
X240396222Y-79868005D01*
X240441555Y-79849228D01*
X240488510Y-79834984D01*
X240536635Y-79825412D01*
X240585466Y-79820602D01*
X240610000Y-79820602D01*
X240610000Y-79820000D01*
X241110000Y-79820000D01*
X241110000Y-79820602D01*
X241134534Y-79820602D01*
X241183365Y-79825412D01*
X241231490Y-79834984D01*
X241278445Y-79849228D01*
X241323778Y-79868005D01*
X241367051Y-79891136D01*
X241407850Y-79918396D01*
X241445779Y-79949524D01*
X241480476Y-79984221D01*
X241511604Y-80022150D01*
X241538864Y-80062949D01*
X241561995Y-80106222D01*
X241580772Y-80151555D01*
X241595016Y-80198510D01*
X241604588Y-80246635D01*
X241609398Y-80295466D01*
X241609398Y-80320000D01*
X241610000Y-80320000D01*
X241610000Y-80820000D01*
X240110000Y-80820000D01*
G37*
%TD.AperFunction*%
%TA.AperFunction,SMDPad,CuDef*%
%TO.P,JP3,2*%
%TO.N,Net-(JP3-Pad2)*%
G36*
X241609398Y-81620000D02*
G01*
X241609398Y-81644534D01*
X241604588Y-81693365D01*
X241595016Y-81741490D01*
X241580772Y-81788445D01*
X241561995Y-81833778D01*
X241538864Y-81877051D01*
X241511604Y-81917850D01*
X241480476Y-81955779D01*
X241445779Y-81990476D01*
X241407850Y-82021604D01*
X241367051Y-82048864D01*
X241323778Y-82071995D01*
X241278445Y-82090772D01*
X241231490Y-82105016D01*
X241183365Y-82114588D01*
X241134534Y-82119398D01*
X241110000Y-82119398D01*
X241110000Y-82120000D01*
X240610000Y-82120000D01*
X240610000Y-82119398D01*
X240585466Y-82119398D01*
X240536635Y-82114588D01*
X240488510Y-82105016D01*
X240441555Y-82090772D01*
X240396222Y-82071995D01*
X240352949Y-82048864D01*
X240312150Y-82021604D01*
X240274221Y-81990476D01*
X240239524Y-81955779D01*
X240208396Y-81917850D01*
X240181136Y-81877051D01*
X240158005Y-81833778D01*
X240139228Y-81788445D01*
X240124984Y-81741490D01*
X240115412Y-81693365D01*
X240110602Y-81644534D01*
X240110602Y-81620000D01*
X240110000Y-81620000D01*
X240110000Y-81120000D01*
X241610000Y-81120000D01*
X241610000Y-81620000D01*
X241609398Y-81620000D01*
G37*
%TD.AperFunction*%
%TD*%
D16*
%TO.N,GND*%
X245870000Y-76610000D03*
X245880000Y-77580000D03*
X240800000Y-84840000D03*
X229300000Y-87490000D03*
X245905000Y-82950000D03*
X225150000Y-85750000D03*
X234750000Y-87060000D03*
X223375000Y-99895000D03*
X239410000Y-95800000D03*
X216600000Y-83700000D03*
X226730000Y-79030000D03*
X222700000Y-80250000D03*
X233800000Y-82700000D03*
X221770000Y-94720000D03*
X237095000Y-89265000D03*
X214400000Y-80600000D03*
X255900000Y-93900000D03*
X231450000Y-99300000D03*
X213400000Y-94500000D03*
X227015000Y-91385000D03*
X248020000Y-92480000D03*
%TO.N,CC_PIMD*%
X219736511Y-83063489D03*
%TO.N,V_REGN*%
X221310000Y-82930000D03*
X211807500Y-86182500D03*
X211740000Y-89590000D03*
X222870000Y-93510000D03*
X211550000Y-80750000D03*
%TO.N,CC_PWR_OUT*%
X215450000Y-86250000D03*
X219642500Y-92357500D03*
X225360000Y-87250000D03*
X230110000Y-84960000D03*
%TO.N,+5V*%
X247180000Y-76480000D03*
X247990000Y-75440000D03*
X240905000Y-90665000D03*
X245900000Y-84050000D03*
X232750000Y-83300000D03*
X233175000Y-89375000D03*
X244030000Y-85920000D03*
X255950000Y-90300000D03*
%TO.N,BOOST_VAUX*%
X231500000Y-89160000D03*
X235370000Y-85850000D03*
%TO.N,/BOOST_PS*%
X237040000Y-80670000D03*
X234690000Y-89180000D03*
%TO.N,/~CC_INT*%
X243375000Y-76805000D03*
X216725000Y-89950000D03*
%TO.N,/~CC_CE*%
X221720000Y-90150000D03*
X222520000Y-96470000D03*
X223900000Y-97820000D03*
X244755001Y-82144999D03*
%TO.N,/~CC_QON*%
X240850000Y-78760000D03*
%TO.N,Net-(JP3-Pad2)*%
X223820000Y-90130000D03*
X221400000Y-99000000D03*
%TO.N,/SCL*%
X218910000Y-88480000D03*
X242760000Y-90770000D03*
X239600000Y-83125000D03*
%TO.N,/SDA*%
X219800000Y-90100000D03*
X242760000Y-89300000D03*
X238375000Y-83125000D03*
%TD*%
D17*
%TO.N,CC_PWR_OUT*%
X219642500Y-92357500D02*
X219853962Y-92357500D01*
D18*
X215400000Y-86300000D02*
X215450000Y-86250000D01*
%TO.N,BOOST_VAUX*%
X235370000Y-85850000D02*
X235370000Y-85850000D01*
X235475001Y-85955001D02*
X235370000Y-85850000D01*
X232010001Y-88649999D02*
X233774999Y-88649999D01*
X231500000Y-89160000D02*
X232010001Y-88649999D01*
X235509990Y-87640010D02*
X235509990Y-85989990D01*
X234695001Y-88454999D02*
X235509990Y-87640010D01*
X233969999Y-88454999D02*
X234695001Y-88454999D01*
X235509990Y-85989990D02*
X235370000Y-85850000D01*
X233774999Y-88649999D02*
X233969999Y-88454999D01*
%TO.N,/BOOST_PS*%
X237040000Y-85253002D02*
X235960000Y-86333002D01*
X237040000Y-80670000D02*
X237040000Y-85253002D01*
X235960000Y-86333002D02*
X235960000Y-87910000D01*
X235960000Y-87910000D02*
X234760000Y-89110000D01*
X234760000Y-89110000D02*
X234690000Y-89180000D01*
X234690000Y-89180000D02*
X234690000Y-89180000D01*
%TO.N,/~CC_INT*%
X239371998Y-76805000D02*
X243375000Y-76805000D01*
X235256998Y-80920000D02*
X239371998Y-76805000D01*
X224894998Y-80920000D02*
X235256998Y-80920000D01*
X216725000Y-89089998D02*
X224894998Y-80920000D01*
X216725000Y-89950000D02*
X216725000Y-89089998D01*
%TO.N,/~CC_CE*%
X221720000Y-93596998D02*
X222520000Y-94396998D01*
X221720000Y-90150000D02*
X221720000Y-93596998D01*
X222520000Y-94396998D02*
X222520000Y-96470000D01*
X222520000Y-96470000D02*
X222520000Y-96470000D01*
X244755001Y-86268001D02*
X244755001Y-84555001D01*
X223900000Y-97820000D02*
X238788002Y-97820000D01*
X244755001Y-91853001D02*
X244504001Y-92104001D01*
X244755001Y-87044999D02*
X244755001Y-87294997D01*
X244755001Y-87044999D02*
X244755001Y-91853001D01*
X244504001Y-92104001D02*
X244574999Y-92033003D01*
X238788002Y-97820000D02*
X244504001Y-92104001D01*
X244755001Y-82144999D02*
X244755001Y-87044999D01*
%TO.N,/~CC_QON*%
X240860000Y-78770000D02*
X240850000Y-78760000D01*
X240860000Y-80320000D02*
X240860000Y-78770000D01*
%TO.N,Net-(JP3-Pad2)*%
X223820000Y-96580000D02*
X221400000Y-99000000D01*
X223820000Y-90130000D02*
X223820000Y-96580000D01*
X224655001Y-93675001D02*
X240928001Y-93675001D01*
X243935011Y-90667991D02*
X243935011Y-86898013D01*
X223820000Y-90130000D02*
X223820000Y-92840000D01*
X240928001Y-93675001D02*
X243935011Y-90667991D01*
X223820000Y-92840000D02*
X224655001Y-93675001D01*
X241525001Y-84488003D02*
X243935011Y-86898013D01*
X241525001Y-82285001D02*
X241525001Y-84488003D01*
X240860000Y-81620000D02*
X241525001Y-82285001D01*
%TO.N,/SCL*%
X243485001Y-90044999D02*
X243485001Y-88955001D01*
X242760000Y-90770000D02*
X243485001Y-90044999D01*
X239600000Y-85070000D02*
X239600000Y-83125000D01*
X243485001Y-88955001D02*
X239600000Y-85070000D01*
X242139999Y-91390001D02*
X242760000Y-90770000D01*
X218910000Y-90283002D02*
X219546998Y-90920000D01*
X218910000Y-88480000D02*
X218910000Y-90283002D01*
X220994999Y-89801999D02*
X221391999Y-89404999D01*
X220994999Y-90498001D02*
X220994999Y-89801999D01*
X227014999Y-89404999D02*
X227330000Y-89720000D01*
X220573000Y-90920000D02*
X220994999Y-90498001D01*
X221391999Y-89404999D02*
X227014999Y-89404999D01*
X219546998Y-90920000D02*
X220573000Y-90920000D01*
X227330000Y-89720000D02*
X229000001Y-91390001D01*
X227004999Y-89394999D02*
X227330000Y-89720000D01*
X231390001Y-91390001D02*
X242139999Y-91390001D01*
X229000001Y-91390001D02*
X231390001Y-91390001D01*
%TO.N,/SDA*%
X238375000Y-84915000D02*
X238375000Y-83125000D01*
X242760000Y-89300000D02*
X238375000Y-84915000D01*
X241196998Y-89300000D02*
X242760000Y-89300000D01*
X240296998Y-90200000D02*
X241196998Y-89300000D01*
X227166410Y-88920000D02*
X228446410Y-90200000D01*
X220980000Y-88920000D02*
X227166410Y-88920000D01*
X219800000Y-90100000D02*
X220980000Y-88920000D01*
X229350000Y-90200000D02*
X240296998Y-90200000D01*
X228446410Y-90200000D02*
X229350000Y-90200000D01*
%TD*%
M02*
