%FSLAX45Y45*%
G04 Gerber Fmt 4.5, Leading zero omitted, Abs format (unit mm)*
G04 Created by KiCad (PCBNEW (5.1.12-1-10_14)) date 2022-02-15 12:54:34*
%MOMM*%
%LPD*%
G01*
G04 APERTURE LIST*
%TA.AperFunction,Profile*%
%ADD10C,0.100000*%
%TD*%
%ADD11C,0.200000*%
%ADD12C,0.300000*%
G04 APERTURE END LIST*
D10*
X25600000Y-7000000D02*
G75*
G02*
X25900000Y-7300000I0J-300000D01*
G01*
X25900000Y-10700000D02*
G75*
G02*
X25600000Y-11000000I-300000J0D01*
G01*
X21200000Y-11000000D02*
G75*
G02*
X20900000Y-10700000I0J300000D01*
G01*
X20900000Y-7300000D02*
G75*
G02*
X21200000Y-7000000I300000J0D01*
G01*
X20900000Y-10700000D02*
X20900000Y-7300000D01*
X25600000Y-11000000D02*
X21200000Y-11000000D01*
X25900000Y-7300000D02*
X25900000Y-10700000D01*
X21200000Y-7000000D02*
X25600000Y-7000000D01*
D11*
X22085000Y-8585000D02*
X22105000Y-8605000D01*
X22105000Y-8585000D02*
X22085000Y-8605000D01*
X22085000Y-8690000D02*
X22105000Y-8710000D01*
X22105000Y-8690000D02*
X22085000Y-8710000D01*
X22085000Y-8795000D02*
X22105000Y-8815000D01*
X22105000Y-8795000D02*
X22085000Y-8815000D01*
X22190000Y-8585000D02*
X22210000Y-8605000D01*
X22210000Y-8585000D02*
X22190000Y-8605000D01*
X22190000Y-8690000D02*
X22210000Y-8710000D01*
X22210000Y-8690000D02*
X22190000Y-8710000D01*
X22190000Y-8795000D02*
X22210000Y-8815000D01*
X22210000Y-8795000D02*
X22190000Y-8815000D01*
X22295000Y-8585000D02*
X22315000Y-8605000D01*
X22315000Y-8585000D02*
X22295000Y-8605000D01*
X22295000Y-8690000D02*
X22315000Y-8710000D01*
X22315000Y-8690000D02*
X22295000Y-8710000D01*
X22295000Y-8795000D02*
X22315000Y-8815000D01*
X22315000Y-8795000D02*
X22295000Y-8815000D01*
X23140000Y-8600000D02*
G75*
G03*
X23140000Y-8600000I-15000J0D01*
G01*
X23140000Y-8700000D02*
G75*
G03*
X23140000Y-8700000I-15000J0D01*
G01*
X23215000Y-8650000D02*
G75*
G03*
X23215000Y-8650000I-15000J0D01*
G01*
X23290000Y-8600000D02*
G75*
G03*
X23290000Y-8600000I-15000J0D01*
G01*
X23290000Y-8700000D02*
G75*
G03*
X23290000Y-8700000I-15000J0D01*
G01*
X21155000Y-8055000D02*
X21155000Y-8095000D01*
X21135000Y-8075000D02*
X21175000Y-8075000D01*
X21174000Y-8939000D02*
X21174000Y-8979000D01*
X21154000Y-8959000D02*
X21194000Y-8959000D01*
X21180750Y-8598250D02*
X21180750Y-8638250D01*
X21160750Y-8618250D02*
X21200750Y-8618250D01*
X21340000Y-9430000D02*
X21340000Y-9470000D01*
X21320000Y-9450000D02*
X21360000Y-9450000D01*
X21440000Y-8040000D02*
X21440000Y-8080000D01*
X21420000Y-8060000D02*
X21460000Y-8060000D01*
X21545000Y-8605000D02*
X21545000Y-8645000D01*
X21525000Y-8625000D02*
X21565000Y-8625000D01*
X21660000Y-8350000D02*
X21660000Y-8390000D01*
X21640000Y-8370000D02*
X21680000Y-8370000D01*
X21672500Y-8975000D02*
X21672500Y-9015000D01*
X21652500Y-8995000D02*
X21692500Y-8995000D01*
X21891000Y-8828000D02*
X21891000Y-8868000D01*
X21871000Y-8848000D02*
X21911000Y-8848000D01*
X21964250Y-9215750D02*
X21964250Y-9255750D01*
X21944250Y-9235750D02*
X21984250Y-9235750D01*
X21973651Y-8286349D02*
X21973651Y-8326349D01*
X21953651Y-8306349D02*
X21993651Y-8306349D01*
X21980000Y-8990000D02*
X21980000Y-9030000D01*
X21960000Y-9010000D02*
X22000000Y-9010000D01*
X22131000Y-8273000D02*
X22131000Y-8313000D01*
X22111000Y-8293000D02*
X22151000Y-8293000D01*
X22140000Y-9880000D02*
X22140000Y-9920000D01*
X22120000Y-9900000D02*
X22160000Y-9900000D01*
X22172000Y-8995000D02*
X22172000Y-9035000D01*
X22152000Y-9015000D02*
X22192000Y-9015000D01*
X22177000Y-9452000D02*
X22177000Y-9492000D01*
X22157000Y-9472000D02*
X22197000Y-9472000D01*
X22252000Y-9627000D02*
X22252000Y-9667000D01*
X22232000Y-9647000D02*
X22272000Y-9647000D01*
X22270000Y-8005000D02*
X22270000Y-8045000D01*
X22250000Y-8025000D02*
X22290000Y-8025000D01*
X22287000Y-9331000D02*
X22287000Y-9371000D01*
X22267000Y-9351000D02*
X22307000Y-9351000D01*
X22337500Y-9969500D02*
X22337500Y-10009500D01*
X22317500Y-9989500D02*
X22357500Y-9989500D01*
X22382000Y-8993000D02*
X22382000Y-9033000D01*
X22362000Y-9013000D02*
X22402000Y-9013000D01*
X22390000Y-9762000D02*
X22390000Y-9802000D01*
X22370000Y-9782000D02*
X22410000Y-9782000D01*
X22515000Y-8555000D02*
X22515000Y-8595000D01*
X22495000Y-8575000D02*
X22535000Y-8575000D01*
X22536000Y-8705000D02*
X22536000Y-8745000D01*
X22516000Y-8725000D02*
X22556000Y-8725000D01*
X22673000Y-7883000D02*
X22673000Y-7923000D01*
X22653000Y-7903000D02*
X22693000Y-7903000D01*
X22701500Y-9118500D02*
X22701500Y-9158500D01*
X22681500Y-9138500D02*
X22721500Y-9138500D01*
X22930000Y-8729000D02*
X22930000Y-8769000D01*
X22910000Y-8749000D02*
X22950000Y-8749000D01*
X23011000Y-8476000D02*
X23011000Y-8516000D01*
X22991000Y-8496000D02*
X23031000Y-8496000D01*
X23145000Y-9910000D02*
X23145000Y-9950000D01*
X23125000Y-9930000D02*
X23165000Y-9930000D01*
X23150000Y-8896000D02*
X23150000Y-8936000D01*
X23130000Y-8916000D02*
X23170000Y-8916000D01*
X23275000Y-8310000D02*
X23275000Y-8350000D01*
X23255000Y-8330000D02*
X23295000Y-8330000D01*
X23317500Y-8917500D02*
X23317500Y-8957500D01*
X23297500Y-8937500D02*
X23337500Y-8937500D01*
X23380000Y-8250000D02*
X23380000Y-8290000D01*
X23360000Y-8270000D02*
X23400000Y-8270000D01*
X23469000Y-8898000D02*
X23469000Y-8938000D01*
X23449000Y-8918000D02*
X23489000Y-8918000D01*
X23475000Y-8686000D02*
X23475000Y-8726000D01*
X23455000Y-8706000D02*
X23495000Y-8706000D01*
X23537000Y-8565000D02*
X23537000Y-8605000D01*
X23517000Y-8585000D02*
X23557000Y-8585000D01*
X23704000Y-8047000D02*
X23704000Y-8087000D01*
X23684000Y-8067000D02*
X23724000Y-8067000D01*
X23709500Y-8906500D02*
X23709500Y-8946500D01*
X23689500Y-8926500D02*
X23729500Y-8926500D01*
X23837500Y-8292500D02*
X23837500Y-8332500D01*
X23817500Y-8312500D02*
X23857500Y-8312500D01*
X23941000Y-9560000D02*
X23941000Y-9600000D01*
X23921000Y-9580000D02*
X23961000Y-9580000D01*
X23960000Y-8292500D02*
X23960000Y-8332500D01*
X23940000Y-8312500D02*
X23980000Y-8312500D01*
X24080000Y-8464000D02*
X24080000Y-8504000D01*
X24060000Y-8484000D02*
X24100000Y-8484000D01*
X24085000Y-7856000D02*
X24085000Y-7896000D01*
X24065000Y-7876000D02*
X24105000Y-7876000D01*
X24090500Y-9046500D02*
X24090500Y-9086500D01*
X24070500Y-9066500D02*
X24110500Y-9066500D01*
X24276000Y-8910000D02*
X24276000Y-8950000D01*
X24256000Y-8930000D02*
X24296000Y-8930000D01*
X24276000Y-9057000D02*
X24276000Y-9097000D01*
X24256000Y-9077000D02*
X24296000Y-9077000D01*
X24337500Y-7660500D02*
X24337500Y-7700500D01*
X24317500Y-7680500D02*
X24357500Y-7680500D01*
X24403000Y-8572000D02*
X24403000Y-8612000D01*
X24383000Y-8592000D02*
X24423000Y-8592000D01*
X24475500Y-8194500D02*
X24475500Y-8234500D01*
X24455500Y-8214500D02*
X24495500Y-8214500D01*
X24587000Y-7641000D02*
X24587000Y-7681000D01*
X24567000Y-7661000D02*
X24607000Y-7661000D01*
X24588000Y-7738000D02*
X24588000Y-7778000D01*
X24568000Y-7758000D02*
X24608000Y-7758000D01*
X24590000Y-8385000D02*
X24590000Y-8425000D01*
X24570000Y-8405000D02*
X24610000Y-8405000D01*
X24590500Y-8275000D02*
X24590500Y-8315000D01*
X24570500Y-8295000D02*
X24610500Y-8295000D01*
X24718000Y-7628000D02*
X24718000Y-7668000D01*
X24698000Y-7648000D02*
X24738000Y-7648000D01*
X24799000Y-7524000D02*
X24799000Y-7564000D01*
X24779000Y-7544000D02*
X24819000Y-7544000D01*
X24802000Y-9228000D02*
X24802000Y-9268000D01*
X24782000Y-9248000D02*
X24822000Y-9248000D01*
X25590000Y-9370000D02*
X25590000Y-9410000D01*
X25570000Y-9390000D02*
X25610000Y-9390000D01*
X25595000Y-9010000D02*
X25595000Y-9050000D01*
X25575000Y-9030000D02*
X25615000Y-9030000D01*
X21388389Y-7488389D02*
X21388389Y-7311611D01*
X21211611Y-7311611D01*
X21211611Y-7488389D01*
X21388389Y-7488389D01*
X21388389Y-10688389D02*
X21388389Y-10511611D01*
X21211611Y-10511611D01*
X21211611Y-10688389D01*
X21388389Y-10688389D01*
X25588389Y-7488389D02*
X25588389Y-7311611D01*
X25411611Y-7311611D01*
X25411611Y-7488389D01*
X25588389Y-7488389D01*
X25588389Y-10688389D02*
X25588389Y-10511611D01*
X25411611Y-10511611D01*
X25411611Y-10688389D01*
X25588389Y-10688389D01*
D12*
X21181428Y-11470714D02*
X21181428Y-11170714D01*
X21252857Y-11170714D01*
X21295714Y-11185000D01*
X21324286Y-11213571D01*
X21338571Y-11242143D01*
X21352857Y-11299286D01*
X21352857Y-11342143D01*
X21338571Y-11399286D01*
X21324286Y-11427857D01*
X21295714Y-11456429D01*
X21252857Y-11470714D01*
X21181428Y-11470714D01*
X21481428Y-11470714D02*
X21481428Y-11270714D01*
X21481428Y-11327857D02*
X21495714Y-11299286D01*
X21510000Y-11285000D01*
X21538571Y-11270714D01*
X21567143Y-11270714D01*
X21667143Y-11470714D02*
X21667143Y-11270714D01*
X21667143Y-11170714D02*
X21652857Y-11185000D01*
X21667143Y-11199286D01*
X21681428Y-11185000D01*
X21667143Y-11170714D01*
X21667143Y-11199286D01*
X21852857Y-11470714D02*
X21824286Y-11456429D01*
X21810000Y-11427857D01*
X21810000Y-11170714D01*
X22010000Y-11470714D02*
X21981428Y-11456429D01*
X21967143Y-11427857D01*
X21967143Y-11170714D01*
X22352857Y-11470714D02*
X22352857Y-11170714D01*
X22452857Y-11385000D01*
X22552857Y-11170714D01*
X22552857Y-11470714D01*
X22824286Y-11470714D02*
X22824286Y-11313571D01*
X22810000Y-11285000D01*
X22781428Y-11270714D01*
X22724286Y-11270714D01*
X22695714Y-11285000D01*
X22824286Y-11456429D02*
X22795714Y-11470714D01*
X22724286Y-11470714D01*
X22695714Y-11456429D01*
X22681428Y-11427857D01*
X22681428Y-11399286D01*
X22695714Y-11370714D01*
X22724286Y-11356429D01*
X22795714Y-11356429D01*
X22824286Y-11342143D01*
X22967143Y-11270714D02*
X22967143Y-11570714D01*
X22967143Y-11285000D02*
X22995714Y-11270714D01*
X23052857Y-11270714D01*
X23081428Y-11285000D01*
X23095714Y-11299286D01*
X23110000Y-11327857D01*
X23110000Y-11413571D01*
X23095714Y-11442143D01*
X23081428Y-11456429D01*
X23052857Y-11470714D01*
X22995714Y-11470714D01*
X22967143Y-11456429D01*
X23238571Y-11442143D02*
X23252857Y-11456429D01*
X23238571Y-11470714D01*
X23224286Y-11456429D01*
X23238571Y-11442143D01*
X23238571Y-11470714D01*
X23238571Y-11285000D02*
X23252857Y-11299286D01*
X23238571Y-11313571D01*
X23224286Y-11299286D01*
X23238571Y-11285000D01*
X23238571Y-11313571D01*
X20875000Y-11955000D02*
X20895000Y-11975000D01*
X20895000Y-11955000D02*
X20875000Y-11975000D01*
X21238571Y-11800714D02*
X21267143Y-11800714D01*
X21295714Y-11815000D01*
X21310000Y-11829286D01*
X21324286Y-11857857D01*
X21338571Y-11915000D01*
X21338571Y-11986429D01*
X21324286Y-12043571D01*
X21310000Y-12072143D01*
X21295714Y-12086429D01*
X21267143Y-12100714D01*
X21238571Y-12100714D01*
X21210000Y-12086429D01*
X21195714Y-12072143D01*
X21181428Y-12043571D01*
X21167143Y-11986429D01*
X21167143Y-11915000D01*
X21181428Y-11857857D01*
X21195714Y-11829286D01*
X21210000Y-11815000D01*
X21238571Y-11800714D01*
X21467143Y-12072143D02*
X21481428Y-12086429D01*
X21467143Y-12100714D01*
X21452857Y-12086429D01*
X21467143Y-12072143D01*
X21467143Y-12100714D01*
X21595714Y-11829286D02*
X21610000Y-11815000D01*
X21638571Y-11800714D01*
X21710000Y-11800714D01*
X21738571Y-11815000D01*
X21752857Y-11829286D01*
X21767143Y-11857857D01*
X21767143Y-11886429D01*
X21752857Y-11929286D01*
X21581428Y-12100714D01*
X21767143Y-12100714D01*
X21952857Y-11800714D02*
X21981428Y-11800714D01*
X22010000Y-11815000D01*
X22024286Y-11829286D01*
X22038571Y-11857857D01*
X22052857Y-11915000D01*
X22052857Y-11986429D01*
X22038571Y-12043571D01*
X22024286Y-12072143D01*
X22010000Y-12086429D01*
X21981428Y-12100714D01*
X21952857Y-12100714D01*
X21924286Y-12086429D01*
X21910000Y-12072143D01*
X21895714Y-12043571D01*
X21881428Y-11986429D01*
X21881428Y-11915000D01*
X21895714Y-11857857D01*
X21910000Y-11829286D01*
X21924286Y-11815000D01*
X21952857Y-11800714D01*
X22238571Y-11800714D02*
X22267143Y-11800714D01*
X22295714Y-11815000D01*
X22310000Y-11829286D01*
X22324286Y-11857857D01*
X22338571Y-11915000D01*
X22338571Y-11986429D01*
X22324286Y-12043571D01*
X22310000Y-12072143D01*
X22295714Y-12086429D01*
X22267143Y-12100714D01*
X22238571Y-12100714D01*
X22210000Y-12086429D01*
X22195714Y-12072143D01*
X22181428Y-12043571D01*
X22167143Y-11986429D01*
X22167143Y-11915000D01*
X22181428Y-11857857D01*
X22195714Y-11829286D01*
X22210000Y-11815000D01*
X22238571Y-11800714D01*
X22467143Y-12100714D02*
X22467143Y-11900714D01*
X22467143Y-11929286D02*
X22481428Y-11915000D01*
X22510000Y-11900714D01*
X22552857Y-11900714D01*
X22581428Y-11915000D01*
X22595714Y-11943571D01*
X22595714Y-12100714D01*
X22595714Y-11943571D02*
X22610000Y-11915000D01*
X22638571Y-11900714D01*
X22681428Y-11900714D01*
X22710000Y-11915000D01*
X22724286Y-11943571D01*
X22724286Y-12100714D01*
X22867143Y-12100714D02*
X22867143Y-11900714D01*
X22867143Y-11929286D02*
X22881428Y-11915000D01*
X22910000Y-11900714D01*
X22952857Y-11900714D01*
X22981428Y-11915000D01*
X22995714Y-11943571D01*
X22995714Y-12100714D01*
X22995714Y-11943571D02*
X23010000Y-11915000D01*
X23038571Y-11900714D01*
X23081428Y-11900714D01*
X23110000Y-11915000D01*
X23124286Y-11943571D01*
X23124286Y-12100714D01*
X23710000Y-11786429D02*
X23452857Y-12172143D01*
X24095714Y-11800714D02*
X24124286Y-11800714D01*
X24152857Y-11815000D01*
X24167143Y-11829286D01*
X24181428Y-11857857D01*
X24195714Y-11915000D01*
X24195714Y-11986429D01*
X24181428Y-12043571D01*
X24167143Y-12072143D01*
X24152857Y-12086429D01*
X24124286Y-12100714D01*
X24095714Y-12100714D01*
X24067143Y-12086429D01*
X24052857Y-12072143D01*
X24038571Y-12043571D01*
X24024286Y-11986429D01*
X24024286Y-11915000D01*
X24038571Y-11857857D01*
X24052857Y-11829286D01*
X24067143Y-11815000D01*
X24095714Y-11800714D01*
X24324286Y-12072143D02*
X24338571Y-12086429D01*
X24324286Y-12100714D01*
X24310000Y-12086429D01*
X24324286Y-12072143D01*
X24324286Y-12100714D01*
X24524286Y-11800714D02*
X24552857Y-11800714D01*
X24581428Y-11815000D01*
X24595714Y-11829286D01*
X24610000Y-11857857D01*
X24624286Y-11915000D01*
X24624286Y-11986429D01*
X24610000Y-12043571D01*
X24595714Y-12072143D01*
X24581428Y-12086429D01*
X24552857Y-12100714D01*
X24524286Y-12100714D01*
X24495714Y-12086429D01*
X24481428Y-12072143D01*
X24467143Y-12043571D01*
X24452857Y-11986429D01*
X24452857Y-11915000D01*
X24467143Y-11857857D01*
X24481428Y-11829286D01*
X24495714Y-11815000D01*
X24524286Y-11800714D01*
X24810000Y-11800714D02*
X24838571Y-11800714D01*
X24867143Y-11815000D01*
X24881428Y-11829286D01*
X24895714Y-11857857D01*
X24910000Y-11915000D01*
X24910000Y-11986429D01*
X24895714Y-12043571D01*
X24881428Y-12072143D01*
X24867143Y-12086429D01*
X24838571Y-12100714D01*
X24810000Y-12100714D01*
X24781428Y-12086429D01*
X24767143Y-12072143D01*
X24752857Y-12043571D01*
X24738571Y-11986429D01*
X24738571Y-11915000D01*
X24752857Y-11857857D01*
X24767143Y-11829286D01*
X24781428Y-11815000D01*
X24810000Y-11800714D01*
X25010000Y-11800714D02*
X25210000Y-11800714D01*
X25081428Y-12100714D01*
X25338571Y-12100714D02*
X25395714Y-12100714D01*
X25424286Y-12086429D01*
X25438571Y-12072143D01*
X25467143Y-12029286D01*
X25481428Y-11972143D01*
X25481428Y-11857857D01*
X25467143Y-11829286D01*
X25452857Y-11815000D01*
X25424286Y-11800714D01*
X25367143Y-11800714D01*
X25338571Y-11815000D01*
X25324286Y-11829286D01*
X25310000Y-11857857D01*
X25310000Y-11929286D01*
X25324286Y-11957857D01*
X25338571Y-11972143D01*
X25367143Y-11986429D01*
X25424286Y-11986429D01*
X25452857Y-11972143D01*
X25467143Y-11957857D01*
X25481428Y-11929286D01*
X25595714Y-11800714D02*
X25595714Y-11857857D01*
X25710000Y-11800714D02*
X25710000Y-11857857D01*
X26152857Y-12215000D02*
X26138571Y-12200714D01*
X26110000Y-12157857D01*
X26095714Y-12129286D01*
X26081428Y-12086429D01*
X26067143Y-12015000D01*
X26067143Y-11957857D01*
X26081428Y-11886429D01*
X26095714Y-11843571D01*
X26110000Y-11815000D01*
X26138571Y-11772143D01*
X26152857Y-11757857D01*
X26281428Y-12100714D02*
X26338571Y-12100714D01*
X26367143Y-12086429D01*
X26381428Y-12072143D01*
X26410000Y-12029286D01*
X26424286Y-11972143D01*
X26424286Y-11857857D01*
X26410000Y-11829286D01*
X26395714Y-11815000D01*
X26367143Y-11800714D01*
X26310000Y-11800714D01*
X26281428Y-11815000D01*
X26267143Y-11829286D01*
X26252857Y-11857857D01*
X26252857Y-11929286D01*
X26267143Y-11957857D01*
X26281428Y-11972143D01*
X26310000Y-11986429D01*
X26367143Y-11986429D01*
X26395714Y-11972143D01*
X26410000Y-11957857D01*
X26424286Y-11929286D01*
X26781428Y-12100714D02*
X26781428Y-11800714D01*
X26910000Y-12100714D02*
X26910000Y-11943571D01*
X26895714Y-11915000D01*
X26867143Y-11900714D01*
X26824286Y-11900714D01*
X26795714Y-11915000D01*
X26781428Y-11929286D01*
X27095714Y-12100714D02*
X27067143Y-12086429D01*
X27052857Y-12072143D01*
X27038571Y-12043571D01*
X27038571Y-11957857D01*
X27052857Y-11929286D01*
X27067143Y-11915000D01*
X27095714Y-11900714D01*
X27138571Y-11900714D01*
X27167143Y-11915000D01*
X27181428Y-11929286D01*
X27195714Y-11957857D01*
X27195714Y-12043571D01*
X27181428Y-12072143D01*
X27167143Y-12086429D01*
X27138571Y-12100714D01*
X27095714Y-12100714D01*
X27367143Y-12100714D02*
X27338571Y-12086429D01*
X27324286Y-12057857D01*
X27324286Y-11800714D01*
X27595714Y-12086429D02*
X27567143Y-12100714D01*
X27510000Y-12100714D01*
X27481428Y-12086429D01*
X27467143Y-12057857D01*
X27467143Y-11943571D01*
X27481428Y-11915000D01*
X27510000Y-11900714D01*
X27567143Y-11900714D01*
X27595714Y-11915000D01*
X27610000Y-11943571D01*
X27610000Y-11972143D01*
X27467143Y-12000714D01*
X27724286Y-12086429D02*
X27752857Y-12100714D01*
X27810000Y-12100714D01*
X27838571Y-12086429D01*
X27852857Y-12057857D01*
X27852857Y-12043571D01*
X27838571Y-12015000D01*
X27810000Y-12000714D01*
X27767143Y-12000714D01*
X27738571Y-11986429D01*
X27724286Y-11957857D01*
X27724286Y-11943571D01*
X27738571Y-11915000D01*
X27767143Y-11900714D01*
X27810000Y-11900714D01*
X27838571Y-11915000D01*
X27952857Y-12215000D02*
X27967143Y-12200714D01*
X27995714Y-12157857D01*
X28010000Y-12129286D01*
X28024286Y-12086429D01*
X28038571Y-12015000D01*
X28038571Y-11957857D01*
X28024286Y-11886429D01*
X28010000Y-11843571D01*
X27995714Y-11815000D01*
X27967143Y-11772143D01*
X27952857Y-11757857D01*
X20895000Y-12361000D02*
G75*
G03*
X20895000Y-12361000I-15000J0D01*
G01*
X21238571Y-12196714D02*
X21267143Y-12196714D01*
X21295714Y-12211000D01*
X21310000Y-12225286D01*
X21324286Y-12253857D01*
X21338571Y-12311000D01*
X21338571Y-12382429D01*
X21324286Y-12439571D01*
X21310000Y-12468143D01*
X21295714Y-12482429D01*
X21267143Y-12496714D01*
X21238571Y-12496714D01*
X21210000Y-12482429D01*
X21195714Y-12468143D01*
X21181428Y-12439571D01*
X21167143Y-12382429D01*
X21167143Y-12311000D01*
X21181428Y-12253857D01*
X21195714Y-12225286D01*
X21210000Y-12211000D01*
X21238571Y-12196714D01*
X21467143Y-12468143D02*
X21481428Y-12482429D01*
X21467143Y-12496714D01*
X21452857Y-12482429D01*
X21467143Y-12468143D01*
X21467143Y-12496714D01*
X21581428Y-12196714D02*
X21767143Y-12196714D01*
X21667143Y-12311000D01*
X21710000Y-12311000D01*
X21738571Y-12325286D01*
X21752857Y-12339571D01*
X21767143Y-12368143D01*
X21767143Y-12439571D01*
X21752857Y-12468143D01*
X21738571Y-12482429D01*
X21710000Y-12496714D01*
X21624286Y-12496714D01*
X21595714Y-12482429D01*
X21581428Y-12468143D01*
X21952857Y-12196714D02*
X21981428Y-12196714D01*
X22010000Y-12211000D01*
X22024286Y-12225286D01*
X22038571Y-12253857D01*
X22052857Y-12311000D01*
X22052857Y-12382429D01*
X22038571Y-12439571D01*
X22024286Y-12468143D01*
X22010000Y-12482429D01*
X21981428Y-12496714D01*
X21952857Y-12496714D01*
X21924286Y-12482429D01*
X21910000Y-12468143D01*
X21895714Y-12439571D01*
X21881428Y-12382429D01*
X21881428Y-12311000D01*
X21895714Y-12253857D01*
X21910000Y-12225286D01*
X21924286Y-12211000D01*
X21952857Y-12196714D01*
X22238571Y-12196714D02*
X22267143Y-12196714D01*
X22295714Y-12211000D01*
X22310000Y-12225286D01*
X22324286Y-12253857D01*
X22338571Y-12311000D01*
X22338571Y-12382429D01*
X22324286Y-12439571D01*
X22310000Y-12468143D01*
X22295714Y-12482429D01*
X22267143Y-12496714D01*
X22238571Y-12496714D01*
X22210000Y-12482429D01*
X22195714Y-12468143D01*
X22181428Y-12439571D01*
X22167143Y-12382429D01*
X22167143Y-12311000D01*
X22181428Y-12253857D01*
X22195714Y-12225286D01*
X22210000Y-12211000D01*
X22238571Y-12196714D01*
X22467143Y-12496714D02*
X22467143Y-12296714D01*
X22467143Y-12325286D02*
X22481428Y-12311000D01*
X22510000Y-12296714D01*
X22552857Y-12296714D01*
X22581428Y-12311000D01*
X22595714Y-12339571D01*
X22595714Y-12496714D01*
X22595714Y-12339571D02*
X22610000Y-12311000D01*
X22638571Y-12296714D01*
X22681428Y-12296714D01*
X22710000Y-12311000D01*
X22724286Y-12339571D01*
X22724286Y-12496714D01*
X22867143Y-12496714D02*
X22867143Y-12296714D01*
X22867143Y-12325286D02*
X22881428Y-12311000D01*
X22910000Y-12296714D01*
X22952857Y-12296714D01*
X22981428Y-12311000D01*
X22995714Y-12339571D01*
X22995714Y-12496714D01*
X22995714Y-12339571D02*
X23010000Y-12311000D01*
X23038571Y-12296714D01*
X23081428Y-12296714D01*
X23110000Y-12311000D01*
X23124286Y-12339571D01*
X23124286Y-12496714D01*
X23710000Y-12182429D02*
X23452857Y-12568143D01*
X24095714Y-12196714D02*
X24124286Y-12196714D01*
X24152857Y-12211000D01*
X24167143Y-12225286D01*
X24181428Y-12253857D01*
X24195714Y-12311000D01*
X24195714Y-12382429D01*
X24181428Y-12439571D01*
X24167143Y-12468143D01*
X24152857Y-12482429D01*
X24124286Y-12496714D01*
X24095714Y-12496714D01*
X24067143Y-12482429D01*
X24052857Y-12468143D01*
X24038571Y-12439571D01*
X24024286Y-12382429D01*
X24024286Y-12311000D01*
X24038571Y-12253857D01*
X24052857Y-12225286D01*
X24067143Y-12211000D01*
X24095714Y-12196714D01*
X24324286Y-12468143D02*
X24338571Y-12482429D01*
X24324286Y-12496714D01*
X24310000Y-12482429D01*
X24324286Y-12468143D01*
X24324286Y-12496714D01*
X24524286Y-12196714D02*
X24552857Y-12196714D01*
X24581428Y-12211000D01*
X24595714Y-12225286D01*
X24610000Y-12253857D01*
X24624286Y-12311000D01*
X24624286Y-12382429D01*
X24610000Y-12439571D01*
X24595714Y-12468143D01*
X24581428Y-12482429D01*
X24552857Y-12496714D01*
X24524286Y-12496714D01*
X24495714Y-12482429D01*
X24481428Y-12468143D01*
X24467143Y-12439571D01*
X24452857Y-12382429D01*
X24452857Y-12311000D01*
X24467143Y-12253857D01*
X24481428Y-12225286D01*
X24495714Y-12211000D01*
X24524286Y-12196714D01*
X24910000Y-12496714D02*
X24738571Y-12496714D01*
X24824286Y-12496714D02*
X24824286Y-12196714D01*
X24795714Y-12239571D01*
X24767143Y-12268143D01*
X24738571Y-12282429D01*
X25195714Y-12496714D02*
X25024286Y-12496714D01*
X25110000Y-12496714D02*
X25110000Y-12196714D01*
X25081428Y-12239571D01*
X25052857Y-12268143D01*
X25024286Y-12282429D01*
X25367143Y-12325286D02*
X25338571Y-12311000D01*
X25324286Y-12296714D01*
X25310000Y-12268143D01*
X25310000Y-12253857D01*
X25324286Y-12225286D01*
X25338571Y-12211000D01*
X25367143Y-12196714D01*
X25424286Y-12196714D01*
X25452857Y-12211000D01*
X25467143Y-12225286D01*
X25481428Y-12253857D01*
X25481428Y-12268143D01*
X25467143Y-12296714D01*
X25452857Y-12311000D01*
X25424286Y-12325286D01*
X25367143Y-12325286D01*
X25338571Y-12339571D01*
X25324286Y-12353857D01*
X25310000Y-12382429D01*
X25310000Y-12439571D01*
X25324286Y-12468143D01*
X25338571Y-12482429D01*
X25367143Y-12496714D01*
X25424286Y-12496714D01*
X25452857Y-12482429D01*
X25467143Y-12468143D01*
X25481428Y-12439571D01*
X25481428Y-12382429D01*
X25467143Y-12353857D01*
X25452857Y-12339571D01*
X25424286Y-12325286D01*
X25595714Y-12196714D02*
X25595714Y-12253857D01*
X25710000Y-12196714D02*
X25710000Y-12253857D01*
X26152857Y-12611000D02*
X26138571Y-12596714D01*
X26110000Y-12553857D01*
X26095714Y-12525286D01*
X26081428Y-12482429D01*
X26067143Y-12411000D01*
X26067143Y-12353857D01*
X26081428Y-12282429D01*
X26095714Y-12239571D01*
X26110000Y-12211000D01*
X26138571Y-12168143D01*
X26152857Y-12153857D01*
X26410000Y-12196714D02*
X26267143Y-12196714D01*
X26252857Y-12339571D01*
X26267143Y-12325286D01*
X26295714Y-12311000D01*
X26367143Y-12311000D01*
X26395714Y-12325286D01*
X26410000Y-12339571D01*
X26424286Y-12368143D01*
X26424286Y-12439571D01*
X26410000Y-12468143D01*
X26395714Y-12482429D01*
X26367143Y-12496714D01*
X26295714Y-12496714D01*
X26267143Y-12482429D01*
X26252857Y-12468143D01*
X26781428Y-12496714D02*
X26781428Y-12196714D01*
X26910000Y-12496714D02*
X26910000Y-12339571D01*
X26895714Y-12311000D01*
X26867143Y-12296714D01*
X26824286Y-12296714D01*
X26795714Y-12311000D01*
X26781428Y-12325286D01*
X27095714Y-12496714D02*
X27067143Y-12482429D01*
X27052857Y-12468143D01*
X27038571Y-12439571D01*
X27038571Y-12353857D01*
X27052857Y-12325286D01*
X27067143Y-12311000D01*
X27095714Y-12296714D01*
X27138571Y-12296714D01*
X27167143Y-12311000D01*
X27181428Y-12325286D01*
X27195714Y-12353857D01*
X27195714Y-12439571D01*
X27181428Y-12468143D01*
X27167143Y-12482429D01*
X27138571Y-12496714D01*
X27095714Y-12496714D01*
X27367143Y-12496714D02*
X27338571Y-12482429D01*
X27324286Y-12453857D01*
X27324286Y-12196714D01*
X27595714Y-12482429D02*
X27567143Y-12496714D01*
X27510000Y-12496714D01*
X27481428Y-12482429D01*
X27467143Y-12453857D01*
X27467143Y-12339571D01*
X27481428Y-12311000D01*
X27510000Y-12296714D01*
X27567143Y-12296714D01*
X27595714Y-12311000D01*
X27610000Y-12339571D01*
X27610000Y-12368143D01*
X27467143Y-12396714D01*
X27724286Y-12482429D02*
X27752857Y-12496714D01*
X27810000Y-12496714D01*
X27838571Y-12482429D01*
X27852857Y-12453857D01*
X27852857Y-12439571D01*
X27838571Y-12411000D01*
X27810000Y-12396714D01*
X27767143Y-12396714D01*
X27738571Y-12382429D01*
X27724286Y-12353857D01*
X27724286Y-12339571D01*
X27738571Y-12311000D01*
X27767143Y-12296714D01*
X27810000Y-12296714D01*
X27838571Y-12311000D01*
X27952857Y-12611000D02*
X27967143Y-12596714D01*
X27995714Y-12553857D01*
X28010000Y-12525286D01*
X28024286Y-12482429D01*
X28038571Y-12411000D01*
X28038571Y-12353857D01*
X28024286Y-12282429D01*
X28010000Y-12239571D01*
X27995714Y-12211000D01*
X27967143Y-12168143D01*
X27952857Y-12153857D01*
X20875000Y-12737000D02*
X20875000Y-12777000D01*
X20855000Y-12757000D02*
X20895000Y-12757000D01*
X21238571Y-12592714D02*
X21267143Y-12592714D01*
X21295714Y-12607000D01*
X21310000Y-12621286D01*
X21324286Y-12649857D01*
X21338571Y-12707000D01*
X21338571Y-12778429D01*
X21324286Y-12835571D01*
X21310000Y-12864143D01*
X21295714Y-12878429D01*
X21267143Y-12892714D01*
X21238571Y-12892714D01*
X21210000Y-12878429D01*
X21195714Y-12864143D01*
X21181428Y-12835571D01*
X21167143Y-12778429D01*
X21167143Y-12707000D01*
X21181428Y-12649857D01*
X21195714Y-12621286D01*
X21210000Y-12607000D01*
X21238571Y-12592714D01*
X21467143Y-12864143D02*
X21481428Y-12878429D01*
X21467143Y-12892714D01*
X21452857Y-12878429D01*
X21467143Y-12864143D01*
X21467143Y-12892714D01*
X21738571Y-12692714D02*
X21738571Y-12892714D01*
X21667143Y-12578429D02*
X21595714Y-12792714D01*
X21781428Y-12792714D01*
X21952857Y-12592714D02*
X21981428Y-12592714D01*
X22010000Y-12607000D01*
X22024286Y-12621286D01*
X22038571Y-12649857D01*
X22052857Y-12707000D01*
X22052857Y-12778429D01*
X22038571Y-12835571D01*
X22024286Y-12864143D01*
X22010000Y-12878429D01*
X21981428Y-12892714D01*
X21952857Y-12892714D01*
X21924286Y-12878429D01*
X21910000Y-12864143D01*
X21895714Y-12835571D01*
X21881428Y-12778429D01*
X21881428Y-12707000D01*
X21895714Y-12649857D01*
X21910000Y-12621286D01*
X21924286Y-12607000D01*
X21952857Y-12592714D01*
X22238571Y-12592714D02*
X22267143Y-12592714D01*
X22295714Y-12607000D01*
X22310000Y-12621286D01*
X22324286Y-12649857D01*
X22338571Y-12707000D01*
X22338571Y-12778429D01*
X22324286Y-12835571D01*
X22310000Y-12864143D01*
X22295714Y-12878429D01*
X22267143Y-12892714D01*
X22238571Y-12892714D01*
X22210000Y-12878429D01*
X22195714Y-12864143D01*
X22181428Y-12835571D01*
X22167143Y-12778429D01*
X22167143Y-12707000D01*
X22181428Y-12649857D01*
X22195714Y-12621286D01*
X22210000Y-12607000D01*
X22238571Y-12592714D01*
X22467143Y-12892714D02*
X22467143Y-12692714D01*
X22467143Y-12721286D02*
X22481428Y-12707000D01*
X22510000Y-12692714D01*
X22552857Y-12692714D01*
X22581428Y-12707000D01*
X22595714Y-12735571D01*
X22595714Y-12892714D01*
X22595714Y-12735571D02*
X22610000Y-12707000D01*
X22638571Y-12692714D01*
X22681428Y-12692714D01*
X22710000Y-12707000D01*
X22724286Y-12735571D01*
X22724286Y-12892714D01*
X22867143Y-12892714D02*
X22867143Y-12692714D01*
X22867143Y-12721286D02*
X22881428Y-12707000D01*
X22910000Y-12692714D01*
X22952857Y-12692714D01*
X22981428Y-12707000D01*
X22995714Y-12735571D01*
X22995714Y-12892714D01*
X22995714Y-12735571D02*
X23010000Y-12707000D01*
X23038571Y-12692714D01*
X23081428Y-12692714D01*
X23110000Y-12707000D01*
X23124286Y-12735571D01*
X23124286Y-12892714D01*
X23710000Y-12578429D02*
X23452857Y-12964143D01*
X24095714Y-12592714D02*
X24124286Y-12592714D01*
X24152857Y-12607000D01*
X24167143Y-12621286D01*
X24181428Y-12649857D01*
X24195714Y-12707000D01*
X24195714Y-12778429D01*
X24181428Y-12835571D01*
X24167143Y-12864143D01*
X24152857Y-12878429D01*
X24124286Y-12892714D01*
X24095714Y-12892714D01*
X24067143Y-12878429D01*
X24052857Y-12864143D01*
X24038571Y-12835571D01*
X24024286Y-12778429D01*
X24024286Y-12707000D01*
X24038571Y-12649857D01*
X24052857Y-12621286D01*
X24067143Y-12607000D01*
X24095714Y-12592714D01*
X24324286Y-12864143D02*
X24338571Y-12878429D01*
X24324286Y-12892714D01*
X24310000Y-12878429D01*
X24324286Y-12864143D01*
X24324286Y-12892714D01*
X24524286Y-12592714D02*
X24552857Y-12592714D01*
X24581428Y-12607000D01*
X24595714Y-12621286D01*
X24610000Y-12649857D01*
X24624286Y-12707000D01*
X24624286Y-12778429D01*
X24610000Y-12835571D01*
X24595714Y-12864143D01*
X24581428Y-12878429D01*
X24552857Y-12892714D01*
X24524286Y-12892714D01*
X24495714Y-12878429D01*
X24481428Y-12864143D01*
X24467143Y-12835571D01*
X24452857Y-12778429D01*
X24452857Y-12707000D01*
X24467143Y-12649857D01*
X24481428Y-12621286D01*
X24495714Y-12607000D01*
X24524286Y-12592714D01*
X24910000Y-12892714D02*
X24738571Y-12892714D01*
X24824286Y-12892714D02*
X24824286Y-12592714D01*
X24795714Y-12635571D01*
X24767143Y-12664143D01*
X24738571Y-12678429D01*
X25181428Y-12592714D02*
X25038571Y-12592714D01*
X25024286Y-12735571D01*
X25038571Y-12721286D01*
X25067143Y-12707000D01*
X25138571Y-12707000D01*
X25167143Y-12721286D01*
X25181428Y-12735571D01*
X25195714Y-12764143D01*
X25195714Y-12835571D01*
X25181428Y-12864143D01*
X25167143Y-12878429D01*
X25138571Y-12892714D01*
X25067143Y-12892714D01*
X25038571Y-12878429D01*
X25024286Y-12864143D01*
X25295714Y-12592714D02*
X25495714Y-12592714D01*
X25367143Y-12892714D01*
X25595714Y-12592714D02*
X25595714Y-12649857D01*
X25710000Y-12592714D02*
X25710000Y-12649857D01*
X26152857Y-13007000D02*
X26138571Y-12992714D01*
X26110000Y-12949857D01*
X26095714Y-12921286D01*
X26081428Y-12878429D01*
X26067143Y-12807000D01*
X26067143Y-12749857D01*
X26081428Y-12678429D01*
X26095714Y-12635571D01*
X26110000Y-12607000D01*
X26138571Y-12564143D01*
X26152857Y-12549857D01*
X26410000Y-12592714D02*
X26267143Y-12592714D01*
X26252857Y-12735571D01*
X26267143Y-12721286D01*
X26295714Y-12707000D01*
X26367143Y-12707000D01*
X26395714Y-12721286D01*
X26410000Y-12735571D01*
X26424286Y-12764143D01*
X26424286Y-12835571D01*
X26410000Y-12864143D01*
X26395714Y-12878429D01*
X26367143Y-12892714D01*
X26295714Y-12892714D01*
X26267143Y-12878429D01*
X26252857Y-12864143D01*
X26595714Y-12721286D02*
X26567143Y-12707000D01*
X26552857Y-12692714D01*
X26538571Y-12664143D01*
X26538571Y-12649857D01*
X26552857Y-12621286D01*
X26567143Y-12607000D01*
X26595714Y-12592714D01*
X26652857Y-12592714D01*
X26681428Y-12607000D01*
X26695714Y-12621286D01*
X26710000Y-12649857D01*
X26710000Y-12664143D01*
X26695714Y-12692714D01*
X26681428Y-12707000D01*
X26652857Y-12721286D01*
X26595714Y-12721286D01*
X26567143Y-12735571D01*
X26552857Y-12749857D01*
X26538571Y-12778429D01*
X26538571Y-12835571D01*
X26552857Y-12864143D01*
X26567143Y-12878429D01*
X26595714Y-12892714D01*
X26652857Y-12892714D01*
X26681428Y-12878429D01*
X26695714Y-12864143D01*
X26710000Y-12835571D01*
X26710000Y-12778429D01*
X26695714Y-12749857D01*
X26681428Y-12735571D01*
X26652857Y-12721286D01*
X27067143Y-12892714D02*
X27067143Y-12592714D01*
X27195714Y-12892714D02*
X27195714Y-12735571D01*
X27181428Y-12707000D01*
X27152857Y-12692714D01*
X27110000Y-12692714D01*
X27081428Y-12707000D01*
X27067143Y-12721286D01*
X27381428Y-12892714D02*
X27352857Y-12878429D01*
X27338571Y-12864143D01*
X27324286Y-12835571D01*
X27324286Y-12749857D01*
X27338571Y-12721286D01*
X27352857Y-12707000D01*
X27381428Y-12692714D01*
X27424286Y-12692714D01*
X27452857Y-12707000D01*
X27467143Y-12721286D01*
X27481428Y-12749857D01*
X27481428Y-12835571D01*
X27467143Y-12864143D01*
X27452857Y-12878429D01*
X27424286Y-12892714D01*
X27381428Y-12892714D01*
X27652857Y-12892714D02*
X27624286Y-12878429D01*
X27610000Y-12849857D01*
X27610000Y-12592714D01*
X27881428Y-12878429D02*
X27852857Y-12892714D01*
X27795714Y-12892714D01*
X27767143Y-12878429D01*
X27752857Y-12849857D01*
X27752857Y-12735571D01*
X27767143Y-12707000D01*
X27795714Y-12692714D01*
X27852857Y-12692714D01*
X27881428Y-12707000D01*
X27895714Y-12735571D01*
X27895714Y-12764143D01*
X27752857Y-12792714D01*
X28010000Y-12878429D02*
X28038571Y-12892714D01*
X28095714Y-12892714D01*
X28124286Y-12878429D01*
X28138571Y-12849857D01*
X28138571Y-12835571D01*
X28124286Y-12807000D01*
X28095714Y-12792714D01*
X28052857Y-12792714D01*
X28024286Y-12778429D01*
X28010000Y-12749857D01*
X28010000Y-12735571D01*
X28024286Y-12707000D01*
X28052857Y-12692714D01*
X28095714Y-12692714D01*
X28124286Y-12707000D01*
X28238571Y-13007000D02*
X28252857Y-12992714D01*
X28281428Y-12949857D01*
X28295714Y-12921286D01*
X28310000Y-12878429D01*
X28324286Y-12807000D01*
X28324286Y-12749857D01*
X28310000Y-12678429D01*
X28295714Y-12635571D01*
X28281428Y-12607000D01*
X28252857Y-12564143D01*
X28238571Y-12549857D01*
X20858389Y-13241389D02*
X20858389Y-13064611D01*
X20681611Y-13064611D01*
X20681611Y-13241389D01*
X20858389Y-13241389D01*
X21167143Y-13017286D02*
X21181428Y-13003000D01*
X21210000Y-12988714D01*
X21281428Y-12988714D01*
X21310000Y-13003000D01*
X21324286Y-13017286D01*
X21338571Y-13045857D01*
X21338571Y-13074429D01*
X21324286Y-13117286D01*
X21152857Y-13288714D01*
X21338571Y-13288714D01*
X21467143Y-13260143D02*
X21481428Y-13274429D01*
X21467143Y-13288714D01*
X21452857Y-13274429D01*
X21467143Y-13260143D01*
X21467143Y-13288714D01*
X21752857Y-12988714D02*
X21610000Y-12988714D01*
X21595714Y-13131571D01*
X21610000Y-13117286D01*
X21638571Y-13103000D01*
X21710000Y-13103000D01*
X21738571Y-13117286D01*
X21752857Y-13131571D01*
X21767143Y-13160143D01*
X21767143Y-13231571D01*
X21752857Y-13260143D01*
X21738571Y-13274429D01*
X21710000Y-13288714D01*
X21638571Y-13288714D01*
X21610000Y-13274429D01*
X21595714Y-13260143D01*
X21952857Y-12988714D02*
X21981428Y-12988714D01*
X22010000Y-13003000D01*
X22024286Y-13017286D01*
X22038571Y-13045857D01*
X22052857Y-13103000D01*
X22052857Y-13174429D01*
X22038571Y-13231571D01*
X22024286Y-13260143D01*
X22010000Y-13274429D01*
X21981428Y-13288714D01*
X21952857Y-13288714D01*
X21924286Y-13274429D01*
X21910000Y-13260143D01*
X21895714Y-13231571D01*
X21881428Y-13174429D01*
X21881428Y-13103000D01*
X21895714Y-13045857D01*
X21910000Y-13017286D01*
X21924286Y-13003000D01*
X21952857Y-12988714D01*
X22238571Y-12988714D02*
X22267143Y-12988714D01*
X22295714Y-13003000D01*
X22310000Y-13017286D01*
X22324286Y-13045857D01*
X22338571Y-13103000D01*
X22338571Y-13174429D01*
X22324286Y-13231571D01*
X22310000Y-13260143D01*
X22295714Y-13274429D01*
X22267143Y-13288714D01*
X22238571Y-13288714D01*
X22210000Y-13274429D01*
X22195714Y-13260143D01*
X22181428Y-13231571D01*
X22167143Y-13174429D01*
X22167143Y-13103000D01*
X22181428Y-13045857D01*
X22195714Y-13017286D01*
X22210000Y-13003000D01*
X22238571Y-12988714D01*
X22467143Y-13288714D02*
X22467143Y-13088714D01*
X22467143Y-13117286D02*
X22481428Y-13103000D01*
X22510000Y-13088714D01*
X22552857Y-13088714D01*
X22581428Y-13103000D01*
X22595714Y-13131571D01*
X22595714Y-13288714D01*
X22595714Y-13131571D02*
X22610000Y-13103000D01*
X22638571Y-13088714D01*
X22681428Y-13088714D01*
X22710000Y-13103000D01*
X22724286Y-13131571D01*
X22724286Y-13288714D01*
X22867143Y-13288714D02*
X22867143Y-13088714D01*
X22867143Y-13117286D02*
X22881428Y-13103000D01*
X22910000Y-13088714D01*
X22952857Y-13088714D01*
X22981428Y-13103000D01*
X22995714Y-13131571D01*
X22995714Y-13288714D01*
X22995714Y-13131571D02*
X23010000Y-13103000D01*
X23038571Y-13088714D01*
X23081428Y-13088714D01*
X23110000Y-13103000D01*
X23124286Y-13131571D01*
X23124286Y-13288714D01*
X23710000Y-12974429D02*
X23452857Y-13360143D01*
X24095714Y-12988714D02*
X24124286Y-12988714D01*
X24152857Y-13003000D01*
X24167143Y-13017286D01*
X24181428Y-13045857D01*
X24195714Y-13103000D01*
X24195714Y-13174429D01*
X24181428Y-13231571D01*
X24167143Y-13260143D01*
X24152857Y-13274429D01*
X24124286Y-13288714D01*
X24095714Y-13288714D01*
X24067143Y-13274429D01*
X24052857Y-13260143D01*
X24038571Y-13231571D01*
X24024286Y-13174429D01*
X24024286Y-13103000D01*
X24038571Y-13045857D01*
X24052857Y-13017286D01*
X24067143Y-13003000D01*
X24095714Y-12988714D01*
X24324286Y-13260143D02*
X24338571Y-13274429D01*
X24324286Y-13288714D01*
X24310000Y-13274429D01*
X24324286Y-13260143D01*
X24324286Y-13288714D01*
X24524286Y-12988714D02*
X24552857Y-12988714D01*
X24581428Y-13003000D01*
X24595714Y-13017286D01*
X24610000Y-13045857D01*
X24624286Y-13103000D01*
X24624286Y-13174429D01*
X24610000Y-13231571D01*
X24595714Y-13260143D01*
X24581428Y-13274429D01*
X24552857Y-13288714D01*
X24524286Y-13288714D01*
X24495714Y-13274429D01*
X24481428Y-13260143D01*
X24467143Y-13231571D01*
X24452857Y-13174429D01*
X24452857Y-13103000D01*
X24467143Y-13045857D01*
X24481428Y-13017286D01*
X24495714Y-13003000D01*
X24524286Y-12988714D01*
X24767143Y-13288714D02*
X24824286Y-13288714D01*
X24852857Y-13274429D01*
X24867143Y-13260143D01*
X24895714Y-13217286D01*
X24910000Y-13160143D01*
X24910000Y-13045857D01*
X24895714Y-13017286D01*
X24881428Y-13003000D01*
X24852857Y-12988714D01*
X24795714Y-12988714D01*
X24767143Y-13003000D01*
X24752857Y-13017286D01*
X24738571Y-13045857D01*
X24738571Y-13117286D01*
X24752857Y-13145857D01*
X24767143Y-13160143D01*
X24795714Y-13174429D01*
X24852857Y-13174429D01*
X24881428Y-13160143D01*
X24895714Y-13145857D01*
X24910000Y-13117286D01*
X25081428Y-13117286D02*
X25052857Y-13103000D01*
X25038571Y-13088714D01*
X25024286Y-13060143D01*
X25024286Y-13045857D01*
X25038571Y-13017286D01*
X25052857Y-13003000D01*
X25081428Y-12988714D01*
X25138571Y-12988714D01*
X25167143Y-13003000D01*
X25181428Y-13017286D01*
X25195714Y-13045857D01*
X25195714Y-13060143D01*
X25181428Y-13088714D01*
X25167143Y-13103000D01*
X25138571Y-13117286D01*
X25081428Y-13117286D01*
X25052857Y-13131571D01*
X25038571Y-13145857D01*
X25024286Y-13174429D01*
X25024286Y-13231571D01*
X25038571Y-13260143D01*
X25052857Y-13274429D01*
X25081428Y-13288714D01*
X25138571Y-13288714D01*
X25167143Y-13274429D01*
X25181428Y-13260143D01*
X25195714Y-13231571D01*
X25195714Y-13174429D01*
X25181428Y-13145857D01*
X25167143Y-13131571D01*
X25138571Y-13117286D01*
X25452857Y-13088714D02*
X25452857Y-13288714D01*
X25381428Y-12974429D02*
X25310000Y-13188714D01*
X25495714Y-13188714D01*
X25595714Y-12988714D02*
X25595714Y-13045857D01*
X25710000Y-12988714D02*
X25710000Y-13045857D01*
X26152857Y-13403000D02*
X26138571Y-13388714D01*
X26110000Y-13345857D01*
X26095714Y-13317286D01*
X26081428Y-13274429D01*
X26067143Y-13203000D01*
X26067143Y-13145857D01*
X26081428Y-13074429D01*
X26095714Y-13031571D01*
X26110000Y-13003000D01*
X26138571Y-12960143D01*
X26152857Y-12945857D01*
X26395714Y-13088714D02*
X26395714Y-13288714D01*
X26324286Y-12974429D02*
X26252857Y-13188714D01*
X26438571Y-13188714D01*
X26781428Y-13288714D02*
X26781428Y-12988714D01*
X26910000Y-13288714D02*
X26910000Y-13131571D01*
X26895714Y-13103000D01*
X26867143Y-13088714D01*
X26824286Y-13088714D01*
X26795714Y-13103000D01*
X26781428Y-13117286D01*
X27095714Y-13288714D02*
X27067143Y-13274429D01*
X27052857Y-13260143D01*
X27038571Y-13231571D01*
X27038571Y-13145857D01*
X27052857Y-13117286D01*
X27067143Y-13103000D01*
X27095714Y-13088714D01*
X27138571Y-13088714D01*
X27167143Y-13103000D01*
X27181428Y-13117286D01*
X27195714Y-13145857D01*
X27195714Y-13231571D01*
X27181428Y-13260143D01*
X27167143Y-13274429D01*
X27138571Y-13288714D01*
X27095714Y-13288714D01*
X27367143Y-13288714D02*
X27338571Y-13274429D01*
X27324286Y-13245857D01*
X27324286Y-12988714D01*
X27595714Y-13274429D02*
X27567143Y-13288714D01*
X27510000Y-13288714D01*
X27481428Y-13274429D01*
X27467143Y-13245857D01*
X27467143Y-13131571D01*
X27481428Y-13103000D01*
X27510000Y-13088714D01*
X27567143Y-13088714D01*
X27595714Y-13103000D01*
X27610000Y-13131571D01*
X27610000Y-13160143D01*
X27467143Y-13188714D01*
X27724286Y-13274429D02*
X27752857Y-13288714D01*
X27810000Y-13288714D01*
X27838571Y-13274429D01*
X27852857Y-13245857D01*
X27852857Y-13231571D01*
X27838571Y-13203000D01*
X27810000Y-13188714D01*
X27767143Y-13188714D01*
X27738571Y-13174429D01*
X27724286Y-13145857D01*
X27724286Y-13131571D01*
X27738571Y-13103000D01*
X27767143Y-13088714D01*
X27810000Y-13088714D01*
X27838571Y-13103000D01*
X27952857Y-13403000D02*
X27967143Y-13388714D01*
X27995714Y-13345857D01*
X28010000Y-13317286D01*
X28024286Y-13274429D01*
X28038571Y-13203000D01*
X28038571Y-13145857D01*
X28024286Y-13074429D01*
X28010000Y-13031571D01*
X27995714Y-13003000D01*
X27967143Y-12960143D01*
X27952857Y-12945857D01*
M02*
