%TF.GenerationSoftware,KiCad,Pcbnew,(5.1.12-1-10_14)*%
%TF.CreationDate,2022-02-15T12:54:36-08:00*%
%TF.ProjectId,g3_power,67335f70-6f77-4657-922e-6b696361645f,rev?*%
%TF.SameCoordinates,Original*%
%TF.FileFunction,Copper,L2,Inr*%
%TF.FilePolarity,Positive*%
%FSLAX46Y46*%
G04 Gerber Fmt 4.6, Leading zero omitted, Abs format (unit mm)*
G04 Created by KiCad (PCBNEW (5.1.12-1-10_14)) date 2022-02-15 12:54:36*
%MOMM*%
%LPD*%
G01*
G04 APERTURE LIST*
%TA.AperFunction,ComponentPad*%
%ADD10C,5.000000*%
%TD*%
%TA.AperFunction,ComponentPad*%
%ADD11C,0.300000*%
%TD*%
%TA.AperFunction,ComponentPad*%
%ADD12C,0.500000*%
%TD*%
%TA.AperFunction,ViaPad*%
%ADD13C,0.800000*%
%TD*%
%TA.AperFunction,Conductor*%
%ADD14C,0.254000*%
%TD*%
%TA.AperFunction,Conductor*%
%ADD15C,0.100000*%
%TD*%
G04 APERTURE END LIST*
D10*
%TO.N,Net-(H104-Pad1)*%
%TO.C,H104*%
X255000000Y-106000000D03*
%TD*%
%TO.N,Net-(H103-Pad1)*%
%TO.C,H103*%
X213000000Y-106000000D03*
%TD*%
%TO.N,Net-(H102-Pad1)*%
%TO.C,H102*%
X255000000Y-74000000D03*
%TD*%
%TO.N,Net-(H101-Pad1)*%
%TO.C,H101*%
X213000000Y-74000000D03*
%TD*%
D11*
%TO.N,GND*%
%TO.C,U102*%
X232750000Y-87000000D03*
X231250000Y-86000000D03*
X232750000Y-86000000D03*
X231250000Y-87000000D03*
X232000000Y-86500000D03*
%TD*%
D12*
%TO.N,GND*%
%TO.C,U101*%
X223050000Y-88050000D03*
X222000000Y-88050000D03*
X220950000Y-88050000D03*
X223050000Y-87000000D03*
X222000000Y-87000000D03*
X220950000Y-87000000D03*
X223050000Y-85950000D03*
X222000000Y-85950000D03*
X220950000Y-85950000D03*
%TD*%
D13*
%TO.N,GND*%
X245870000Y-76610000D03*
X245880000Y-77580000D03*
X240800000Y-84840000D03*
X229300000Y-87490000D03*
X245905000Y-82950000D03*
X225150000Y-85750000D03*
X234750000Y-87060000D03*
X223375000Y-99895000D03*
X239410000Y-95800000D03*
X216600000Y-83700000D03*
X226730000Y-79030000D03*
X222700000Y-80250000D03*
X233800000Y-82700000D03*
X221770000Y-94720000D03*
X237095000Y-89265000D03*
X214400000Y-80600000D03*
X255900000Y-93900000D03*
X231450000Y-99300000D03*
X213400000Y-94500000D03*
X227015000Y-91385000D03*
X248020000Y-92480000D03*
%TO.N,CC_PIMD*%
X219736511Y-83063489D03*
%TO.N,V_REGN*%
X221310000Y-82930000D03*
X211807500Y-86182500D03*
X211740000Y-89590000D03*
X222870000Y-93510000D03*
X211550000Y-80750000D03*
%TO.N,CC_PWR_OUT*%
X215450000Y-86250000D03*
X219642500Y-92357500D03*
X225360000Y-87250000D03*
X230110000Y-84960000D03*
%TO.N,+5V*%
X247180000Y-76480000D03*
X247990000Y-75440000D03*
X240905000Y-90665000D03*
X245900000Y-84050000D03*
X232750000Y-83300000D03*
X233175000Y-89375000D03*
X244030000Y-85920000D03*
X255950000Y-90300000D03*
%TO.N,BOOST_VAUX*%
X231500000Y-89160000D03*
X235370000Y-85850000D03*
%TO.N,/BOOST_PS*%
X237040000Y-80670000D03*
X234690000Y-89180000D03*
%TO.N,/~CC_INT*%
X243375000Y-76805000D03*
X216725000Y-89950000D03*
%TO.N,/~CC_CE*%
X221720000Y-90150000D03*
X222520000Y-96470000D03*
X223900000Y-97820000D03*
X244755001Y-82144999D03*
%TO.N,/~CC_QON*%
X240850000Y-78760000D03*
%TO.N,Net-(JP3-Pad2)*%
X223820000Y-90130000D03*
X221400000Y-99000000D03*
%TO.N,/SCL*%
X218910000Y-88480000D03*
X242760000Y-90770000D03*
X239600000Y-83125000D03*
%TO.N,/SDA*%
X219800000Y-90100000D03*
X242760000Y-89300000D03*
X238375000Y-83125000D03*
%TD*%
D14*
%TO.N,GND*%
X256449016Y-70732312D02*
X256880930Y-70862714D01*
X257279285Y-71074524D01*
X257628914Y-71359675D01*
X257916497Y-71707303D01*
X258131086Y-72104177D01*
X258264498Y-72535161D01*
X258315000Y-73015654D01*
X258315001Y-106966485D01*
X258267688Y-107449016D01*
X258137287Y-107880927D01*
X257925480Y-108279280D01*
X257640325Y-108628914D01*
X257292697Y-108916497D01*
X256895825Y-109131085D01*
X256464834Y-109264500D01*
X255984346Y-109315000D01*
X212033504Y-109315000D01*
X211550984Y-109267688D01*
X211119073Y-109137287D01*
X210720720Y-108925480D01*
X210371086Y-108640325D01*
X210083503Y-108292697D01*
X209868915Y-107895825D01*
X209735500Y-107464834D01*
X209685000Y-106984346D01*
X209685000Y-105691229D01*
X209865000Y-105691229D01*
X209865000Y-106308771D01*
X209985476Y-106914446D01*
X210221799Y-107484979D01*
X210564886Y-107998446D01*
X211001554Y-108435114D01*
X211515021Y-108778201D01*
X212085554Y-109014524D01*
X212691229Y-109135000D01*
X213308771Y-109135000D01*
X213914446Y-109014524D01*
X214484979Y-108778201D01*
X214998446Y-108435114D01*
X215435114Y-107998446D01*
X215778201Y-107484979D01*
X216014524Y-106914446D01*
X216135000Y-106308771D01*
X216135000Y-105691229D01*
X251865000Y-105691229D01*
X251865000Y-106308771D01*
X251985476Y-106914446D01*
X252221799Y-107484979D01*
X252564886Y-107998446D01*
X253001554Y-108435114D01*
X253515021Y-108778201D01*
X254085554Y-109014524D01*
X254691229Y-109135000D01*
X255308771Y-109135000D01*
X255914446Y-109014524D01*
X256484979Y-108778201D01*
X256998446Y-108435114D01*
X257435114Y-107998446D01*
X257778201Y-107484979D01*
X258014524Y-106914446D01*
X258135000Y-106308771D01*
X258135000Y-105691229D01*
X258014524Y-105085554D01*
X257778201Y-104515021D01*
X257435114Y-104001554D01*
X256998446Y-103564886D01*
X256484979Y-103221799D01*
X255914446Y-102985476D01*
X255308771Y-102865000D01*
X254691229Y-102865000D01*
X254085554Y-102985476D01*
X253515021Y-103221799D01*
X253001554Y-103564886D01*
X252564886Y-104001554D01*
X252221799Y-104515021D01*
X251985476Y-105085554D01*
X251865000Y-105691229D01*
X216135000Y-105691229D01*
X216014524Y-105085554D01*
X215778201Y-104515021D01*
X215435114Y-104001554D01*
X214998446Y-103564886D01*
X214484979Y-103221799D01*
X213914446Y-102985476D01*
X213308771Y-102865000D01*
X212691229Y-102865000D01*
X212085554Y-102985476D01*
X211515021Y-103221799D01*
X211001554Y-103564886D01*
X210564886Y-104001554D01*
X210221799Y-104515021D01*
X209985476Y-105085554D01*
X209865000Y-105691229D01*
X209685000Y-105691229D01*
X209685000Y-98898061D01*
X220365000Y-98898061D01*
X220365000Y-99101939D01*
X220404774Y-99301898D01*
X220482795Y-99490256D01*
X220596063Y-99659774D01*
X220740226Y-99803937D01*
X220909744Y-99917205D01*
X221098102Y-99995226D01*
X221298061Y-100035000D01*
X221501939Y-100035000D01*
X221701898Y-99995226D01*
X221890256Y-99917205D01*
X222059774Y-99803937D01*
X222203937Y-99659774D01*
X222317205Y-99490256D01*
X222395226Y-99301898D01*
X222435000Y-99101939D01*
X222435000Y-98898061D01*
X222395226Y-98698102D01*
X222317205Y-98509744D01*
X222203937Y-98340226D01*
X222059774Y-98196063D01*
X221890256Y-98082795D01*
X221701898Y-98004774D01*
X221501939Y-97965000D01*
X221298061Y-97965000D01*
X221098102Y-98004774D01*
X220909744Y-98082795D01*
X220740226Y-98196063D01*
X220596063Y-98340226D01*
X220482795Y-98509744D01*
X220404774Y-98698102D01*
X220365000Y-98898061D01*
X209685000Y-98898061D01*
X209685000Y-96368061D01*
X221485000Y-96368061D01*
X221485000Y-96571939D01*
X221524774Y-96771898D01*
X221602795Y-96960256D01*
X221716063Y-97129774D01*
X221860226Y-97273937D01*
X222029744Y-97387205D01*
X222218102Y-97465226D01*
X222418061Y-97505000D01*
X222621939Y-97505000D01*
X222821898Y-97465226D01*
X222948377Y-97412836D01*
X222904774Y-97518102D01*
X222865000Y-97718061D01*
X222865000Y-97921939D01*
X222904774Y-98121898D01*
X222982795Y-98310256D01*
X223096063Y-98479774D01*
X223240226Y-98623937D01*
X223409744Y-98737205D01*
X223598102Y-98815226D01*
X223798061Y-98855000D01*
X224001939Y-98855000D01*
X224201898Y-98815226D01*
X224390256Y-98737205D01*
X224559774Y-98623937D01*
X224703937Y-98479774D01*
X224817205Y-98310256D01*
X224895226Y-98121898D01*
X224935000Y-97921939D01*
X224935000Y-97718061D01*
X224895226Y-97518102D01*
X224817205Y-97329744D01*
X224703937Y-97160226D01*
X224559774Y-97016063D01*
X224390256Y-96902795D01*
X224201898Y-96824774D01*
X224001939Y-96785000D01*
X223798061Y-96785000D01*
X223598102Y-96824774D01*
X223471623Y-96877164D01*
X223515226Y-96771898D01*
X223555000Y-96571939D01*
X223555000Y-96368061D01*
X223515226Y-96168102D01*
X223437205Y-95979744D01*
X223323937Y-95810226D01*
X223179774Y-95666063D01*
X223010256Y-95552795D01*
X222821898Y-95474774D01*
X222621939Y-95435000D01*
X222418061Y-95435000D01*
X222218102Y-95474774D01*
X222029744Y-95552795D01*
X221860226Y-95666063D01*
X221716063Y-95810226D01*
X221602795Y-95979744D01*
X221524774Y-96168102D01*
X221485000Y-96368061D01*
X209685000Y-96368061D01*
X209685000Y-93408061D01*
X221835000Y-93408061D01*
X221835000Y-93611939D01*
X221874774Y-93811898D01*
X221952795Y-94000256D01*
X222066063Y-94169774D01*
X222210226Y-94313937D01*
X222379744Y-94427205D01*
X222568102Y-94505226D01*
X222768061Y-94545000D01*
X222971939Y-94545000D01*
X223171898Y-94505226D01*
X223360256Y-94427205D01*
X223529774Y-94313937D01*
X223673937Y-94169774D01*
X223787205Y-94000256D01*
X223865226Y-93811898D01*
X223905000Y-93611939D01*
X223905000Y-93408061D01*
X223865226Y-93208102D01*
X223787205Y-93019744D01*
X223673937Y-92850226D01*
X223529774Y-92706063D01*
X223360256Y-92592795D01*
X223171898Y-92514774D01*
X222971939Y-92475000D01*
X222768061Y-92475000D01*
X222568102Y-92514774D01*
X222379744Y-92592795D01*
X222210226Y-92706063D01*
X222066063Y-92850226D01*
X221952795Y-93019744D01*
X221874774Y-93208102D01*
X221835000Y-93408061D01*
X209685000Y-93408061D01*
X209685000Y-92255561D01*
X218607500Y-92255561D01*
X218607500Y-92459439D01*
X218647274Y-92659398D01*
X218725295Y-92847756D01*
X218838563Y-93017274D01*
X218982726Y-93161437D01*
X219152244Y-93274705D01*
X219340602Y-93352726D01*
X219540561Y-93392500D01*
X219744439Y-93392500D01*
X219944398Y-93352726D01*
X220132756Y-93274705D01*
X220302274Y-93161437D01*
X220446437Y-93017274D01*
X220559705Y-92847756D01*
X220637726Y-92659398D01*
X220677500Y-92459439D01*
X220677500Y-92255561D01*
X220637726Y-92055602D01*
X220559705Y-91867244D01*
X220446437Y-91697726D01*
X220302274Y-91553563D01*
X220132756Y-91440295D01*
X219944398Y-91362274D01*
X219744439Y-91322500D01*
X219540561Y-91322500D01*
X219340602Y-91362274D01*
X219152244Y-91440295D01*
X218982726Y-91553563D01*
X218838563Y-91697726D01*
X218725295Y-91867244D01*
X218647274Y-92055602D01*
X218607500Y-92255561D01*
X209685000Y-92255561D01*
X209685000Y-89488061D01*
X210705000Y-89488061D01*
X210705000Y-89691939D01*
X210744774Y-89891898D01*
X210822795Y-90080256D01*
X210936063Y-90249774D01*
X211080226Y-90393937D01*
X211249744Y-90507205D01*
X211438102Y-90585226D01*
X211638061Y-90625000D01*
X211841939Y-90625000D01*
X212041898Y-90585226D01*
X212230256Y-90507205D01*
X212399774Y-90393937D01*
X212543937Y-90249774D01*
X212657205Y-90080256D01*
X212735226Y-89891898D01*
X212743945Y-89848061D01*
X215690000Y-89848061D01*
X215690000Y-90051939D01*
X215729774Y-90251898D01*
X215807795Y-90440256D01*
X215921063Y-90609774D01*
X216065226Y-90753937D01*
X216234744Y-90867205D01*
X216423102Y-90945226D01*
X216623061Y-90985000D01*
X216826939Y-90985000D01*
X217026898Y-90945226D01*
X217215256Y-90867205D01*
X217384774Y-90753937D01*
X217528937Y-90609774D01*
X217642205Y-90440256D01*
X217720226Y-90251898D01*
X217760000Y-90051939D01*
X217760000Y-89848061D01*
X217720226Y-89648102D01*
X217642205Y-89459744D01*
X217528937Y-89290226D01*
X217384774Y-89146063D01*
X217215256Y-89032795D01*
X217026898Y-88954774D01*
X216826939Y-88915000D01*
X216623061Y-88915000D01*
X216423102Y-88954774D01*
X216234744Y-89032795D01*
X216065226Y-89146063D01*
X215921063Y-89290226D01*
X215807795Y-89459744D01*
X215729774Y-89648102D01*
X215690000Y-89848061D01*
X212743945Y-89848061D01*
X212775000Y-89691939D01*
X212775000Y-89488061D01*
X212735226Y-89288102D01*
X212657205Y-89099744D01*
X212543937Y-88930226D01*
X212399774Y-88786063D01*
X212230256Y-88672795D01*
X212041898Y-88594774D01*
X211841939Y-88555000D01*
X211638061Y-88555000D01*
X211438102Y-88594774D01*
X211249744Y-88672795D01*
X211080226Y-88786063D01*
X210936063Y-88930226D01*
X210822795Y-89099744D01*
X210744774Y-89288102D01*
X210705000Y-89488061D01*
X209685000Y-89488061D01*
X209685000Y-88378061D01*
X217875000Y-88378061D01*
X217875000Y-88581939D01*
X217914774Y-88781898D01*
X217992795Y-88970256D01*
X218106063Y-89139774D01*
X218250226Y-89283937D01*
X218419744Y-89397205D01*
X218608102Y-89475226D01*
X218808061Y-89515000D01*
X218946101Y-89515000D01*
X218882795Y-89609744D01*
X218804774Y-89798102D01*
X218765000Y-89998061D01*
X218765000Y-90201939D01*
X218804774Y-90401898D01*
X218882795Y-90590256D01*
X218996063Y-90759774D01*
X219140226Y-90903937D01*
X219309744Y-91017205D01*
X219498102Y-91095226D01*
X219698061Y-91135000D01*
X219901939Y-91135000D01*
X220101898Y-91095226D01*
X220290256Y-91017205D01*
X220459774Y-90903937D01*
X220603937Y-90759774D01*
X220717205Y-90590256D01*
X220749645Y-90511940D01*
X220802795Y-90640256D01*
X220916063Y-90809774D01*
X221060226Y-90953937D01*
X221229744Y-91067205D01*
X221418102Y-91145226D01*
X221618061Y-91185000D01*
X221821939Y-91185000D01*
X222021898Y-91145226D01*
X222210256Y-91067205D01*
X222379774Y-90953937D01*
X222523937Y-90809774D01*
X222637205Y-90640256D01*
X222715226Y-90451898D01*
X222755000Y-90251939D01*
X222755000Y-90048061D01*
X222751022Y-90028061D01*
X222785000Y-90028061D01*
X222785000Y-90231939D01*
X222824774Y-90431898D01*
X222902795Y-90620256D01*
X223016063Y-90789774D01*
X223160226Y-90933937D01*
X223329744Y-91047205D01*
X223518102Y-91125226D01*
X223718061Y-91165000D01*
X223921939Y-91165000D01*
X224121898Y-91125226D01*
X224310256Y-91047205D01*
X224479774Y-90933937D01*
X224623937Y-90789774D01*
X224737205Y-90620256D01*
X224760896Y-90563061D01*
X239870000Y-90563061D01*
X239870000Y-90766939D01*
X239909774Y-90966898D01*
X239987795Y-91155256D01*
X240101063Y-91324774D01*
X240245226Y-91468937D01*
X240414744Y-91582205D01*
X240603102Y-91660226D01*
X240803061Y-91700000D01*
X241006939Y-91700000D01*
X241206898Y-91660226D01*
X241395256Y-91582205D01*
X241564774Y-91468937D01*
X241708937Y-91324774D01*
X241808067Y-91176415D01*
X241842795Y-91260256D01*
X241956063Y-91429774D01*
X242100226Y-91573937D01*
X242269744Y-91687205D01*
X242458102Y-91765226D01*
X242658061Y-91805000D01*
X242861939Y-91805000D01*
X243061898Y-91765226D01*
X243250256Y-91687205D01*
X243419774Y-91573937D01*
X243563937Y-91429774D01*
X243677205Y-91260256D01*
X243755226Y-91071898D01*
X243795000Y-90871939D01*
X243795000Y-90668061D01*
X243755226Y-90468102D01*
X243677205Y-90279744D01*
X243622627Y-90198061D01*
X254915000Y-90198061D01*
X254915000Y-90401939D01*
X254954774Y-90601898D01*
X255032795Y-90790256D01*
X255146063Y-90959774D01*
X255290226Y-91103937D01*
X255459744Y-91217205D01*
X255648102Y-91295226D01*
X255848061Y-91335000D01*
X256051939Y-91335000D01*
X256251898Y-91295226D01*
X256440256Y-91217205D01*
X256609774Y-91103937D01*
X256753937Y-90959774D01*
X256867205Y-90790256D01*
X256945226Y-90601898D01*
X256985000Y-90401939D01*
X256985000Y-90198061D01*
X256945226Y-89998102D01*
X256867205Y-89809744D01*
X256753937Y-89640226D01*
X256609774Y-89496063D01*
X256440256Y-89382795D01*
X256251898Y-89304774D01*
X256051939Y-89265000D01*
X255848061Y-89265000D01*
X255648102Y-89304774D01*
X255459744Y-89382795D01*
X255290226Y-89496063D01*
X255146063Y-89640226D01*
X255032795Y-89809744D01*
X254954774Y-89998102D01*
X254915000Y-90198061D01*
X243622627Y-90198061D01*
X243563937Y-90110226D01*
X243488711Y-90035000D01*
X243563937Y-89959774D01*
X243677205Y-89790256D01*
X243755226Y-89601898D01*
X243795000Y-89401939D01*
X243795000Y-89198061D01*
X243755226Y-88998102D01*
X243677205Y-88809744D01*
X243563937Y-88640226D01*
X243419774Y-88496063D01*
X243250256Y-88382795D01*
X243061898Y-88304774D01*
X242861939Y-88265000D01*
X242658061Y-88265000D01*
X242458102Y-88304774D01*
X242269744Y-88382795D01*
X242100226Y-88496063D01*
X241956063Y-88640226D01*
X241842795Y-88809744D01*
X241764774Y-88998102D01*
X241725000Y-89198061D01*
X241725000Y-89401939D01*
X241764774Y-89601898D01*
X241842795Y-89790256D01*
X241956063Y-89959774D01*
X242031289Y-90035000D01*
X241956063Y-90110226D01*
X241856933Y-90258585D01*
X241822205Y-90174744D01*
X241708937Y-90005226D01*
X241564774Y-89861063D01*
X241395256Y-89747795D01*
X241206898Y-89669774D01*
X241006939Y-89630000D01*
X240803061Y-89630000D01*
X240603102Y-89669774D01*
X240414744Y-89747795D01*
X240245226Y-89861063D01*
X240101063Y-90005226D01*
X239987795Y-90174744D01*
X239909774Y-90363102D01*
X239870000Y-90563061D01*
X224760896Y-90563061D01*
X224815226Y-90431898D01*
X224855000Y-90231939D01*
X224855000Y-90028061D01*
X224815226Y-89828102D01*
X224737205Y-89639744D01*
X224623937Y-89470226D01*
X224479774Y-89326063D01*
X224310256Y-89212795D01*
X224121898Y-89134774D01*
X223921939Y-89095000D01*
X223718061Y-89095000D01*
X223518102Y-89134774D01*
X223329744Y-89212795D01*
X223160226Y-89326063D01*
X223016063Y-89470226D01*
X222902795Y-89639744D01*
X222824774Y-89828102D01*
X222785000Y-90028061D01*
X222751022Y-90028061D01*
X222715226Y-89848102D01*
X222637205Y-89659744D01*
X222523937Y-89490226D01*
X222379774Y-89346063D01*
X222210256Y-89232795D01*
X222021898Y-89154774D01*
X221821939Y-89115000D01*
X221618061Y-89115000D01*
X221418102Y-89154774D01*
X221229744Y-89232795D01*
X221060226Y-89346063D01*
X220916063Y-89490226D01*
X220802795Y-89659744D01*
X220770355Y-89738060D01*
X220717205Y-89609744D01*
X220603937Y-89440226D01*
X220459774Y-89296063D01*
X220290256Y-89182795D01*
X220101898Y-89104774D01*
X219901939Y-89065000D01*
X219763899Y-89065000D01*
X219768535Y-89058061D01*
X230465000Y-89058061D01*
X230465000Y-89261939D01*
X230504774Y-89461898D01*
X230582795Y-89650256D01*
X230696063Y-89819774D01*
X230840226Y-89963937D01*
X231009744Y-90077205D01*
X231198102Y-90155226D01*
X231398061Y-90195000D01*
X231601939Y-90195000D01*
X231801898Y-90155226D01*
X231990256Y-90077205D01*
X232159774Y-89963937D01*
X232258059Y-89865652D01*
X232371063Y-90034774D01*
X232515226Y-90178937D01*
X232684744Y-90292205D01*
X232873102Y-90370226D01*
X233073061Y-90410000D01*
X233276939Y-90410000D01*
X233476898Y-90370226D01*
X233665256Y-90292205D01*
X233834774Y-90178937D01*
X233978937Y-90034774D01*
X234019843Y-89973554D01*
X234030226Y-89983937D01*
X234199744Y-90097205D01*
X234388102Y-90175226D01*
X234588061Y-90215000D01*
X234791939Y-90215000D01*
X234991898Y-90175226D01*
X235180256Y-90097205D01*
X235349774Y-89983937D01*
X235493937Y-89839774D01*
X235607205Y-89670256D01*
X235685226Y-89481898D01*
X235725000Y-89281939D01*
X235725000Y-89078061D01*
X235685226Y-88878102D01*
X235607205Y-88689744D01*
X235493937Y-88520226D01*
X235349774Y-88376063D01*
X235180256Y-88262795D01*
X234991898Y-88184774D01*
X234791939Y-88145000D01*
X234588061Y-88145000D01*
X234388102Y-88184774D01*
X234199744Y-88262795D01*
X234030226Y-88376063D01*
X233886063Y-88520226D01*
X233845157Y-88581446D01*
X233834774Y-88571063D01*
X233665256Y-88457795D01*
X233476898Y-88379774D01*
X233276939Y-88340000D01*
X233073061Y-88340000D01*
X232873102Y-88379774D01*
X232684744Y-88457795D01*
X232515226Y-88571063D01*
X232416941Y-88669348D01*
X232303937Y-88500226D01*
X232159774Y-88356063D01*
X231990256Y-88242795D01*
X231801898Y-88164774D01*
X231601939Y-88125000D01*
X231398061Y-88125000D01*
X231198102Y-88164774D01*
X231009744Y-88242795D01*
X230840226Y-88356063D01*
X230696063Y-88500226D01*
X230582795Y-88669744D01*
X230504774Y-88858102D01*
X230465000Y-89058061D01*
X219768535Y-89058061D01*
X219827205Y-88970256D01*
X219905226Y-88781898D01*
X219932224Y-88646164D01*
X220527784Y-88646164D01*
X220531826Y-88834827D01*
X220692974Y-88901328D01*
X220863998Y-88935113D01*
X221038328Y-88934884D01*
X221209264Y-88900649D01*
X221368174Y-88834827D01*
X221372216Y-88646164D01*
X221577784Y-88646164D01*
X221581826Y-88834827D01*
X221742974Y-88901328D01*
X221913998Y-88935113D01*
X222088328Y-88934884D01*
X222259264Y-88900649D01*
X222418174Y-88834827D01*
X222422216Y-88646164D01*
X222627784Y-88646164D01*
X222631826Y-88834827D01*
X222792974Y-88901328D01*
X222963998Y-88935113D01*
X223138328Y-88934884D01*
X223309264Y-88900649D01*
X223468174Y-88834827D01*
X223472216Y-88646164D01*
X223050000Y-88223948D01*
X222627784Y-88646164D01*
X222422216Y-88646164D01*
X222000000Y-88223948D01*
X221577784Y-88646164D01*
X221372216Y-88646164D01*
X220950000Y-88223948D01*
X220527784Y-88646164D01*
X219932224Y-88646164D01*
X219945000Y-88581939D01*
X219945000Y-88378061D01*
X219905226Y-88178102D01*
X219827205Y-87989744D01*
X219810003Y-87963998D01*
X220064887Y-87963998D01*
X220065116Y-88138328D01*
X220099351Y-88309264D01*
X220165173Y-88468174D01*
X220353836Y-88472216D01*
X220776052Y-88050000D01*
X220353836Y-87627784D01*
X220165173Y-87631826D01*
X220098672Y-87792974D01*
X220064887Y-87963998D01*
X219810003Y-87963998D01*
X219713937Y-87820226D01*
X219569774Y-87676063D01*
X219400256Y-87562795D01*
X219211898Y-87484774D01*
X219011939Y-87445000D01*
X218808061Y-87445000D01*
X218608102Y-87484774D01*
X218419744Y-87562795D01*
X218250226Y-87676063D01*
X218106063Y-87820226D01*
X217992795Y-87989744D01*
X217914774Y-88178102D01*
X217875000Y-88378061D01*
X209685000Y-88378061D01*
X209685000Y-86080561D01*
X210772500Y-86080561D01*
X210772500Y-86284439D01*
X210812274Y-86484398D01*
X210890295Y-86672756D01*
X211003563Y-86842274D01*
X211147726Y-86986437D01*
X211317244Y-87099705D01*
X211505602Y-87177726D01*
X211705561Y-87217500D01*
X211909439Y-87217500D01*
X212109398Y-87177726D01*
X212297756Y-87099705D01*
X212467274Y-86986437D01*
X212611437Y-86842274D01*
X212724705Y-86672756D01*
X212802726Y-86484398D01*
X212842500Y-86284439D01*
X212842500Y-86148061D01*
X214415000Y-86148061D01*
X214415000Y-86351939D01*
X214454774Y-86551898D01*
X214532795Y-86740256D01*
X214646063Y-86909774D01*
X214790226Y-87053937D01*
X214959744Y-87167205D01*
X215148102Y-87245226D01*
X215348061Y-87285000D01*
X215551939Y-87285000D01*
X215751898Y-87245226D01*
X215940256Y-87167205D01*
X216109774Y-87053937D01*
X216249713Y-86913998D01*
X220064887Y-86913998D01*
X220065116Y-87088328D01*
X220099351Y-87259264D01*
X220165173Y-87418174D01*
X220353836Y-87422216D01*
X220776052Y-87000000D01*
X220353836Y-86577784D01*
X220165173Y-86581826D01*
X220098672Y-86742974D01*
X220064887Y-86913998D01*
X216249713Y-86913998D01*
X216253937Y-86909774D01*
X216367205Y-86740256D01*
X216445226Y-86551898D01*
X216474677Y-86403836D01*
X220527784Y-86403836D01*
X220598948Y-86475000D01*
X220527784Y-86546164D01*
X220531826Y-86734827D01*
X220692974Y-86801328D01*
X220863998Y-86835113D01*
X221038328Y-86834884D01*
X221134313Y-86815660D01*
X221114887Y-86913998D01*
X221115116Y-87088328D01*
X221134340Y-87184313D01*
X221036002Y-87164887D01*
X220861672Y-87165116D01*
X220690736Y-87199351D01*
X220531826Y-87265173D01*
X220527784Y-87453836D01*
X220598948Y-87525000D01*
X220527784Y-87596164D01*
X220531826Y-87784827D01*
X220692974Y-87851328D01*
X220863998Y-87885113D01*
X221038328Y-87884884D01*
X221134313Y-87865660D01*
X221114887Y-87963998D01*
X221115116Y-88138328D01*
X221149351Y-88309264D01*
X221215173Y-88468174D01*
X221403836Y-88472216D01*
X221475000Y-88401052D01*
X221546164Y-88472216D01*
X221734827Y-88468174D01*
X221801328Y-88307026D01*
X221835113Y-88136002D01*
X221834884Y-87961672D01*
X221815660Y-87865687D01*
X221913998Y-87885113D01*
X222088328Y-87884884D01*
X222184313Y-87865660D01*
X222164887Y-87963998D01*
X222165116Y-88138328D01*
X222199351Y-88309264D01*
X222265173Y-88468174D01*
X222453836Y-88472216D01*
X222525000Y-88401052D01*
X222596164Y-88472216D01*
X222784827Y-88468174D01*
X222851328Y-88307026D01*
X222885113Y-88136002D01*
X222885001Y-88050000D01*
X223223948Y-88050000D01*
X223646164Y-88472216D01*
X223834827Y-88468174D01*
X223901328Y-88307026D01*
X223935113Y-88136002D01*
X223934884Y-87961672D01*
X223900649Y-87790736D01*
X223834827Y-87631826D01*
X223646164Y-87627784D01*
X223223948Y-88050000D01*
X222885001Y-88050000D01*
X222884884Y-87961672D01*
X222865660Y-87865687D01*
X222963998Y-87885113D01*
X223138328Y-87884884D01*
X223309264Y-87850649D01*
X223468174Y-87784827D01*
X223472216Y-87596164D01*
X223401052Y-87525000D01*
X223472216Y-87453836D01*
X223468174Y-87265173D01*
X223307026Y-87198672D01*
X223136002Y-87164887D01*
X222961672Y-87165116D01*
X222865687Y-87184340D01*
X222885113Y-87086002D01*
X222885001Y-87000000D01*
X223223948Y-87000000D01*
X223646164Y-87422216D01*
X223834827Y-87418174D01*
X223901328Y-87257026D01*
X223922853Y-87148061D01*
X224325000Y-87148061D01*
X224325000Y-87351939D01*
X224364774Y-87551898D01*
X224442795Y-87740256D01*
X224556063Y-87909774D01*
X224700226Y-88053937D01*
X224869744Y-88167205D01*
X225058102Y-88245226D01*
X225258061Y-88285000D01*
X225461939Y-88285000D01*
X225661898Y-88245226D01*
X225850256Y-88167205D01*
X226019774Y-88053937D01*
X226163937Y-87909774D01*
X226277205Y-87740256D01*
X226314011Y-87651399D01*
X230805161Y-87651399D01*
X230940789Y-87725667D01*
X231088302Y-87772047D01*
X231242027Y-87788759D01*
X231396059Y-87775158D01*
X231544479Y-87731769D01*
X231681582Y-87660259D01*
X231694839Y-87651399D01*
X232305161Y-87651399D01*
X232440789Y-87725667D01*
X232588302Y-87772047D01*
X232742027Y-87788759D01*
X232896059Y-87775158D01*
X233044479Y-87731769D01*
X233181582Y-87660259D01*
X233194839Y-87651399D01*
X233178951Y-87461478D01*
X232750000Y-87032527D01*
X232321049Y-87461478D01*
X232305161Y-87651399D01*
X231694839Y-87651399D01*
X231678951Y-87461478D01*
X231250000Y-87032527D01*
X230821049Y-87461478D01*
X230805161Y-87651399D01*
X226314011Y-87651399D01*
X226355226Y-87551898D01*
X226395000Y-87351939D01*
X226395000Y-87148061D01*
X226355226Y-86948102D01*
X226277205Y-86759744D01*
X226163937Y-86590226D01*
X226019774Y-86446063D01*
X225850256Y-86332795D01*
X225661898Y-86254774D01*
X225461939Y-86215000D01*
X225258061Y-86215000D01*
X225058102Y-86254774D01*
X224869744Y-86332795D01*
X224700226Y-86446063D01*
X224556063Y-86590226D01*
X224442795Y-86759744D01*
X224364774Y-86948102D01*
X224325000Y-87148061D01*
X223922853Y-87148061D01*
X223935113Y-87086002D01*
X223934884Y-86911672D01*
X223900649Y-86740736D01*
X223834827Y-86581826D01*
X223646164Y-86577784D01*
X223223948Y-87000000D01*
X222885001Y-87000000D01*
X222884884Y-86911672D01*
X222865660Y-86815687D01*
X222963998Y-86835113D01*
X223138328Y-86834884D01*
X223309264Y-86800649D01*
X223468174Y-86734827D01*
X223472216Y-86546164D01*
X223401052Y-86475000D01*
X223472216Y-86403836D01*
X223468174Y-86215173D01*
X223307026Y-86148672D01*
X223136002Y-86114887D01*
X222961672Y-86115116D01*
X222865687Y-86134340D01*
X222885113Y-86036002D01*
X222885001Y-85950000D01*
X223223948Y-85950000D01*
X223646164Y-86372216D01*
X223834827Y-86368174D01*
X223901328Y-86207026D01*
X223935113Y-86036002D01*
X223934884Y-85861672D01*
X223900649Y-85690736D01*
X223834827Y-85531826D01*
X223646164Y-85527784D01*
X223223948Y-85950000D01*
X222885001Y-85950000D01*
X222884884Y-85861672D01*
X222850649Y-85690736D01*
X222784827Y-85531826D01*
X222596164Y-85527784D01*
X222525000Y-85598948D01*
X222453836Y-85527784D01*
X222265173Y-85531826D01*
X222198672Y-85692974D01*
X222164887Y-85863998D01*
X222165116Y-86038328D01*
X222184340Y-86134313D01*
X222086002Y-86114887D01*
X221911672Y-86115116D01*
X221815687Y-86134340D01*
X221835113Y-86036002D01*
X221834884Y-85861672D01*
X221800649Y-85690736D01*
X221734827Y-85531826D01*
X221546164Y-85527784D01*
X221475000Y-85598948D01*
X221403836Y-85527784D01*
X221215173Y-85531826D01*
X221148672Y-85692974D01*
X221114887Y-85863998D01*
X221115116Y-86038328D01*
X221134340Y-86134313D01*
X221036002Y-86114887D01*
X220861672Y-86115116D01*
X220690736Y-86149351D01*
X220531826Y-86215173D01*
X220527784Y-86403836D01*
X216474677Y-86403836D01*
X216485000Y-86351939D01*
X216485000Y-86148061D01*
X216445226Y-85948102D01*
X216410389Y-85863998D01*
X220064887Y-85863998D01*
X220065116Y-86038328D01*
X220099351Y-86209264D01*
X220165173Y-86368174D01*
X220353836Y-86372216D01*
X220776052Y-85950000D01*
X220353836Y-85527784D01*
X220165173Y-85531826D01*
X220098672Y-85692974D01*
X220064887Y-85863998D01*
X216410389Y-85863998D01*
X216367205Y-85759744D01*
X216253937Y-85590226D01*
X216109774Y-85446063D01*
X215971747Y-85353836D01*
X220527784Y-85353836D01*
X220950000Y-85776052D01*
X221372216Y-85353836D01*
X221577784Y-85353836D01*
X222000000Y-85776052D01*
X222422216Y-85353836D01*
X222627784Y-85353836D01*
X223050000Y-85776052D01*
X223472216Y-85353836D01*
X223468174Y-85165173D01*
X223307026Y-85098672D01*
X223136002Y-85064887D01*
X222961672Y-85065116D01*
X222790736Y-85099351D01*
X222631826Y-85165173D01*
X222627784Y-85353836D01*
X222422216Y-85353836D01*
X222418174Y-85165173D01*
X222257026Y-85098672D01*
X222086002Y-85064887D01*
X221911672Y-85065116D01*
X221740736Y-85099351D01*
X221581826Y-85165173D01*
X221577784Y-85353836D01*
X221372216Y-85353836D01*
X221368174Y-85165173D01*
X221207026Y-85098672D01*
X221036002Y-85064887D01*
X220861672Y-85065116D01*
X220690736Y-85099351D01*
X220531826Y-85165173D01*
X220527784Y-85353836D01*
X215971747Y-85353836D01*
X215940256Y-85332795D01*
X215751898Y-85254774D01*
X215551939Y-85215000D01*
X215348061Y-85215000D01*
X215148102Y-85254774D01*
X214959744Y-85332795D01*
X214790226Y-85446063D01*
X214646063Y-85590226D01*
X214532795Y-85759744D01*
X214454774Y-85948102D01*
X214415000Y-86148061D01*
X212842500Y-86148061D01*
X212842500Y-86080561D01*
X212802726Y-85880602D01*
X212724705Y-85692244D01*
X212611437Y-85522726D01*
X212467274Y-85378563D01*
X212297756Y-85265295D01*
X212109398Y-85187274D01*
X211909439Y-85147500D01*
X211705561Y-85147500D01*
X211505602Y-85187274D01*
X211317244Y-85265295D01*
X211147726Y-85378563D01*
X211003563Y-85522726D01*
X210890295Y-85692244D01*
X210812274Y-85880602D01*
X210772500Y-86080561D01*
X209685000Y-86080561D01*
X209685000Y-84858061D01*
X229075000Y-84858061D01*
X229075000Y-85061939D01*
X229114774Y-85261898D01*
X229192795Y-85450256D01*
X229306063Y-85619774D01*
X229450226Y-85763937D01*
X229619744Y-85877205D01*
X229808102Y-85955226D01*
X230008061Y-85995000D01*
X230211939Y-85995000D01*
X230411898Y-85955226D01*
X230467757Y-85932088D01*
X230461241Y-85992027D01*
X230474842Y-86146059D01*
X230518231Y-86294479D01*
X230589741Y-86431582D01*
X230598601Y-86444839D01*
X230788522Y-86428951D01*
X230810079Y-86407394D01*
X230817826Y-86500000D01*
X230810079Y-86592606D01*
X230788522Y-86571049D01*
X230598601Y-86555161D01*
X230524333Y-86690789D01*
X230477953Y-86838302D01*
X230461241Y-86992027D01*
X230474842Y-87146059D01*
X230518231Y-87294479D01*
X230589741Y-87431582D01*
X230598601Y-87444839D01*
X230788522Y-87428951D01*
X231217473Y-87000000D01*
X230944218Y-86726745D01*
X231039106Y-86756579D01*
X231250000Y-86967473D01*
X231321282Y-86896191D01*
X231339741Y-86931582D01*
X231344229Y-86938298D01*
X231282527Y-87000000D01*
X231711478Y-87428951D01*
X231901399Y-87444839D01*
X231975667Y-87309211D01*
X231982426Y-87287715D01*
X231992027Y-87288759D01*
X232015942Y-87286647D01*
X232018231Y-87294479D01*
X232089741Y-87431582D01*
X232098601Y-87444839D01*
X232288522Y-87428951D01*
X232717473Y-87000000D01*
X232655260Y-86937787D01*
X232678279Y-86895752D01*
X232750000Y-86967473D01*
X232961424Y-86756049D01*
X233044479Y-86731769D01*
X233057603Y-86724924D01*
X232782527Y-87000000D01*
X233211478Y-87428951D01*
X233401399Y-87444839D01*
X233475667Y-87309211D01*
X233522047Y-87161698D01*
X233538759Y-87007973D01*
X233525158Y-86853941D01*
X233481769Y-86705521D01*
X233410259Y-86568418D01*
X233401399Y-86555161D01*
X233211478Y-86571049D01*
X233189921Y-86592606D01*
X233182174Y-86500000D01*
X233189921Y-86407394D01*
X233211478Y-86428951D01*
X233401399Y-86444839D01*
X233475667Y-86309211D01*
X233522047Y-86161698D01*
X233538759Y-86007973D01*
X233525158Y-85853941D01*
X233494206Y-85748061D01*
X234335000Y-85748061D01*
X234335000Y-85951939D01*
X234374774Y-86151898D01*
X234452795Y-86340256D01*
X234566063Y-86509774D01*
X234710226Y-86653937D01*
X234879744Y-86767205D01*
X235068102Y-86845226D01*
X235268061Y-86885000D01*
X235471939Y-86885000D01*
X235671898Y-86845226D01*
X235860256Y-86767205D01*
X236029774Y-86653937D01*
X236173937Y-86509774D01*
X236287205Y-86340256D01*
X236365226Y-86151898D01*
X236405000Y-85951939D01*
X236405000Y-85818061D01*
X242995000Y-85818061D01*
X242995000Y-86021939D01*
X243034774Y-86221898D01*
X243112795Y-86410256D01*
X243226063Y-86579774D01*
X243370226Y-86723937D01*
X243539744Y-86837205D01*
X243728102Y-86915226D01*
X243928061Y-86955000D01*
X244131939Y-86955000D01*
X244331898Y-86915226D01*
X244520256Y-86837205D01*
X244689774Y-86723937D01*
X244833937Y-86579774D01*
X244947205Y-86410256D01*
X245025226Y-86221898D01*
X245065000Y-86021939D01*
X245065000Y-85818061D01*
X245025226Y-85618102D01*
X244947205Y-85429744D01*
X244833937Y-85260226D01*
X244689774Y-85116063D01*
X244520256Y-85002795D01*
X244331898Y-84924774D01*
X244131939Y-84885000D01*
X243928061Y-84885000D01*
X243728102Y-84924774D01*
X243539744Y-85002795D01*
X243370226Y-85116063D01*
X243226063Y-85260226D01*
X243112795Y-85429744D01*
X243034774Y-85618102D01*
X242995000Y-85818061D01*
X236405000Y-85818061D01*
X236405000Y-85748061D01*
X236365226Y-85548102D01*
X236287205Y-85359744D01*
X236173937Y-85190226D01*
X236029774Y-85046063D01*
X235860256Y-84932795D01*
X235671898Y-84854774D01*
X235471939Y-84815000D01*
X235268061Y-84815000D01*
X235068102Y-84854774D01*
X234879744Y-84932795D01*
X234710226Y-85046063D01*
X234566063Y-85190226D01*
X234452795Y-85359744D01*
X234374774Y-85548102D01*
X234335000Y-85748061D01*
X233494206Y-85748061D01*
X233481769Y-85705521D01*
X233410259Y-85568418D01*
X233401399Y-85555161D01*
X233211478Y-85571049D01*
X232782527Y-86000000D01*
X233055782Y-86273255D01*
X232960894Y-86243421D01*
X232750000Y-86032527D01*
X232678718Y-86103809D01*
X232660259Y-86068418D01*
X232655771Y-86061702D01*
X232717473Y-86000000D01*
X232288522Y-85571049D01*
X232098601Y-85555161D01*
X232024333Y-85690789D01*
X232017574Y-85712285D01*
X232007973Y-85711241D01*
X231984058Y-85713353D01*
X231981769Y-85705521D01*
X231910259Y-85568418D01*
X231901399Y-85555161D01*
X231711478Y-85571049D01*
X231282527Y-86000000D01*
X231344740Y-86062213D01*
X231321721Y-86104248D01*
X231250000Y-86032527D01*
X231038576Y-86243951D01*
X230955521Y-86268231D01*
X230942397Y-86275076D01*
X231217473Y-86000000D01*
X231129792Y-85912319D01*
X231162319Y-85879792D01*
X231250000Y-85967473D01*
X231678951Y-85538522D01*
X231694839Y-85348601D01*
X232305161Y-85348601D01*
X232321049Y-85538522D01*
X232750000Y-85967473D01*
X233178951Y-85538522D01*
X233194839Y-85348601D01*
X233059211Y-85274333D01*
X232911698Y-85227953D01*
X232757973Y-85211241D01*
X232603941Y-85224842D01*
X232455521Y-85268231D01*
X232318418Y-85339741D01*
X232305161Y-85348601D01*
X231694839Y-85348601D01*
X231559211Y-85274333D01*
X231411698Y-85227953D01*
X231257973Y-85211241D01*
X231112752Y-85224064D01*
X231145000Y-85061939D01*
X231145000Y-84858061D01*
X231105226Y-84658102D01*
X231027205Y-84469744D01*
X230913937Y-84300226D01*
X230769774Y-84156063D01*
X230600256Y-84042795D01*
X230411898Y-83964774D01*
X230211939Y-83925000D01*
X230008061Y-83925000D01*
X229808102Y-83964774D01*
X229619744Y-84042795D01*
X229450226Y-84156063D01*
X229306063Y-84300226D01*
X229192795Y-84469744D01*
X229114774Y-84658102D01*
X229075000Y-84858061D01*
X209685000Y-84858061D01*
X209685000Y-82961550D01*
X218701511Y-82961550D01*
X218701511Y-83165428D01*
X218741285Y-83365387D01*
X218819306Y-83553745D01*
X218932574Y-83723263D01*
X219076737Y-83867426D01*
X219246255Y-83980694D01*
X219434613Y-84058715D01*
X219634572Y-84098489D01*
X219838450Y-84098489D01*
X220038409Y-84058715D01*
X220226767Y-83980694D01*
X220396285Y-83867426D01*
X220540448Y-83723263D01*
X220580143Y-83663854D01*
X220650226Y-83733937D01*
X220819744Y-83847205D01*
X221008102Y-83925226D01*
X221208061Y-83965000D01*
X221411939Y-83965000D01*
X221611898Y-83925226D01*
X221800256Y-83847205D01*
X221969774Y-83733937D01*
X222113937Y-83589774D01*
X222227205Y-83420256D01*
X222305226Y-83231898D01*
X222311956Y-83198061D01*
X231715000Y-83198061D01*
X231715000Y-83401939D01*
X231754774Y-83601898D01*
X231832795Y-83790256D01*
X231946063Y-83959774D01*
X232090226Y-84103937D01*
X232259744Y-84217205D01*
X232448102Y-84295226D01*
X232648061Y-84335000D01*
X232851939Y-84335000D01*
X233051898Y-84295226D01*
X233240256Y-84217205D01*
X233409774Y-84103937D01*
X233553937Y-83959774D01*
X233667205Y-83790256D01*
X233745226Y-83601898D01*
X233785000Y-83401939D01*
X233785000Y-83198061D01*
X233750191Y-83023061D01*
X237340000Y-83023061D01*
X237340000Y-83226939D01*
X237379774Y-83426898D01*
X237457795Y-83615256D01*
X237571063Y-83784774D01*
X237715226Y-83928937D01*
X237884744Y-84042205D01*
X238073102Y-84120226D01*
X238273061Y-84160000D01*
X238476939Y-84160000D01*
X238676898Y-84120226D01*
X238865256Y-84042205D01*
X238987500Y-83960524D01*
X239109744Y-84042205D01*
X239298102Y-84120226D01*
X239498061Y-84160000D01*
X239701939Y-84160000D01*
X239901898Y-84120226D01*
X240090256Y-84042205D01*
X240231152Y-83948061D01*
X244865000Y-83948061D01*
X244865000Y-84151939D01*
X244904774Y-84351898D01*
X244982795Y-84540256D01*
X245096063Y-84709774D01*
X245240226Y-84853937D01*
X245409744Y-84967205D01*
X245598102Y-85045226D01*
X245798061Y-85085000D01*
X246001939Y-85085000D01*
X246201898Y-85045226D01*
X246390256Y-84967205D01*
X246559774Y-84853937D01*
X246703937Y-84709774D01*
X246817205Y-84540256D01*
X246895226Y-84351898D01*
X246935000Y-84151939D01*
X246935000Y-83948061D01*
X246895226Y-83748102D01*
X246817205Y-83559744D01*
X246703937Y-83390226D01*
X246559774Y-83246063D01*
X246390256Y-83132795D01*
X246201898Y-83054774D01*
X246001939Y-83015000D01*
X245798061Y-83015000D01*
X245598102Y-83054774D01*
X245409744Y-83132795D01*
X245240226Y-83246063D01*
X245096063Y-83390226D01*
X244982795Y-83559744D01*
X244904774Y-83748102D01*
X244865000Y-83948061D01*
X240231152Y-83948061D01*
X240259774Y-83928937D01*
X240403937Y-83784774D01*
X240517205Y-83615256D01*
X240595226Y-83426898D01*
X240635000Y-83226939D01*
X240635000Y-83023061D01*
X240595226Y-82823102D01*
X240517205Y-82634744D01*
X240403937Y-82465226D01*
X240259774Y-82321063D01*
X240090256Y-82207795D01*
X239901898Y-82129774D01*
X239701939Y-82090000D01*
X239498061Y-82090000D01*
X239298102Y-82129774D01*
X239109744Y-82207795D01*
X238987500Y-82289476D01*
X238865256Y-82207795D01*
X238676898Y-82129774D01*
X238476939Y-82090000D01*
X238273061Y-82090000D01*
X238073102Y-82129774D01*
X237884744Y-82207795D01*
X237715226Y-82321063D01*
X237571063Y-82465226D01*
X237457795Y-82634744D01*
X237379774Y-82823102D01*
X237340000Y-83023061D01*
X233750191Y-83023061D01*
X233745226Y-82998102D01*
X233667205Y-82809744D01*
X233553937Y-82640226D01*
X233409774Y-82496063D01*
X233240256Y-82382795D01*
X233051898Y-82304774D01*
X232851939Y-82265000D01*
X232648061Y-82265000D01*
X232448102Y-82304774D01*
X232259744Y-82382795D01*
X232090226Y-82496063D01*
X231946063Y-82640226D01*
X231832795Y-82809744D01*
X231754774Y-82998102D01*
X231715000Y-83198061D01*
X222311956Y-83198061D01*
X222345000Y-83031939D01*
X222345000Y-82828061D01*
X222305226Y-82628102D01*
X222227205Y-82439744D01*
X222113937Y-82270226D01*
X221969774Y-82126063D01*
X221845551Y-82043060D01*
X243720001Y-82043060D01*
X243720001Y-82246938D01*
X243759775Y-82446897D01*
X243837796Y-82635255D01*
X243951064Y-82804773D01*
X244095227Y-82948936D01*
X244264745Y-83062204D01*
X244453103Y-83140225D01*
X244653062Y-83179999D01*
X244856940Y-83179999D01*
X245056899Y-83140225D01*
X245245257Y-83062204D01*
X245414775Y-82948936D01*
X245558938Y-82804773D01*
X245672206Y-82635255D01*
X245750227Y-82446897D01*
X245790001Y-82246938D01*
X245790001Y-82043060D01*
X245750227Y-81843101D01*
X245672206Y-81654743D01*
X245558938Y-81485225D01*
X245414775Y-81341062D01*
X245245257Y-81227794D01*
X245056899Y-81149773D01*
X244856940Y-81109999D01*
X244653062Y-81109999D01*
X244453103Y-81149773D01*
X244264745Y-81227794D01*
X244095227Y-81341062D01*
X243951064Y-81485225D01*
X243837796Y-81654743D01*
X243759775Y-81843101D01*
X243720001Y-82043060D01*
X221845551Y-82043060D01*
X221800256Y-82012795D01*
X221611898Y-81934774D01*
X221411939Y-81895000D01*
X221208061Y-81895000D01*
X221008102Y-81934774D01*
X220819744Y-82012795D01*
X220650226Y-82126063D01*
X220506063Y-82270226D01*
X220466368Y-82329635D01*
X220396285Y-82259552D01*
X220226767Y-82146284D01*
X220038409Y-82068263D01*
X219838450Y-82028489D01*
X219634572Y-82028489D01*
X219434613Y-82068263D01*
X219246255Y-82146284D01*
X219076737Y-82259552D01*
X218932574Y-82403715D01*
X218819306Y-82573233D01*
X218741285Y-82761591D01*
X218701511Y-82961550D01*
X209685000Y-82961550D01*
X209685000Y-80648061D01*
X210515000Y-80648061D01*
X210515000Y-80851939D01*
X210554774Y-81051898D01*
X210632795Y-81240256D01*
X210746063Y-81409774D01*
X210890226Y-81553937D01*
X211059744Y-81667205D01*
X211248102Y-81745226D01*
X211448061Y-81785000D01*
X211651939Y-81785000D01*
X211851898Y-81745226D01*
X212040256Y-81667205D01*
X212209774Y-81553937D01*
X212353937Y-81409774D01*
X212467205Y-81240256D01*
X212545226Y-81051898D01*
X212585000Y-80851939D01*
X212585000Y-80648061D01*
X212569088Y-80568061D01*
X236005000Y-80568061D01*
X236005000Y-80771939D01*
X236044774Y-80971898D01*
X236122795Y-81160256D01*
X236236063Y-81329774D01*
X236380226Y-81473937D01*
X236549744Y-81587205D01*
X236738102Y-81665226D01*
X236938061Y-81705000D01*
X237141939Y-81705000D01*
X237341898Y-81665226D01*
X237530256Y-81587205D01*
X237699774Y-81473937D01*
X237843937Y-81329774D01*
X237957205Y-81160256D01*
X238035226Y-80971898D01*
X238075000Y-80771939D01*
X238075000Y-80568061D01*
X238035226Y-80368102D01*
X237957205Y-80179744D01*
X237843937Y-80010226D01*
X237699774Y-79866063D01*
X237530256Y-79752795D01*
X237341898Y-79674774D01*
X237141939Y-79635000D01*
X236938061Y-79635000D01*
X236738102Y-79674774D01*
X236549744Y-79752795D01*
X236380226Y-79866063D01*
X236236063Y-80010226D01*
X236122795Y-80179744D01*
X236044774Y-80368102D01*
X236005000Y-80568061D01*
X212569088Y-80568061D01*
X212545226Y-80448102D01*
X212467205Y-80259744D01*
X212353937Y-80090226D01*
X212209774Y-79946063D01*
X212040256Y-79832795D01*
X211851898Y-79754774D01*
X211651939Y-79715000D01*
X211448061Y-79715000D01*
X211248102Y-79754774D01*
X211059744Y-79832795D01*
X210890226Y-79946063D01*
X210746063Y-80090226D01*
X210632795Y-80259744D01*
X210554774Y-80448102D01*
X210515000Y-80648061D01*
X209685000Y-80648061D01*
X209685000Y-78658061D01*
X239815000Y-78658061D01*
X239815000Y-78861939D01*
X239854774Y-79061898D01*
X239932795Y-79250256D01*
X240046063Y-79419774D01*
X240190226Y-79563937D01*
X240359744Y-79677205D01*
X240548102Y-79755226D01*
X240748061Y-79795000D01*
X240951939Y-79795000D01*
X241151898Y-79755226D01*
X241340256Y-79677205D01*
X241509774Y-79563937D01*
X241653937Y-79419774D01*
X241767205Y-79250256D01*
X241845226Y-79061898D01*
X241885000Y-78861939D01*
X241885000Y-78658061D01*
X241845226Y-78458102D01*
X241767205Y-78269744D01*
X241653937Y-78100226D01*
X241509774Y-77956063D01*
X241340256Y-77842795D01*
X241151898Y-77764774D01*
X240951939Y-77725000D01*
X240748061Y-77725000D01*
X240548102Y-77764774D01*
X240359744Y-77842795D01*
X240190226Y-77956063D01*
X240046063Y-78100226D01*
X239932795Y-78269744D01*
X239854774Y-78458102D01*
X239815000Y-78658061D01*
X209685000Y-78658061D01*
X209685000Y-73691229D01*
X209865000Y-73691229D01*
X209865000Y-74308771D01*
X209985476Y-74914446D01*
X210221799Y-75484979D01*
X210564886Y-75998446D01*
X211001554Y-76435114D01*
X211515021Y-76778201D01*
X212085554Y-77014524D01*
X212691229Y-77135000D01*
X213308771Y-77135000D01*
X213914446Y-77014524D01*
X214484979Y-76778201D01*
X214597434Y-76703061D01*
X242340000Y-76703061D01*
X242340000Y-76906939D01*
X242379774Y-77106898D01*
X242457795Y-77295256D01*
X242571063Y-77464774D01*
X242715226Y-77608937D01*
X242884744Y-77722205D01*
X243073102Y-77800226D01*
X243273061Y-77840000D01*
X243476939Y-77840000D01*
X243676898Y-77800226D01*
X243865256Y-77722205D01*
X244034774Y-77608937D01*
X244178937Y-77464774D01*
X244292205Y-77295256D01*
X244370226Y-77106898D01*
X244410000Y-76906939D01*
X244410000Y-76703061D01*
X244370226Y-76503102D01*
X244318432Y-76378061D01*
X246145000Y-76378061D01*
X246145000Y-76581939D01*
X246184774Y-76781898D01*
X246262795Y-76970256D01*
X246376063Y-77139774D01*
X246520226Y-77283937D01*
X246689744Y-77397205D01*
X246878102Y-77475226D01*
X247078061Y-77515000D01*
X247281939Y-77515000D01*
X247481898Y-77475226D01*
X247670256Y-77397205D01*
X247839774Y-77283937D01*
X247983937Y-77139774D01*
X248097205Y-76970256D01*
X248175226Y-76781898D01*
X248215000Y-76581939D01*
X248215000Y-76450522D01*
X248291898Y-76435226D01*
X248480256Y-76357205D01*
X248649774Y-76243937D01*
X248793937Y-76099774D01*
X248907205Y-75930256D01*
X248985226Y-75741898D01*
X249025000Y-75541939D01*
X249025000Y-75338061D01*
X248985226Y-75138102D01*
X248907205Y-74949744D01*
X248793937Y-74780226D01*
X248649774Y-74636063D01*
X248480256Y-74522795D01*
X248291898Y-74444774D01*
X248091939Y-74405000D01*
X247888061Y-74405000D01*
X247688102Y-74444774D01*
X247499744Y-74522795D01*
X247330226Y-74636063D01*
X247186063Y-74780226D01*
X247072795Y-74949744D01*
X246994774Y-75138102D01*
X246955000Y-75338061D01*
X246955000Y-75469478D01*
X246878102Y-75484774D01*
X246689744Y-75562795D01*
X246520226Y-75676063D01*
X246376063Y-75820226D01*
X246262795Y-75989744D01*
X246184774Y-76178102D01*
X246145000Y-76378061D01*
X244318432Y-76378061D01*
X244292205Y-76314744D01*
X244178937Y-76145226D01*
X244034774Y-76001063D01*
X243865256Y-75887795D01*
X243676898Y-75809774D01*
X243476939Y-75770000D01*
X243273061Y-75770000D01*
X243073102Y-75809774D01*
X242884744Y-75887795D01*
X242715226Y-76001063D01*
X242571063Y-76145226D01*
X242457795Y-76314744D01*
X242379774Y-76503102D01*
X242340000Y-76703061D01*
X214597434Y-76703061D01*
X214998446Y-76435114D01*
X215435114Y-75998446D01*
X215778201Y-75484979D01*
X216014524Y-74914446D01*
X216135000Y-74308771D01*
X216135000Y-73691229D01*
X251865000Y-73691229D01*
X251865000Y-74308771D01*
X251985476Y-74914446D01*
X252221799Y-75484979D01*
X252564886Y-75998446D01*
X253001554Y-76435114D01*
X253515021Y-76778201D01*
X254085554Y-77014524D01*
X254691229Y-77135000D01*
X255308771Y-77135000D01*
X255914446Y-77014524D01*
X256484979Y-76778201D01*
X256998446Y-76435114D01*
X257435114Y-75998446D01*
X257778201Y-75484979D01*
X258014524Y-74914446D01*
X258135000Y-74308771D01*
X258135000Y-73691229D01*
X258014524Y-73085554D01*
X257778201Y-72515021D01*
X257435114Y-72001554D01*
X256998446Y-71564886D01*
X256484979Y-71221799D01*
X255914446Y-70985476D01*
X255308771Y-70865000D01*
X254691229Y-70865000D01*
X254085554Y-70985476D01*
X253515021Y-71221799D01*
X253001554Y-71564886D01*
X252564886Y-72001554D01*
X252221799Y-72515021D01*
X251985476Y-73085554D01*
X251865000Y-73691229D01*
X216135000Y-73691229D01*
X216014524Y-73085554D01*
X215778201Y-72515021D01*
X215435114Y-72001554D01*
X214998446Y-71564886D01*
X214484979Y-71221799D01*
X213914446Y-70985476D01*
X213308771Y-70865000D01*
X212691229Y-70865000D01*
X212085554Y-70985476D01*
X211515021Y-71221799D01*
X211001554Y-71564886D01*
X210564886Y-72001554D01*
X210221799Y-72515021D01*
X209985476Y-73085554D01*
X209865000Y-73691229D01*
X209685000Y-73691229D01*
X209685000Y-73033505D01*
X209732312Y-72550984D01*
X209862714Y-72119070D01*
X210074524Y-71720715D01*
X210359675Y-71371086D01*
X210707303Y-71083503D01*
X211104177Y-70868914D01*
X211535161Y-70735502D01*
X212015654Y-70685000D01*
X255966495Y-70685000D01*
X256449016Y-70732312D01*
%TA.AperFunction,Conductor*%
D15*
G36*
X256449016Y-70732312D02*
G01*
X256880930Y-70862714D01*
X257279285Y-71074524D01*
X257628914Y-71359675D01*
X257916497Y-71707303D01*
X258131086Y-72104177D01*
X258264498Y-72535161D01*
X258315000Y-73015654D01*
X258315001Y-106966485D01*
X258267688Y-107449016D01*
X258137287Y-107880927D01*
X257925480Y-108279280D01*
X257640325Y-108628914D01*
X257292697Y-108916497D01*
X256895825Y-109131085D01*
X256464834Y-109264500D01*
X255984346Y-109315000D01*
X212033504Y-109315000D01*
X211550984Y-109267688D01*
X211119073Y-109137287D01*
X210720720Y-108925480D01*
X210371086Y-108640325D01*
X210083503Y-108292697D01*
X209868915Y-107895825D01*
X209735500Y-107464834D01*
X209685000Y-106984346D01*
X209685000Y-105691229D01*
X209865000Y-105691229D01*
X209865000Y-106308771D01*
X209985476Y-106914446D01*
X210221799Y-107484979D01*
X210564886Y-107998446D01*
X211001554Y-108435114D01*
X211515021Y-108778201D01*
X212085554Y-109014524D01*
X212691229Y-109135000D01*
X213308771Y-109135000D01*
X213914446Y-109014524D01*
X214484979Y-108778201D01*
X214998446Y-108435114D01*
X215435114Y-107998446D01*
X215778201Y-107484979D01*
X216014524Y-106914446D01*
X216135000Y-106308771D01*
X216135000Y-105691229D01*
X251865000Y-105691229D01*
X251865000Y-106308771D01*
X251985476Y-106914446D01*
X252221799Y-107484979D01*
X252564886Y-107998446D01*
X253001554Y-108435114D01*
X253515021Y-108778201D01*
X254085554Y-109014524D01*
X254691229Y-109135000D01*
X255308771Y-109135000D01*
X255914446Y-109014524D01*
X256484979Y-108778201D01*
X256998446Y-108435114D01*
X257435114Y-107998446D01*
X257778201Y-107484979D01*
X258014524Y-106914446D01*
X258135000Y-106308771D01*
X258135000Y-105691229D01*
X258014524Y-105085554D01*
X257778201Y-104515021D01*
X257435114Y-104001554D01*
X256998446Y-103564886D01*
X256484979Y-103221799D01*
X255914446Y-102985476D01*
X255308771Y-102865000D01*
X254691229Y-102865000D01*
X254085554Y-102985476D01*
X253515021Y-103221799D01*
X253001554Y-103564886D01*
X252564886Y-104001554D01*
X252221799Y-104515021D01*
X251985476Y-105085554D01*
X251865000Y-105691229D01*
X216135000Y-105691229D01*
X216014524Y-105085554D01*
X215778201Y-104515021D01*
X215435114Y-104001554D01*
X214998446Y-103564886D01*
X214484979Y-103221799D01*
X213914446Y-102985476D01*
X213308771Y-102865000D01*
X212691229Y-102865000D01*
X212085554Y-102985476D01*
X211515021Y-103221799D01*
X211001554Y-103564886D01*
X210564886Y-104001554D01*
X210221799Y-104515021D01*
X209985476Y-105085554D01*
X209865000Y-105691229D01*
X209685000Y-105691229D01*
X209685000Y-98898061D01*
X220365000Y-98898061D01*
X220365000Y-99101939D01*
X220404774Y-99301898D01*
X220482795Y-99490256D01*
X220596063Y-99659774D01*
X220740226Y-99803937D01*
X220909744Y-99917205D01*
X221098102Y-99995226D01*
X221298061Y-100035000D01*
X221501939Y-100035000D01*
X221701898Y-99995226D01*
X221890256Y-99917205D01*
X222059774Y-99803937D01*
X222203937Y-99659774D01*
X222317205Y-99490256D01*
X222395226Y-99301898D01*
X222435000Y-99101939D01*
X222435000Y-98898061D01*
X222395226Y-98698102D01*
X222317205Y-98509744D01*
X222203937Y-98340226D01*
X222059774Y-98196063D01*
X221890256Y-98082795D01*
X221701898Y-98004774D01*
X221501939Y-97965000D01*
X221298061Y-97965000D01*
X221098102Y-98004774D01*
X220909744Y-98082795D01*
X220740226Y-98196063D01*
X220596063Y-98340226D01*
X220482795Y-98509744D01*
X220404774Y-98698102D01*
X220365000Y-98898061D01*
X209685000Y-98898061D01*
X209685000Y-96368061D01*
X221485000Y-96368061D01*
X221485000Y-96571939D01*
X221524774Y-96771898D01*
X221602795Y-96960256D01*
X221716063Y-97129774D01*
X221860226Y-97273937D01*
X222029744Y-97387205D01*
X222218102Y-97465226D01*
X222418061Y-97505000D01*
X222621939Y-97505000D01*
X222821898Y-97465226D01*
X222948377Y-97412836D01*
X222904774Y-97518102D01*
X222865000Y-97718061D01*
X222865000Y-97921939D01*
X222904774Y-98121898D01*
X222982795Y-98310256D01*
X223096063Y-98479774D01*
X223240226Y-98623937D01*
X223409744Y-98737205D01*
X223598102Y-98815226D01*
X223798061Y-98855000D01*
X224001939Y-98855000D01*
X224201898Y-98815226D01*
X224390256Y-98737205D01*
X224559774Y-98623937D01*
X224703937Y-98479774D01*
X224817205Y-98310256D01*
X224895226Y-98121898D01*
X224935000Y-97921939D01*
X224935000Y-97718061D01*
X224895226Y-97518102D01*
X224817205Y-97329744D01*
X224703937Y-97160226D01*
X224559774Y-97016063D01*
X224390256Y-96902795D01*
X224201898Y-96824774D01*
X224001939Y-96785000D01*
X223798061Y-96785000D01*
X223598102Y-96824774D01*
X223471623Y-96877164D01*
X223515226Y-96771898D01*
X223555000Y-96571939D01*
X223555000Y-96368061D01*
X223515226Y-96168102D01*
X223437205Y-95979744D01*
X223323937Y-95810226D01*
X223179774Y-95666063D01*
X223010256Y-95552795D01*
X222821898Y-95474774D01*
X222621939Y-95435000D01*
X222418061Y-95435000D01*
X222218102Y-95474774D01*
X222029744Y-95552795D01*
X221860226Y-95666063D01*
X221716063Y-95810226D01*
X221602795Y-95979744D01*
X221524774Y-96168102D01*
X221485000Y-96368061D01*
X209685000Y-96368061D01*
X209685000Y-93408061D01*
X221835000Y-93408061D01*
X221835000Y-93611939D01*
X221874774Y-93811898D01*
X221952795Y-94000256D01*
X222066063Y-94169774D01*
X222210226Y-94313937D01*
X222379744Y-94427205D01*
X222568102Y-94505226D01*
X222768061Y-94545000D01*
X222971939Y-94545000D01*
X223171898Y-94505226D01*
X223360256Y-94427205D01*
X223529774Y-94313937D01*
X223673937Y-94169774D01*
X223787205Y-94000256D01*
X223865226Y-93811898D01*
X223905000Y-93611939D01*
X223905000Y-93408061D01*
X223865226Y-93208102D01*
X223787205Y-93019744D01*
X223673937Y-92850226D01*
X223529774Y-92706063D01*
X223360256Y-92592795D01*
X223171898Y-92514774D01*
X222971939Y-92475000D01*
X222768061Y-92475000D01*
X222568102Y-92514774D01*
X222379744Y-92592795D01*
X222210226Y-92706063D01*
X222066063Y-92850226D01*
X221952795Y-93019744D01*
X221874774Y-93208102D01*
X221835000Y-93408061D01*
X209685000Y-93408061D01*
X209685000Y-92255561D01*
X218607500Y-92255561D01*
X218607500Y-92459439D01*
X218647274Y-92659398D01*
X218725295Y-92847756D01*
X218838563Y-93017274D01*
X218982726Y-93161437D01*
X219152244Y-93274705D01*
X219340602Y-93352726D01*
X219540561Y-93392500D01*
X219744439Y-93392500D01*
X219944398Y-93352726D01*
X220132756Y-93274705D01*
X220302274Y-93161437D01*
X220446437Y-93017274D01*
X220559705Y-92847756D01*
X220637726Y-92659398D01*
X220677500Y-92459439D01*
X220677500Y-92255561D01*
X220637726Y-92055602D01*
X220559705Y-91867244D01*
X220446437Y-91697726D01*
X220302274Y-91553563D01*
X220132756Y-91440295D01*
X219944398Y-91362274D01*
X219744439Y-91322500D01*
X219540561Y-91322500D01*
X219340602Y-91362274D01*
X219152244Y-91440295D01*
X218982726Y-91553563D01*
X218838563Y-91697726D01*
X218725295Y-91867244D01*
X218647274Y-92055602D01*
X218607500Y-92255561D01*
X209685000Y-92255561D01*
X209685000Y-89488061D01*
X210705000Y-89488061D01*
X210705000Y-89691939D01*
X210744774Y-89891898D01*
X210822795Y-90080256D01*
X210936063Y-90249774D01*
X211080226Y-90393937D01*
X211249744Y-90507205D01*
X211438102Y-90585226D01*
X211638061Y-90625000D01*
X211841939Y-90625000D01*
X212041898Y-90585226D01*
X212230256Y-90507205D01*
X212399774Y-90393937D01*
X212543937Y-90249774D01*
X212657205Y-90080256D01*
X212735226Y-89891898D01*
X212743945Y-89848061D01*
X215690000Y-89848061D01*
X215690000Y-90051939D01*
X215729774Y-90251898D01*
X215807795Y-90440256D01*
X215921063Y-90609774D01*
X216065226Y-90753937D01*
X216234744Y-90867205D01*
X216423102Y-90945226D01*
X216623061Y-90985000D01*
X216826939Y-90985000D01*
X217026898Y-90945226D01*
X217215256Y-90867205D01*
X217384774Y-90753937D01*
X217528937Y-90609774D01*
X217642205Y-90440256D01*
X217720226Y-90251898D01*
X217760000Y-90051939D01*
X217760000Y-89848061D01*
X217720226Y-89648102D01*
X217642205Y-89459744D01*
X217528937Y-89290226D01*
X217384774Y-89146063D01*
X217215256Y-89032795D01*
X217026898Y-88954774D01*
X216826939Y-88915000D01*
X216623061Y-88915000D01*
X216423102Y-88954774D01*
X216234744Y-89032795D01*
X216065226Y-89146063D01*
X215921063Y-89290226D01*
X215807795Y-89459744D01*
X215729774Y-89648102D01*
X215690000Y-89848061D01*
X212743945Y-89848061D01*
X212775000Y-89691939D01*
X212775000Y-89488061D01*
X212735226Y-89288102D01*
X212657205Y-89099744D01*
X212543937Y-88930226D01*
X212399774Y-88786063D01*
X212230256Y-88672795D01*
X212041898Y-88594774D01*
X211841939Y-88555000D01*
X211638061Y-88555000D01*
X211438102Y-88594774D01*
X211249744Y-88672795D01*
X211080226Y-88786063D01*
X210936063Y-88930226D01*
X210822795Y-89099744D01*
X210744774Y-89288102D01*
X210705000Y-89488061D01*
X209685000Y-89488061D01*
X209685000Y-88378061D01*
X217875000Y-88378061D01*
X217875000Y-88581939D01*
X217914774Y-88781898D01*
X217992795Y-88970256D01*
X218106063Y-89139774D01*
X218250226Y-89283937D01*
X218419744Y-89397205D01*
X218608102Y-89475226D01*
X218808061Y-89515000D01*
X218946101Y-89515000D01*
X218882795Y-89609744D01*
X218804774Y-89798102D01*
X218765000Y-89998061D01*
X218765000Y-90201939D01*
X218804774Y-90401898D01*
X218882795Y-90590256D01*
X218996063Y-90759774D01*
X219140226Y-90903937D01*
X219309744Y-91017205D01*
X219498102Y-91095226D01*
X219698061Y-91135000D01*
X219901939Y-91135000D01*
X220101898Y-91095226D01*
X220290256Y-91017205D01*
X220459774Y-90903937D01*
X220603937Y-90759774D01*
X220717205Y-90590256D01*
X220749645Y-90511940D01*
X220802795Y-90640256D01*
X220916063Y-90809774D01*
X221060226Y-90953937D01*
X221229744Y-91067205D01*
X221418102Y-91145226D01*
X221618061Y-91185000D01*
X221821939Y-91185000D01*
X222021898Y-91145226D01*
X222210256Y-91067205D01*
X222379774Y-90953937D01*
X222523937Y-90809774D01*
X222637205Y-90640256D01*
X222715226Y-90451898D01*
X222755000Y-90251939D01*
X222755000Y-90048061D01*
X222751022Y-90028061D01*
X222785000Y-90028061D01*
X222785000Y-90231939D01*
X222824774Y-90431898D01*
X222902795Y-90620256D01*
X223016063Y-90789774D01*
X223160226Y-90933937D01*
X223329744Y-91047205D01*
X223518102Y-91125226D01*
X223718061Y-91165000D01*
X223921939Y-91165000D01*
X224121898Y-91125226D01*
X224310256Y-91047205D01*
X224479774Y-90933937D01*
X224623937Y-90789774D01*
X224737205Y-90620256D01*
X224760896Y-90563061D01*
X239870000Y-90563061D01*
X239870000Y-90766939D01*
X239909774Y-90966898D01*
X239987795Y-91155256D01*
X240101063Y-91324774D01*
X240245226Y-91468937D01*
X240414744Y-91582205D01*
X240603102Y-91660226D01*
X240803061Y-91700000D01*
X241006939Y-91700000D01*
X241206898Y-91660226D01*
X241395256Y-91582205D01*
X241564774Y-91468937D01*
X241708937Y-91324774D01*
X241808067Y-91176415D01*
X241842795Y-91260256D01*
X241956063Y-91429774D01*
X242100226Y-91573937D01*
X242269744Y-91687205D01*
X242458102Y-91765226D01*
X242658061Y-91805000D01*
X242861939Y-91805000D01*
X243061898Y-91765226D01*
X243250256Y-91687205D01*
X243419774Y-91573937D01*
X243563937Y-91429774D01*
X243677205Y-91260256D01*
X243755226Y-91071898D01*
X243795000Y-90871939D01*
X243795000Y-90668061D01*
X243755226Y-90468102D01*
X243677205Y-90279744D01*
X243622627Y-90198061D01*
X254915000Y-90198061D01*
X254915000Y-90401939D01*
X254954774Y-90601898D01*
X255032795Y-90790256D01*
X255146063Y-90959774D01*
X255290226Y-91103937D01*
X255459744Y-91217205D01*
X255648102Y-91295226D01*
X255848061Y-91335000D01*
X256051939Y-91335000D01*
X256251898Y-91295226D01*
X256440256Y-91217205D01*
X256609774Y-91103937D01*
X256753937Y-90959774D01*
X256867205Y-90790256D01*
X256945226Y-90601898D01*
X256985000Y-90401939D01*
X256985000Y-90198061D01*
X256945226Y-89998102D01*
X256867205Y-89809744D01*
X256753937Y-89640226D01*
X256609774Y-89496063D01*
X256440256Y-89382795D01*
X256251898Y-89304774D01*
X256051939Y-89265000D01*
X255848061Y-89265000D01*
X255648102Y-89304774D01*
X255459744Y-89382795D01*
X255290226Y-89496063D01*
X255146063Y-89640226D01*
X255032795Y-89809744D01*
X254954774Y-89998102D01*
X254915000Y-90198061D01*
X243622627Y-90198061D01*
X243563937Y-90110226D01*
X243488711Y-90035000D01*
X243563937Y-89959774D01*
X243677205Y-89790256D01*
X243755226Y-89601898D01*
X243795000Y-89401939D01*
X243795000Y-89198061D01*
X243755226Y-88998102D01*
X243677205Y-88809744D01*
X243563937Y-88640226D01*
X243419774Y-88496063D01*
X243250256Y-88382795D01*
X243061898Y-88304774D01*
X242861939Y-88265000D01*
X242658061Y-88265000D01*
X242458102Y-88304774D01*
X242269744Y-88382795D01*
X242100226Y-88496063D01*
X241956063Y-88640226D01*
X241842795Y-88809744D01*
X241764774Y-88998102D01*
X241725000Y-89198061D01*
X241725000Y-89401939D01*
X241764774Y-89601898D01*
X241842795Y-89790256D01*
X241956063Y-89959774D01*
X242031289Y-90035000D01*
X241956063Y-90110226D01*
X241856933Y-90258585D01*
X241822205Y-90174744D01*
X241708937Y-90005226D01*
X241564774Y-89861063D01*
X241395256Y-89747795D01*
X241206898Y-89669774D01*
X241006939Y-89630000D01*
X240803061Y-89630000D01*
X240603102Y-89669774D01*
X240414744Y-89747795D01*
X240245226Y-89861063D01*
X240101063Y-90005226D01*
X239987795Y-90174744D01*
X239909774Y-90363102D01*
X239870000Y-90563061D01*
X224760896Y-90563061D01*
X224815226Y-90431898D01*
X224855000Y-90231939D01*
X224855000Y-90028061D01*
X224815226Y-89828102D01*
X224737205Y-89639744D01*
X224623937Y-89470226D01*
X224479774Y-89326063D01*
X224310256Y-89212795D01*
X224121898Y-89134774D01*
X223921939Y-89095000D01*
X223718061Y-89095000D01*
X223518102Y-89134774D01*
X223329744Y-89212795D01*
X223160226Y-89326063D01*
X223016063Y-89470226D01*
X222902795Y-89639744D01*
X222824774Y-89828102D01*
X222785000Y-90028061D01*
X222751022Y-90028061D01*
X222715226Y-89848102D01*
X222637205Y-89659744D01*
X222523937Y-89490226D01*
X222379774Y-89346063D01*
X222210256Y-89232795D01*
X222021898Y-89154774D01*
X221821939Y-89115000D01*
X221618061Y-89115000D01*
X221418102Y-89154774D01*
X221229744Y-89232795D01*
X221060226Y-89346063D01*
X220916063Y-89490226D01*
X220802795Y-89659744D01*
X220770355Y-89738060D01*
X220717205Y-89609744D01*
X220603937Y-89440226D01*
X220459774Y-89296063D01*
X220290256Y-89182795D01*
X220101898Y-89104774D01*
X219901939Y-89065000D01*
X219763899Y-89065000D01*
X219768535Y-89058061D01*
X230465000Y-89058061D01*
X230465000Y-89261939D01*
X230504774Y-89461898D01*
X230582795Y-89650256D01*
X230696063Y-89819774D01*
X230840226Y-89963937D01*
X231009744Y-90077205D01*
X231198102Y-90155226D01*
X231398061Y-90195000D01*
X231601939Y-90195000D01*
X231801898Y-90155226D01*
X231990256Y-90077205D01*
X232159774Y-89963937D01*
X232258059Y-89865652D01*
X232371063Y-90034774D01*
X232515226Y-90178937D01*
X232684744Y-90292205D01*
X232873102Y-90370226D01*
X233073061Y-90410000D01*
X233276939Y-90410000D01*
X233476898Y-90370226D01*
X233665256Y-90292205D01*
X233834774Y-90178937D01*
X233978937Y-90034774D01*
X234019843Y-89973554D01*
X234030226Y-89983937D01*
X234199744Y-90097205D01*
X234388102Y-90175226D01*
X234588061Y-90215000D01*
X234791939Y-90215000D01*
X234991898Y-90175226D01*
X235180256Y-90097205D01*
X235349774Y-89983937D01*
X235493937Y-89839774D01*
X235607205Y-89670256D01*
X235685226Y-89481898D01*
X235725000Y-89281939D01*
X235725000Y-89078061D01*
X235685226Y-88878102D01*
X235607205Y-88689744D01*
X235493937Y-88520226D01*
X235349774Y-88376063D01*
X235180256Y-88262795D01*
X234991898Y-88184774D01*
X234791939Y-88145000D01*
X234588061Y-88145000D01*
X234388102Y-88184774D01*
X234199744Y-88262795D01*
X234030226Y-88376063D01*
X233886063Y-88520226D01*
X233845157Y-88581446D01*
X233834774Y-88571063D01*
X233665256Y-88457795D01*
X233476898Y-88379774D01*
X233276939Y-88340000D01*
X233073061Y-88340000D01*
X232873102Y-88379774D01*
X232684744Y-88457795D01*
X232515226Y-88571063D01*
X232416941Y-88669348D01*
X232303937Y-88500226D01*
X232159774Y-88356063D01*
X231990256Y-88242795D01*
X231801898Y-88164774D01*
X231601939Y-88125000D01*
X231398061Y-88125000D01*
X231198102Y-88164774D01*
X231009744Y-88242795D01*
X230840226Y-88356063D01*
X230696063Y-88500226D01*
X230582795Y-88669744D01*
X230504774Y-88858102D01*
X230465000Y-89058061D01*
X219768535Y-89058061D01*
X219827205Y-88970256D01*
X219905226Y-88781898D01*
X219932224Y-88646164D01*
X220527784Y-88646164D01*
X220531826Y-88834827D01*
X220692974Y-88901328D01*
X220863998Y-88935113D01*
X221038328Y-88934884D01*
X221209264Y-88900649D01*
X221368174Y-88834827D01*
X221372216Y-88646164D01*
X221577784Y-88646164D01*
X221581826Y-88834827D01*
X221742974Y-88901328D01*
X221913998Y-88935113D01*
X222088328Y-88934884D01*
X222259264Y-88900649D01*
X222418174Y-88834827D01*
X222422216Y-88646164D01*
X222627784Y-88646164D01*
X222631826Y-88834827D01*
X222792974Y-88901328D01*
X222963998Y-88935113D01*
X223138328Y-88934884D01*
X223309264Y-88900649D01*
X223468174Y-88834827D01*
X223472216Y-88646164D01*
X223050000Y-88223948D01*
X222627784Y-88646164D01*
X222422216Y-88646164D01*
X222000000Y-88223948D01*
X221577784Y-88646164D01*
X221372216Y-88646164D01*
X220950000Y-88223948D01*
X220527784Y-88646164D01*
X219932224Y-88646164D01*
X219945000Y-88581939D01*
X219945000Y-88378061D01*
X219905226Y-88178102D01*
X219827205Y-87989744D01*
X219810003Y-87963998D01*
X220064887Y-87963998D01*
X220065116Y-88138328D01*
X220099351Y-88309264D01*
X220165173Y-88468174D01*
X220353836Y-88472216D01*
X220776052Y-88050000D01*
X220353836Y-87627784D01*
X220165173Y-87631826D01*
X220098672Y-87792974D01*
X220064887Y-87963998D01*
X219810003Y-87963998D01*
X219713937Y-87820226D01*
X219569774Y-87676063D01*
X219400256Y-87562795D01*
X219211898Y-87484774D01*
X219011939Y-87445000D01*
X218808061Y-87445000D01*
X218608102Y-87484774D01*
X218419744Y-87562795D01*
X218250226Y-87676063D01*
X218106063Y-87820226D01*
X217992795Y-87989744D01*
X217914774Y-88178102D01*
X217875000Y-88378061D01*
X209685000Y-88378061D01*
X209685000Y-86080561D01*
X210772500Y-86080561D01*
X210772500Y-86284439D01*
X210812274Y-86484398D01*
X210890295Y-86672756D01*
X211003563Y-86842274D01*
X211147726Y-86986437D01*
X211317244Y-87099705D01*
X211505602Y-87177726D01*
X211705561Y-87217500D01*
X211909439Y-87217500D01*
X212109398Y-87177726D01*
X212297756Y-87099705D01*
X212467274Y-86986437D01*
X212611437Y-86842274D01*
X212724705Y-86672756D01*
X212802726Y-86484398D01*
X212842500Y-86284439D01*
X212842500Y-86148061D01*
X214415000Y-86148061D01*
X214415000Y-86351939D01*
X214454774Y-86551898D01*
X214532795Y-86740256D01*
X214646063Y-86909774D01*
X214790226Y-87053937D01*
X214959744Y-87167205D01*
X215148102Y-87245226D01*
X215348061Y-87285000D01*
X215551939Y-87285000D01*
X215751898Y-87245226D01*
X215940256Y-87167205D01*
X216109774Y-87053937D01*
X216249713Y-86913998D01*
X220064887Y-86913998D01*
X220065116Y-87088328D01*
X220099351Y-87259264D01*
X220165173Y-87418174D01*
X220353836Y-87422216D01*
X220776052Y-87000000D01*
X220353836Y-86577784D01*
X220165173Y-86581826D01*
X220098672Y-86742974D01*
X220064887Y-86913998D01*
X216249713Y-86913998D01*
X216253937Y-86909774D01*
X216367205Y-86740256D01*
X216445226Y-86551898D01*
X216474677Y-86403836D01*
X220527784Y-86403836D01*
X220598948Y-86475000D01*
X220527784Y-86546164D01*
X220531826Y-86734827D01*
X220692974Y-86801328D01*
X220863998Y-86835113D01*
X221038328Y-86834884D01*
X221134313Y-86815660D01*
X221114887Y-86913998D01*
X221115116Y-87088328D01*
X221134340Y-87184313D01*
X221036002Y-87164887D01*
X220861672Y-87165116D01*
X220690736Y-87199351D01*
X220531826Y-87265173D01*
X220527784Y-87453836D01*
X220598948Y-87525000D01*
X220527784Y-87596164D01*
X220531826Y-87784827D01*
X220692974Y-87851328D01*
X220863998Y-87885113D01*
X221038328Y-87884884D01*
X221134313Y-87865660D01*
X221114887Y-87963998D01*
X221115116Y-88138328D01*
X221149351Y-88309264D01*
X221215173Y-88468174D01*
X221403836Y-88472216D01*
X221475000Y-88401052D01*
X221546164Y-88472216D01*
X221734827Y-88468174D01*
X221801328Y-88307026D01*
X221835113Y-88136002D01*
X221834884Y-87961672D01*
X221815660Y-87865687D01*
X221913998Y-87885113D01*
X222088328Y-87884884D01*
X222184313Y-87865660D01*
X222164887Y-87963998D01*
X222165116Y-88138328D01*
X222199351Y-88309264D01*
X222265173Y-88468174D01*
X222453836Y-88472216D01*
X222525000Y-88401052D01*
X222596164Y-88472216D01*
X222784827Y-88468174D01*
X222851328Y-88307026D01*
X222885113Y-88136002D01*
X222885001Y-88050000D01*
X223223948Y-88050000D01*
X223646164Y-88472216D01*
X223834827Y-88468174D01*
X223901328Y-88307026D01*
X223935113Y-88136002D01*
X223934884Y-87961672D01*
X223900649Y-87790736D01*
X223834827Y-87631826D01*
X223646164Y-87627784D01*
X223223948Y-88050000D01*
X222885001Y-88050000D01*
X222884884Y-87961672D01*
X222865660Y-87865687D01*
X222963998Y-87885113D01*
X223138328Y-87884884D01*
X223309264Y-87850649D01*
X223468174Y-87784827D01*
X223472216Y-87596164D01*
X223401052Y-87525000D01*
X223472216Y-87453836D01*
X223468174Y-87265173D01*
X223307026Y-87198672D01*
X223136002Y-87164887D01*
X222961672Y-87165116D01*
X222865687Y-87184340D01*
X222885113Y-87086002D01*
X222885001Y-87000000D01*
X223223948Y-87000000D01*
X223646164Y-87422216D01*
X223834827Y-87418174D01*
X223901328Y-87257026D01*
X223922853Y-87148061D01*
X224325000Y-87148061D01*
X224325000Y-87351939D01*
X224364774Y-87551898D01*
X224442795Y-87740256D01*
X224556063Y-87909774D01*
X224700226Y-88053937D01*
X224869744Y-88167205D01*
X225058102Y-88245226D01*
X225258061Y-88285000D01*
X225461939Y-88285000D01*
X225661898Y-88245226D01*
X225850256Y-88167205D01*
X226019774Y-88053937D01*
X226163937Y-87909774D01*
X226277205Y-87740256D01*
X226314011Y-87651399D01*
X230805161Y-87651399D01*
X230940789Y-87725667D01*
X231088302Y-87772047D01*
X231242027Y-87788759D01*
X231396059Y-87775158D01*
X231544479Y-87731769D01*
X231681582Y-87660259D01*
X231694839Y-87651399D01*
X232305161Y-87651399D01*
X232440789Y-87725667D01*
X232588302Y-87772047D01*
X232742027Y-87788759D01*
X232896059Y-87775158D01*
X233044479Y-87731769D01*
X233181582Y-87660259D01*
X233194839Y-87651399D01*
X233178951Y-87461478D01*
X232750000Y-87032527D01*
X232321049Y-87461478D01*
X232305161Y-87651399D01*
X231694839Y-87651399D01*
X231678951Y-87461478D01*
X231250000Y-87032527D01*
X230821049Y-87461478D01*
X230805161Y-87651399D01*
X226314011Y-87651399D01*
X226355226Y-87551898D01*
X226395000Y-87351939D01*
X226395000Y-87148061D01*
X226355226Y-86948102D01*
X226277205Y-86759744D01*
X226163937Y-86590226D01*
X226019774Y-86446063D01*
X225850256Y-86332795D01*
X225661898Y-86254774D01*
X225461939Y-86215000D01*
X225258061Y-86215000D01*
X225058102Y-86254774D01*
X224869744Y-86332795D01*
X224700226Y-86446063D01*
X224556063Y-86590226D01*
X224442795Y-86759744D01*
X224364774Y-86948102D01*
X224325000Y-87148061D01*
X223922853Y-87148061D01*
X223935113Y-87086002D01*
X223934884Y-86911672D01*
X223900649Y-86740736D01*
X223834827Y-86581826D01*
X223646164Y-86577784D01*
X223223948Y-87000000D01*
X222885001Y-87000000D01*
X222884884Y-86911672D01*
X222865660Y-86815687D01*
X222963998Y-86835113D01*
X223138328Y-86834884D01*
X223309264Y-86800649D01*
X223468174Y-86734827D01*
X223472216Y-86546164D01*
X223401052Y-86475000D01*
X223472216Y-86403836D01*
X223468174Y-86215173D01*
X223307026Y-86148672D01*
X223136002Y-86114887D01*
X222961672Y-86115116D01*
X222865687Y-86134340D01*
X222885113Y-86036002D01*
X222885001Y-85950000D01*
X223223948Y-85950000D01*
X223646164Y-86372216D01*
X223834827Y-86368174D01*
X223901328Y-86207026D01*
X223935113Y-86036002D01*
X223934884Y-85861672D01*
X223900649Y-85690736D01*
X223834827Y-85531826D01*
X223646164Y-85527784D01*
X223223948Y-85950000D01*
X222885001Y-85950000D01*
X222884884Y-85861672D01*
X222850649Y-85690736D01*
X222784827Y-85531826D01*
X222596164Y-85527784D01*
X222525000Y-85598948D01*
X222453836Y-85527784D01*
X222265173Y-85531826D01*
X222198672Y-85692974D01*
X222164887Y-85863998D01*
X222165116Y-86038328D01*
X222184340Y-86134313D01*
X222086002Y-86114887D01*
X221911672Y-86115116D01*
X221815687Y-86134340D01*
X221835113Y-86036002D01*
X221834884Y-85861672D01*
X221800649Y-85690736D01*
X221734827Y-85531826D01*
X221546164Y-85527784D01*
X221475000Y-85598948D01*
X221403836Y-85527784D01*
X221215173Y-85531826D01*
X221148672Y-85692974D01*
X221114887Y-85863998D01*
X221115116Y-86038328D01*
X221134340Y-86134313D01*
X221036002Y-86114887D01*
X220861672Y-86115116D01*
X220690736Y-86149351D01*
X220531826Y-86215173D01*
X220527784Y-86403836D01*
X216474677Y-86403836D01*
X216485000Y-86351939D01*
X216485000Y-86148061D01*
X216445226Y-85948102D01*
X216410389Y-85863998D01*
X220064887Y-85863998D01*
X220065116Y-86038328D01*
X220099351Y-86209264D01*
X220165173Y-86368174D01*
X220353836Y-86372216D01*
X220776052Y-85950000D01*
X220353836Y-85527784D01*
X220165173Y-85531826D01*
X220098672Y-85692974D01*
X220064887Y-85863998D01*
X216410389Y-85863998D01*
X216367205Y-85759744D01*
X216253937Y-85590226D01*
X216109774Y-85446063D01*
X215971747Y-85353836D01*
X220527784Y-85353836D01*
X220950000Y-85776052D01*
X221372216Y-85353836D01*
X221577784Y-85353836D01*
X222000000Y-85776052D01*
X222422216Y-85353836D01*
X222627784Y-85353836D01*
X223050000Y-85776052D01*
X223472216Y-85353836D01*
X223468174Y-85165173D01*
X223307026Y-85098672D01*
X223136002Y-85064887D01*
X222961672Y-85065116D01*
X222790736Y-85099351D01*
X222631826Y-85165173D01*
X222627784Y-85353836D01*
X222422216Y-85353836D01*
X222418174Y-85165173D01*
X222257026Y-85098672D01*
X222086002Y-85064887D01*
X221911672Y-85065116D01*
X221740736Y-85099351D01*
X221581826Y-85165173D01*
X221577784Y-85353836D01*
X221372216Y-85353836D01*
X221368174Y-85165173D01*
X221207026Y-85098672D01*
X221036002Y-85064887D01*
X220861672Y-85065116D01*
X220690736Y-85099351D01*
X220531826Y-85165173D01*
X220527784Y-85353836D01*
X215971747Y-85353836D01*
X215940256Y-85332795D01*
X215751898Y-85254774D01*
X215551939Y-85215000D01*
X215348061Y-85215000D01*
X215148102Y-85254774D01*
X214959744Y-85332795D01*
X214790226Y-85446063D01*
X214646063Y-85590226D01*
X214532795Y-85759744D01*
X214454774Y-85948102D01*
X214415000Y-86148061D01*
X212842500Y-86148061D01*
X212842500Y-86080561D01*
X212802726Y-85880602D01*
X212724705Y-85692244D01*
X212611437Y-85522726D01*
X212467274Y-85378563D01*
X212297756Y-85265295D01*
X212109398Y-85187274D01*
X211909439Y-85147500D01*
X211705561Y-85147500D01*
X211505602Y-85187274D01*
X211317244Y-85265295D01*
X211147726Y-85378563D01*
X211003563Y-85522726D01*
X210890295Y-85692244D01*
X210812274Y-85880602D01*
X210772500Y-86080561D01*
X209685000Y-86080561D01*
X209685000Y-84858061D01*
X229075000Y-84858061D01*
X229075000Y-85061939D01*
X229114774Y-85261898D01*
X229192795Y-85450256D01*
X229306063Y-85619774D01*
X229450226Y-85763937D01*
X229619744Y-85877205D01*
X229808102Y-85955226D01*
X230008061Y-85995000D01*
X230211939Y-85995000D01*
X230411898Y-85955226D01*
X230467757Y-85932088D01*
X230461241Y-85992027D01*
X230474842Y-86146059D01*
X230518231Y-86294479D01*
X230589741Y-86431582D01*
X230598601Y-86444839D01*
X230788522Y-86428951D01*
X230810079Y-86407394D01*
X230817826Y-86500000D01*
X230810079Y-86592606D01*
X230788522Y-86571049D01*
X230598601Y-86555161D01*
X230524333Y-86690789D01*
X230477953Y-86838302D01*
X230461241Y-86992027D01*
X230474842Y-87146059D01*
X230518231Y-87294479D01*
X230589741Y-87431582D01*
X230598601Y-87444839D01*
X230788522Y-87428951D01*
X231217473Y-87000000D01*
X230944218Y-86726745D01*
X231039106Y-86756579D01*
X231250000Y-86967473D01*
X231321282Y-86896191D01*
X231339741Y-86931582D01*
X231344229Y-86938298D01*
X231282527Y-87000000D01*
X231711478Y-87428951D01*
X231901399Y-87444839D01*
X231975667Y-87309211D01*
X231982426Y-87287715D01*
X231992027Y-87288759D01*
X232015942Y-87286647D01*
X232018231Y-87294479D01*
X232089741Y-87431582D01*
X232098601Y-87444839D01*
X232288522Y-87428951D01*
X232717473Y-87000000D01*
X232655260Y-86937787D01*
X232678279Y-86895752D01*
X232750000Y-86967473D01*
X232961424Y-86756049D01*
X233044479Y-86731769D01*
X233057603Y-86724924D01*
X232782527Y-87000000D01*
X233211478Y-87428951D01*
X233401399Y-87444839D01*
X233475667Y-87309211D01*
X233522047Y-87161698D01*
X233538759Y-87007973D01*
X233525158Y-86853941D01*
X233481769Y-86705521D01*
X233410259Y-86568418D01*
X233401399Y-86555161D01*
X233211478Y-86571049D01*
X233189921Y-86592606D01*
X233182174Y-86500000D01*
X233189921Y-86407394D01*
X233211478Y-86428951D01*
X233401399Y-86444839D01*
X233475667Y-86309211D01*
X233522047Y-86161698D01*
X233538759Y-86007973D01*
X233525158Y-85853941D01*
X233494206Y-85748061D01*
X234335000Y-85748061D01*
X234335000Y-85951939D01*
X234374774Y-86151898D01*
X234452795Y-86340256D01*
X234566063Y-86509774D01*
X234710226Y-86653937D01*
X234879744Y-86767205D01*
X235068102Y-86845226D01*
X235268061Y-86885000D01*
X235471939Y-86885000D01*
X235671898Y-86845226D01*
X235860256Y-86767205D01*
X236029774Y-86653937D01*
X236173937Y-86509774D01*
X236287205Y-86340256D01*
X236365226Y-86151898D01*
X236405000Y-85951939D01*
X236405000Y-85818061D01*
X242995000Y-85818061D01*
X242995000Y-86021939D01*
X243034774Y-86221898D01*
X243112795Y-86410256D01*
X243226063Y-86579774D01*
X243370226Y-86723937D01*
X243539744Y-86837205D01*
X243728102Y-86915226D01*
X243928061Y-86955000D01*
X244131939Y-86955000D01*
X244331898Y-86915226D01*
X244520256Y-86837205D01*
X244689774Y-86723937D01*
X244833937Y-86579774D01*
X244947205Y-86410256D01*
X245025226Y-86221898D01*
X245065000Y-86021939D01*
X245065000Y-85818061D01*
X245025226Y-85618102D01*
X244947205Y-85429744D01*
X244833937Y-85260226D01*
X244689774Y-85116063D01*
X244520256Y-85002795D01*
X244331898Y-84924774D01*
X244131939Y-84885000D01*
X243928061Y-84885000D01*
X243728102Y-84924774D01*
X243539744Y-85002795D01*
X243370226Y-85116063D01*
X243226063Y-85260226D01*
X243112795Y-85429744D01*
X243034774Y-85618102D01*
X242995000Y-85818061D01*
X236405000Y-85818061D01*
X236405000Y-85748061D01*
X236365226Y-85548102D01*
X236287205Y-85359744D01*
X236173937Y-85190226D01*
X236029774Y-85046063D01*
X235860256Y-84932795D01*
X235671898Y-84854774D01*
X235471939Y-84815000D01*
X235268061Y-84815000D01*
X235068102Y-84854774D01*
X234879744Y-84932795D01*
X234710226Y-85046063D01*
X234566063Y-85190226D01*
X234452795Y-85359744D01*
X234374774Y-85548102D01*
X234335000Y-85748061D01*
X233494206Y-85748061D01*
X233481769Y-85705521D01*
X233410259Y-85568418D01*
X233401399Y-85555161D01*
X233211478Y-85571049D01*
X232782527Y-86000000D01*
X233055782Y-86273255D01*
X232960894Y-86243421D01*
X232750000Y-86032527D01*
X232678718Y-86103809D01*
X232660259Y-86068418D01*
X232655771Y-86061702D01*
X232717473Y-86000000D01*
X232288522Y-85571049D01*
X232098601Y-85555161D01*
X232024333Y-85690789D01*
X232017574Y-85712285D01*
X232007973Y-85711241D01*
X231984058Y-85713353D01*
X231981769Y-85705521D01*
X231910259Y-85568418D01*
X231901399Y-85555161D01*
X231711478Y-85571049D01*
X231282527Y-86000000D01*
X231344740Y-86062213D01*
X231321721Y-86104248D01*
X231250000Y-86032527D01*
X231038576Y-86243951D01*
X230955521Y-86268231D01*
X230942397Y-86275076D01*
X231217473Y-86000000D01*
X231129792Y-85912319D01*
X231162319Y-85879792D01*
X231250000Y-85967473D01*
X231678951Y-85538522D01*
X231694839Y-85348601D01*
X232305161Y-85348601D01*
X232321049Y-85538522D01*
X232750000Y-85967473D01*
X233178951Y-85538522D01*
X233194839Y-85348601D01*
X233059211Y-85274333D01*
X232911698Y-85227953D01*
X232757973Y-85211241D01*
X232603941Y-85224842D01*
X232455521Y-85268231D01*
X232318418Y-85339741D01*
X232305161Y-85348601D01*
X231694839Y-85348601D01*
X231559211Y-85274333D01*
X231411698Y-85227953D01*
X231257973Y-85211241D01*
X231112752Y-85224064D01*
X231145000Y-85061939D01*
X231145000Y-84858061D01*
X231105226Y-84658102D01*
X231027205Y-84469744D01*
X230913937Y-84300226D01*
X230769774Y-84156063D01*
X230600256Y-84042795D01*
X230411898Y-83964774D01*
X230211939Y-83925000D01*
X230008061Y-83925000D01*
X229808102Y-83964774D01*
X229619744Y-84042795D01*
X229450226Y-84156063D01*
X229306063Y-84300226D01*
X229192795Y-84469744D01*
X229114774Y-84658102D01*
X229075000Y-84858061D01*
X209685000Y-84858061D01*
X209685000Y-82961550D01*
X218701511Y-82961550D01*
X218701511Y-83165428D01*
X218741285Y-83365387D01*
X218819306Y-83553745D01*
X218932574Y-83723263D01*
X219076737Y-83867426D01*
X219246255Y-83980694D01*
X219434613Y-84058715D01*
X219634572Y-84098489D01*
X219838450Y-84098489D01*
X220038409Y-84058715D01*
X220226767Y-83980694D01*
X220396285Y-83867426D01*
X220540448Y-83723263D01*
X220580143Y-83663854D01*
X220650226Y-83733937D01*
X220819744Y-83847205D01*
X221008102Y-83925226D01*
X221208061Y-83965000D01*
X221411939Y-83965000D01*
X221611898Y-83925226D01*
X221800256Y-83847205D01*
X221969774Y-83733937D01*
X222113937Y-83589774D01*
X222227205Y-83420256D01*
X222305226Y-83231898D01*
X222311956Y-83198061D01*
X231715000Y-83198061D01*
X231715000Y-83401939D01*
X231754774Y-83601898D01*
X231832795Y-83790256D01*
X231946063Y-83959774D01*
X232090226Y-84103937D01*
X232259744Y-84217205D01*
X232448102Y-84295226D01*
X232648061Y-84335000D01*
X232851939Y-84335000D01*
X233051898Y-84295226D01*
X233240256Y-84217205D01*
X233409774Y-84103937D01*
X233553937Y-83959774D01*
X233667205Y-83790256D01*
X233745226Y-83601898D01*
X233785000Y-83401939D01*
X233785000Y-83198061D01*
X233750191Y-83023061D01*
X237340000Y-83023061D01*
X237340000Y-83226939D01*
X237379774Y-83426898D01*
X237457795Y-83615256D01*
X237571063Y-83784774D01*
X237715226Y-83928937D01*
X237884744Y-84042205D01*
X238073102Y-84120226D01*
X238273061Y-84160000D01*
X238476939Y-84160000D01*
X238676898Y-84120226D01*
X238865256Y-84042205D01*
X238987500Y-83960524D01*
X239109744Y-84042205D01*
X239298102Y-84120226D01*
X239498061Y-84160000D01*
X239701939Y-84160000D01*
X239901898Y-84120226D01*
X240090256Y-84042205D01*
X240231152Y-83948061D01*
X244865000Y-83948061D01*
X244865000Y-84151939D01*
X244904774Y-84351898D01*
X244982795Y-84540256D01*
X245096063Y-84709774D01*
X245240226Y-84853937D01*
X245409744Y-84967205D01*
X245598102Y-85045226D01*
X245798061Y-85085000D01*
X246001939Y-85085000D01*
X246201898Y-85045226D01*
X246390256Y-84967205D01*
X246559774Y-84853937D01*
X246703937Y-84709774D01*
X246817205Y-84540256D01*
X246895226Y-84351898D01*
X246935000Y-84151939D01*
X246935000Y-83948061D01*
X246895226Y-83748102D01*
X246817205Y-83559744D01*
X246703937Y-83390226D01*
X246559774Y-83246063D01*
X246390256Y-83132795D01*
X246201898Y-83054774D01*
X246001939Y-83015000D01*
X245798061Y-83015000D01*
X245598102Y-83054774D01*
X245409744Y-83132795D01*
X245240226Y-83246063D01*
X245096063Y-83390226D01*
X244982795Y-83559744D01*
X244904774Y-83748102D01*
X244865000Y-83948061D01*
X240231152Y-83948061D01*
X240259774Y-83928937D01*
X240403937Y-83784774D01*
X240517205Y-83615256D01*
X240595226Y-83426898D01*
X240635000Y-83226939D01*
X240635000Y-83023061D01*
X240595226Y-82823102D01*
X240517205Y-82634744D01*
X240403937Y-82465226D01*
X240259774Y-82321063D01*
X240090256Y-82207795D01*
X239901898Y-82129774D01*
X239701939Y-82090000D01*
X239498061Y-82090000D01*
X239298102Y-82129774D01*
X239109744Y-82207795D01*
X238987500Y-82289476D01*
X238865256Y-82207795D01*
X238676898Y-82129774D01*
X238476939Y-82090000D01*
X238273061Y-82090000D01*
X238073102Y-82129774D01*
X237884744Y-82207795D01*
X237715226Y-82321063D01*
X237571063Y-82465226D01*
X237457795Y-82634744D01*
X237379774Y-82823102D01*
X237340000Y-83023061D01*
X233750191Y-83023061D01*
X233745226Y-82998102D01*
X233667205Y-82809744D01*
X233553937Y-82640226D01*
X233409774Y-82496063D01*
X233240256Y-82382795D01*
X233051898Y-82304774D01*
X232851939Y-82265000D01*
X232648061Y-82265000D01*
X232448102Y-82304774D01*
X232259744Y-82382795D01*
X232090226Y-82496063D01*
X231946063Y-82640226D01*
X231832795Y-82809744D01*
X231754774Y-82998102D01*
X231715000Y-83198061D01*
X222311956Y-83198061D01*
X222345000Y-83031939D01*
X222345000Y-82828061D01*
X222305226Y-82628102D01*
X222227205Y-82439744D01*
X222113937Y-82270226D01*
X221969774Y-82126063D01*
X221845551Y-82043060D01*
X243720001Y-82043060D01*
X243720001Y-82246938D01*
X243759775Y-82446897D01*
X243837796Y-82635255D01*
X243951064Y-82804773D01*
X244095227Y-82948936D01*
X244264745Y-83062204D01*
X244453103Y-83140225D01*
X244653062Y-83179999D01*
X244856940Y-83179999D01*
X245056899Y-83140225D01*
X245245257Y-83062204D01*
X245414775Y-82948936D01*
X245558938Y-82804773D01*
X245672206Y-82635255D01*
X245750227Y-82446897D01*
X245790001Y-82246938D01*
X245790001Y-82043060D01*
X245750227Y-81843101D01*
X245672206Y-81654743D01*
X245558938Y-81485225D01*
X245414775Y-81341062D01*
X245245257Y-81227794D01*
X245056899Y-81149773D01*
X244856940Y-81109999D01*
X244653062Y-81109999D01*
X244453103Y-81149773D01*
X244264745Y-81227794D01*
X244095227Y-81341062D01*
X243951064Y-81485225D01*
X243837796Y-81654743D01*
X243759775Y-81843101D01*
X243720001Y-82043060D01*
X221845551Y-82043060D01*
X221800256Y-82012795D01*
X221611898Y-81934774D01*
X221411939Y-81895000D01*
X221208061Y-81895000D01*
X221008102Y-81934774D01*
X220819744Y-82012795D01*
X220650226Y-82126063D01*
X220506063Y-82270226D01*
X220466368Y-82329635D01*
X220396285Y-82259552D01*
X220226767Y-82146284D01*
X220038409Y-82068263D01*
X219838450Y-82028489D01*
X219634572Y-82028489D01*
X219434613Y-82068263D01*
X219246255Y-82146284D01*
X219076737Y-82259552D01*
X218932574Y-82403715D01*
X218819306Y-82573233D01*
X218741285Y-82761591D01*
X218701511Y-82961550D01*
X209685000Y-82961550D01*
X209685000Y-80648061D01*
X210515000Y-80648061D01*
X210515000Y-80851939D01*
X210554774Y-81051898D01*
X210632795Y-81240256D01*
X210746063Y-81409774D01*
X210890226Y-81553937D01*
X211059744Y-81667205D01*
X211248102Y-81745226D01*
X211448061Y-81785000D01*
X211651939Y-81785000D01*
X211851898Y-81745226D01*
X212040256Y-81667205D01*
X212209774Y-81553937D01*
X212353937Y-81409774D01*
X212467205Y-81240256D01*
X212545226Y-81051898D01*
X212585000Y-80851939D01*
X212585000Y-80648061D01*
X212569088Y-80568061D01*
X236005000Y-80568061D01*
X236005000Y-80771939D01*
X236044774Y-80971898D01*
X236122795Y-81160256D01*
X236236063Y-81329774D01*
X236380226Y-81473937D01*
X236549744Y-81587205D01*
X236738102Y-81665226D01*
X236938061Y-81705000D01*
X237141939Y-81705000D01*
X237341898Y-81665226D01*
X237530256Y-81587205D01*
X237699774Y-81473937D01*
X237843937Y-81329774D01*
X237957205Y-81160256D01*
X238035226Y-80971898D01*
X238075000Y-80771939D01*
X238075000Y-80568061D01*
X238035226Y-80368102D01*
X237957205Y-80179744D01*
X237843937Y-80010226D01*
X237699774Y-79866063D01*
X237530256Y-79752795D01*
X237341898Y-79674774D01*
X237141939Y-79635000D01*
X236938061Y-79635000D01*
X236738102Y-79674774D01*
X236549744Y-79752795D01*
X236380226Y-79866063D01*
X236236063Y-80010226D01*
X236122795Y-80179744D01*
X236044774Y-80368102D01*
X236005000Y-80568061D01*
X212569088Y-80568061D01*
X212545226Y-80448102D01*
X212467205Y-80259744D01*
X212353937Y-80090226D01*
X212209774Y-79946063D01*
X212040256Y-79832795D01*
X211851898Y-79754774D01*
X211651939Y-79715000D01*
X211448061Y-79715000D01*
X211248102Y-79754774D01*
X211059744Y-79832795D01*
X210890226Y-79946063D01*
X210746063Y-80090226D01*
X210632795Y-80259744D01*
X210554774Y-80448102D01*
X210515000Y-80648061D01*
X209685000Y-80648061D01*
X209685000Y-78658061D01*
X239815000Y-78658061D01*
X239815000Y-78861939D01*
X239854774Y-79061898D01*
X239932795Y-79250256D01*
X240046063Y-79419774D01*
X240190226Y-79563937D01*
X240359744Y-79677205D01*
X240548102Y-79755226D01*
X240748061Y-79795000D01*
X240951939Y-79795000D01*
X241151898Y-79755226D01*
X241340256Y-79677205D01*
X241509774Y-79563937D01*
X241653937Y-79419774D01*
X241767205Y-79250256D01*
X241845226Y-79061898D01*
X241885000Y-78861939D01*
X241885000Y-78658061D01*
X241845226Y-78458102D01*
X241767205Y-78269744D01*
X241653937Y-78100226D01*
X241509774Y-77956063D01*
X241340256Y-77842795D01*
X241151898Y-77764774D01*
X240951939Y-77725000D01*
X240748061Y-77725000D01*
X240548102Y-77764774D01*
X240359744Y-77842795D01*
X240190226Y-77956063D01*
X240046063Y-78100226D01*
X239932795Y-78269744D01*
X239854774Y-78458102D01*
X239815000Y-78658061D01*
X209685000Y-78658061D01*
X209685000Y-73691229D01*
X209865000Y-73691229D01*
X209865000Y-74308771D01*
X209985476Y-74914446D01*
X210221799Y-75484979D01*
X210564886Y-75998446D01*
X211001554Y-76435114D01*
X211515021Y-76778201D01*
X212085554Y-77014524D01*
X212691229Y-77135000D01*
X213308771Y-77135000D01*
X213914446Y-77014524D01*
X214484979Y-76778201D01*
X214597434Y-76703061D01*
X242340000Y-76703061D01*
X242340000Y-76906939D01*
X242379774Y-77106898D01*
X242457795Y-77295256D01*
X242571063Y-77464774D01*
X242715226Y-77608937D01*
X242884744Y-77722205D01*
X243073102Y-77800226D01*
X243273061Y-77840000D01*
X243476939Y-77840000D01*
X243676898Y-77800226D01*
X243865256Y-77722205D01*
X244034774Y-77608937D01*
X244178937Y-77464774D01*
X244292205Y-77295256D01*
X244370226Y-77106898D01*
X244410000Y-76906939D01*
X244410000Y-76703061D01*
X244370226Y-76503102D01*
X244318432Y-76378061D01*
X246145000Y-76378061D01*
X246145000Y-76581939D01*
X246184774Y-76781898D01*
X246262795Y-76970256D01*
X246376063Y-77139774D01*
X246520226Y-77283937D01*
X246689744Y-77397205D01*
X246878102Y-77475226D01*
X247078061Y-77515000D01*
X247281939Y-77515000D01*
X247481898Y-77475226D01*
X247670256Y-77397205D01*
X247839774Y-77283937D01*
X247983937Y-77139774D01*
X248097205Y-76970256D01*
X248175226Y-76781898D01*
X248215000Y-76581939D01*
X248215000Y-76450522D01*
X248291898Y-76435226D01*
X248480256Y-76357205D01*
X248649774Y-76243937D01*
X248793937Y-76099774D01*
X248907205Y-75930256D01*
X248985226Y-75741898D01*
X249025000Y-75541939D01*
X249025000Y-75338061D01*
X248985226Y-75138102D01*
X248907205Y-74949744D01*
X248793937Y-74780226D01*
X248649774Y-74636063D01*
X248480256Y-74522795D01*
X248291898Y-74444774D01*
X248091939Y-74405000D01*
X247888061Y-74405000D01*
X247688102Y-74444774D01*
X247499744Y-74522795D01*
X247330226Y-74636063D01*
X247186063Y-74780226D01*
X247072795Y-74949744D01*
X246994774Y-75138102D01*
X246955000Y-75338061D01*
X246955000Y-75469478D01*
X246878102Y-75484774D01*
X246689744Y-75562795D01*
X246520226Y-75676063D01*
X246376063Y-75820226D01*
X246262795Y-75989744D01*
X246184774Y-76178102D01*
X246145000Y-76378061D01*
X244318432Y-76378061D01*
X244292205Y-76314744D01*
X244178937Y-76145226D01*
X244034774Y-76001063D01*
X243865256Y-75887795D01*
X243676898Y-75809774D01*
X243476939Y-75770000D01*
X243273061Y-75770000D01*
X243073102Y-75809774D01*
X242884744Y-75887795D01*
X242715226Y-76001063D01*
X242571063Y-76145226D01*
X242457795Y-76314744D01*
X242379774Y-76503102D01*
X242340000Y-76703061D01*
X214597434Y-76703061D01*
X214998446Y-76435114D01*
X215435114Y-75998446D01*
X215778201Y-75484979D01*
X216014524Y-74914446D01*
X216135000Y-74308771D01*
X216135000Y-73691229D01*
X251865000Y-73691229D01*
X251865000Y-74308771D01*
X251985476Y-74914446D01*
X252221799Y-75484979D01*
X252564886Y-75998446D01*
X253001554Y-76435114D01*
X253515021Y-76778201D01*
X254085554Y-77014524D01*
X254691229Y-77135000D01*
X255308771Y-77135000D01*
X255914446Y-77014524D01*
X256484979Y-76778201D01*
X256998446Y-76435114D01*
X257435114Y-75998446D01*
X257778201Y-75484979D01*
X258014524Y-74914446D01*
X258135000Y-74308771D01*
X258135000Y-73691229D01*
X258014524Y-73085554D01*
X257778201Y-72515021D01*
X257435114Y-72001554D01*
X256998446Y-71564886D01*
X256484979Y-71221799D01*
X255914446Y-70985476D01*
X255308771Y-70865000D01*
X254691229Y-70865000D01*
X254085554Y-70985476D01*
X253515021Y-71221799D01*
X253001554Y-71564886D01*
X252564886Y-72001554D01*
X252221799Y-72515021D01*
X251985476Y-73085554D01*
X251865000Y-73691229D01*
X216135000Y-73691229D01*
X216014524Y-73085554D01*
X215778201Y-72515021D01*
X215435114Y-72001554D01*
X214998446Y-71564886D01*
X214484979Y-71221799D01*
X213914446Y-70985476D01*
X213308771Y-70865000D01*
X212691229Y-70865000D01*
X212085554Y-70985476D01*
X211515021Y-71221799D01*
X211001554Y-71564886D01*
X210564886Y-72001554D01*
X210221799Y-72515021D01*
X209985476Y-73085554D01*
X209865000Y-73691229D01*
X209685000Y-73691229D01*
X209685000Y-73033505D01*
X209732312Y-72550984D01*
X209862714Y-72119070D01*
X210074524Y-71720715D01*
X210359675Y-71371086D01*
X210707303Y-71083503D01*
X211104177Y-70868914D01*
X211535161Y-70735502D01*
X212015654Y-70685000D01*
X255966495Y-70685000D01*
X256449016Y-70732312D01*
G37*
%TD.AperFunction*%
D14*
X222164887Y-86913998D02*
X222165116Y-87088328D01*
X222184340Y-87184313D01*
X222086002Y-87164887D01*
X221911672Y-87165116D01*
X221815687Y-87184340D01*
X221835113Y-87086002D01*
X221834884Y-86911672D01*
X221815660Y-86815687D01*
X221913998Y-86835113D01*
X222088328Y-86834884D01*
X222184313Y-86815660D01*
X222164887Y-86913998D01*
%TA.AperFunction,Conductor*%
D15*
G36*
X222164887Y-86913998D02*
G01*
X222165116Y-87088328D01*
X222184340Y-87184313D01*
X222086002Y-87164887D01*
X221911672Y-87165116D01*
X221815687Y-87184340D01*
X221835113Y-87086002D01*
X221834884Y-86911672D01*
X221815660Y-86815687D01*
X221913998Y-86835113D01*
X222088328Y-86834884D01*
X222184313Y-86815660D01*
X222164887Y-86913998D01*
G37*
%TD.AperFunction*%
D14*
X232000000Y-86467473D02*
X232071282Y-86396191D01*
X232089741Y-86431582D01*
X232094229Y-86438298D01*
X232032527Y-86500000D01*
X232094740Y-86562213D01*
X232071721Y-86604248D01*
X232000000Y-86532527D01*
X231928718Y-86603809D01*
X231910259Y-86568418D01*
X231905771Y-86561702D01*
X231967473Y-86500000D01*
X231905260Y-86437787D01*
X231928279Y-86395752D01*
X232000000Y-86467473D01*
%TA.AperFunction,Conductor*%
D15*
G36*
X232000000Y-86467473D02*
G01*
X232071282Y-86396191D01*
X232089741Y-86431582D01*
X232094229Y-86438298D01*
X232032527Y-86500000D01*
X232094740Y-86562213D01*
X232071721Y-86604248D01*
X232000000Y-86532527D01*
X231928718Y-86603809D01*
X231910259Y-86568418D01*
X231905771Y-86561702D01*
X231967473Y-86500000D01*
X231905260Y-86437787D01*
X231928279Y-86395752D01*
X232000000Y-86467473D01*
G37*
%TD.AperFunction*%
%TD*%
M02*
