%TF.GenerationSoftware,KiCad,Pcbnew,(5.1.12-1-10_14)*%
%TF.CreationDate,2022-02-15T12:54:36-08:00*%
%TF.ProjectId,g3_power,67335f70-6f77-4657-922e-6b696361645f,rev?*%
%TF.SameCoordinates,Original*%
%TF.FileFunction,Legend,Top*%
%TF.FilePolarity,Positive*%
%FSLAX46Y46*%
G04 Gerber Fmt 4.6, Leading zero omitted, Abs format (unit mm)*
G04 Created by KiCad (PCBNEW (5.1.12-1-10_14)) date 2022-02-15 12:54:36*
%MOMM*%
%LPD*%
G01*
G04 APERTURE LIST*
%ADD10C,0.150000*%
%ADD11C,0.100000*%
%ADD12C,0.250000*%
%ADD13C,0.200000*%
%ADD14C,0.127000*%
%ADD15C,0.120000*%
%ADD16C,0.010000*%
%ADD17C,0.254000*%
G04 APERTURE END LIST*
D10*
X234147142Y-107031904D02*
X234223333Y-107031904D01*
X234299523Y-107070000D01*
X234337619Y-107108095D01*
X234375714Y-107184285D01*
X234413809Y-107336666D01*
X234413809Y-107527142D01*
X234375714Y-107679523D01*
X234337619Y-107755714D01*
X234299523Y-107793809D01*
X234223333Y-107831904D01*
X234147142Y-107831904D01*
X234070952Y-107793809D01*
X234032857Y-107755714D01*
X233994761Y-107679523D01*
X233956666Y-107527142D01*
X233956666Y-107336666D01*
X233994761Y-107184285D01*
X234032857Y-107108095D01*
X234070952Y-107070000D01*
X234147142Y-107031904D01*
X234756666Y-107831904D02*
X234756666Y-107031904D01*
X235061428Y-107031904D01*
X235137619Y-107070000D01*
X235175714Y-107108095D01*
X235213809Y-107184285D01*
X235213809Y-107298571D01*
X235175714Y-107374761D01*
X235137619Y-107412857D01*
X235061428Y-107450952D01*
X234756666Y-107450952D01*
X235556666Y-107527142D02*
X236166190Y-107527142D01*
X236966190Y-107070000D02*
X236890000Y-107031904D01*
X236775714Y-107031904D01*
X236661428Y-107070000D01*
X236585238Y-107146190D01*
X236547142Y-107222380D01*
X236509047Y-107374761D01*
X236509047Y-107489047D01*
X236547142Y-107641428D01*
X236585238Y-107717619D01*
X236661428Y-107793809D01*
X236775714Y-107831904D01*
X236851904Y-107831904D01*
X236966190Y-107793809D01*
X237004285Y-107755714D01*
X237004285Y-107489047D01*
X236851904Y-107489047D01*
X237270952Y-107031904D02*
X237766190Y-107031904D01*
X237499523Y-107336666D01*
X237613809Y-107336666D01*
X237690000Y-107374761D01*
X237728095Y-107412857D01*
X237766190Y-107489047D01*
X237766190Y-107679523D01*
X237728095Y-107755714D01*
X237690000Y-107793809D01*
X237613809Y-107831904D01*
X237385238Y-107831904D01*
X237309047Y-107793809D01*
X237270952Y-107755714D01*
X238109047Y-107527142D02*
X238718571Y-107527142D01*
X239099523Y-107831904D02*
X239099523Y-107031904D01*
X239404285Y-107031904D01*
X239480476Y-107070000D01*
X239518571Y-107108095D01*
X239556666Y-107184285D01*
X239556666Y-107298571D01*
X239518571Y-107374761D01*
X239480476Y-107412857D01*
X239404285Y-107450952D01*
X239099523Y-107450952D01*
X239861428Y-107793809D02*
X239975714Y-107831904D01*
X240166190Y-107831904D01*
X240242380Y-107793809D01*
X240280476Y-107755714D01*
X240318571Y-107679523D01*
X240318571Y-107603333D01*
X240280476Y-107527142D01*
X240242380Y-107489047D01*
X240166190Y-107450952D01*
X240013809Y-107412857D01*
X239937619Y-107374761D01*
X239899523Y-107336666D01*
X239861428Y-107260476D01*
X239861428Y-107184285D01*
X239899523Y-107108095D01*
X239937619Y-107070000D01*
X240013809Y-107031904D01*
X240204285Y-107031904D01*
X240318571Y-107070000D01*
X240813809Y-107031904D02*
X240966190Y-107031904D01*
X241042380Y-107070000D01*
X241118571Y-107146190D01*
X241156666Y-107298571D01*
X241156666Y-107565238D01*
X241118571Y-107717619D01*
X241042380Y-107793809D01*
X240966190Y-107831904D01*
X240813809Y-107831904D01*
X240737619Y-107793809D01*
X240661428Y-107717619D01*
X240623333Y-107565238D01*
X240623333Y-107298571D01*
X240661428Y-107146190D01*
X240737619Y-107070000D01*
X240813809Y-107031904D01*
X241499523Y-107527142D02*
X242109047Y-107527142D01*
X242642380Y-107031904D02*
X242718571Y-107031904D01*
X242794761Y-107070000D01*
X242832857Y-107108095D01*
X242870952Y-107184285D01*
X242909047Y-107336666D01*
X242909047Y-107527142D01*
X242870952Y-107679523D01*
X242832857Y-107755714D01*
X242794761Y-107793809D01*
X242718571Y-107831904D01*
X242642380Y-107831904D01*
X242566190Y-107793809D01*
X242528095Y-107755714D01*
X242490000Y-107679523D01*
X242451904Y-107527142D01*
X242451904Y-107336666D01*
X242490000Y-107184285D01*
X242528095Y-107108095D01*
X242566190Y-107070000D01*
X242642380Y-107031904D01*
X243404285Y-107031904D02*
X243480476Y-107031904D01*
X243556666Y-107070000D01*
X243594761Y-107108095D01*
X243632857Y-107184285D01*
X243670952Y-107336666D01*
X243670952Y-107527142D01*
X243632857Y-107679523D01*
X243594761Y-107755714D01*
X243556666Y-107793809D01*
X243480476Y-107831904D01*
X243404285Y-107831904D01*
X243328095Y-107793809D01*
X243290000Y-107755714D01*
X243251904Y-107679523D01*
X243213809Y-107527142D01*
X243213809Y-107336666D01*
X243251904Y-107184285D01*
X243290000Y-107108095D01*
X243328095Y-107070000D01*
X243404285Y-107031904D01*
X244166190Y-107031904D02*
X244242380Y-107031904D01*
X244318571Y-107070000D01*
X244356666Y-107108095D01*
X244394761Y-107184285D01*
X244432857Y-107336666D01*
X244432857Y-107527142D01*
X244394761Y-107679523D01*
X244356666Y-107755714D01*
X244318571Y-107793809D01*
X244242380Y-107831904D01*
X244166190Y-107831904D01*
X244090000Y-107793809D01*
X244051904Y-107755714D01*
X244013809Y-107679523D01*
X243975714Y-107527142D01*
X243975714Y-107336666D01*
X244013809Y-107184285D01*
X244051904Y-107108095D01*
X244090000Y-107070000D01*
X244166190Y-107031904D01*
X244775714Y-107527142D02*
X245385238Y-107527142D01*
X245918571Y-107031904D02*
X245994761Y-107031904D01*
X246070952Y-107070000D01*
X246109047Y-107108095D01*
X246147142Y-107184285D01*
X246185238Y-107336666D01*
X246185238Y-107527142D01*
X246147142Y-107679523D01*
X246109047Y-107755714D01*
X246070952Y-107793809D01*
X245994761Y-107831904D01*
X245918571Y-107831904D01*
X245842380Y-107793809D01*
X245804285Y-107755714D01*
X245766190Y-107679523D01*
X245728095Y-107527142D01*
X245728095Y-107336666D01*
X245766190Y-107184285D01*
X245804285Y-107108095D01*
X245842380Y-107070000D01*
X245918571Y-107031904D01*
X246680476Y-107031904D02*
X246756666Y-107031904D01*
X246832857Y-107070000D01*
X246870952Y-107108095D01*
X246909047Y-107184285D01*
X246947142Y-107336666D01*
X246947142Y-107527142D01*
X246909047Y-107679523D01*
X246870952Y-107755714D01*
X246832857Y-107793809D01*
X246756666Y-107831904D01*
X246680476Y-107831904D01*
X246604285Y-107793809D01*
X246566190Y-107755714D01*
X246528095Y-107679523D01*
X246489999Y-107527142D01*
X246489999Y-107336666D01*
X246528095Y-107184285D01*
X246566190Y-107108095D01*
X246604285Y-107070000D01*
X246680476Y-107031904D01*
X247442380Y-107031904D02*
X247518571Y-107031904D01*
X247594761Y-107070000D01*
X247632857Y-107108095D01*
X247670952Y-107184285D01*
X247709047Y-107336666D01*
X247709047Y-107527142D01*
X247670952Y-107679523D01*
X247632857Y-107755714D01*
X247594761Y-107793809D01*
X247518571Y-107831904D01*
X247442380Y-107831904D01*
X247366190Y-107793809D01*
X247328095Y-107755714D01*
X247289999Y-107679523D01*
X247251904Y-107527142D01*
X247251904Y-107336666D01*
X247289999Y-107184285D01*
X247328095Y-107108095D01*
X247366190Y-107070000D01*
X247442380Y-107031904D01*
X248051904Y-107527142D02*
X248661428Y-107527142D01*
X249004285Y-107793809D02*
X249118571Y-107831904D01*
X249309047Y-107831904D01*
X249385238Y-107793809D01*
X249423333Y-107755714D01*
X249461428Y-107679523D01*
X249461428Y-107603333D01*
X249423333Y-107527142D01*
X249385238Y-107489047D01*
X249309047Y-107450952D01*
X249156666Y-107412857D01*
X249080476Y-107374761D01*
X249042380Y-107336666D01*
X249004285Y-107260476D01*
X249004285Y-107184285D01*
X249042380Y-107108095D01*
X249080476Y-107070000D01*
X249156666Y-107031904D01*
X249347142Y-107031904D01*
X249461428Y-107070000D01*
X250070952Y-107412857D02*
X250185238Y-107450952D01*
X250223333Y-107489047D01*
X250261428Y-107565238D01*
X250261428Y-107679523D01*
X250223333Y-107755714D01*
X250185238Y-107793809D01*
X250109047Y-107831904D01*
X249804285Y-107831904D01*
X249804285Y-107031904D01*
X250070952Y-107031904D01*
X250147142Y-107070000D01*
X250185238Y-107108095D01*
X250223333Y-107184285D01*
X250223333Y-107260476D01*
X250185238Y-107336666D01*
X250147142Y-107374761D01*
X250070952Y-107412857D01*
X249804285Y-107412857D01*
X250756666Y-107031904D02*
X250832857Y-107031904D01*
X250909047Y-107070000D01*
X250947142Y-107108095D01*
X250985238Y-107184285D01*
X251023333Y-107336666D01*
X251023333Y-107527142D01*
X250985238Y-107679523D01*
X250947142Y-107755714D01*
X250909047Y-107793809D01*
X250832857Y-107831904D01*
X250756666Y-107831904D01*
X250680476Y-107793809D01*
X250642380Y-107755714D01*
X250604285Y-107679523D01*
X250566190Y-107527142D01*
X250566190Y-107336666D01*
X250604285Y-107184285D01*
X250642380Y-107108095D01*
X250680476Y-107070000D01*
X250756666Y-107031904D01*
D11*
X212469047Y-82692857D02*
X212450000Y-82711904D01*
X212392857Y-82730952D01*
X212354761Y-82730952D01*
X212297619Y-82711904D01*
X212259523Y-82673809D01*
X212240476Y-82635714D01*
X212221428Y-82559523D01*
X212221428Y-82502380D01*
X212240476Y-82426190D01*
X212259523Y-82388095D01*
X212297619Y-82350000D01*
X212354761Y-82330952D01*
X212392857Y-82330952D01*
X212450000Y-82350000D01*
X212469047Y-82369047D01*
X212869047Y-82692857D02*
X212850000Y-82711904D01*
X212792857Y-82730952D01*
X212754761Y-82730952D01*
X212697619Y-82711904D01*
X212659523Y-82673809D01*
X212640476Y-82635714D01*
X212621428Y-82559523D01*
X212621428Y-82502380D01*
X212640476Y-82426190D01*
X212659523Y-82388095D01*
X212697619Y-82350000D01*
X212754761Y-82330952D01*
X212792857Y-82330952D01*
X212850000Y-82350000D01*
X212869047Y-82369047D01*
X212945238Y-82769047D02*
X213250000Y-82769047D01*
X213345238Y-82730952D02*
X213345238Y-82330952D01*
X213497619Y-82330952D01*
X213535714Y-82350000D01*
X213554761Y-82369047D01*
X213573809Y-82407142D01*
X213573809Y-82464285D01*
X213554761Y-82502380D01*
X213535714Y-82521428D01*
X213497619Y-82540476D01*
X213345238Y-82540476D01*
X213707142Y-82330952D02*
X213802380Y-82730952D01*
X213878571Y-82445238D01*
X213954761Y-82730952D01*
X214050000Y-82330952D01*
X214430952Y-82730952D02*
X214297619Y-82540476D01*
X214202380Y-82730952D02*
X214202380Y-82330952D01*
X214354761Y-82330952D01*
X214392857Y-82350000D01*
X214411904Y-82369047D01*
X214430952Y-82407142D01*
X214430952Y-82464285D01*
X214411904Y-82502380D01*
X214392857Y-82521428D01*
X214354761Y-82540476D01*
X214202380Y-82540476D01*
X214507142Y-82769047D02*
X214811904Y-82769047D01*
X214983333Y-82330952D02*
X215059523Y-82330952D01*
X215097619Y-82350000D01*
X215135714Y-82388095D01*
X215154761Y-82464285D01*
X215154761Y-82597619D01*
X215135714Y-82673809D01*
X215097619Y-82711904D01*
X215059523Y-82730952D01*
X214983333Y-82730952D01*
X214945238Y-82711904D01*
X214907142Y-82673809D01*
X214888095Y-82597619D01*
X214888095Y-82464285D01*
X214907142Y-82388095D01*
X214945238Y-82350000D01*
X214983333Y-82330952D01*
X215326190Y-82330952D02*
X215326190Y-82654761D01*
X215345238Y-82692857D01*
X215364285Y-82711904D01*
X215402380Y-82730952D01*
X215478571Y-82730952D01*
X215516666Y-82711904D01*
X215535714Y-82692857D01*
X215554761Y-82654761D01*
X215554761Y-82330952D01*
X215688095Y-82330952D02*
X215916666Y-82330952D01*
X215802380Y-82730952D02*
X215802380Y-82330952D01*
X215463095Y-92685000D02*
X215963095Y-92685000D01*
X215867857Y-93353571D02*
X215844047Y-93377380D01*
X215772619Y-93401190D01*
X215725000Y-93401190D01*
X215653571Y-93377380D01*
X215605952Y-93329761D01*
X215582142Y-93282142D01*
X215558333Y-93186904D01*
X215558333Y-93115476D01*
X215582142Y-93020238D01*
X215605952Y-92972619D01*
X215653571Y-92925000D01*
X215725000Y-92901190D01*
X215772619Y-92901190D01*
X215844047Y-92925000D01*
X215867857Y-92948809D01*
X215963095Y-92685000D02*
X216463095Y-92685000D01*
X216367857Y-93353571D02*
X216344047Y-93377380D01*
X216272619Y-93401190D01*
X216225000Y-93401190D01*
X216153571Y-93377380D01*
X216105952Y-93329761D01*
X216082142Y-93282142D01*
X216058333Y-93186904D01*
X216058333Y-93115476D01*
X216082142Y-93020238D01*
X216105952Y-92972619D01*
X216153571Y-92925000D01*
X216225000Y-92901190D01*
X216272619Y-92901190D01*
X216344047Y-92925000D01*
X216367857Y-92948809D01*
X216463095Y-92685000D02*
X216844047Y-92685000D01*
X216463095Y-93448809D02*
X216844047Y-93448809D01*
X216844047Y-92685000D02*
X217082142Y-92685000D01*
X216963095Y-93401190D02*
X216963095Y-92901190D01*
X217082142Y-92685000D02*
X217605952Y-92685000D01*
X217201190Y-93401190D02*
X217201190Y-92901190D01*
X217486904Y-93401190D01*
X217486904Y-92901190D01*
X217605952Y-92685000D02*
X217986904Y-92685000D01*
X217653571Y-92901190D02*
X217939285Y-92901190D01*
X217796428Y-93401190D02*
X217796428Y-92901190D01*
X216534523Y-82978571D02*
X216510714Y-83002380D01*
X216439285Y-83026190D01*
X216391666Y-83026190D01*
X216320238Y-83002380D01*
X216272619Y-82954761D01*
X216248809Y-82907142D01*
X216225000Y-82811904D01*
X216225000Y-82740476D01*
X216248809Y-82645238D01*
X216272619Y-82597619D01*
X216320238Y-82550000D01*
X216391666Y-82526190D01*
X216439285Y-82526190D01*
X216510714Y-82550000D01*
X216534523Y-82573809D01*
X217034523Y-82978571D02*
X217010714Y-83002380D01*
X216939285Y-83026190D01*
X216891666Y-83026190D01*
X216820238Y-83002380D01*
X216772619Y-82954761D01*
X216748809Y-82907142D01*
X216725000Y-82811904D01*
X216725000Y-82740476D01*
X216748809Y-82645238D01*
X216772619Y-82597619D01*
X216820238Y-82550000D01*
X216891666Y-82526190D01*
X216939285Y-82526190D01*
X217010714Y-82550000D01*
X217034523Y-82573809D01*
X217129761Y-83073809D02*
X217510714Y-83073809D01*
X217629761Y-83026190D02*
X217629761Y-82526190D01*
X217820238Y-82526190D01*
X217867857Y-82550000D01*
X217891666Y-82573809D01*
X217915476Y-82621428D01*
X217915476Y-82692857D01*
X217891666Y-82740476D01*
X217867857Y-82764285D01*
X217820238Y-82788095D01*
X217629761Y-82788095D01*
X218129761Y-83026190D02*
X218129761Y-82526190D01*
X218367857Y-83026190D02*
X218367857Y-82526190D01*
X218534523Y-82883333D01*
X218701190Y-82526190D01*
X218701190Y-83026190D01*
X218939285Y-83026190D02*
X218939285Y-82526190D01*
X219058333Y-82526190D01*
X219129761Y-82550000D01*
X219177380Y-82597619D01*
X219201190Y-82645238D01*
X219225000Y-82740476D01*
X219225000Y-82811904D01*
X219201190Y-82907142D01*
X219177380Y-82954761D01*
X219129761Y-83002380D01*
X219058333Y-83026190D01*
X218939285Y-83026190D01*
X237842857Y-79627380D02*
X237914285Y-79651190D01*
X238033333Y-79651190D01*
X238080952Y-79627380D01*
X238104761Y-79603571D01*
X238128571Y-79555952D01*
X238128571Y-79508333D01*
X238104761Y-79460714D01*
X238080952Y-79436904D01*
X238033333Y-79413095D01*
X237938095Y-79389285D01*
X237890476Y-79365476D01*
X237866666Y-79341666D01*
X237842857Y-79294047D01*
X237842857Y-79246428D01*
X237866666Y-79198809D01*
X237890476Y-79175000D01*
X237938095Y-79151190D01*
X238057142Y-79151190D01*
X238128571Y-79175000D01*
X238342857Y-79651190D02*
X238342857Y-79151190D01*
X238461904Y-79151190D01*
X238533333Y-79175000D01*
X238580952Y-79222619D01*
X238604761Y-79270238D01*
X238628571Y-79365476D01*
X238628571Y-79436904D01*
X238604761Y-79532142D01*
X238580952Y-79579761D01*
X238533333Y-79627380D01*
X238461904Y-79651190D01*
X238342857Y-79651190D01*
X238819047Y-79508333D02*
X239057142Y-79508333D01*
X238771428Y-79651190D02*
X238938095Y-79151190D01*
X239104761Y-79651190D01*
X240454761Y-79902380D02*
X240526190Y-79926190D01*
X240645238Y-79926190D01*
X240692857Y-79902380D01*
X240716666Y-79878571D01*
X240740476Y-79830952D01*
X240740476Y-79783333D01*
X240716666Y-79735714D01*
X240692857Y-79711904D01*
X240645238Y-79688095D01*
X240550000Y-79664285D01*
X240502380Y-79640476D01*
X240478571Y-79616666D01*
X240454761Y-79569047D01*
X240454761Y-79521428D01*
X240478571Y-79473809D01*
X240502380Y-79450000D01*
X240550000Y-79426190D01*
X240669047Y-79426190D01*
X240740476Y-79450000D01*
X241240476Y-79878571D02*
X241216666Y-79902380D01*
X241145238Y-79926190D01*
X241097619Y-79926190D01*
X241026190Y-79902380D01*
X240978571Y-79854761D01*
X240954761Y-79807142D01*
X240930952Y-79711904D01*
X240930952Y-79640476D01*
X240954761Y-79545238D01*
X240978571Y-79497619D01*
X241026190Y-79450000D01*
X241097619Y-79426190D01*
X241145238Y-79426190D01*
X241216666Y-79450000D01*
X241240476Y-79473809D01*
X241692857Y-79926190D02*
X241454761Y-79926190D01*
X241454761Y-79426190D01*
X231164285Y-93564285D02*
X231235714Y-93588095D01*
X231259523Y-93611904D01*
X231283333Y-93659523D01*
X231283333Y-93730952D01*
X231259523Y-93778571D01*
X231235714Y-93802380D01*
X231188095Y-93826190D01*
X230997619Y-93826190D01*
X230997619Y-93326190D01*
X231164285Y-93326190D01*
X231211904Y-93350000D01*
X231235714Y-93373809D01*
X231259523Y-93421428D01*
X231259523Y-93469047D01*
X231235714Y-93516666D01*
X231211904Y-93540476D01*
X231164285Y-93564285D01*
X230997619Y-93564285D01*
X231592857Y-93326190D02*
X231688095Y-93326190D01*
X231735714Y-93350000D01*
X231783333Y-93397619D01*
X231807142Y-93492857D01*
X231807142Y-93659523D01*
X231783333Y-93754761D01*
X231735714Y-93802380D01*
X231688095Y-93826190D01*
X231592857Y-93826190D01*
X231545238Y-93802380D01*
X231497619Y-93754761D01*
X231473809Y-93659523D01*
X231473809Y-93492857D01*
X231497619Y-93397619D01*
X231545238Y-93350000D01*
X231592857Y-93326190D01*
X232116666Y-93326190D02*
X232211904Y-93326190D01*
X232259523Y-93350000D01*
X232307142Y-93397619D01*
X232330952Y-93492857D01*
X232330952Y-93659523D01*
X232307142Y-93754761D01*
X232259523Y-93802380D01*
X232211904Y-93826190D01*
X232116666Y-93826190D01*
X232069047Y-93802380D01*
X232021428Y-93754761D01*
X231997619Y-93659523D01*
X231997619Y-93492857D01*
X232021428Y-93397619D01*
X232069047Y-93350000D01*
X232116666Y-93326190D01*
X232521428Y-93802380D02*
X232592857Y-93826190D01*
X232711904Y-93826190D01*
X232759523Y-93802380D01*
X232783333Y-93778571D01*
X232807142Y-93730952D01*
X232807142Y-93683333D01*
X232783333Y-93635714D01*
X232759523Y-93611904D01*
X232711904Y-93588095D01*
X232616666Y-93564285D01*
X232569047Y-93540476D01*
X232545238Y-93516666D01*
X232521428Y-93469047D01*
X232521428Y-93421428D01*
X232545238Y-93373809D01*
X232569047Y-93350000D01*
X232616666Y-93326190D01*
X232735714Y-93326190D01*
X232807142Y-93350000D01*
X232950000Y-93326190D02*
X233235714Y-93326190D01*
X233092857Y-93826190D02*
X233092857Y-93326190D01*
X233283333Y-93873809D02*
X233664285Y-93873809D01*
X233711904Y-93326190D02*
X233878571Y-93826190D01*
X234045238Y-93326190D01*
X234188095Y-93683333D02*
X234426190Y-93683333D01*
X234140476Y-93826190D02*
X234307142Y-93326190D01*
X234473809Y-93826190D01*
X234640476Y-93326190D02*
X234640476Y-93730952D01*
X234664285Y-93778571D01*
X234688095Y-93802380D01*
X234735714Y-93826190D01*
X234830952Y-93826190D01*
X234878571Y-93802380D01*
X234902380Y-93778571D01*
X234926190Y-93730952D01*
X234926190Y-93326190D01*
X235116666Y-93326190D02*
X235450000Y-93826190D01*
X235450000Y-93326190D02*
X235116666Y-93826190D01*
X242433333Y-77335000D02*
X242933333Y-77335000D01*
X242838095Y-78003571D02*
X242814285Y-78027380D01*
X242742857Y-78051190D01*
X242695238Y-78051190D01*
X242623809Y-78027380D01*
X242576190Y-77979761D01*
X242552380Y-77932142D01*
X242528571Y-77836904D01*
X242528571Y-77765476D01*
X242552380Y-77670238D01*
X242576190Y-77622619D01*
X242623809Y-77575000D01*
X242695238Y-77551190D01*
X242742857Y-77551190D01*
X242814285Y-77575000D01*
X242838095Y-77598809D01*
X242933333Y-77335000D02*
X243433333Y-77335000D01*
X243338095Y-78003571D02*
X243314285Y-78027380D01*
X243242857Y-78051190D01*
X243195238Y-78051190D01*
X243123809Y-78027380D01*
X243076190Y-77979761D01*
X243052380Y-77932142D01*
X243028571Y-77836904D01*
X243028571Y-77765476D01*
X243052380Y-77670238D01*
X243076190Y-77622619D01*
X243123809Y-77575000D01*
X243195238Y-77551190D01*
X243242857Y-77551190D01*
X243314285Y-77575000D01*
X243338095Y-77598809D01*
X243433333Y-77335000D02*
X243814285Y-77335000D01*
X243433333Y-78098809D02*
X243814285Y-78098809D01*
X243814285Y-77335000D02*
X244314285Y-77335000D01*
X244219047Y-78003571D02*
X244195238Y-78027380D01*
X244123809Y-78051190D01*
X244076190Y-78051190D01*
X244004761Y-78027380D01*
X243957142Y-77979761D01*
X243933333Y-77932142D01*
X243909523Y-77836904D01*
X243909523Y-77765476D01*
X243933333Y-77670238D01*
X243957142Y-77622619D01*
X244004761Y-77575000D01*
X244076190Y-77551190D01*
X244123809Y-77551190D01*
X244195238Y-77575000D01*
X244219047Y-77598809D01*
X244314285Y-77335000D02*
X244766666Y-77335000D01*
X244433333Y-77789285D02*
X244600000Y-77789285D01*
X244671428Y-78051190D02*
X244433333Y-78051190D01*
X244433333Y-77551190D01*
X244671428Y-77551190D01*
X234554761Y-76739285D02*
X234626190Y-76763095D01*
X234650000Y-76786904D01*
X234673809Y-76834523D01*
X234673809Y-76905952D01*
X234650000Y-76953571D01*
X234626190Y-76977380D01*
X234578571Y-77001190D01*
X234388095Y-77001190D01*
X234388095Y-76501190D01*
X234554761Y-76501190D01*
X234602380Y-76525000D01*
X234626190Y-76548809D01*
X234650000Y-76596428D01*
X234650000Y-76644047D01*
X234626190Y-76691666D01*
X234602380Y-76715476D01*
X234554761Y-76739285D01*
X234388095Y-76739285D01*
X234983333Y-76501190D02*
X235078571Y-76501190D01*
X235126190Y-76525000D01*
X235173809Y-76572619D01*
X235197619Y-76667857D01*
X235197619Y-76834523D01*
X235173809Y-76929761D01*
X235126190Y-76977380D01*
X235078571Y-77001190D01*
X234983333Y-77001190D01*
X234935714Y-76977380D01*
X234888095Y-76929761D01*
X234864285Y-76834523D01*
X234864285Y-76667857D01*
X234888095Y-76572619D01*
X234935714Y-76525000D01*
X234983333Y-76501190D01*
X235507142Y-76501190D02*
X235602380Y-76501190D01*
X235650000Y-76525000D01*
X235697619Y-76572619D01*
X235721428Y-76667857D01*
X235721428Y-76834523D01*
X235697619Y-76929761D01*
X235650000Y-76977380D01*
X235602380Y-77001190D01*
X235507142Y-77001190D01*
X235459523Y-76977380D01*
X235411904Y-76929761D01*
X235388095Y-76834523D01*
X235388095Y-76667857D01*
X235411904Y-76572619D01*
X235459523Y-76525000D01*
X235507142Y-76501190D01*
X235911904Y-76977380D02*
X235983333Y-77001190D01*
X236102380Y-77001190D01*
X236150000Y-76977380D01*
X236173809Y-76953571D01*
X236197619Y-76905952D01*
X236197619Y-76858333D01*
X236173809Y-76810714D01*
X236150000Y-76786904D01*
X236102380Y-76763095D01*
X236007142Y-76739285D01*
X235959523Y-76715476D01*
X235935714Y-76691666D01*
X235911904Y-76644047D01*
X235911904Y-76596428D01*
X235935714Y-76548809D01*
X235959523Y-76525000D01*
X236007142Y-76501190D01*
X236126190Y-76501190D01*
X236197619Y-76525000D01*
X236340476Y-76501190D02*
X236626190Y-76501190D01*
X236483333Y-77001190D02*
X236483333Y-76501190D01*
X236673809Y-77048809D02*
X237054761Y-77048809D01*
X237173809Y-77001190D02*
X237173809Y-76501190D01*
X237364285Y-76501190D01*
X237411904Y-76525000D01*
X237435714Y-76548809D01*
X237459523Y-76596428D01*
X237459523Y-76667857D01*
X237435714Y-76715476D01*
X237411904Y-76739285D01*
X237364285Y-76763095D01*
X237173809Y-76763095D01*
X237650000Y-76977380D02*
X237721428Y-77001190D01*
X237840476Y-77001190D01*
X237888095Y-76977380D01*
X237911904Y-76953571D01*
X237935714Y-76905952D01*
X237935714Y-76858333D01*
X237911904Y-76810714D01*
X237888095Y-76786904D01*
X237840476Y-76763095D01*
X237745238Y-76739285D01*
X237697619Y-76715476D01*
X237673809Y-76691666D01*
X237650000Y-76644047D01*
X237650000Y-76596428D01*
X237673809Y-76548809D01*
X237697619Y-76525000D01*
X237745238Y-76501190D01*
X237864285Y-76501190D01*
X237935714Y-76525000D01*
X216140476Y-74851190D02*
X216307142Y-75351190D01*
X216473809Y-74851190D01*
X216521428Y-75398809D02*
X216902380Y-75398809D01*
X216997619Y-75327380D02*
X217069047Y-75351190D01*
X217188095Y-75351190D01*
X217235714Y-75327380D01*
X217259523Y-75303571D01*
X217283333Y-75255952D01*
X217283333Y-75208333D01*
X217259523Y-75160714D01*
X217235714Y-75136904D01*
X217188095Y-75113095D01*
X217092857Y-75089285D01*
X217045238Y-75065476D01*
X217021428Y-75041666D01*
X216997619Y-74994047D01*
X216997619Y-74946428D01*
X217021428Y-74898809D01*
X217045238Y-74875000D01*
X217092857Y-74851190D01*
X217211904Y-74851190D01*
X217283333Y-74875000D01*
X217592857Y-74851190D02*
X217688095Y-74851190D01*
X217735714Y-74875000D01*
X217783333Y-74922619D01*
X217807142Y-75017857D01*
X217807142Y-75184523D01*
X217783333Y-75279761D01*
X217735714Y-75327380D01*
X217688095Y-75351190D01*
X217592857Y-75351190D01*
X217545238Y-75327380D01*
X217497619Y-75279761D01*
X217473809Y-75184523D01*
X217473809Y-75017857D01*
X217497619Y-74922619D01*
X217545238Y-74875000D01*
X217592857Y-74851190D01*
X218259523Y-75351190D02*
X218021428Y-75351190D01*
X218021428Y-74851190D01*
X214069047Y-77400000D02*
X214021428Y-77376190D01*
X213950000Y-77376190D01*
X213878571Y-77400000D01*
X213830952Y-77447619D01*
X213807142Y-77495238D01*
X213783333Y-77590476D01*
X213783333Y-77661904D01*
X213807142Y-77757142D01*
X213830952Y-77804761D01*
X213878571Y-77852380D01*
X213950000Y-77876190D01*
X213997619Y-77876190D01*
X214069047Y-77852380D01*
X214092857Y-77828571D01*
X214092857Y-77661904D01*
X213997619Y-77661904D01*
X214307142Y-77876190D02*
X214307142Y-77376190D01*
X214592857Y-77876190D01*
X214592857Y-77376190D01*
X214830952Y-77876190D02*
X214830952Y-77376190D01*
X214950000Y-77376190D01*
X215021428Y-77400000D01*
X215069047Y-77447619D01*
X215092857Y-77495238D01*
X215116666Y-77590476D01*
X215116666Y-77661904D01*
X215092857Y-77757142D01*
X215069047Y-77804761D01*
X215021428Y-77852380D01*
X214950000Y-77876190D01*
X214830952Y-77876190D01*
X210229761Y-77276190D02*
X210396428Y-77776190D01*
X210563095Y-77276190D01*
X210610714Y-77823809D02*
X210991666Y-77823809D01*
X211396428Y-77776190D02*
X211229761Y-77538095D01*
X211110714Y-77776190D02*
X211110714Y-77276190D01*
X211301190Y-77276190D01*
X211348809Y-77300000D01*
X211372619Y-77323809D01*
X211396428Y-77371428D01*
X211396428Y-77442857D01*
X211372619Y-77490476D01*
X211348809Y-77514285D01*
X211301190Y-77538095D01*
X211110714Y-77538095D01*
X211610714Y-77514285D02*
X211777380Y-77514285D01*
X211848809Y-77776190D02*
X211610714Y-77776190D01*
X211610714Y-77276190D01*
X211848809Y-77276190D01*
X212325000Y-77300000D02*
X212277380Y-77276190D01*
X212205952Y-77276190D01*
X212134523Y-77300000D01*
X212086904Y-77347619D01*
X212063095Y-77395238D01*
X212039285Y-77490476D01*
X212039285Y-77561904D01*
X212063095Y-77657142D01*
X212086904Y-77704761D01*
X212134523Y-77752380D01*
X212205952Y-77776190D01*
X212253571Y-77776190D01*
X212325000Y-77752380D01*
X212348809Y-77728571D01*
X212348809Y-77561904D01*
X212253571Y-77561904D01*
X212563095Y-77776190D02*
X212563095Y-77276190D01*
X212848809Y-77776190D01*
X212848809Y-77276190D01*
X229019047Y-100650000D02*
X228971428Y-100626190D01*
X228900000Y-100626190D01*
X228828571Y-100650000D01*
X228780952Y-100697619D01*
X228757142Y-100745238D01*
X228733333Y-100840476D01*
X228733333Y-100911904D01*
X228757142Y-101007142D01*
X228780952Y-101054761D01*
X228828571Y-101102380D01*
X228900000Y-101126190D01*
X228947619Y-101126190D01*
X229019047Y-101102380D01*
X229042857Y-101078571D01*
X229042857Y-100911904D01*
X228947619Y-100911904D01*
X229257142Y-101126190D02*
X229257142Y-100626190D01*
X229542857Y-101126190D01*
X229542857Y-100626190D01*
X229780952Y-101126190D02*
X229780952Y-100626190D01*
X229900000Y-100626190D01*
X229971428Y-100650000D01*
X230019047Y-100697619D01*
X230042857Y-100745238D01*
X230066666Y-100840476D01*
X230066666Y-100911904D01*
X230042857Y-101007142D01*
X230019047Y-101054761D01*
X229971428Y-101102380D01*
X229900000Y-101126190D01*
X229780952Y-101126190D01*
X224597619Y-100576190D02*
X224764285Y-101076190D01*
X224930952Y-100576190D01*
X224978571Y-101123809D02*
X225359523Y-101123809D01*
X225645238Y-100814285D02*
X225716666Y-100838095D01*
X225740476Y-100861904D01*
X225764285Y-100909523D01*
X225764285Y-100980952D01*
X225740476Y-101028571D01*
X225716666Y-101052380D01*
X225669047Y-101076190D01*
X225478571Y-101076190D01*
X225478571Y-100576190D01*
X225645238Y-100576190D01*
X225692857Y-100600000D01*
X225716666Y-100623809D01*
X225740476Y-100671428D01*
X225740476Y-100719047D01*
X225716666Y-100766666D01*
X225692857Y-100790476D01*
X225645238Y-100814285D01*
X225478571Y-100814285D01*
X225954761Y-100933333D02*
X226192857Y-100933333D01*
X225907142Y-101076190D02*
X226073809Y-100576190D01*
X226240476Y-101076190D01*
X226335714Y-100576190D02*
X226621428Y-100576190D01*
X226478571Y-101076190D02*
X226478571Y-100576190D01*
X226716666Y-100576190D02*
X227002380Y-100576190D01*
X226859523Y-101076190D02*
X226859523Y-100576190D01*
X252500000Y-94255952D02*
X252476190Y-94303571D01*
X252476190Y-94375000D01*
X252500000Y-94446428D01*
X252547619Y-94494047D01*
X252595238Y-94517857D01*
X252690476Y-94541666D01*
X252761904Y-94541666D01*
X252857142Y-94517857D01*
X252904761Y-94494047D01*
X252952380Y-94446428D01*
X252976190Y-94375000D01*
X252976190Y-94327380D01*
X252952380Y-94255952D01*
X252928571Y-94232142D01*
X252761904Y-94232142D01*
X252761904Y-94327380D01*
X252976190Y-94017857D02*
X252476190Y-94017857D01*
X252976190Y-93732142D01*
X252476190Y-93732142D01*
X252976190Y-93494047D02*
X252476190Y-93494047D01*
X252476190Y-93375000D01*
X252500000Y-93303571D01*
X252547619Y-93255952D01*
X252595238Y-93232142D01*
X252690476Y-93208333D01*
X252761904Y-93208333D01*
X252857142Y-93232142D01*
X252904761Y-93255952D01*
X252952380Y-93303571D01*
X252976190Y-93375000D01*
X252976190Y-93494047D01*
X252760714Y-91017857D02*
X252760714Y-90636904D01*
X252951190Y-90827380D02*
X252570238Y-90827380D01*
X252451190Y-90160714D02*
X252451190Y-90398809D01*
X252689285Y-90422619D01*
X252665476Y-90398809D01*
X252641666Y-90351190D01*
X252641666Y-90232142D01*
X252665476Y-90184523D01*
X252689285Y-90160714D01*
X252736904Y-90136904D01*
X252855952Y-90136904D01*
X252903571Y-90160714D01*
X252927380Y-90184523D01*
X252951190Y-90232142D01*
X252951190Y-90351190D01*
X252927380Y-90398809D01*
X252903571Y-90422619D01*
X252451190Y-89994047D02*
X252951190Y-89827380D01*
X252451190Y-89660714D01*
D12*
X237558571Y-103595000D02*
X237463333Y-103547380D01*
X237320476Y-103547380D01*
X237177619Y-103595000D01*
X237082380Y-103690238D01*
X237034761Y-103785476D01*
X236987142Y-103975952D01*
X236987142Y-104118809D01*
X237034761Y-104309285D01*
X237082380Y-104404523D01*
X237177619Y-104499761D01*
X237320476Y-104547380D01*
X237415714Y-104547380D01*
X237558571Y-104499761D01*
X237606190Y-104452142D01*
X237606190Y-104118809D01*
X237415714Y-104118809D01*
X237939523Y-103547380D02*
X238558571Y-103547380D01*
X238225238Y-103928333D01*
X238368095Y-103928333D01*
X238463333Y-103975952D01*
X238510952Y-104023571D01*
X238558571Y-104118809D01*
X238558571Y-104356904D01*
X238510952Y-104452142D01*
X238463333Y-104499761D01*
X238368095Y-104547380D01*
X238082380Y-104547380D01*
X237987142Y-104499761D01*
X237939523Y-104452142D01*
X239749047Y-104547380D02*
X239749047Y-103547380D01*
X240130000Y-103547380D01*
X240225238Y-103595000D01*
X240272857Y-103642619D01*
X240320476Y-103737857D01*
X240320476Y-103880714D01*
X240272857Y-103975952D01*
X240225238Y-104023571D01*
X240130000Y-104071190D01*
X239749047Y-104071190D01*
X240891904Y-104547380D02*
X240796666Y-104499761D01*
X240749047Y-104452142D01*
X240701428Y-104356904D01*
X240701428Y-104071190D01*
X240749047Y-103975952D01*
X240796666Y-103928333D01*
X240891904Y-103880714D01*
X241034761Y-103880714D01*
X241130000Y-103928333D01*
X241177619Y-103975952D01*
X241225238Y-104071190D01*
X241225238Y-104356904D01*
X241177619Y-104452142D01*
X241130000Y-104499761D01*
X241034761Y-104547380D01*
X240891904Y-104547380D01*
X241558571Y-103880714D02*
X241749047Y-104547380D01*
X241939523Y-104071190D01*
X242130000Y-104547380D01*
X242320476Y-103880714D01*
X243082380Y-104499761D02*
X242987142Y-104547380D01*
X242796666Y-104547380D01*
X242701428Y-104499761D01*
X242653809Y-104404523D01*
X242653809Y-104023571D01*
X242701428Y-103928333D01*
X242796666Y-103880714D01*
X242987142Y-103880714D01*
X243082380Y-103928333D01*
X243130000Y-104023571D01*
X243130000Y-104118809D01*
X242653809Y-104214047D01*
X243558571Y-104547380D02*
X243558571Y-103880714D01*
X243558571Y-104071190D02*
X243606190Y-103975952D01*
X243653809Y-103928333D01*
X243749047Y-103880714D01*
X243844285Y-103880714D01*
X245130000Y-103547380D02*
X245320476Y-103547380D01*
X245415714Y-103595000D01*
X245510952Y-103690238D01*
X245558571Y-103880714D01*
X245558571Y-104214047D01*
X245510952Y-104404523D01*
X245415714Y-104499761D01*
X245320476Y-104547380D01*
X245130000Y-104547380D01*
X245034761Y-104499761D01*
X244939523Y-104404523D01*
X244891904Y-104214047D01*
X244891904Y-103880714D01*
X244939523Y-103690238D01*
X245034761Y-103595000D01*
X245130000Y-103547380D01*
X245939523Y-104499761D02*
X246082380Y-104547380D01*
X246320476Y-104547380D01*
X246415714Y-104499761D01*
X246463333Y-104452142D01*
X246510952Y-104356904D01*
X246510952Y-104261666D01*
X246463333Y-104166428D01*
X246415714Y-104118809D01*
X246320476Y-104071190D01*
X246130000Y-104023571D01*
X246034761Y-103975952D01*
X245987142Y-103928333D01*
X245939523Y-103833095D01*
X245939523Y-103737857D01*
X245987142Y-103642619D01*
X246034761Y-103595000D01*
X246130000Y-103547380D01*
X246368095Y-103547380D01*
X246510952Y-103595000D01*
X247510952Y-104452142D02*
X247463333Y-104499761D01*
X247320476Y-104547380D01*
X247225238Y-104547380D01*
X247082380Y-104499761D01*
X246987142Y-104404523D01*
X246939523Y-104309285D01*
X246891904Y-104118809D01*
X246891904Y-103975952D01*
X246939523Y-103785476D01*
X246987142Y-103690238D01*
X247082380Y-103595000D01*
X247225238Y-103547380D01*
X247320476Y-103547380D01*
X247463333Y-103595000D01*
X247510952Y-103642619D01*
X241272857Y-106297380D02*
X240939523Y-105821190D01*
X240701428Y-106297380D02*
X240701428Y-105297380D01*
X241082380Y-105297380D01*
X241177619Y-105345000D01*
X241225238Y-105392619D01*
X241272857Y-105487857D01*
X241272857Y-105630714D01*
X241225238Y-105725952D01*
X241177619Y-105773571D01*
X241082380Y-105821190D01*
X240701428Y-105821190D01*
X242082380Y-106249761D02*
X241987142Y-106297380D01*
X241796666Y-106297380D01*
X241701428Y-106249761D01*
X241653809Y-106154523D01*
X241653809Y-105773571D01*
X241701428Y-105678333D01*
X241796666Y-105630714D01*
X241987142Y-105630714D01*
X242082380Y-105678333D01*
X242130000Y-105773571D01*
X242130000Y-105868809D01*
X241653809Y-105964047D01*
X242463333Y-105630714D02*
X242701428Y-106297380D01*
X242939523Y-105630714D01*
X244606190Y-106297380D02*
X244034761Y-106297380D01*
X244320476Y-106297380D02*
X244320476Y-105297380D01*
X244225238Y-105440238D01*
X244130000Y-105535476D01*
X244034761Y-105583095D01*
D11*
X210264047Y-87561190D02*
X210264047Y-87061190D01*
X210454523Y-87061190D01*
X210502142Y-87085000D01*
X210525952Y-87108809D01*
X210549761Y-87156428D01*
X210549761Y-87227857D01*
X210525952Y-87275476D01*
X210502142Y-87299285D01*
X210454523Y-87323095D01*
X210264047Y-87323095D01*
X211025952Y-87085000D02*
X210978333Y-87061190D01*
X210906904Y-87061190D01*
X210835476Y-87085000D01*
X210787857Y-87132619D01*
X210764047Y-87180238D01*
X210740238Y-87275476D01*
X210740238Y-87346904D01*
X210764047Y-87442142D01*
X210787857Y-87489761D01*
X210835476Y-87537380D01*
X210906904Y-87561190D01*
X210954523Y-87561190D01*
X211025952Y-87537380D01*
X211049761Y-87513571D01*
X211049761Y-87346904D01*
X210954523Y-87346904D01*
X209596904Y-88537380D02*
X209668333Y-88561190D01*
X209787380Y-88561190D01*
X209835000Y-88537380D01*
X209858809Y-88513571D01*
X209882619Y-88465952D01*
X209882619Y-88418333D01*
X209858809Y-88370714D01*
X209835000Y-88346904D01*
X209787380Y-88323095D01*
X209692142Y-88299285D01*
X209644523Y-88275476D01*
X209620714Y-88251666D01*
X209596904Y-88204047D01*
X209596904Y-88156428D01*
X209620714Y-88108809D01*
X209644523Y-88085000D01*
X209692142Y-88061190D01*
X209811190Y-88061190D01*
X209882619Y-88085000D01*
X210025476Y-88061190D02*
X210311190Y-88061190D01*
X210168333Y-88561190D02*
X210168333Y-88061190D01*
X210454047Y-88418333D02*
X210692142Y-88418333D01*
X210406428Y-88561190D02*
X210573095Y-88061190D01*
X210739761Y-88561190D01*
X210835000Y-88061190D02*
X211120714Y-88061190D01*
X210977857Y-88561190D02*
X210977857Y-88061190D01*
D13*
X230778571Y-107100000D02*
X230826190Y-106957142D01*
X230873809Y-106909523D01*
X230969047Y-106861904D01*
X231111904Y-106861904D01*
X231207142Y-106909523D01*
X231254761Y-106957142D01*
X231302380Y-107052380D01*
X231302380Y-107433333D01*
X230302380Y-107433333D01*
X230302380Y-107100000D01*
X230350000Y-107004761D01*
X230397619Y-106957142D01*
X230492857Y-106909523D01*
X230588095Y-106909523D01*
X230683333Y-106957142D01*
X230730952Y-107004761D01*
X230778571Y-107100000D01*
X230778571Y-107433333D01*
X231016666Y-106480952D02*
X231016666Y-106004761D01*
X231302380Y-106576190D02*
X230302380Y-106242857D01*
X231302380Y-105909523D01*
X230302380Y-105719047D02*
X230302380Y-105147619D01*
X231302380Y-105433333D02*
X230302380Y-105433333D01*
X230302380Y-104957142D02*
X230302380Y-104385714D01*
X231302380Y-104671428D02*
X230302380Y-104671428D01*
X230778571Y-104052380D02*
X230778571Y-103719047D01*
X231302380Y-103576190D02*
X231302380Y-104052380D01*
X230302380Y-104052380D01*
X230302380Y-103576190D01*
X231302380Y-102576190D02*
X230826190Y-102909523D01*
X231302380Y-103147619D02*
X230302380Y-103147619D01*
X230302380Y-102766666D01*
X230350000Y-102671428D01*
X230397619Y-102623809D01*
X230492857Y-102576190D01*
X230635714Y-102576190D01*
X230730952Y-102623809D01*
X230778571Y-102671428D01*
X230826190Y-102766666D01*
X230826190Y-103147619D01*
X230826190Y-101957142D02*
X231302380Y-101957142D01*
X230302380Y-102290476D02*
X230826190Y-101957142D01*
X230302380Y-101623809D01*
X231054761Y-76542857D02*
X231102380Y-76400000D01*
X231102380Y-76161904D01*
X231054761Y-76066666D01*
X231007142Y-76019047D01*
X230911904Y-75971428D01*
X230816666Y-75971428D01*
X230721428Y-76019047D01*
X230673809Y-76066666D01*
X230626190Y-76161904D01*
X230578571Y-76352380D01*
X230530952Y-76447619D01*
X230483333Y-76495238D01*
X230388095Y-76542857D01*
X230292857Y-76542857D01*
X230197619Y-76495238D01*
X230150000Y-76447619D01*
X230102380Y-76352380D01*
X230102380Y-76114285D01*
X230150000Y-75971428D01*
X230102380Y-75352380D02*
X230102380Y-75161904D01*
X230150000Y-75066666D01*
X230245238Y-74971428D01*
X230435714Y-74923809D01*
X230769047Y-74923809D01*
X230959523Y-74971428D01*
X231054761Y-75066666D01*
X231102380Y-75161904D01*
X231102380Y-75352380D01*
X231054761Y-75447619D01*
X230959523Y-75542857D01*
X230769047Y-75590476D01*
X230435714Y-75590476D01*
X230245238Y-75542857D01*
X230150000Y-75447619D01*
X230102380Y-75352380D01*
X231102380Y-74019047D02*
X231102380Y-74495238D01*
X230102380Y-74495238D01*
X230816666Y-73733333D02*
X230816666Y-73257142D01*
X231102380Y-73828571D02*
X230102380Y-73495238D01*
X231102380Y-73161904D01*
X231102380Y-72257142D02*
X230626190Y-72590476D01*
X231102380Y-72828571D02*
X230102380Y-72828571D01*
X230102380Y-72447619D01*
X230150000Y-72352380D01*
X230197619Y-72304761D01*
X230292857Y-72257142D01*
X230435714Y-72257142D01*
X230530952Y-72304761D01*
X230578571Y-72352380D01*
X230626190Y-72447619D01*
X230626190Y-72828571D01*
D14*
%TO.C,TP104*%
X219005000Y-79900000D02*
X219005000Y-81900000D01*
X217045000Y-81900000D02*
X217045000Y-79900000D01*
%TO.C,TP115*%
X253220000Y-94900000D02*
X253220000Y-92900000D01*
X255180000Y-92900000D02*
X255180000Y-94900000D01*
%TO.C,TP114*%
X228500000Y-98320000D02*
X230500000Y-98320000D01*
X230500000Y-100280000D02*
X228500000Y-100280000D01*
%TO.C,TP113*%
X213400000Y-78120000D02*
X215400000Y-78120000D01*
X215400000Y-80080000D02*
X213400000Y-80080000D01*
%TO.C,TP112*%
X242800000Y-78220000D02*
X244800000Y-78220000D01*
X244800000Y-80180000D02*
X242800000Y-80180000D01*
%TO.C,TP111*%
X217725000Y-92580000D02*
X215725000Y-92580000D01*
X215725000Y-90620000D02*
X217725000Y-90620000D01*
%TO.C,TP110*%
X235470000Y-79700000D02*
X235470000Y-77700000D01*
X237430000Y-77700000D02*
X237430000Y-79700000D01*
%TO.C,TP109*%
X237470000Y-82250000D02*
X237470000Y-80250000D01*
X239430000Y-80250000D02*
X239430000Y-82250000D01*
%TO.C,TP108*%
X240195000Y-82450000D02*
X240195000Y-80450000D01*
X242155000Y-80450000D02*
X242155000Y-82450000D01*
%TO.C,TP107*%
X226700000Y-100180000D02*
X224700000Y-100180000D01*
X224700000Y-98220000D02*
X226700000Y-98220000D01*
%TO.C,TP106*%
X253220000Y-91300000D02*
X253220000Y-89300000D01*
X255180000Y-89300000D02*
X255180000Y-91300000D01*
%TO.C,TP105*%
X210550000Y-78120000D02*
X212550000Y-78120000D01*
X212550000Y-80080000D02*
X210550000Y-80080000D01*
%TO.C,TP103*%
X218055000Y-75950000D02*
X218055000Y-77950000D01*
X216095000Y-77950000D02*
X216095000Y-75950000D01*
%TO.C,TP102*%
X215605000Y-83325000D02*
X215605000Y-85325000D01*
X213645000Y-85325000D02*
X213645000Y-83325000D01*
%TO.C,TP101*%
X232525000Y-91095000D02*
X234525000Y-91095000D01*
X234525000Y-93055000D02*
X232525000Y-93055000D01*
D15*
%TO.C,JP1*%
X210600000Y-83275000D02*
X212000000Y-83275000D01*
X212700000Y-83975000D02*
X212700000Y-84575000D01*
X212000000Y-85275000D02*
X210600000Y-85275000D01*
X209900000Y-84575000D02*
X209900000Y-83975000D01*
X209900000Y-83975000D02*
G75*
G02*
X210600000Y-83275000I700000J0D01*
G01*
X210600000Y-85275000D02*
G75*
G02*
X209900000Y-84575000I0J700000D01*
G01*
X212700000Y-84575000D02*
G75*
G02*
X212000000Y-85275000I-700000J0D01*
G01*
X212000000Y-83275000D02*
G75*
G02*
X212700000Y-83975000I0J-700000D01*
G01*
D16*
%TO.C,G\u002A\u002A\u002A*%
G36*
X235853368Y-96803173D02*
G01*
X236174573Y-96847491D01*
X236491866Y-96923094D01*
X236802850Y-97030249D01*
X237052334Y-97142277D01*
X237299556Y-97278095D01*
X237526951Y-97430128D01*
X237743786Y-97604964D01*
X237879730Y-97730350D01*
X238111550Y-97977067D01*
X238314351Y-98241180D01*
X238487928Y-98522292D01*
X238632080Y-98820007D01*
X238746601Y-99133927D01*
X238831290Y-99463656D01*
X238865252Y-99652734D01*
X238880043Y-99781692D01*
X238889452Y-99933716D01*
X238893464Y-100098435D01*
X238892062Y-100265474D01*
X238885232Y-100424462D01*
X238872957Y-100565027D01*
X238866686Y-100612652D01*
X238801475Y-100941453D01*
X238705658Y-101258289D01*
X238580695Y-101561391D01*
X238428048Y-101848988D01*
X238249179Y-102119312D01*
X238045550Y-102370592D01*
X237818622Y-102601059D01*
X237569856Y-102808943D01*
X237300715Y-102992474D01*
X237012659Y-103149884D01*
X236707151Y-103279402D01*
X236646295Y-103301041D01*
X236329271Y-103392629D01*
X236002379Y-103452762D01*
X235669374Y-103480991D01*
X235334013Y-103476866D01*
X235238002Y-103469656D01*
X234942139Y-103428184D01*
X234646599Y-103357743D01*
X234355959Y-103260450D01*
X234074797Y-103138423D01*
X233807688Y-102993779D01*
X233559211Y-102828637D01*
X233333943Y-102645113D01*
X233220939Y-102536436D01*
X233131812Y-102445208D01*
X233279196Y-102268171D01*
X233346677Y-102187361D01*
X233426867Y-102091715D01*
X233510548Y-101992207D01*
X233588503Y-101899811D01*
X233601835Y-101884050D01*
X233777089Y-101676966D01*
X234097418Y-101945406D01*
X234252311Y-102071666D01*
X234389518Y-102174743D01*
X234513860Y-102256758D01*
X234630160Y-102319836D01*
X234743239Y-102366097D01*
X234857918Y-102397666D01*
X234979018Y-102416663D01*
X235111362Y-102425212D01*
X235189667Y-102426230D01*
X235289753Y-102425107D01*
X235366697Y-102421139D01*
X235431186Y-102413022D01*
X235493908Y-102399448D01*
X235558940Y-102381110D01*
X235751587Y-102310411D01*
X235921890Y-102219338D01*
X236077515Y-102103206D01*
X236191199Y-101994774D01*
X236328709Y-101827874D01*
X236436772Y-101647104D01*
X236515077Y-101455670D01*
X236563315Y-101256776D01*
X236581177Y-101053627D01*
X236568353Y-100849429D01*
X236524534Y-100647387D01*
X236449410Y-100450704D01*
X236356431Y-100283474D01*
X236326485Y-100238301D01*
X236296543Y-100196456D01*
X236263999Y-100155461D01*
X236226249Y-100112838D01*
X236180688Y-100066110D01*
X236124712Y-100012797D01*
X236055715Y-99950422D01*
X235971094Y-99876508D01*
X235868244Y-99788576D01*
X235744560Y-99684149D01*
X235597438Y-99560748D01*
X235591790Y-99556020D01*
X235041889Y-99095668D01*
X234997244Y-99149551D01*
X234861793Y-99312805D01*
X234719312Y-99484117D01*
X234571333Y-99661666D01*
X234419391Y-99843634D01*
X234265019Y-100028203D01*
X234109751Y-100213554D01*
X233955121Y-100397869D01*
X233802662Y-100579328D01*
X233653907Y-100756112D01*
X233510391Y-100926404D01*
X233373648Y-101088385D01*
X233245210Y-101240235D01*
X233126611Y-101380137D01*
X233019386Y-101506271D01*
X232925067Y-101616818D01*
X232845188Y-101709961D01*
X232781284Y-101783880D01*
X232734887Y-101836757D01*
X232707531Y-101866773D01*
X232700467Y-101873205D01*
X232681280Y-101854967D01*
X232651821Y-101810842D01*
X232614870Y-101746194D01*
X232573207Y-101666387D01*
X232529613Y-101576782D01*
X232486869Y-101482745D01*
X232447753Y-101389639D01*
X232441137Y-101372944D01*
X232332793Y-101051629D01*
X232257402Y-100725991D01*
X232214714Y-100398082D01*
X232204476Y-100069957D01*
X232226437Y-99743667D01*
X232280346Y-99421265D01*
X232365952Y-99104803D01*
X232467944Y-98836020D01*
X235563548Y-98836020D01*
X235587106Y-98986348D01*
X235638767Y-99129960D01*
X235715675Y-99262531D01*
X235814976Y-99379735D01*
X235933815Y-99477246D01*
X236069339Y-99550739D01*
X236165105Y-99583603D01*
X236268949Y-99602128D01*
X236385995Y-99608160D01*
X236500403Y-99601574D01*
X236580429Y-99586861D01*
X236731381Y-99530535D01*
X236864292Y-99449008D01*
X236977366Y-99346141D01*
X237068811Y-99225796D01*
X237136834Y-99091836D01*
X237179639Y-98948122D01*
X237195435Y-98798516D01*
X237195320Y-98797170D01*
X237365600Y-98797170D01*
X237365600Y-99104361D01*
X237463884Y-99048347D01*
X237521596Y-99015478D01*
X237597037Y-98972544D01*
X237678489Y-98926211D01*
X237725994Y-98899200D01*
X237791691Y-98861034D01*
X237844895Y-98828570D01*
X237879631Y-98805556D01*
X237890177Y-98796165D01*
X237876521Y-98785770D01*
X237839197Y-98761968D01*
X237783947Y-98728141D01*
X237716515Y-98687673D01*
X237642643Y-98643947D01*
X237568074Y-98600347D01*
X237498552Y-98560255D01*
X237439819Y-98527056D01*
X237397617Y-98504132D01*
X237380030Y-98495622D01*
X237375446Y-98509811D01*
X237371463Y-98552673D01*
X237368329Y-98619013D01*
X237366292Y-98703641D01*
X237365600Y-98797170D01*
X237195320Y-98797170D01*
X237182427Y-98646882D01*
X237138823Y-98497080D01*
X237113081Y-98439878D01*
X237048913Y-98328200D01*
X236975249Y-98237350D01*
X236881341Y-98154312D01*
X236870182Y-98145754D01*
X236733225Y-98061264D01*
X236589302Y-98007457D01*
X236442016Y-97982842D01*
X236294973Y-97985925D01*
X236151779Y-98015217D01*
X236016038Y-98069225D01*
X235891356Y-98146457D01*
X235781337Y-98245423D01*
X235689587Y-98364631D01*
X235619711Y-98502588D01*
X235575314Y-98657804D01*
X235570946Y-98683300D01*
X235563548Y-98836020D01*
X232467944Y-98836020D01*
X232483003Y-98796335D01*
X232631248Y-98497913D01*
X232810435Y-98211590D01*
X232832004Y-98180949D01*
X232913937Y-98074108D01*
X233015001Y-97955104D01*
X233127371Y-97832275D01*
X233243224Y-97713960D01*
X233354734Y-97608498D01*
X233430503Y-97543104D01*
X233696723Y-97346681D01*
X233978205Y-97179423D01*
X234272551Y-97041594D01*
X234577365Y-96933459D01*
X234890250Y-96855285D01*
X235208810Y-96807335D01*
X235530649Y-96789876D01*
X235853368Y-96803173D01*
G37*
X235853368Y-96803173D02*
X236174573Y-96847491D01*
X236491866Y-96923094D01*
X236802850Y-97030249D01*
X237052334Y-97142277D01*
X237299556Y-97278095D01*
X237526951Y-97430128D01*
X237743786Y-97604964D01*
X237879730Y-97730350D01*
X238111550Y-97977067D01*
X238314351Y-98241180D01*
X238487928Y-98522292D01*
X238632080Y-98820007D01*
X238746601Y-99133927D01*
X238831290Y-99463656D01*
X238865252Y-99652734D01*
X238880043Y-99781692D01*
X238889452Y-99933716D01*
X238893464Y-100098435D01*
X238892062Y-100265474D01*
X238885232Y-100424462D01*
X238872957Y-100565027D01*
X238866686Y-100612652D01*
X238801475Y-100941453D01*
X238705658Y-101258289D01*
X238580695Y-101561391D01*
X238428048Y-101848988D01*
X238249179Y-102119312D01*
X238045550Y-102370592D01*
X237818622Y-102601059D01*
X237569856Y-102808943D01*
X237300715Y-102992474D01*
X237012659Y-103149884D01*
X236707151Y-103279402D01*
X236646295Y-103301041D01*
X236329271Y-103392629D01*
X236002379Y-103452762D01*
X235669374Y-103480991D01*
X235334013Y-103476866D01*
X235238002Y-103469656D01*
X234942139Y-103428184D01*
X234646599Y-103357743D01*
X234355959Y-103260450D01*
X234074797Y-103138423D01*
X233807688Y-102993779D01*
X233559211Y-102828637D01*
X233333943Y-102645113D01*
X233220939Y-102536436D01*
X233131812Y-102445208D01*
X233279196Y-102268171D01*
X233346677Y-102187361D01*
X233426867Y-102091715D01*
X233510548Y-101992207D01*
X233588503Y-101899811D01*
X233601835Y-101884050D01*
X233777089Y-101676966D01*
X234097418Y-101945406D01*
X234252311Y-102071666D01*
X234389518Y-102174743D01*
X234513860Y-102256758D01*
X234630160Y-102319836D01*
X234743239Y-102366097D01*
X234857918Y-102397666D01*
X234979018Y-102416663D01*
X235111362Y-102425212D01*
X235189667Y-102426230D01*
X235289753Y-102425107D01*
X235366697Y-102421139D01*
X235431186Y-102413022D01*
X235493908Y-102399448D01*
X235558940Y-102381110D01*
X235751587Y-102310411D01*
X235921890Y-102219338D01*
X236077515Y-102103206D01*
X236191199Y-101994774D01*
X236328709Y-101827874D01*
X236436772Y-101647104D01*
X236515077Y-101455670D01*
X236563315Y-101256776D01*
X236581177Y-101053627D01*
X236568353Y-100849429D01*
X236524534Y-100647387D01*
X236449410Y-100450704D01*
X236356431Y-100283474D01*
X236326485Y-100238301D01*
X236296543Y-100196456D01*
X236263999Y-100155461D01*
X236226249Y-100112838D01*
X236180688Y-100066110D01*
X236124712Y-100012797D01*
X236055715Y-99950422D01*
X235971094Y-99876508D01*
X235868244Y-99788576D01*
X235744560Y-99684149D01*
X235597438Y-99560748D01*
X235591790Y-99556020D01*
X235041889Y-99095668D01*
X234997244Y-99149551D01*
X234861793Y-99312805D01*
X234719312Y-99484117D01*
X234571333Y-99661666D01*
X234419391Y-99843634D01*
X234265019Y-100028203D01*
X234109751Y-100213554D01*
X233955121Y-100397869D01*
X233802662Y-100579328D01*
X233653907Y-100756112D01*
X233510391Y-100926404D01*
X233373648Y-101088385D01*
X233245210Y-101240235D01*
X233126611Y-101380137D01*
X233019386Y-101506271D01*
X232925067Y-101616818D01*
X232845188Y-101709961D01*
X232781284Y-101783880D01*
X232734887Y-101836757D01*
X232707531Y-101866773D01*
X232700467Y-101873205D01*
X232681280Y-101854967D01*
X232651821Y-101810842D01*
X232614870Y-101746194D01*
X232573207Y-101666387D01*
X232529613Y-101576782D01*
X232486869Y-101482745D01*
X232447753Y-101389639D01*
X232441137Y-101372944D01*
X232332793Y-101051629D01*
X232257402Y-100725991D01*
X232214714Y-100398082D01*
X232204476Y-100069957D01*
X232226437Y-99743667D01*
X232280346Y-99421265D01*
X232365952Y-99104803D01*
X232467944Y-98836020D01*
X235563548Y-98836020D01*
X235587106Y-98986348D01*
X235638767Y-99129960D01*
X235715675Y-99262531D01*
X235814976Y-99379735D01*
X235933815Y-99477246D01*
X236069339Y-99550739D01*
X236165105Y-99583603D01*
X236268949Y-99602128D01*
X236385995Y-99608160D01*
X236500403Y-99601574D01*
X236580429Y-99586861D01*
X236731381Y-99530535D01*
X236864292Y-99449008D01*
X236977366Y-99346141D01*
X237068811Y-99225796D01*
X237136834Y-99091836D01*
X237179639Y-98948122D01*
X237195435Y-98798516D01*
X237195320Y-98797170D01*
X237365600Y-98797170D01*
X237365600Y-99104361D01*
X237463884Y-99048347D01*
X237521596Y-99015478D01*
X237597037Y-98972544D01*
X237678489Y-98926211D01*
X237725994Y-98899200D01*
X237791691Y-98861034D01*
X237844895Y-98828570D01*
X237879631Y-98805556D01*
X237890177Y-98796165D01*
X237876521Y-98785770D01*
X237839197Y-98761968D01*
X237783947Y-98728141D01*
X237716515Y-98687673D01*
X237642643Y-98643947D01*
X237568074Y-98600347D01*
X237498552Y-98560255D01*
X237439819Y-98527056D01*
X237397617Y-98504132D01*
X237380030Y-98495622D01*
X237375446Y-98509811D01*
X237371463Y-98552673D01*
X237368329Y-98619013D01*
X237366292Y-98703641D01*
X237365600Y-98797170D01*
X237195320Y-98797170D01*
X237182427Y-98646882D01*
X237138823Y-98497080D01*
X237113081Y-98439878D01*
X237048913Y-98328200D01*
X236975249Y-98237350D01*
X236881341Y-98154312D01*
X236870182Y-98145754D01*
X236733225Y-98061264D01*
X236589302Y-98007457D01*
X236442016Y-97982842D01*
X236294973Y-97985925D01*
X236151779Y-98015217D01*
X236016038Y-98069225D01*
X235891356Y-98146457D01*
X235781337Y-98245423D01*
X235689587Y-98364631D01*
X235619711Y-98502588D01*
X235575314Y-98657804D01*
X235570946Y-98683300D01*
X235563548Y-98836020D01*
X232467944Y-98836020D01*
X232483003Y-98796335D01*
X232631248Y-98497913D01*
X232810435Y-98211590D01*
X232832004Y-98180949D01*
X232913937Y-98074108D01*
X233015001Y-97955104D01*
X233127371Y-97832275D01*
X233243224Y-97713960D01*
X233354734Y-97608498D01*
X233430503Y-97543104D01*
X233696723Y-97346681D01*
X233978205Y-97179423D01*
X234272551Y-97041594D01*
X234577365Y-96933459D01*
X234890250Y-96855285D01*
X235208810Y-96807335D01*
X235530649Y-96789876D01*
X235853368Y-96803173D01*
G36*
X241840354Y-101483091D02*
G01*
X241986527Y-101523167D01*
X242092932Y-101576974D01*
X242152414Y-101616421D01*
X242185407Y-101645668D01*
X242194636Y-101671645D01*
X242182828Y-101701281D01*
X242156032Y-101737352D01*
X242120095Y-101783067D01*
X242090015Y-101822542D01*
X242081090Y-101834774D01*
X242065163Y-101853316D01*
X242048171Y-101854432D01*
X242019439Y-101836671D01*
X242002427Y-101824073D01*
X241916891Y-101768305D01*
X241830785Y-101732418D01*
X241744884Y-101711939D01*
X241647650Y-101703694D01*
X241563213Y-101715075D01*
X241495651Y-101743539D01*
X241449041Y-101786540D01*
X241427460Y-101841534D01*
X241434800Y-101905436D01*
X241452542Y-101934879D01*
X241487278Y-101961966D01*
X241543131Y-101988676D01*
X241624223Y-102016986D01*
X241732526Y-102048291D01*
X241878387Y-102092631D01*
X241993810Y-102138813D01*
X242082224Y-102188905D01*
X242147057Y-102244979D01*
X242191738Y-102309101D01*
X242202438Y-102331890D01*
X242219075Y-102397943D01*
X242224961Y-102482173D01*
X242220445Y-102570759D01*
X242205876Y-102649881D01*
X242193528Y-102684745D01*
X242135337Y-102773043D01*
X242050848Y-102843463D01*
X241943225Y-102894834D01*
X241815630Y-102925983D01*
X241671225Y-102935740D01*
X241540553Y-102926711D01*
X241463010Y-102912136D01*
X241383093Y-102889693D01*
X241331666Y-102870047D01*
X241274660Y-102840462D01*
X241216257Y-102804547D01*
X241164006Y-102767682D01*
X241125458Y-102735250D01*
X241108162Y-102712632D01*
X241107867Y-102710534D01*
X241117064Y-102691348D01*
X241141229Y-102653035D01*
X241175223Y-102603721D01*
X241176845Y-102601453D01*
X241245823Y-102505126D01*
X241308078Y-102554110D01*
X241413394Y-102623332D01*
X241522896Y-102670943D01*
X241631397Y-102696435D01*
X241733709Y-102699297D01*
X241824644Y-102679021D01*
X241899016Y-102635097D01*
X241920024Y-102614212D01*
X241958623Y-102560773D01*
X241968437Y-102515391D01*
X241949866Y-102468948D01*
X241927717Y-102439671D01*
X241895143Y-102409221D01*
X241849458Y-102383404D01*
X241782592Y-102358170D01*
X241737217Y-102344067D01*
X241617652Y-102308271D01*
X241525626Y-102279888D01*
X241456106Y-102257061D01*
X241404060Y-102237931D01*
X241364453Y-102220640D01*
X241332252Y-102203330D01*
X241302425Y-102184143D01*
X241300554Y-102182859D01*
X241228170Y-102118482D01*
X241182619Y-102040898D01*
X241161187Y-101944467D01*
X241158667Y-101887934D01*
X241168843Y-101781339D01*
X241202087Y-101693807D01*
X241262474Y-101616364D01*
X241295932Y-101585522D01*
X241381928Y-101527110D01*
X241481373Y-101489934D01*
X241600689Y-101472029D01*
X241674443Y-101469680D01*
X241840354Y-101483091D01*
G37*
X241840354Y-101483091D02*
X241986527Y-101523167D01*
X242092932Y-101576974D01*
X242152414Y-101616421D01*
X242185407Y-101645668D01*
X242194636Y-101671645D01*
X242182828Y-101701281D01*
X242156032Y-101737352D01*
X242120095Y-101783067D01*
X242090015Y-101822542D01*
X242081090Y-101834774D01*
X242065163Y-101853316D01*
X242048171Y-101854432D01*
X242019439Y-101836671D01*
X242002427Y-101824073D01*
X241916891Y-101768305D01*
X241830785Y-101732418D01*
X241744884Y-101711939D01*
X241647650Y-101703694D01*
X241563213Y-101715075D01*
X241495651Y-101743539D01*
X241449041Y-101786540D01*
X241427460Y-101841534D01*
X241434800Y-101905436D01*
X241452542Y-101934879D01*
X241487278Y-101961966D01*
X241543131Y-101988676D01*
X241624223Y-102016986D01*
X241732526Y-102048291D01*
X241878387Y-102092631D01*
X241993810Y-102138813D01*
X242082224Y-102188905D01*
X242147057Y-102244979D01*
X242191738Y-102309101D01*
X242202438Y-102331890D01*
X242219075Y-102397943D01*
X242224961Y-102482173D01*
X242220445Y-102570759D01*
X242205876Y-102649881D01*
X242193528Y-102684745D01*
X242135337Y-102773043D01*
X242050848Y-102843463D01*
X241943225Y-102894834D01*
X241815630Y-102925983D01*
X241671225Y-102935740D01*
X241540553Y-102926711D01*
X241463010Y-102912136D01*
X241383093Y-102889693D01*
X241331666Y-102870047D01*
X241274660Y-102840462D01*
X241216257Y-102804547D01*
X241164006Y-102767682D01*
X241125458Y-102735250D01*
X241108162Y-102712632D01*
X241107867Y-102710534D01*
X241117064Y-102691348D01*
X241141229Y-102653035D01*
X241175223Y-102603721D01*
X241176845Y-102601453D01*
X241245823Y-102505126D01*
X241308078Y-102554110D01*
X241413394Y-102623332D01*
X241522896Y-102670943D01*
X241631397Y-102696435D01*
X241733709Y-102699297D01*
X241824644Y-102679021D01*
X241899016Y-102635097D01*
X241920024Y-102614212D01*
X241958623Y-102560773D01*
X241968437Y-102515391D01*
X241949866Y-102468948D01*
X241927717Y-102439671D01*
X241895143Y-102409221D01*
X241849458Y-102383404D01*
X241782592Y-102358170D01*
X241737217Y-102344067D01*
X241617652Y-102308271D01*
X241525626Y-102279888D01*
X241456106Y-102257061D01*
X241404060Y-102237931D01*
X241364453Y-102220640D01*
X241332252Y-102203330D01*
X241302425Y-102184143D01*
X241300554Y-102182859D01*
X241228170Y-102118482D01*
X241182619Y-102040898D01*
X241161187Y-101944467D01*
X241158667Y-101887934D01*
X241168843Y-101781339D01*
X241202087Y-101693807D01*
X241262474Y-101616364D01*
X241295932Y-101585522D01*
X241381928Y-101527110D01*
X241481373Y-101489934D01*
X241600689Y-101472029D01*
X241674443Y-101469680D01*
X241840354Y-101483091D01*
G36*
X246005954Y-101483091D02*
G01*
X246152127Y-101523167D01*
X246258532Y-101576974D01*
X246318014Y-101616421D01*
X246351007Y-101645668D01*
X246360236Y-101671645D01*
X246348428Y-101701281D01*
X246321632Y-101737352D01*
X246285695Y-101783067D01*
X246255615Y-101822542D01*
X246246690Y-101834774D01*
X246230763Y-101853316D01*
X246213771Y-101854432D01*
X246185039Y-101836671D01*
X246168027Y-101824073D01*
X246082491Y-101768305D01*
X245996385Y-101732418D01*
X245910484Y-101711939D01*
X245813250Y-101703694D01*
X245728813Y-101715075D01*
X245661251Y-101743539D01*
X245614641Y-101786540D01*
X245593060Y-101841534D01*
X245600400Y-101905436D01*
X245618142Y-101934879D01*
X245652878Y-101961966D01*
X245708731Y-101988676D01*
X245789823Y-102016986D01*
X245898126Y-102048291D01*
X246043987Y-102092631D01*
X246159410Y-102138813D01*
X246247824Y-102188905D01*
X246312657Y-102244979D01*
X246357338Y-102309101D01*
X246368038Y-102331890D01*
X246384675Y-102397943D01*
X246390561Y-102482173D01*
X246386045Y-102570759D01*
X246371476Y-102649881D01*
X246359128Y-102684745D01*
X246300937Y-102773043D01*
X246216448Y-102843463D01*
X246108825Y-102894834D01*
X245981230Y-102925983D01*
X245836825Y-102935740D01*
X245706153Y-102926711D01*
X245628610Y-102912136D01*
X245548693Y-102889693D01*
X245497266Y-102870047D01*
X245440260Y-102840462D01*
X245381857Y-102804547D01*
X245329606Y-102767682D01*
X245291058Y-102735250D01*
X245273762Y-102712632D01*
X245273467Y-102710534D01*
X245282664Y-102691348D01*
X245306829Y-102653035D01*
X245340823Y-102603721D01*
X245342445Y-102601453D01*
X245411423Y-102505126D01*
X245473678Y-102554110D01*
X245578994Y-102623332D01*
X245688496Y-102670943D01*
X245796997Y-102696435D01*
X245899309Y-102699297D01*
X245990244Y-102679021D01*
X246064616Y-102635097D01*
X246085624Y-102614212D01*
X246124223Y-102560773D01*
X246134037Y-102515391D01*
X246115466Y-102468948D01*
X246093317Y-102439671D01*
X246060743Y-102409221D01*
X246015058Y-102383404D01*
X245948192Y-102358170D01*
X245902817Y-102344067D01*
X245783252Y-102308271D01*
X245691226Y-102279888D01*
X245621706Y-102257061D01*
X245569660Y-102237931D01*
X245530053Y-102220640D01*
X245497852Y-102203330D01*
X245468025Y-102184143D01*
X245466154Y-102182859D01*
X245393770Y-102118482D01*
X245348219Y-102040898D01*
X245326787Y-101944467D01*
X245324267Y-101887934D01*
X245334443Y-101781339D01*
X245367687Y-101693807D01*
X245428074Y-101616364D01*
X245461532Y-101585522D01*
X245547528Y-101527110D01*
X245646973Y-101489934D01*
X245766289Y-101472029D01*
X245840043Y-101469680D01*
X246005954Y-101483091D01*
G37*
X246005954Y-101483091D02*
X246152127Y-101523167D01*
X246258532Y-101576974D01*
X246318014Y-101616421D01*
X246351007Y-101645668D01*
X246360236Y-101671645D01*
X246348428Y-101701281D01*
X246321632Y-101737352D01*
X246285695Y-101783067D01*
X246255615Y-101822542D01*
X246246690Y-101834774D01*
X246230763Y-101853316D01*
X246213771Y-101854432D01*
X246185039Y-101836671D01*
X246168027Y-101824073D01*
X246082491Y-101768305D01*
X245996385Y-101732418D01*
X245910484Y-101711939D01*
X245813250Y-101703694D01*
X245728813Y-101715075D01*
X245661251Y-101743539D01*
X245614641Y-101786540D01*
X245593060Y-101841534D01*
X245600400Y-101905436D01*
X245618142Y-101934879D01*
X245652878Y-101961966D01*
X245708731Y-101988676D01*
X245789823Y-102016986D01*
X245898126Y-102048291D01*
X246043987Y-102092631D01*
X246159410Y-102138813D01*
X246247824Y-102188905D01*
X246312657Y-102244979D01*
X246357338Y-102309101D01*
X246368038Y-102331890D01*
X246384675Y-102397943D01*
X246390561Y-102482173D01*
X246386045Y-102570759D01*
X246371476Y-102649881D01*
X246359128Y-102684745D01*
X246300937Y-102773043D01*
X246216448Y-102843463D01*
X246108825Y-102894834D01*
X245981230Y-102925983D01*
X245836825Y-102935740D01*
X245706153Y-102926711D01*
X245628610Y-102912136D01*
X245548693Y-102889693D01*
X245497266Y-102870047D01*
X245440260Y-102840462D01*
X245381857Y-102804547D01*
X245329606Y-102767682D01*
X245291058Y-102735250D01*
X245273762Y-102712632D01*
X245273467Y-102710534D01*
X245282664Y-102691348D01*
X245306829Y-102653035D01*
X245340823Y-102603721D01*
X245342445Y-102601453D01*
X245411423Y-102505126D01*
X245473678Y-102554110D01*
X245578994Y-102623332D01*
X245688496Y-102670943D01*
X245796997Y-102696435D01*
X245899309Y-102699297D01*
X245990244Y-102679021D01*
X246064616Y-102635097D01*
X246085624Y-102614212D01*
X246124223Y-102560773D01*
X246134037Y-102515391D01*
X246115466Y-102468948D01*
X246093317Y-102439671D01*
X246060743Y-102409221D01*
X246015058Y-102383404D01*
X245948192Y-102358170D01*
X245902817Y-102344067D01*
X245783252Y-102308271D01*
X245691226Y-102279888D01*
X245621706Y-102257061D01*
X245569660Y-102237931D01*
X245530053Y-102220640D01*
X245497852Y-102203330D01*
X245468025Y-102184143D01*
X245466154Y-102182859D01*
X245393770Y-102118482D01*
X245348219Y-102040898D01*
X245326787Y-101944467D01*
X245324267Y-101887934D01*
X245334443Y-101781339D01*
X245367687Y-101693807D01*
X245428074Y-101616364D01*
X245461532Y-101585522D01*
X245547528Y-101527110D01*
X245646973Y-101489934D01*
X245766289Y-101472029D01*
X245840043Y-101469680D01*
X246005954Y-101483091D01*
G36*
X249720954Y-101489929D02*
G01*
X249853054Y-101539104D01*
X249909881Y-101572308D01*
X249968418Y-101615023D01*
X250022410Y-101661483D01*
X250065597Y-101705924D01*
X250091723Y-101742582D01*
X250095989Y-101762901D01*
X250079167Y-101779443D01*
X250040883Y-101805716D01*
X249993738Y-101833573D01*
X249897223Y-101887038D01*
X249841712Y-101834278D01*
X249742264Y-101761393D01*
X249632345Y-101718410D01*
X249517291Y-101705278D01*
X249402434Y-101721946D01*
X249293112Y-101768363D01*
X249198813Y-101840384D01*
X249127457Y-101932438D01*
X249081912Y-102040386D01*
X249062239Y-102158123D01*
X249068502Y-102279545D01*
X249100762Y-102398546D01*
X249159080Y-102509022D01*
X249191604Y-102551702D01*
X249273230Y-102623256D01*
X249372459Y-102670508D01*
X249482746Y-102692906D01*
X249597548Y-102689895D01*
X249710323Y-102660923D01*
X249814528Y-102605434D01*
X249815834Y-102604510D01*
X249841379Y-102583212D01*
X249855387Y-102558507D01*
X249861259Y-102520024D01*
X249862400Y-102462514D01*
X249862400Y-102353600D01*
X249439067Y-102353600D01*
X249439067Y-102133467D01*
X250116400Y-102133467D01*
X250116400Y-102689628D01*
X250044434Y-102751719D01*
X249914423Y-102842177D01*
X249769612Y-102902463D01*
X249611236Y-102932237D01*
X249440526Y-102931157D01*
X249407844Y-102927568D01*
X249263148Y-102892883D01*
X249129428Y-102828426D01*
X249011535Y-102737732D01*
X248914323Y-102624337D01*
X248858137Y-102527010D01*
X248835903Y-102478494D01*
X248820782Y-102438123D01*
X248811408Y-102397435D01*
X248806410Y-102347965D01*
X248804419Y-102281250D01*
X248804067Y-102192734D01*
X248804430Y-102101626D01*
X248806436Y-102036027D01*
X248811462Y-101987577D01*
X248820882Y-101947919D01*
X248836073Y-101908694D01*
X248858410Y-101861545D01*
X248858665Y-101861024D01*
X248935878Y-101740076D01*
X249036607Y-101639120D01*
X249155937Y-101559748D01*
X249288951Y-101503552D01*
X249430736Y-101472123D01*
X249576375Y-101467051D01*
X249720954Y-101489929D01*
G37*
X249720954Y-101489929D02*
X249853054Y-101539104D01*
X249909881Y-101572308D01*
X249968418Y-101615023D01*
X250022410Y-101661483D01*
X250065597Y-101705924D01*
X250091723Y-101742582D01*
X250095989Y-101762901D01*
X250079167Y-101779443D01*
X250040883Y-101805716D01*
X249993738Y-101833573D01*
X249897223Y-101887038D01*
X249841712Y-101834278D01*
X249742264Y-101761393D01*
X249632345Y-101718410D01*
X249517291Y-101705278D01*
X249402434Y-101721946D01*
X249293112Y-101768363D01*
X249198813Y-101840384D01*
X249127457Y-101932438D01*
X249081912Y-102040386D01*
X249062239Y-102158123D01*
X249068502Y-102279545D01*
X249100762Y-102398546D01*
X249159080Y-102509022D01*
X249191604Y-102551702D01*
X249273230Y-102623256D01*
X249372459Y-102670508D01*
X249482746Y-102692906D01*
X249597548Y-102689895D01*
X249710323Y-102660923D01*
X249814528Y-102605434D01*
X249815834Y-102604510D01*
X249841379Y-102583212D01*
X249855387Y-102558507D01*
X249861259Y-102520024D01*
X249862400Y-102462514D01*
X249862400Y-102353600D01*
X249439067Y-102353600D01*
X249439067Y-102133467D01*
X250116400Y-102133467D01*
X250116400Y-102689628D01*
X250044434Y-102751719D01*
X249914423Y-102842177D01*
X249769612Y-102902463D01*
X249611236Y-102932237D01*
X249440526Y-102931157D01*
X249407844Y-102927568D01*
X249263148Y-102892883D01*
X249129428Y-102828426D01*
X249011535Y-102737732D01*
X248914323Y-102624337D01*
X248858137Y-102527010D01*
X248835903Y-102478494D01*
X248820782Y-102438123D01*
X248811408Y-102397435D01*
X248806410Y-102347965D01*
X248804419Y-102281250D01*
X248804067Y-102192734D01*
X248804430Y-102101626D01*
X248806436Y-102036027D01*
X248811462Y-101987577D01*
X248820882Y-101947919D01*
X248836073Y-101908694D01*
X248858410Y-101861545D01*
X248858665Y-101861024D01*
X248935878Y-101740076D01*
X249036607Y-101639120D01*
X249155937Y-101559748D01*
X249288951Y-101503552D01*
X249430736Y-101472123D01*
X249576375Y-101467051D01*
X249720954Y-101489929D01*
G36*
X243495467Y-101710134D02*
G01*
X242784267Y-101710134D01*
X242784267Y-102065734D01*
X243478534Y-102065734D01*
X243478534Y-102285867D01*
X242784267Y-102285867D01*
X242784267Y-102675334D01*
X243495467Y-102675334D01*
X243495467Y-102895467D01*
X242530267Y-102895467D01*
X242530267Y-101490000D01*
X243495467Y-101490000D01*
X243495467Y-101710134D01*
G37*
X243495467Y-101710134D02*
X242784267Y-101710134D01*
X242784267Y-102065734D01*
X243478534Y-102065734D01*
X243478534Y-102285867D01*
X242784267Y-102285867D01*
X242784267Y-102675334D01*
X243495467Y-102675334D01*
X243495467Y-102895467D01*
X242530267Y-102895467D01*
X242530267Y-101490000D01*
X243495467Y-101490000D01*
X243495467Y-101710134D01*
G36*
X244411996Y-101972695D02*
G01*
X244757000Y-102455390D01*
X244765986Y-101490000D01*
X245019467Y-101490000D01*
X245019467Y-102895467D01*
X244888234Y-102895114D01*
X244757000Y-102894762D01*
X244409867Y-102405022D01*
X244062734Y-101915281D01*
X244058244Y-102405374D01*
X244053755Y-102895467D01*
X243800267Y-102895467D01*
X243800267Y-101490000D01*
X244066991Y-101490000D01*
X244411996Y-101972695D01*
G37*
X244411996Y-101972695D02*
X244757000Y-102455390D01*
X244765986Y-101490000D01*
X245019467Y-101490000D01*
X245019467Y-102895467D01*
X244888234Y-102895114D01*
X244757000Y-102894762D01*
X244409867Y-102405022D01*
X244062734Y-101915281D01*
X244058244Y-102405374D01*
X244053755Y-102895467D01*
X243800267Y-102895467D01*
X243800267Y-101490000D01*
X244066991Y-101490000D01*
X244411996Y-101972695D01*
G36*
X246932933Y-102895467D02*
G01*
X246678933Y-102895467D01*
X246678933Y-101490000D01*
X246932933Y-101490000D01*
X246932933Y-102895467D01*
G37*
X246932933Y-102895467D02*
X246678933Y-102895467D01*
X246678933Y-101490000D01*
X246932933Y-101490000D01*
X246932933Y-102895467D01*
G36*
X247900262Y-101972695D02*
G01*
X248245267Y-102455390D01*
X248254253Y-101490000D01*
X248507733Y-101490000D01*
X248507733Y-102895467D01*
X248376500Y-102895114D01*
X248245267Y-102894762D01*
X247898133Y-102405022D01*
X247551000Y-101915281D01*
X247542022Y-102895467D01*
X247288533Y-102895467D01*
X247288533Y-101490000D01*
X247555258Y-101490000D01*
X247900262Y-101972695D01*
G37*
X247900262Y-101972695D02*
X248245267Y-102455390D01*
X248254253Y-101490000D01*
X248507733Y-101490000D01*
X248507733Y-102895467D01*
X248376500Y-102895114D01*
X248245267Y-102894762D01*
X247898133Y-102405022D01*
X247551000Y-101915281D01*
X247542022Y-102895467D01*
X247288533Y-102895467D01*
X247288533Y-101490000D01*
X247555258Y-101490000D01*
X247900262Y-101972695D01*
G36*
X235219386Y-99985738D02*
G01*
X235248387Y-100002645D01*
X235291107Y-100033508D01*
X235350599Y-100080510D01*
X235429921Y-100145837D01*
X235514116Y-100216474D01*
X235641978Y-100326577D01*
X235745072Y-100421552D01*
X235826393Y-100505664D01*
X235888937Y-100583176D01*
X235935702Y-100658352D01*
X235969684Y-100735456D01*
X235993879Y-100818752D01*
X236011284Y-100912504D01*
X236013379Y-100926910D01*
X236020252Y-101091940D01*
X235994324Y-101251481D01*
X235936550Y-101402734D01*
X235847889Y-101542897D01*
X235774175Y-101626703D01*
X235662754Y-101724001D01*
X235545824Y-101793513D01*
X235412929Y-101840957D01*
X235358705Y-101853833D01*
X235250520Y-101872203D01*
X235156534Y-101876176D01*
X235060307Y-101865787D01*
X235003400Y-101854606D01*
X234941493Y-101837953D01*
X234876471Y-101815466D01*
X234816418Y-101790614D01*
X234769417Y-101766866D01*
X234743552Y-101747690D01*
X234740934Y-101741976D01*
X234751377Y-101725962D01*
X234780568Y-101688137D01*
X234825298Y-101632478D01*
X234882360Y-101562960D01*
X234948545Y-101483558D01*
X234971336Y-101456464D01*
X235039204Y-101375062D01*
X235098299Y-101302457D01*
X235145562Y-101242552D01*
X235177937Y-101199249D01*
X235192364Y-101176448D01*
X235192647Y-101174069D01*
X235169077Y-101152614D01*
X235128289Y-101117472D01*
X235076318Y-101073635D01*
X235019201Y-101026094D01*
X234962975Y-100979841D01*
X234913677Y-100939868D01*
X234877344Y-100911167D01*
X234860011Y-100898729D01*
X234859467Y-100898567D01*
X234846694Y-100911237D01*
X234815772Y-100946325D01*
X234769955Y-101000002D01*
X234712498Y-101068443D01*
X234646658Y-101147819D01*
X234622400Y-101177275D01*
X234554348Y-101259558D01*
X234493463Y-101332215D01*
X234443017Y-101391418D01*
X234406281Y-101433343D01*
X234386529Y-101454163D01*
X234384242Y-101455756D01*
X234367984Y-101445709D01*
X234332173Y-101418413D01*
X234282967Y-101378660D01*
X234251791Y-101352688D01*
X234128898Y-101249242D01*
X234161662Y-101212988D01*
X234179097Y-101192709D01*
X234215843Y-101149224D01*
X234269536Y-101085355D01*
X234337815Y-101003919D01*
X234418318Y-100907737D01*
X234508682Y-100799627D01*
X234606545Y-100682410D01*
X234681511Y-100592533D01*
X234782873Y-100471021D01*
X234878053Y-100357036D01*
X234964755Y-100253319D01*
X235040684Y-100162610D01*
X235103547Y-100087647D01*
X235151048Y-100031170D01*
X235180892Y-99995920D01*
X235190313Y-99985056D01*
X235201046Y-99980603D01*
X235219386Y-99985738D01*
G37*
X235219386Y-99985738D02*
X235248387Y-100002645D01*
X235291107Y-100033508D01*
X235350599Y-100080510D01*
X235429921Y-100145837D01*
X235514116Y-100216474D01*
X235641978Y-100326577D01*
X235745072Y-100421552D01*
X235826393Y-100505664D01*
X235888937Y-100583176D01*
X235935702Y-100658352D01*
X235969684Y-100735456D01*
X235993879Y-100818752D01*
X236011284Y-100912504D01*
X236013379Y-100926910D01*
X236020252Y-101091940D01*
X235994324Y-101251481D01*
X235936550Y-101402734D01*
X235847889Y-101542897D01*
X235774175Y-101626703D01*
X235662754Y-101724001D01*
X235545824Y-101793513D01*
X235412929Y-101840957D01*
X235358705Y-101853833D01*
X235250520Y-101872203D01*
X235156534Y-101876176D01*
X235060307Y-101865787D01*
X235003400Y-101854606D01*
X234941493Y-101837953D01*
X234876471Y-101815466D01*
X234816418Y-101790614D01*
X234769417Y-101766866D01*
X234743552Y-101747690D01*
X234740934Y-101741976D01*
X234751377Y-101725962D01*
X234780568Y-101688137D01*
X234825298Y-101632478D01*
X234882360Y-101562960D01*
X234948545Y-101483558D01*
X234971336Y-101456464D01*
X235039204Y-101375062D01*
X235098299Y-101302457D01*
X235145562Y-101242552D01*
X235177937Y-101199249D01*
X235192364Y-101176448D01*
X235192647Y-101174069D01*
X235169077Y-101152614D01*
X235128289Y-101117472D01*
X235076318Y-101073635D01*
X235019201Y-101026094D01*
X234962975Y-100979841D01*
X234913677Y-100939868D01*
X234877344Y-100911167D01*
X234860011Y-100898729D01*
X234859467Y-100898567D01*
X234846694Y-100911237D01*
X234815772Y-100946325D01*
X234769955Y-101000002D01*
X234712498Y-101068443D01*
X234646658Y-101147819D01*
X234622400Y-101177275D01*
X234554348Y-101259558D01*
X234493463Y-101332215D01*
X234443017Y-101391418D01*
X234406281Y-101433343D01*
X234386529Y-101454163D01*
X234384242Y-101455756D01*
X234367984Y-101445709D01*
X234332173Y-101418413D01*
X234282967Y-101378660D01*
X234251791Y-101352688D01*
X234128898Y-101249242D01*
X234161662Y-101212988D01*
X234179097Y-101192709D01*
X234215843Y-101149224D01*
X234269536Y-101085355D01*
X234337815Y-101003919D01*
X234418318Y-100907737D01*
X234508682Y-100799627D01*
X234606545Y-100682410D01*
X234681511Y-100592533D01*
X234782873Y-100471021D01*
X234878053Y-100357036D01*
X234964755Y-100253319D01*
X235040684Y-100162610D01*
X235103547Y-100087647D01*
X235151048Y-100031170D01*
X235180892Y-99995920D01*
X235190313Y-99985056D01*
X235201046Y-99980603D01*
X235219386Y-99985738D01*
G36*
X241681482Y-98005488D02*
G01*
X241697990Y-98008291D01*
X241874499Y-98056126D01*
X242035215Y-98133005D01*
X242178176Y-98237058D01*
X242301423Y-98366416D01*
X242402996Y-98519211D01*
X242480935Y-98693572D01*
X242508503Y-98781203D01*
X242521428Y-98837804D01*
X242530337Y-98902751D01*
X242535791Y-98983113D01*
X242538352Y-99085958D01*
X242538734Y-99161667D01*
X242538148Y-99269588D01*
X242535874Y-99351461D01*
X242531133Y-99415095D01*
X242523147Y-99468296D01*
X242511138Y-99518870D01*
X242499078Y-99559600D01*
X242425488Y-99747039D01*
X242329788Y-99910826D01*
X242213317Y-100049694D01*
X242077414Y-100162378D01*
X241923420Y-100247610D01*
X241752674Y-100304125D01*
X241700062Y-100314990D01*
X241519555Y-100331617D01*
X241343041Y-100317046D01*
X241174704Y-100272403D01*
X241018730Y-100198812D01*
X240879304Y-100097398D01*
X240874425Y-100093044D01*
X240786134Y-100013662D01*
X240786134Y-101371467D01*
X240193467Y-101371467D01*
X240193467Y-99170134D01*
X240795611Y-99170134D01*
X240796604Y-99258569D01*
X240800092Y-99322441D01*
X240807496Y-99371033D01*
X240820236Y-99413631D01*
X240839736Y-99459520D01*
X240840012Y-99460117D01*
X240914671Y-99585408D01*
X241010704Y-99686471D01*
X241125402Y-99760806D01*
X241198023Y-99790239D01*
X241283942Y-99806350D01*
X241385982Y-99807372D01*
X241490425Y-99794241D01*
X241583557Y-99767890D01*
X241594877Y-99763214D01*
X241681107Y-99711709D01*
X241765518Y-99636497D01*
X241839383Y-99547021D01*
X241893971Y-99452729D01*
X241903793Y-99428952D01*
X241933377Y-99321942D01*
X241949351Y-99202365D01*
X241950435Y-99085217D01*
X241940029Y-99004749D01*
X241894791Y-98861216D01*
X241825538Y-98741418D01*
X241731865Y-98644810D01*
X241619745Y-98573945D01*
X241558335Y-98545583D01*
X241507805Y-98528849D01*
X241454433Y-98520782D01*
X241384495Y-98518419D01*
X241362223Y-98518374D01*
X241284929Y-98520042D01*
X241228393Y-98526616D01*
X241179578Y-98540781D01*
X241125449Y-98565220D01*
X241118957Y-98568476D01*
X241011148Y-98640234D01*
X240918064Y-98736063D01*
X240848041Y-98846886D01*
X240833908Y-98878853D01*
X240816132Y-98928677D01*
X240804701Y-98977962D01*
X240798353Y-99036310D01*
X240795825Y-99113322D01*
X240795611Y-99170134D01*
X240193467Y-99170134D01*
X240193467Y-98035600D01*
X240786134Y-98035600D01*
X240786134Y-98310847D01*
X240860402Y-98242389D01*
X240999693Y-98136487D01*
X241155407Y-98058740D01*
X241323582Y-98010253D01*
X241500261Y-97992133D01*
X241681482Y-98005488D01*
G37*
X241681482Y-98005488D02*
X241697990Y-98008291D01*
X241874499Y-98056126D01*
X242035215Y-98133005D01*
X242178176Y-98237058D01*
X242301423Y-98366416D01*
X242402996Y-98519211D01*
X242480935Y-98693572D01*
X242508503Y-98781203D01*
X242521428Y-98837804D01*
X242530337Y-98902751D01*
X242535791Y-98983113D01*
X242538352Y-99085958D01*
X242538734Y-99161667D01*
X242538148Y-99269588D01*
X242535874Y-99351461D01*
X242531133Y-99415095D01*
X242523147Y-99468296D01*
X242511138Y-99518870D01*
X242499078Y-99559600D01*
X242425488Y-99747039D01*
X242329788Y-99910826D01*
X242213317Y-100049694D01*
X242077414Y-100162378D01*
X241923420Y-100247610D01*
X241752674Y-100304125D01*
X241700062Y-100314990D01*
X241519555Y-100331617D01*
X241343041Y-100317046D01*
X241174704Y-100272403D01*
X241018730Y-100198812D01*
X240879304Y-100097398D01*
X240874425Y-100093044D01*
X240786134Y-100013662D01*
X240786134Y-101371467D01*
X240193467Y-101371467D01*
X240193467Y-99170134D01*
X240795611Y-99170134D01*
X240796604Y-99258569D01*
X240800092Y-99322441D01*
X240807496Y-99371033D01*
X240820236Y-99413631D01*
X240839736Y-99459520D01*
X240840012Y-99460117D01*
X240914671Y-99585408D01*
X241010704Y-99686471D01*
X241125402Y-99760806D01*
X241198023Y-99790239D01*
X241283942Y-99806350D01*
X241385982Y-99807372D01*
X241490425Y-99794241D01*
X241583557Y-99767890D01*
X241594877Y-99763214D01*
X241681107Y-99711709D01*
X241765518Y-99636497D01*
X241839383Y-99547021D01*
X241893971Y-99452729D01*
X241903793Y-99428952D01*
X241933377Y-99321942D01*
X241949351Y-99202365D01*
X241950435Y-99085217D01*
X241940029Y-99004749D01*
X241894791Y-98861216D01*
X241825538Y-98741418D01*
X241731865Y-98644810D01*
X241619745Y-98573945D01*
X241558335Y-98545583D01*
X241507805Y-98528849D01*
X241454433Y-98520782D01*
X241384495Y-98518419D01*
X241362223Y-98518374D01*
X241284929Y-98520042D01*
X241228393Y-98526616D01*
X241179578Y-98540781D01*
X241125449Y-98565220D01*
X241118957Y-98568476D01*
X241011148Y-98640234D01*
X240918064Y-98736063D01*
X240848041Y-98846886D01*
X240833908Y-98878853D01*
X240816132Y-98928677D01*
X240804701Y-98977962D01*
X240798353Y-99036310D01*
X240795825Y-99113322D01*
X240795611Y-99170134D01*
X240193467Y-99170134D01*
X240193467Y-98035600D01*
X240786134Y-98035600D01*
X240786134Y-98310847D01*
X240860402Y-98242389D01*
X240999693Y-98136487D01*
X241155407Y-98058740D01*
X241323582Y-98010253D01*
X241500261Y-97992133D01*
X241681482Y-98005488D01*
G36*
X244140736Y-98007481D02*
G01*
X244316224Y-98042236D01*
X244474556Y-98102734D01*
X244619627Y-98190390D01*
X244731328Y-98283441D01*
X244848963Y-98413728D01*
X244939936Y-98559182D01*
X245005902Y-98723245D01*
X245048511Y-98909358D01*
X245055546Y-98958467D01*
X245062820Y-99044732D01*
X245064948Y-99138645D01*
X245061682Y-99216700D01*
X245050444Y-99339467D01*
X243406472Y-99339467D01*
X243417451Y-99408125D01*
X243453534Y-99530108D01*
X243518633Y-99638904D01*
X243608899Y-99729512D01*
X243714473Y-99794193D01*
X243780416Y-99820158D01*
X243845393Y-99833718D01*
X243925723Y-99838116D01*
X243935831Y-99838178D01*
X244067284Y-99824737D01*
X244179812Y-99783365D01*
X244274094Y-99713749D01*
X244321296Y-99659491D01*
X244383229Y-99576534D01*
X244692881Y-99576534D01*
X244806927Y-99577414D01*
X244897522Y-99579954D01*
X244961771Y-99583996D01*
X244996773Y-99589386D01*
X245002534Y-99593124D01*
X244994096Y-99630206D01*
X244971380Y-99687411D01*
X244938281Y-99756287D01*
X244898694Y-99828379D01*
X244879527Y-99860057D01*
X244780685Y-99988147D01*
X244655923Y-100101766D01*
X244511716Y-100196332D01*
X244354534Y-100267267D01*
X244265934Y-100294287D01*
X244163039Y-100313520D01*
X244041873Y-100325658D01*
X243916832Y-100329985D01*
X243802312Y-100325784D01*
X243751272Y-100319926D01*
X243567098Y-100278446D01*
X243403360Y-100212197D01*
X243254916Y-100118605D01*
X243130710Y-100009438D01*
X243017057Y-99877771D01*
X242930192Y-99736071D01*
X242868622Y-99580335D01*
X242830855Y-99406560D01*
X242815400Y-99210741D01*
X242814844Y-99161667D01*
X242827153Y-98950000D01*
X243408109Y-98950000D01*
X244462201Y-98950000D01*
X244451265Y-98886500D01*
X244414542Y-98770028D01*
X244348581Y-98666124D01*
X244257056Y-98579370D01*
X244157940Y-98520691D01*
X244073659Y-98494991D01*
X243971721Y-98483303D01*
X243865298Y-98485620D01*
X243767562Y-98501936D01*
X243713074Y-98520891D01*
X243611700Y-98585137D01*
X243525026Y-98674654D01*
X243458855Y-98782036D01*
X243420025Y-98894967D01*
X243408109Y-98950000D01*
X242827153Y-98950000D01*
X242827262Y-98948126D01*
X242864912Y-98756395D01*
X242928394Y-98585047D01*
X243018306Y-98432652D01*
X243135245Y-98297783D01*
X243201307Y-98238722D01*
X243340696Y-98141049D01*
X243492367Y-98069568D01*
X243660268Y-98022993D01*
X243848348Y-98000040D01*
X243944200Y-97997051D01*
X244140736Y-98007481D01*
G37*
X244140736Y-98007481D02*
X244316224Y-98042236D01*
X244474556Y-98102734D01*
X244619627Y-98190390D01*
X244731328Y-98283441D01*
X244848963Y-98413728D01*
X244939936Y-98559182D01*
X245005902Y-98723245D01*
X245048511Y-98909358D01*
X245055546Y-98958467D01*
X245062820Y-99044732D01*
X245064948Y-99138645D01*
X245061682Y-99216700D01*
X245050444Y-99339467D01*
X243406472Y-99339467D01*
X243417451Y-99408125D01*
X243453534Y-99530108D01*
X243518633Y-99638904D01*
X243608899Y-99729512D01*
X243714473Y-99794193D01*
X243780416Y-99820158D01*
X243845393Y-99833718D01*
X243925723Y-99838116D01*
X243935831Y-99838178D01*
X244067284Y-99824737D01*
X244179812Y-99783365D01*
X244274094Y-99713749D01*
X244321296Y-99659491D01*
X244383229Y-99576534D01*
X244692881Y-99576534D01*
X244806927Y-99577414D01*
X244897522Y-99579954D01*
X244961771Y-99583996D01*
X244996773Y-99589386D01*
X245002534Y-99593124D01*
X244994096Y-99630206D01*
X244971380Y-99687411D01*
X244938281Y-99756287D01*
X244898694Y-99828379D01*
X244879527Y-99860057D01*
X244780685Y-99988147D01*
X244655923Y-100101766D01*
X244511716Y-100196332D01*
X244354534Y-100267267D01*
X244265934Y-100294287D01*
X244163039Y-100313520D01*
X244041873Y-100325658D01*
X243916832Y-100329985D01*
X243802312Y-100325784D01*
X243751272Y-100319926D01*
X243567098Y-100278446D01*
X243403360Y-100212197D01*
X243254916Y-100118605D01*
X243130710Y-100009438D01*
X243017057Y-99877771D01*
X242930192Y-99736071D01*
X242868622Y-99580335D01*
X242830855Y-99406560D01*
X242815400Y-99210741D01*
X242814844Y-99161667D01*
X242827153Y-98950000D01*
X243408109Y-98950000D01*
X244462201Y-98950000D01*
X244451265Y-98886500D01*
X244414542Y-98770028D01*
X244348581Y-98666124D01*
X244257056Y-98579370D01*
X244157940Y-98520691D01*
X244073659Y-98494991D01*
X243971721Y-98483303D01*
X243865298Y-98485620D01*
X243767562Y-98501936D01*
X243713074Y-98520891D01*
X243611700Y-98585137D01*
X243525026Y-98674654D01*
X243458855Y-98782036D01*
X243420025Y-98894967D01*
X243408109Y-98950000D01*
X242827153Y-98950000D01*
X242827262Y-98948126D01*
X242864912Y-98756395D01*
X242928394Y-98585047D01*
X243018306Y-98432652D01*
X243135245Y-98297783D01*
X243201307Y-98238722D01*
X243340696Y-98141049D01*
X243492367Y-98069568D01*
X243660268Y-98022993D01*
X243848348Y-98000040D01*
X243944200Y-97997051D01*
X244140736Y-98007481D01*
G36*
X248242389Y-98002726D02*
G01*
X248353382Y-98016347D01*
X248397667Y-98025391D01*
X248575677Y-98084275D01*
X248733206Y-98169973D01*
X248869408Y-98281703D01*
X248983435Y-98418685D01*
X249074440Y-98580137D01*
X249118098Y-98689756D01*
X249135642Y-98741637D01*
X249147643Y-98778830D01*
X249151200Y-98791784D01*
X249135137Y-98793602D01*
X249090430Y-98795188D01*
X249022300Y-98796446D01*
X248935968Y-98797282D01*
X248836658Y-98797600D01*
X248512877Y-98797600D01*
X248481686Y-98728431D01*
X248424441Y-98640022D01*
X248345120Y-98571782D01*
X248249520Y-98524647D01*
X248143436Y-98499547D01*
X248032667Y-98497417D01*
X247923007Y-98519190D01*
X247820254Y-98565799D01*
X247757614Y-98611866D01*
X247674761Y-98707139D01*
X247613757Y-98827087D01*
X247575217Y-98970001D01*
X247559758Y-99134174D01*
X247559467Y-99161667D01*
X247571196Y-99332239D01*
X247606278Y-99479024D01*
X247664553Y-99601692D01*
X247745862Y-99699911D01*
X247850047Y-99773349D01*
X247854276Y-99775554D01*
X247947423Y-99808203D01*
X248056320Y-99822320D01*
X248168057Y-99817414D01*
X248269726Y-99792997D01*
X248273824Y-99791444D01*
X248343909Y-99752451D01*
X248411495Y-99694716D01*
X248466076Y-99628577D01*
X248493919Y-99574866D01*
X248511047Y-99525734D01*
X249153482Y-99525734D01*
X249141716Y-99563834D01*
X249069037Y-99748736D01*
X248972933Y-99910283D01*
X248854501Y-100047388D01*
X248714836Y-100158969D01*
X248555037Y-100243939D01*
X248402408Y-100294887D01*
X248339817Y-100307019D01*
X248258570Y-100317591D01*
X248168918Y-100325844D01*
X248081108Y-100331014D01*
X248005388Y-100332341D01*
X247952008Y-100329065D01*
X247948933Y-100328568D01*
X247909157Y-100321625D01*
X247850851Y-100311419D01*
X247805000Y-100303380D01*
X247692244Y-100272836D01*
X247570182Y-100221824D01*
X247450527Y-100156433D01*
X247344990Y-100082752D01*
X247293914Y-100037686D01*
X247174806Y-99897053D01*
X247080472Y-99735697D01*
X247012017Y-99557122D01*
X246970547Y-99364830D01*
X246957168Y-99162324D01*
X246966712Y-99001575D01*
X247004410Y-98797904D01*
X247068547Y-98613961D01*
X247158125Y-98450946D01*
X247272146Y-98310059D01*
X247409611Y-98192501D01*
X247569521Y-98099472D01*
X247750878Y-98032174D01*
X247779600Y-98024441D01*
X247874875Y-98007547D01*
X247991513Y-97998308D01*
X248117892Y-97996707D01*
X248242389Y-98002726D01*
G37*
X248242389Y-98002726D02*
X248353382Y-98016347D01*
X248397667Y-98025391D01*
X248575677Y-98084275D01*
X248733206Y-98169973D01*
X248869408Y-98281703D01*
X248983435Y-98418685D01*
X249074440Y-98580137D01*
X249118098Y-98689756D01*
X249135642Y-98741637D01*
X249147643Y-98778830D01*
X249151200Y-98791784D01*
X249135137Y-98793602D01*
X249090430Y-98795188D01*
X249022300Y-98796446D01*
X248935968Y-98797282D01*
X248836658Y-98797600D01*
X248512877Y-98797600D01*
X248481686Y-98728431D01*
X248424441Y-98640022D01*
X248345120Y-98571782D01*
X248249520Y-98524647D01*
X248143436Y-98499547D01*
X248032667Y-98497417D01*
X247923007Y-98519190D01*
X247820254Y-98565799D01*
X247757614Y-98611866D01*
X247674761Y-98707139D01*
X247613757Y-98827087D01*
X247575217Y-98970001D01*
X247559758Y-99134174D01*
X247559467Y-99161667D01*
X247571196Y-99332239D01*
X247606278Y-99479024D01*
X247664553Y-99601692D01*
X247745862Y-99699911D01*
X247850047Y-99773349D01*
X247854276Y-99775554D01*
X247947423Y-99808203D01*
X248056320Y-99822320D01*
X248168057Y-99817414D01*
X248269726Y-99792997D01*
X248273824Y-99791444D01*
X248343909Y-99752451D01*
X248411495Y-99694716D01*
X248466076Y-99628577D01*
X248493919Y-99574866D01*
X248511047Y-99525734D01*
X249153482Y-99525734D01*
X249141716Y-99563834D01*
X249069037Y-99748736D01*
X248972933Y-99910283D01*
X248854501Y-100047388D01*
X248714836Y-100158969D01*
X248555037Y-100243939D01*
X248402408Y-100294887D01*
X248339817Y-100307019D01*
X248258570Y-100317591D01*
X248168918Y-100325844D01*
X248081108Y-100331014D01*
X248005388Y-100332341D01*
X247952008Y-100329065D01*
X247948933Y-100328568D01*
X247909157Y-100321625D01*
X247850851Y-100311419D01*
X247805000Y-100303380D01*
X247692244Y-100272836D01*
X247570182Y-100221824D01*
X247450527Y-100156433D01*
X247344990Y-100082752D01*
X247293914Y-100037686D01*
X247174806Y-99897053D01*
X247080472Y-99735697D01*
X247012017Y-99557122D01*
X246970547Y-99364830D01*
X246957168Y-99162324D01*
X246966712Y-99001575D01*
X247004410Y-98797904D01*
X247068547Y-98613961D01*
X247158125Y-98450946D01*
X247272146Y-98310059D01*
X247409611Y-98192501D01*
X247569521Y-98099472D01*
X247750878Y-98032174D01*
X247779600Y-98024441D01*
X247874875Y-98007547D01*
X247991513Y-97998308D01*
X248117892Y-97996707D01*
X248242389Y-98002726D01*
G36*
X246729733Y-98606894D02*
G01*
X246556167Y-98615061D01*
X246419163Y-98629047D01*
X246309218Y-98658251D01*
X246222081Y-98704992D01*
X246153495Y-98771587D01*
X246099210Y-98860353D01*
X246096833Y-98865333D01*
X246087790Y-98885757D01*
X246080364Y-98907328D01*
X246074364Y-98933514D01*
X246069601Y-98967784D01*
X246065884Y-99013607D01*
X246063024Y-99074451D01*
X246060829Y-99153785D01*
X246059109Y-99255077D01*
X246057675Y-99381796D01*
X246056336Y-99537411D01*
X246055738Y-99614634D01*
X246050610Y-100287733D01*
X245459733Y-100287733D01*
X245459733Y-98035600D01*
X246052400Y-98035600D01*
X246052400Y-98327193D01*
X246144457Y-98233654D01*
X246260558Y-98136584D01*
X246391386Y-98063730D01*
X246529472Y-98018748D01*
X246607326Y-98007084D01*
X246729733Y-97996822D01*
X246729733Y-98606894D01*
G37*
X246729733Y-98606894D02*
X246556167Y-98615061D01*
X246419163Y-98629047D01*
X246309218Y-98658251D01*
X246222081Y-98704992D01*
X246153495Y-98771587D01*
X246099210Y-98860353D01*
X246096833Y-98865333D01*
X246087790Y-98885757D01*
X246080364Y-98907328D01*
X246074364Y-98933514D01*
X246069601Y-98967784D01*
X246065884Y-99013607D01*
X246063024Y-99074451D01*
X246060829Y-99153785D01*
X246059109Y-99255077D01*
X246057675Y-99381796D01*
X246056336Y-99537411D01*
X246055738Y-99614634D01*
X246050610Y-100287733D01*
X245459733Y-100287733D01*
X245459733Y-98035600D01*
X246052400Y-98035600D01*
X246052400Y-98327193D01*
X246144457Y-98233654D01*
X246260558Y-98136584D01*
X246391386Y-98063730D01*
X246529472Y-98018748D01*
X246607326Y-98007084D01*
X246729733Y-97996822D01*
X246729733Y-98606894D01*
G36*
X250150267Y-98275545D02*
G01*
X250228649Y-98206551D01*
X250356200Y-98114661D01*
X250499542Y-98050448D01*
X250660922Y-98013146D01*
X250828276Y-98001934D01*
X251012156Y-98015694D01*
X251176755Y-98057221D01*
X251321605Y-98126167D01*
X251446236Y-98222183D01*
X251550178Y-98344919D01*
X251632964Y-98494028D01*
X251685880Y-98639646D01*
X251692852Y-98667254D01*
X251698716Y-98700362D01*
X251703601Y-98742182D01*
X251707637Y-98795929D01*
X251710952Y-98864817D01*
X251713676Y-98952059D01*
X251715938Y-99060870D01*
X251717866Y-99194463D01*
X251719590Y-99356052D01*
X251720953Y-99513034D01*
X251727221Y-100287733D01*
X251134101Y-100287733D01*
X251129017Y-99572300D01*
X251127712Y-99397397D01*
X251126401Y-99253014D01*
X251124911Y-99135804D01*
X251123072Y-99042420D01*
X251120709Y-98969517D01*
X251117652Y-98913747D01*
X251113729Y-98871764D01*
X251108767Y-98840222D01*
X251102595Y-98815773D01*
X251095040Y-98795072D01*
X251088278Y-98779807D01*
X251021553Y-98668962D01*
X250936824Y-98586636D01*
X250833407Y-98532404D01*
X250710618Y-98505842D01*
X250641334Y-98502807D01*
X250506666Y-98516776D01*
X250392817Y-98557340D01*
X250299176Y-98624872D01*
X250225135Y-98719740D01*
X250197701Y-98772200D01*
X250188199Y-98793574D01*
X250180357Y-98814780D01*
X250173989Y-98839188D01*
X250168911Y-98870172D01*
X250164937Y-98911101D01*
X250161882Y-98965348D01*
X250159563Y-99036284D01*
X250157793Y-99127280D01*
X250156388Y-99241708D01*
X250155162Y-99382940D01*
X250153932Y-99554345D01*
X250153808Y-99572300D01*
X250148882Y-100287733D01*
X249557600Y-100287733D01*
X249557600Y-97273600D01*
X250150267Y-97273600D01*
X250150267Y-98275545D01*
G37*
X250150267Y-98275545D02*
X250228649Y-98206551D01*
X250356200Y-98114661D01*
X250499542Y-98050448D01*
X250660922Y-98013146D01*
X250828276Y-98001934D01*
X251012156Y-98015694D01*
X251176755Y-98057221D01*
X251321605Y-98126167D01*
X251446236Y-98222183D01*
X251550178Y-98344919D01*
X251632964Y-98494028D01*
X251685880Y-98639646D01*
X251692852Y-98667254D01*
X251698716Y-98700362D01*
X251703601Y-98742182D01*
X251707637Y-98795929D01*
X251710952Y-98864817D01*
X251713676Y-98952059D01*
X251715938Y-99060870D01*
X251717866Y-99194463D01*
X251719590Y-99356052D01*
X251720953Y-99513034D01*
X251727221Y-100287733D01*
X251134101Y-100287733D01*
X251129017Y-99572300D01*
X251127712Y-99397397D01*
X251126401Y-99253014D01*
X251124911Y-99135804D01*
X251123072Y-99042420D01*
X251120709Y-98969517D01*
X251117652Y-98913747D01*
X251113729Y-98871764D01*
X251108767Y-98840222D01*
X251102595Y-98815773D01*
X251095040Y-98795072D01*
X251088278Y-98779807D01*
X251021553Y-98668962D01*
X250936824Y-98586636D01*
X250833407Y-98532404D01*
X250710618Y-98505842D01*
X250641334Y-98502807D01*
X250506666Y-98516776D01*
X250392817Y-98557340D01*
X250299176Y-98624872D01*
X250225135Y-98719740D01*
X250197701Y-98772200D01*
X250188199Y-98793574D01*
X250180357Y-98814780D01*
X250173989Y-98839188D01*
X250168911Y-98870172D01*
X250164937Y-98911101D01*
X250161882Y-98965348D01*
X250159563Y-99036284D01*
X250157793Y-99127280D01*
X250156388Y-99241708D01*
X250155162Y-99382940D01*
X250153932Y-99554345D01*
X250153808Y-99572300D01*
X250148882Y-100287733D01*
X249557600Y-100287733D01*
X249557600Y-97273600D01*
X250150267Y-97273600D01*
X250150267Y-98275545D01*
G36*
X236509783Y-98540689D02*
G01*
X236518199Y-98545222D01*
X236592317Y-98602613D01*
X236639548Y-98672243D01*
X236661997Y-98749120D01*
X236661769Y-98828248D01*
X236640967Y-98904635D01*
X236601696Y-98973287D01*
X236546062Y-99029209D01*
X236476168Y-99067409D01*
X236394119Y-99082893D01*
X236302019Y-99070667D01*
X236297337Y-99069283D01*
X236213448Y-99027658D01*
X236149872Y-98963596D01*
X236109460Y-98883677D01*
X236095066Y-98794483D01*
X236109542Y-98702597D01*
X236123383Y-98667970D01*
X236175732Y-98594322D01*
X236248220Y-98542384D01*
X236333174Y-98514542D01*
X236422919Y-98513181D01*
X236509783Y-98540689D01*
G37*
X236509783Y-98540689D02*
X236518199Y-98545222D01*
X236592317Y-98602613D01*
X236639548Y-98672243D01*
X236661997Y-98749120D01*
X236661769Y-98828248D01*
X236640967Y-98904635D01*
X236601696Y-98973287D01*
X236546062Y-99029209D01*
X236476168Y-99067409D01*
X236394119Y-99082893D01*
X236302019Y-99070667D01*
X236297337Y-99069283D01*
X236213448Y-99027658D01*
X236149872Y-98963596D01*
X236109460Y-98883677D01*
X236095066Y-98794483D01*
X236109542Y-98702597D01*
X236123383Y-98667970D01*
X236175732Y-98594322D01*
X236248220Y-98542384D01*
X236333174Y-98514542D01*
X236422919Y-98513181D01*
X236509783Y-98540689D01*
D15*
%TO.C,C110*%
X246810000Y-83603335D02*
X246810000Y-83371665D01*
X247530000Y-83603335D02*
X247530000Y-83371665D01*
%TO.C,C109*%
X235010000Y-83755835D02*
X235010000Y-83524165D01*
X235730000Y-83755835D02*
X235730000Y-83524165D01*
%TO.C,C108*%
X248470000Y-83605835D02*
X248470000Y-83374165D01*
X249190000Y-83605835D02*
X249190000Y-83374165D01*
%TO.C,C107*%
X228500000Y-90701665D02*
X228500000Y-90933335D01*
X227780000Y-90701665D02*
X227780000Y-90933335D01*
%TO.C,C106*%
X230100000Y-90701665D02*
X230100000Y-90933335D01*
X229380000Y-90701665D02*
X229380000Y-90933335D01*
%TO.C,C105*%
X225166665Y-91090000D02*
X225398335Y-91090000D01*
X225166665Y-91810000D02*
X225398335Y-91810000D01*
%TO.C,C103*%
X220960000Y-80933335D02*
X220960000Y-80701665D01*
X221680000Y-80933335D02*
X221680000Y-80701665D01*
%TO.C,C102*%
X219360000Y-80933335D02*
X219360000Y-80701665D01*
X220080000Y-80933335D02*
X220080000Y-80701665D01*
%TO.C,C101*%
X217313335Y-85180000D02*
X217081665Y-85180000D01*
X217313335Y-84460000D02*
X217081665Y-84460000D01*
D11*
%TO.C,U102*%
X233600000Y-85300000D02*
X233300000Y-85000000D01*
X233300000Y-85000000D02*
X233300000Y-84700000D01*
X230300000Y-84800000D02*
X230300000Y-85200000D01*
X230300000Y-84800000D02*
X230700000Y-84800000D01*
X230700000Y-88200000D02*
X230300000Y-88200000D01*
X230300000Y-88200000D02*
X230300000Y-87800000D01*
X233300000Y-88200000D02*
X233700000Y-88200000D01*
X233700000Y-88200000D02*
X233700000Y-87800000D01*
D15*
%TO.C,U104*%
X247225000Y-90005000D02*
X247225000Y-86555000D01*
X247225000Y-90005000D02*
X247225000Y-91955000D01*
X242105000Y-90005000D02*
X242105000Y-88055000D01*
X242105000Y-90005000D02*
X242105000Y-91955000D01*
%TO.C,U103*%
X241560000Y-90000000D02*
X241560000Y-86550000D01*
X241560000Y-90000000D02*
X241560000Y-91950000D01*
X236440000Y-90000000D02*
X236440000Y-88050000D01*
X236440000Y-90000000D02*
X236440000Y-91950000D01*
%TO.C,U101*%
X220365000Y-84890000D02*
X219890000Y-84890000D01*
X224110000Y-89110000D02*
X224110000Y-88635000D01*
X223635000Y-89110000D02*
X224110000Y-89110000D01*
X219890000Y-89110000D02*
X219890000Y-88635000D01*
X220365000Y-89110000D02*
X219890000Y-89110000D01*
X224110000Y-84890000D02*
X224110000Y-85365000D01*
X223635000Y-84890000D02*
X224110000Y-84890000D01*
D11*
%TO.C,SW101*%
X218875000Y-96750000D02*
X218875000Y-97250000D01*
X218875000Y-96750000D02*
X218875000Y-96250000D01*
X212675000Y-96750000D02*
X212675000Y-97250000D01*
X212675000Y-96750000D02*
X212675000Y-96250000D01*
X215775000Y-93650000D02*
X216275000Y-93650000D01*
X215775000Y-93650000D02*
X215275000Y-93650000D01*
X215775000Y-99850000D02*
X215275000Y-99850000D01*
X215775000Y-99850000D02*
X216275000Y-99850000D01*
X219175000Y-99750000D02*
X220375000Y-99750000D01*
X218875000Y-99750000D02*
X219175000Y-99750000D01*
X218875000Y-99850000D02*
X218875000Y-99750000D01*
X218375000Y-99850000D02*
X218875000Y-99850000D01*
D15*
%TO.C,R110*%
X237632379Y-96180000D02*
X237967621Y-96180000D01*
X237632379Y-95420000D02*
X237967621Y-95420000D01*
%TO.C,R109*%
X236334879Y-95080000D02*
X236670121Y-95080000D01*
X236334879Y-94320000D02*
X236670121Y-94320000D01*
%TO.C,R108*%
X238932379Y-84580000D02*
X239267621Y-84580000D01*
X238932379Y-83820000D02*
X239267621Y-83820000D01*
%TO.C,R107*%
X237634879Y-85680000D02*
X237970121Y-85680000D01*
X237634879Y-84920000D02*
X237970121Y-84920000D01*
%TO.C,R106*%
X231519879Y-90640000D02*
X231855121Y-90640000D01*
X231519879Y-89880000D02*
X231855121Y-89880000D01*
%TO.C,R105*%
X217084879Y-86620000D02*
X217420121Y-86620000D01*
X217084879Y-85860000D02*
X217420121Y-85860000D01*
%TO.C,R104*%
X221020000Y-91927621D02*
X221020000Y-91592379D01*
X220260000Y-91927621D02*
X220260000Y-91592379D01*
%TO.C,R103*%
X221400000Y-91612379D02*
X221400000Y-91947621D01*
X222160000Y-91612379D02*
X222160000Y-91947621D01*
%TO.C,R102*%
X223250000Y-91965121D02*
X223250000Y-91629879D01*
X222490000Y-91965121D02*
X222490000Y-91629879D01*
%TO.C,R101*%
X217084879Y-87690000D02*
X217420121Y-87690000D01*
X217084879Y-86930000D02*
X217420121Y-86930000D01*
%TO.C,R100*%
X217092379Y-88750000D02*
X217427621Y-88750000D01*
X217092379Y-87990000D02*
X217427621Y-87990000D01*
%TO.C,L102*%
X230103748Y-82870000D02*
X230626252Y-82870000D01*
X230103748Y-81450000D02*
X230626252Y-81450000D01*
%TO.C,L101*%
X226090000Y-86241248D02*
X226090000Y-86763752D01*
X228310000Y-86241248D02*
X228310000Y-86763752D01*
%TO.C,JP2*%
X210600000Y-90375000D02*
X212000000Y-90375000D01*
X212700000Y-91075000D02*
X212700000Y-91675000D01*
X212000000Y-92375000D02*
X210600000Y-92375000D01*
X209900000Y-91675000D02*
X209900000Y-91075000D01*
X209900000Y-91075000D02*
G75*
G02*
X210600000Y-90375000I700000J0D01*
G01*
X210600000Y-92375000D02*
G75*
G02*
X209900000Y-91675000I0J700000D01*
G01*
X212700000Y-91675000D02*
G75*
G02*
X212000000Y-92375000I-700000J0D01*
G01*
X212000000Y-90375000D02*
G75*
G02*
X212700000Y-91075000I0J-700000D01*
G01*
D17*
%TO.C,J103*%
X235375000Y-75000000D02*
X237550000Y-75000000D01*
X250125000Y-75000000D02*
X247950000Y-75000000D01*
X248150000Y-71300000D02*
X237350000Y-71300000D01*
D11*
%TO.C,J102*%
X222200000Y-108250000D02*
X225800000Y-108250000D01*
X227625000Y-104050000D02*
X227625000Y-104750000D01*
X225400000Y-104050000D02*
X227625000Y-104050000D01*
X220375000Y-104050000D02*
X222600000Y-104050000D01*
X220375000Y-104750000D02*
X220375000Y-104050000D01*
X223300000Y-102550000D02*
X223300000Y-102550000D01*
X223400000Y-102550000D02*
X223400000Y-102550000D01*
X223300000Y-102550000D02*
G75*
G02*
X223400000Y-102550000I50000J0D01*
G01*
X223400000Y-102550000D02*
G75*
G02*
X223300000Y-102550000I-50000J0D01*
G01*
%TO.C,J101*%
X225800000Y-71700000D02*
X222200000Y-71700000D01*
X220375000Y-75900000D02*
X220375000Y-75200000D01*
X222600000Y-75900000D02*
X220375000Y-75900000D01*
X227625000Y-75900000D02*
X225400000Y-75900000D01*
X227625000Y-75200000D02*
X227625000Y-75900000D01*
X224700000Y-77400000D02*
X224700000Y-77400000D01*
X224600000Y-77400000D02*
X224600000Y-77400000D01*
X224700000Y-77400000D02*
G75*
G02*
X224600000Y-77400000I-50000J0D01*
G01*
X224600000Y-77400000D02*
G75*
G02*
X224700000Y-77400000I50000J0D01*
G01*
%TO.C,D101*%
X213695000Y-87320000D02*
G75*
G03*
X213695000Y-87320000I-50000J0D01*
G01*
%TO.C,D102*%
X213702500Y-88370000D02*
G75*
G03*
X213702500Y-88370000I-50000J0D01*
G01*
D15*
%TO.C,C104*%
X224186248Y-83635000D02*
X224708752Y-83635000D01*
X224186248Y-82165000D02*
X224708752Y-82165000D01*
%TO.C,TP104*%
D11*
X217017857Y-78801190D02*
X217303571Y-78801190D01*
X217160714Y-79301190D02*
X217160714Y-78801190D01*
X217470238Y-79301190D02*
X217470238Y-78801190D01*
X217660714Y-78801190D01*
X217708333Y-78825000D01*
X217732142Y-78848809D01*
X217755952Y-78896428D01*
X217755952Y-78967857D01*
X217732142Y-79015476D01*
X217708333Y-79039285D01*
X217660714Y-79063095D01*
X217470238Y-79063095D01*
X218232142Y-79301190D02*
X217946428Y-79301190D01*
X218089285Y-79301190D02*
X218089285Y-78801190D01*
X218041666Y-78872619D01*
X217994047Y-78920238D01*
X217946428Y-78944047D01*
X218541666Y-78801190D02*
X218589285Y-78801190D01*
X218636904Y-78825000D01*
X218660714Y-78848809D01*
X218684523Y-78896428D01*
X218708333Y-78991666D01*
X218708333Y-79110714D01*
X218684523Y-79205952D01*
X218660714Y-79253571D01*
X218636904Y-79277380D01*
X218589285Y-79301190D01*
X218541666Y-79301190D01*
X218494047Y-79277380D01*
X218470238Y-79253571D01*
X218446428Y-79205952D01*
X218422619Y-79110714D01*
X218422619Y-78991666D01*
X218446428Y-78896428D01*
X218470238Y-78848809D01*
X218494047Y-78825000D01*
X218541666Y-78801190D01*
X219136904Y-78967857D02*
X219136904Y-79301190D01*
X219017857Y-78777380D02*
X218898809Y-79134523D01*
X219208333Y-79134523D01*
%TO.C,TP115*%
X253117857Y-95526190D02*
X253403571Y-95526190D01*
X253260714Y-96026190D02*
X253260714Y-95526190D01*
X253570238Y-96026190D02*
X253570238Y-95526190D01*
X253760714Y-95526190D01*
X253808333Y-95550000D01*
X253832142Y-95573809D01*
X253855952Y-95621428D01*
X253855952Y-95692857D01*
X253832142Y-95740476D01*
X253808333Y-95764285D01*
X253760714Y-95788095D01*
X253570238Y-95788095D01*
X254332142Y-96026190D02*
X254046428Y-96026190D01*
X254189285Y-96026190D02*
X254189285Y-95526190D01*
X254141666Y-95597619D01*
X254094047Y-95645238D01*
X254046428Y-95669047D01*
X254808333Y-96026190D02*
X254522619Y-96026190D01*
X254665476Y-96026190D02*
X254665476Y-95526190D01*
X254617857Y-95597619D01*
X254570238Y-95645238D01*
X254522619Y-95669047D01*
X255260714Y-95526190D02*
X255022619Y-95526190D01*
X254998809Y-95764285D01*
X255022619Y-95740476D01*
X255070238Y-95716666D01*
X255189285Y-95716666D01*
X255236904Y-95740476D01*
X255260714Y-95764285D01*
X255284523Y-95811904D01*
X255284523Y-95930952D01*
X255260714Y-95978571D01*
X255236904Y-96002380D01*
X255189285Y-96026190D01*
X255070238Y-96026190D01*
X255022619Y-96002380D01*
X254998809Y-95978571D01*
%TO.C,TP114*%
X228392857Y-97476190D02*
X228678571Y-97476190D01*
X228535714Y-97976190D02*
X228535714Y-97476190D01*
X228845238Y-97976190D02*
X228845238Y-97476190D01*
X229035714Y-97476190D01*
X229083333Y-97500000D01*
X229107142Y-97523809D01*
X229130952Y-97571428D01*
X229130952Y-97642857D01*
X229107142Y-97690476D01*
X229083333Y-97714285D01*
X229035714Y-97738095D01*
X228845238Y-97738095D01*
X229607142Y-97976190D02*
X229321428Y-97976190D01*
X229464285Y-97976190D02*
X229464285Y-97476190D01*
X229416666Y-97547619D01*
X229369047Y-97595238D01*
X229321428Y-97619047D01*
X230083333Y-97976190D02*
X229797619Y-97976190D01*
X229940476Y-97976190D02*
X229940476Y-97476190D01*
X229892857Y-97547619D01*
X229845238Y-97595238D01*
X229797619Y-97619047D01*
X230511904Y-97642857D02*
X230511904Y-97976190D01*
X230392857Y-97452380D02*
X230273809Y-97809523D01*
X230583333Y-97809523D01*
%TO.C,TP113*%
X215926190Y-80832142D02*
X215926190Y-80546428D01*
X216426190Y-80689285D02*
X215926190Y-80689285D01*
X216426190Y-80379761D02*
X215926190Y-80379761D01*
X215926190Y-80189285D01*
X215950000Y-80141666D01*
X215973809Y-80117857D01*
X216021428Y-80094047D01*
X216092857Y-80094047D01*
X216140476Y-80117857D01*
X216164285Y-80141666D01*
X216188095Y-80189285D01*
X216188095Y-80379761D01*
X216426190Y-79617857D02*
X216426190Y-79903571D01*
X216426190Y-79760714D02*
X215926190Y-79760714D01*
X215997619Y-79808333D01*
X216045238Y-79855952D01*
X216069047Y-79903571D01*
X216426190Y-79141666D02*
X216426190Y-79427380D01*
X216426190Y-79284523D02*
X215926190Y-79284523D01*
X215997619Y-79332142D01*
X216045238Y-79379761D01*
X216069047Y-79427380D01*
X215926190Y-78975000D02*
X215926190Y-78665476D01*
X216116666Y-78832142D01*
X216116666Y-78760714D01*
X216140476Y-78713095D01*
X216164285Y-78689285D01*
X216211904Y-78665476D01*
X216330952Y-78665476D01*
X216378571Y-78689285D01*
X216402380Y-78713095D01*
X216426190Y-78760714D01*
X216426190Y-78903571D01*
X216402380Y-78951190D01*
X216378571Y-78975000D01*
%TO.C,TP112*%
X242889285Y-80455952D02*
X243117857Y-80455952D01*
X243003571Y-80855952D02*
X243003571Y-80455952D01*
X243251190Y-80855952D02*
X243251190Y-80455952D01*
X243403571Y-80455952D01*
X243441666Y-80475000D01*
X243460714Y-80494047D01*
X243479761Y-80532142D01*
X243479761Y-80589285D01*
X243460714Y-80627380D01*
X243441666Y-80646428D01*
X243403571Y-80665476D01*
X243251190Y-80665476D01*
X243860714Y-80855952D02*
X243632142Y-80855952D01*
X243746428Y-80855952D02*
X243746428Y-80455952D01*
X243708333Y-80513095D01*
X243670238Y-80551190D01*
X243632142Y-80570238D01*
X244241666Y-80855952D02*
X244013095Y-80855952D01*
X244127380Y-80855952D02*
X244127380Y-80455952D01*
X244089285Y-80513095D01*
X244051190Y-80551190D01*
X244013095Y-80570238D01*
X244394047Y-80494047D02*
X244413095Y-80475000D01*
X244451190Y-80455952D01*
X244546428Y-80455952D01*
X244584523Y-80475000D01*
X244603571Y-80494047D01*
X244622619Y-80532142D01*
X244622619Y-80570238D01*
X244603571Y-80627380D01*
X244375000Y-80855952D01*
X244622619Y-80855952D01*
%TO.C,TP111*%
X214626190Y-92732142D02*
X214626190Y-92446428D01*
X215126190Y-92589285D02*
X214626190Y-92589285D01*
X215126190Y-92279761D02*
X214626190Y-92279761D01*
X214626190Y-92089285D01*
X214650000Y-92041666D01*
X214673809Y-92017857D01*
X214721428Y-91994047D01*
X214792857Y-91994047D01*
X214840476Y-92017857D01*
X214864285Y-92041666D01*
X214888095Y-92089285D01*
X214888095Y-92279761D01*
X215126190Y-91517857D02*
X215126190Y-91803571D01*
X215126190Y-91660714D02*
X214626190Y-91660714D01*
X214697619Y-91708333D01*
X214745238Y-91755952D01*
X214769047Y-91803571D01*
X215126190Y-91041666D02*
X215126190Y-91327380D01*
X215126190Y-91184523D02*
X214626190Y-91184523D01*
X214697619Y-91232142D01*
X214745238Y-91279761D01*
X214769047Y-91327380D01*
X215126190Y-90565476D02*
X215126190Y-90851190D01*
X215126190Y-90708333D02*
X214626190Y-90708333D01*
X214697619Y-90755952D01*
X214745238Y-90803571D01*
X214769047Y-90851190D01*
%TO.C,TP110*%
X234701190Y-79832142D02*
X234701190Y-79546428D01*
X235201190Y-79689285D02*
X234701190Y-79689285D01*
X235201190Y-79379761D02*
X234701190Y-79379761D01*
X234701190Y-79189285D01*
X234725000Y-79141666D01*
X234748809Y-79117857D01*
X234796428Y-79094047D01*
X234867857Y-79094047D01*
X234915476Y-79117857D01*
X234939285Y-79141666D01*
X234963095Y-79189285D01*
X234963095Y-79379761D01*
X235201190Y-78617857D02*
X235201190Y-78903571D01*
X235201190Y-78760714D02*
X234701190Y-78760714D01*
X234772619Y-78808333D01*
X234820238Y-78855952D01*
X234844047Y-78903571D01*
X235201190Y-78141666D02*
X235201190Y-78427380D01*
X235201190Y-78284523D02*
X234701190Y-78284523D01*
X234772619Y-78332142D01*
X234820238Y-78379761D01*
X234844047Y-78427380D01*
X234701190Y-77832142D02*
X234701190Y-77784523D01*
X234725000Y-77736904D01*
X234748809Y-77713095D01*
X234796428Y-77689285D01*
X234891666Y-77665476D01*
X235010714Y-77665476D01*
X235105952Y-77689285D01*
X235153571Y-77713095D01*
X235177380Y-77736904D01*
X235201190Y-77784523D01*
X235201190Y-77832142D01*
X235177380Y-77879761D01*
X235153571Y-77903571D01*
X235105952Y-77927380D01*
X235010714Y-77951190D01*
X234891666Y-77951190D01*
X234796428Y-77927380D01*
X234748809Y-77903571D01*
X234725000Y-77879761D01*
X234701190Y-77832142D01*
%TO.C,TP109*%
X236780952Y-82960714D02*
X236780952Y-82732142D01*
X237180952Y-82846428D02*
X236780952Y-82846428D01*
X237180952Y-82598809D02*
X236780952Y-82598809D01*
X236780952Y-82446428D01*
X236800000Y-82408333D01*
X236819047Y-82389285D01*
X236857142Y-82370238D01*
X236914285Y-82370238D01*
X236952380Y-82389285D01*
X236971428Y-82408333D01*
X236990476Y-82446428D01*
X236990476Y-82598809D01*
X237180952Y-81989285D02*
X237180952Y-82217857D01*
X237180952Y-82103571D02*
X236780952Y-82103571D01*
X236838095Y-82141666D01*
X236876190Y-82179761D01*
X236895238Y-82217857D01*
X236780952Y-81741666D02*
X236780952Y-81703571D01*
X236800000Y-81665476D01*
X236819047Y-81646428D01*
X236857142Y-81627380D01*
X236933333Y-81608333D01*
X237028571Y-81608333D01*
X237104761Y-81627380D01*
X237142857Y-81646428D01*
X237161904Y-81665476D01*
X237180952Y-81703571D01*
X237180952Y-81741666D01*
X237161904Y-81779761D01*
X237142857Y-81798809D01*
X237104761Y-81817857D01*
X237028571Y-81836904D01*
X236933333Y-81836904D01*
X236857142Y-81817857D01*
X236819047Y-81798809D01*
X236800000Y-81779761D01*
X236780952Y-81741666D01*
X237180952Y-81417857D02*
X237180952Y-81341666D01*
X237161904Y-81303571D01*
X237142857Y-81284523D01*
X237085714Y-81246428D01*
X237009523Y-81227380D01*
X236857142Y-81227380D01*
X236819047Y-81246428D01*
X236800000Y-81265476D01*
X236780952Y-81303571D01*
X236780952Y-81379761D01*
X236800000Y-81417857D01*
X236819047Y-81436904D01*
X236857142Y-81455952D01*
X236952380Y-81455952D01*
X236990476Y-81436904D01*
X237009523Y-81417857D01*
X237028571Y-81379761D01*
X237028571Y-81303571D01*
X237009523Y-81265476D01*
X236990476Y-81246428D01*
X236952380Y-81227380D01*
%TO.C,TP108*%
X242405952Y-82885714D02*
X242405952Y-82657142D01*
X242805952Y-82771428D02*
X242405952Y-82771428D01*
X242805952Y-82523809D02*
X242405952Y-82523809D01*
X242405952Y-82371428D01*
X242425000Y-82333333D01*
X242444047Y-82314285D01*
X242482142Y-82295238D01*
X242539285Y-82295238D01*
X242577380Y-82314285D01*
X242596428Y-82333333D01*
X242615476Y-82371428D01*
X242615476Y-82523809D01*
X242805952Y-81914285D02*
X242805952Y-82142857D01*
X242805952Y-82028571D02*
X242405952Y-82028571D01*
X242463095Y-82066666D01*
X242501190Y-82104761D01*
X242520238Y-82142857D01*
X242405952Y-81666666D02*
X242405952Y-81628571D01*
X242425000Y-81590476D01*
X242444047Y-81571428D01*
X242482142Y-81552380D01*
X242558333Y-81533333D01*
X242653571Y-81533333D01*
X242729761Y-81552380D01*
X242767857Y-81571428D01*
X242786904Y-81590476D01*
X242805952Y-81628571D01*
X242805952Y-81666666D01*
X242786904Y-81704761D01*
X242767857Y-81723809D01*
X242729761Y-81742857D01*
X242653571Y-81761904D01*
X242558333Y-81761904D01*
X242482142Y-81742857D01*
X242444047Y-81723809D01*
X242425000Y-81704761D01*
X242405952Y-81666666D01*
X242577380Y-81304761D02*
X242558333Y-81342857D01*
X242539285Y-81361904D01*
X242501190Y-81380952D01*
X242482142Y-81380952D01*
X242444047Y-81361904D01*
X242425000Y-81342857D01*
X242405952Y-81304761D01*
X242405952Y-81228571D01*
X242425000Y-81190476D01*
X242444047Y-81171428D01*
X242482142Y-81152380D01*
X242501190Y-81152380D01*
X242539285Y-81171428D01*
X242558333Y-81190476D01*
X242577380Y-81228571D01*
X242577380Y-81304761D01*
X242596428Y-81342857D01*
X242615476Y-81361904D01*
X242653571Y-81380952D01*
X242729761Y-81380952D01*
X242767857Y-81361904D01*
X242786904Y-81342857D01*
X242805952Y-81304761D01*
X242805952Y-81228571D01*
X242786904Y-81190476D01*
X242767857Y-81171428D01*
X242729761Y-81152380D01*
X242653571Y-81152380D01*
X242615476Y-81171428D01*
X242596428Y-81190476D01*
X242577380Y-81228571D01*
%TO.C,TP107*%
X224592857Y-97376190D02*
X224878571Y-97376190D01*
X224735714Y-97876190D02*
X224735714Y-97376190D01*
X225045238Y-97876190D02*
X225045238Y-97376190D01*
X225235714Y-97376190D01*
X225283333Y-97400000D01*
X225307142Y-97423809D01*
X225330952Y-97471428D01*
X225330952Y-97542857D01*
X225307142Y-97590476D01*
X225283333Y-97614285D01*
X225235714Y-97638095D01*
X225045238Y-97638095D01*
X225807142Y-97876190D02*
X225521428Y-97876190D01*
X225664285Y-97876190D02*
X225664285Y-97376190D01*
X225616666Y-97447619D01*
X225569047Y-97495238D01*
X225521428Y-97519047D01*
X226116666Y-97376190D02*
X226164285Y-97376190D01*
X226211904Y-97400000D01*
X226235714Y-97423809D01*
X226259523Y-97471428D01*
X226283333Y-97566666D01*
X226283333Y-97685714D01*
X226259523Y-97780952D01*
X226235714Y-97828571D01*
X226211904Y-97852380D01*
X226164285Y-97876190D01*
X226116666Y-97876190D01*
X226069047Y-97852380D01*
X226045238Y-97828571D01*
X226021428Y-97780952D01*
X225997619Y-97685714D01*
X225997619Y-97566666D01*
X226021428Y-97471428D01*
X226045238Y-97423809D01*
X226069047Y-97400000D01*
X226116666Y-97376190D01*
X226450000Y-97376190D02*
X226783333Y-97376190D01*
X226569047Y-97876190D01*
%TO.C,TP106*%
X253167857Y-88201190D02*
X253453571Y-88201190D01*
X253310714Y-88701190D02*
X253310714Y-88201190D01*
X253620238Y-88701190D02*
X253620238Y-88201190D01*
X253810714Y-88201190D01*
X253858333Y-88225000D01*
X253882142Y-88248809D01*
X253905952Y-88296428D01*
X253905952Y-88367857D01*
X253882142Y-88415476D01*
X253858333Y-88439285D01*
X253810714Y-88463095D01*
X253620238Y-88463095D01*
X254382142Y-88701190D02*
X254096428Y-88701190D01*
X254239285Y-88701190D02*
X254239285Y-88201190D01*
X254191666Y-88272619D01*
X254144047Y-88320238D01*
X254096428Y-88344047D01*
X254691666Y-88201190D02*
X254739285Y-88201190D01*
X254786904Y-88225000D01*
X254810714Y-88248809D01*
X254834523Y-88296428D01*
X254858333Y-88391666D01*
X254858333Y-88510714D01*
X254834523Y-88605952D01*
X254810714Y-88653571D01*
X254786904Y-88677380D01*
X254739285Y-88701190D01*
X254691666Y-88701190D01*
X254644047Y-88677380D01*
X254620238Y-88653571D01*
X254596428Y-88605952D01*
X254572619Y-88510714D01*
X254572619Y-88391666D01*
X254596428Y-88296428D01*
X254620238Y-88248809D01*
X254644047Y-88225000D01*
X254691666Y-88201190D01*
X255286904Y-88201190D02*
X255191666Y-88201190D01*
X255144047Y-88225000D01*
X255120238Y-88248809D01*
X255072619Y-88320238D01*
X255048809Y-88415476D01*
X255048809Y-88605952D01*
X255072619Y-88653571D01*
X255096428Y-88677380D01*
X255144047Y-88701190D01*
X255239285Y-88701190D01*
X255286904Y-88677380D01*
X255310714Y-88653571D01*
X255334523Y-88605952D01*
X255334523Y-88486904D01*
X255310714Y-88439285D01*
X255286904Y-88415476D01*
X255239285Y-88391666D01*
X255144047Y-88391666D01*
X255096428Y-88415476D01*
X255072619Y-88439285D01*
X255048809Y-88486904D01*
%TO.C,TP105*%
X209476190Y-80182142D02*
X209476190Y-79896428D01*
X209976190Y-80039285D02*
X209476190Y-80039285D01*
X209976190Y-79729761D02*
X209476190Y-79729761D01*
X209476190Y-79539285D01*
X209500000Y-79491666D01*
X209523809Y-79467857D01*
X209571428Y-79444047D01*
X209642857Y-79444047D01*
X209690476Y-79467857D01*
X209714285Y-79491666D01*
X209738095Y-79539285D01*
X209738095Y-79729761D01*
X209976190Y-78967857D02*
X209976190Y-79253571D01*
X209976190Y-79110714D02*
X209476190Y-79110714D01*
X209547619Y-79158333D01*
X209595238Y-79205952D01*
X209619047Y-79253571D01*
X209476190Y-78658333D02*
X209476190Y-78610714D01*
X209500000Y-78563095D01*
X209523809Y-78539285D01*
X209571428Y-78515476D01*
X209666666Y-78491666D01*
X209785714Y-78491666D01*
X209880952Y-78515476D01*
X209928571Y-78539285D01*
X209952380Y-78563095D01*
X209976190Y-78610714D01*
X209976190Y-78658333D01*
X209952380Y-78705952D01*
X209928571Y-78729761D01*
X209880952Y-78753571D01*
X209785714Y-78777380D01*
X209666666Y-78777380D01*
X209571428Y-78753571D01*
X209523809Y-78729761D01*
X209500000Y-78705952D01*
X209476190Y-78658333D01*
X209476190Y-78039285D02*
X209476190Y-78277380D01*
X209714285Y-78301190D01*
X209690476Y-78277380D01*
X209666666Y-78229761D01*
X209666666Y-78110714D01*
X209690476Y-78063095D01*
X209714285Y-78039285D01*
X209761904Y-78015476D01*
X209880952Y-78015476D01*
X209928571Y-78039285D01*
X209952380Y-78063095D01*
X209976190Y-78110714D01*
X209976190Y-78229761D01*
X209952380Y-78277380D01*
X209928571Y-78301190D01*
%TO.C,TP103*%
X218351190Y-78182142D02*
X218351190Y-77896428D01*
X218851190Y-78039285D02*
X218351190Y-78039285D01*
X218851190Y-77729761D02*
X218351190Y-77729761D01*
X218351190Y-77539285D01*
X218375000Y-77491666D01*
X218398809Y-77467857D01*
X218446428Y-77444047D01*
X218517857Y-77444047D01*
X218565476Y-77467857D01*
X218589285Y-77491666D01*
X218613095Y-77539285D01*
X218613095Y-77729761D01*
X218851190Y-76967857D02*
X218851190Y-77253571D01*
X218851190Y-77110714D02*
X218351190Y-77110714D01*
X218422619Y-77158333D01*
X218470238Y-77205952D01*
X218494047Y-77253571D01*
X218351190Y-76658333D02*
X218351190Y-76610714D01*
X218375000Y-76563095D01*
X218398809Y-76539285D01*
X218446428Y-76515476D01*
X218541666Y-76491666D01*
X218660714Y-76491666D01*
X218755952Y-76515476D01*
X218803571Y-76539285D01*
X218827380Y-76563095D01*
X218851190Y-76610714D01*
X218851190Y-76658333D01*
X218827380Y-76705952D01*
X218803571Y-76729761D01*
X218755952Y-76753571D01*
X218660714Y-76777380D01*
X218541666Y-76777380D01*
X218446428Y-76753571D01*
X218398809Y-76729761D01*
X218375000Y-76705952D01*
X218351190Y-76658333D01*
X218351190Y-76325000D02*
X218351190Y-76015476D01*
X218541666Y-76182142D01*
X218541666Y-76110714D01*
X218565476Y-76063095D01*
X218589285Y-76039285D01*
X218636904Y-76015476D01*
X218755952Y-76015476D01*
X218803571Y-76039285D01*
X218827380Y-76063095D01*
X218851190Y-76110714D01*
X218851190Y-76253571D01*
X218827380Y-76301190D01*
X218803571Y-76325000D01*
%TO.C,TP102*%
X213080952Y-85785714D02*
X213080952Y-85557142D01*
X213480952Y-85671428D02*
X213080952Y-85671428D01*
X213480952Y-85423809D02*
X213080952Y-85423809D01*
X213080952Y-85271428D01*
X213100000Y-85233333D01*
X213119047Y-85214285D01*
X213157142Y-85195238D01*
X213214285Y-85195238D01*
X213252380Y-85214285D01*
X213271428Y-85233333D01*
X213290476Y-85271428D01*
X213290476Y-85423809D01*
X213480952Y-84814285D02*
X213480952Y-85042857D01*
X213480952Y-84928571D02*
X213080952Y-84928571D01*
X213138095Y-84966666D01*
X213176190Y-85004761D01*
X213195238Y-85042857D01*
X213080952Y-84566666D02*
X213080952Y-84528571D01*
X213100000Y-84490476D01*
X213119047Y-84471428D01*
X213157142Y-84452380D01*
X213233333Y-84433333D01*
X213328571Y-84433333D01*
X213404761Y-84452380D01*
X213442857Y-84471428D01*
X213461904Y-84490476D01*
X213480952Y-84528571D01*
X213480952Y-84566666D01*
X213461904Y-84604761D01*
X213442857Y-84623809D01*
X213404761Y-84642857D01*
X213328571Y-84661904D01*
X213233333Y-84661904D01*
X213157142Y-84642857D01*
X213119047Y-84623809D01*
X213100000Y-84604761D01*
X213080952Y-84566666D01*
X213119047Y-84280952D02*
X213100000Y-84261904D01*
X213080952Y-84223809D01*
X213080952Y-84128571D01*
X213100000Y-84090476D01*
X213119047Y-84071428D01*
X213157142Y-84052380D01*
X213195238Y-84052380D01*
X213252380Y-84071428D01*
X213480952Y-84300000D01*
X213480952Y-84052380D01*
%TO.C,TP101*%
X232942857Y-90426190D02*
X233228571Y-90426190D01*
X233085714Y-90926190D02*
X233085714Y-90426190D01*
X233395238Y-90926190D02*
X233395238Y-90426190D01*
X233585714Y-90426190D01*
X233633333Y-90450000D01*
X233657142Y-90473809D01*
X233680952Y-90521428D01*
X233680952Y-90592857D01*
X233657142Y-90640476D01*
X233633333Y-90664285D01*
X233585714Y-90688095D01*
X233395238Y-90688095D01*
X234157142Y-90926190D02*
X233871428Y-90926190D01*
X234014285Y-90926190D02*
X234014285Y-90426190D01*
X233966666Y-90497619D01*
X233919047Y-90545238D01*
X233871428Y-90569047D01*
X234466666Y-90426190D02*
X234514285Y-90426190D01*
X234561904Y-90450000D01*
X234585714Y-90473809D01*
X234609523Y-90521428D01*
X234633333Y-90616666D01*
X234633333Y-90735714D01*
X234609523Y-90830952D01*
X234585714Y-90878571D01*
X234561904Y-90902380D01*
X234514285Y-90926190D01*
X234466666Y-90926190D01*
X234419047Y-90902380D01*
X234395238Y-90878571D01*
X234371428Y-90830952D01*
X234347619Y-90735714D01*
X234347619Y-90616666D01*
X234371428Y-90521428D01*
X234395238Y-90473809D01*
X234419047Y-90450000D01*
X234466666Y-90426190D01*
X235109523Y-90926190D02*
X234823809Y-90926190D01*
X234966666Y-90926190D02*
X234966666Y-90426190D01*
X234919047Y-90497619D01*
X234871428Y-90545238D01*
X234823809Y-90569047D01*
%TO.C,JP1*%
X209833333Y-82401190D02*
X209833333Y-82758333D01*
X209809523Y-82829761D01*
X209761904Y-82877380D01*
X209690476Y-82901190D01*
X209642857Y-82901190D01*
X210071428Y-82901190D02*
X210071428Y-82401190D01*
X210261904Y-82401190D01*
X210309523Y-82425000D01*
X210333333Y-82448809D01*
X210357142Y-82496428D01*
X210357142Y-82567857D01*
X210333333Y-82615476D01*
X210309523Y-82639285D01*
X210261904Y-82663095D01*
X210071428Y-82663095D01*
X210833333Y-82901190D02*
X210547619Y-82901190D01*
X210690476Y-82901190D02*
X210690476Y-82401190D01*
X210642857Y-82472619D01*
X210595238Y-82520238D01*
X210547619Y-82544047D01*
%TO.C,C110*%
X247378571Y-81909523D02*
X247402380Y-81933333D01*
X247426190Y-82004761D01*
X247426190Y-82052380D01*
X247402380Y-82123809D01*
X247354761Y-82171428D01*
X247307142Y-82195238D01*
X247211904Y-82219047D01*
X247140476Y-82219047D01*
X247045238Y-82195238D01*
X246997619Y-82171428D01*
X246950000Y-82123809D01*
X246926190Y-82052380D01*
X246926190Y-82004761D01*
X246950000Y-81933333D01*
X246973809Y-81909523D01*
X247426190Y-81433333D02*
X247426190Y-81719047D01*
X247426190Y-81576190D02*
X246926190Y-81576190D01*
X246997619Y-81623809D01*
X247045238Y-81671428D01*
X247069047Y-81719047D01*
X247426190Y-80957142D02*
X247426190Y-81242857D01*
X247426190Y-81100000D02*
X246926190Y-81100000D01*
X246997619Y-81147619D01*
X247045238Y-81195238D01*
X247069047Y-81242857D01*
X246926190Y-80647619D02*
X246926190Y-80600000D01*
X246950000Y-80552380D01*
X246973809Y-80528571D01*
X247021428Y-80504761D01*
X247116666Y-80480952D01*
X247235714Y-80480952D01*
X247330952Y-80504761D01*
X247378571Y-80528571D01*
X247402380Y-80552380D01*
X247426190Y-80600000D01*
X247426190Y-80647619D01*
X247402380Y-80695238D01*
X247378571Y-80719047D01*
X247330952Y-80742857D01*
X247235714Y-80766666D01*
X247116666Y-80766666D01*
X247021428Y-80742857D01*
X246973809Y-80719047D01*
X246950000Y-80695238D01*
X246926190Y-80647619D01*
%TO.C,C109*%
X234728571Y-84109523D02*
X234752380Y-84133333D01*
X234776190Y-84204761D01*
X234776190Y-84252380D01*
X234752380Y-84323809D01*
X234704761Y-84371428D01*
X234657142Y-84395238D01*
X234561904Y-84419047D01*
X234490476Y-84419047D01*
X234395238Y-84395238D01*
X234347619Y-84371428D01*
X234300000Y-84323809D01*
X234276190Y-84252380D01*
X234276190Y-84204761D01*
X234300000Y-84133333D01*
X234323809Y-84109523D01*
X234776190Y-83633333D02*
X234776190Y-83919047D01*
X234776190Y-83776190D02*
X234276190Y-83776190D01*
X234347619Y-83823809D01*
X234395238Y-83871428D01*
X234419047Y-83919047D01*
X234276190Y-83323809D02*
X234276190Y-83276190D01*
X234300000Y-83228571D01*
X234323809Y-83204761D01*
X234371428Y-83180952D01*
X234466666Y-83157142D01*
X234585714Y-83157142D01*
X234680952Y-83180952D01*
X234728571Y-83204761D01*
X234752380Y-83228571D01*
X234776190Y-83276190D01*
X234776190Y-83323809D01*
X234752380Y-83371428D01*
X234728571Y-83395238D01*
X234680952Y-83419047D01*
X234585714Y-83442857D01*
X234466666Y-83442857D01*
X234371428Y-83419047D01*
X234323809Y-83395238D01*
X234300000Y-83371428D01*
X234276190Y-83323809D01*
X234776190Y-82919047D02*
X234776190Y-82823809D01*
X234752380Y-82776190D01*
X234728571Y-82752380D01*
X234657142Y-82704761D01*
X234561904Y-82680952D01*
X234371428Y-82680952D01*
X234323809Y-82704761D01*
X234300000Y-82728571D01*
X234276190Y-82776190D01*
X234276190Y-82871428D01*
X234300000Y-82919047D01*
X234323809Y-82942857D01*
X234371428Y-82966666D01*
X234490476Y-82966666D01*
X234538095Y-82942857D01*
X234561904Y-82919047D01*
X234585714Y-82871428D01*
X234585714Y-82776190D01*
X234561904Y-82728571D01*
X234538095Y-82704761D01*
X234490476Y-82680952D01*
%TO.C,C108*%
X248978571Y-81909523D02*
X249002380Y-81933333D01*
X249026190Y-82004761D01*
X249026190Y-82052380D01*
X249002380Y-82123809D01*
X248954761Y-82171428D01*
X248907142Y-82195238D01*
X248811904Y-82219047D01*
X248740476Y-82219047D01*
X248645238Y-82195238D01*
X248597619Y-82171428D01*
X248550000Y-82123809D01*
X248526190Y-82052380D01*
X248526190Y-82004761D01*
X248550000Y-81933333D01*
X248573809Y-81909523D01*
X249026190Y-81433333D02*
X249026190Y-81719047D01*
X249026190Y-81576190D02*
X248526190Y-81576190D01*
X248597619Y-81623809D01*
X248645238Y-81671428D01*
X248669047Y-81719047D01*
X248526190Y-81123809D02*
X248526190Y-81076190D01*
X248550000Y-81028571D01*
X248573809Y-81004761D01*
X248621428Y-80980952D01*
X248716666Y-80957142D01*
X248835714Y-80957142D01*
X248930952Y-80980952D01*
X248978571Y-81004761D01*
X249002380Y-81028571D01*
X249026190Y-81076190D01*
X249026190Y-81123809D01*
X249002380Y-81171428D01*
X248978571Y-81195238D01*
X248930952Y-81219047D01*
X248835714Y-81242857D01*
X248716666Y-81242857D01*
X248621428Y-81219047D01*
X248573809Y-81195238D01*
X248550000Y-81171428D01*
X248526190Y-81123809D01*
X248740476Y-80671428D02*
X248716666Y-80719047D01*
X248692857Y-80742857D01*
X248645238Y-80766666D01*
X248621428Y-80766666D01*
X248573809Y-80742857D01*
X248550000Y-80719047D01*
X248526190Y-80671428D01*
X248526190Y-80576190D01*
X248550000Y-80528571D01*
X248573809Y-80504761D01*
X248621428Y-80480952D01*
X248645238Y-80480952D01*
X248692857Y-80504761D01*
X248716666Y-80528571D01*
X248740476Y-80576190D01*
X248740476Y-80671428D01*
X248764285Y-80719047D01*
X248788095Y-80742857D01*
X248835714Y-80766666D01*
X248930952Y-80766666D01*
X248978571Y-80742857D01*
X249002380Y-80719047D01*
X249026190Y-80671428D01*
X249026190Y-80576190D01*
X249002380Y-80528571D01*
X248978571Y-80504761D01*
X248930952Y-80480952D01*
X248835714Y-80480952D01*
X248788095Y-80504761D01*
X248764285Y-80528571D01*
X248740476Y-80576190D01*
%TO.C,C107*%
X228328571Y-93509523D02*
X228352380Y-93533333D01*
X228376190Y-93604761D01*
X228376190Y-93652380D01*
X228352380Y-93723809D01*
X228304761Y-93771428D01*
X228257142Y-93795238D01*
X228161904Y-93819047D01*
X228090476Y-93819047D01*
X227995238Y-93795238D01*
X227947619Y-93771428D01*
X227900000Y-93723809D01*
X227876190Y-93652380D01*
X227876190Y-93604761D01*
X227900000Y-93533333D01*
X227923809Y-93509523D01*
X228376190Y-93033333D02*
X228376190Y-93319047D01*
X228376190Y-93176190D02*
X227876190Y-93176190D01*
X227947619Y-93223809D01*
X227995238Y-93271428D01*
X228019047Y-93319047D01*
X227876190Y-92723809D02*
X227876190Y-92676190D01*
X227900000Y-92628571D01*
X227923809Y-92604761D01*
X227971428Y-92580952D01*
X228066666Y-92557142D01*
X228185714Y-92557142D01*
X228280952Y-92580952D01*
X228328571Y-92604761D01*
X228352380Y-92628571D01*
X228376190Y-92676190D01*
X228376190Y-92723809D01*
X228352380Y-92771428D01*
X228328571Y-92795238D01*
X228280952Y-92819047D01*
X228185714Y-92842857D01*
X228066666Y-92842857D01*
X227971428Y-92819047D01*
X227923809Y-92795238D01*
X227900000Y-92771428D01*
X227876190Y-92723809D01*
X227876190Y-92390476D02*
X227876190Y-92057142D01*
X228376190Y-92271428D01*
%TO.C,C106*%
X229928571Y-93509523D02*
X229952380Y-93533333D01*
X229976190Y-93604761D01*
X229976190Y-93652380D01*
X229952380Y-93723809D01*
X229904761Y-93771428D01*
X229857142Y-93795238D01*
X229761904Y-93819047D01*
X229690476Y-93819047D01*
X229595238Y-93795238D01*
X229547619Y-93771428D01*
X229500000Y-93723809D01*
X229476190Y-93652380D01*
X229476190Y-93604761D01*
X229500000Y-93533333D01*
X229523809Y-93509523D01*
X229976190Y-93033333D02*
X229976190Y-93319047D01*
X229976190Y-93176190D02*
X229476190Y-93176190D01*
X229547619Y-93223809D01*
X229595238Y-93271428D01*
X229619047Y-93319047D01*
X229476190Y-92723809D02*
X229476190Y-92676190D01*
X229500000Y-92628571D01*
X229523809Y-92604761D01*
X229571428Y-92580952D01*
X229666666Y-92557142D01*
X229785714Y-92557142D01*
X229880952Y-92580952D01*
X229928571Y-92604761D01*
X229952380Y-92628571D01*
X229976190Y-92676190D01*
X229976190Y-92723809D01*
X229952380Y-92771428D01*
X229928571Y-92795238D01*
X229880952Y-92819047D01*
X229785714Y-92842857D01*
X229666666Y-92842857D01*
X229571428Y-92819047D01*
X229523809Y-92795238D01*
X229500000Y-92771428D01*
X229476190Y-92723809D01*
X229476190Y-92128571D02*
X229476190Y-92223809D01*
X229500000Y-92271428D01*
X229523809Y-92295238D01*
X229595238Y-92342857D01*
X229690476Y-92366666D01*
X229880952Y-92366666D01*
X229928571Y-92342857D01*
X229952380Y-92319047D01*
X229976190Y-92271428D01*
X229976190Y-92176190D01*
X229952380Y-92128571D01*
X229928571Y-92104761D01*
X229880952Y-92080952D01*
X229761904Y-92080952D01*
X229714285Y-92104761D01*
X229690476Y-92128571D01*
X229666666Y-92176190D01*
X229666666Y-92271428D01*
X229690476Y-92319047D01*
X229714285Y-92342857D01*
X229761904Y-92366666D01*
%TO.C,C105*%
X224722976Y-90778571D02*
X224699166Y-90802380D01*
X224627738Y-90826190D01*
X224580119Y-90826190D01*
X224508690Y-90802380D01*
X224461071Y-90754761D01*
X224437261Y-90707142D01*
X224413452Y-90611904D01*
X224413452Y-90540476D01*
X224437261Y-90445238D01*
X224461071Y-90397619D01*
X224508690Y-90350000D01*
X224580119Y-90326190D01*
X224627738Y-90326190D01*
X224699166Y-90350000D01*
X224722976Y-90373809D01*
X225199166Y-90826190D02*
X224913452Y-90826190D01*
X225056309Y-90826190D02*
X225056309Y-90326190D01*
X225008690Y-90397619D01*
X224961071Y-90445238D01*
X224913452Y-90469047D01*
X225508690Y-90326190D02*
X225556309Y-90326190D01*
X225603928Y-90350000D01*
X225627738Y-90373809D01*
X225651547Y-90421428D01*
X225675357Y-90516666D01*
X225675357Y-90635714D01*
X225651547Y-90730952D01*
X225627738Y-90778571D01*
X225603928Y-90802380D01*
X225556309Y-90826190D01*
X225508690Y-90826190D01*
X225461071Y-90802380D01*
X225437261Y-90778571D01*
X225413452Y-90730952D01*
X225389642Y-90635714D01*
X225389642Y-90516666D01*
X225413452Y-90421428D01*
X225437261Y-90373809D01*
X225461071Y-90350000D01*
X225508690Y-90326190D01*
X226127738Y-90326190D02*
X225889642Y-90326190D01*
X225865833Y-90564285D01*
X225889642Y-90540476D01*
X225937261Y-90516666D01*
X226056309Y-90516666D01*
X226103928Y-90540476D01*
X226127738Y-90564285D01*
X226151547Y-90611904D01*
X226151547Y-90730952D01*
X226127738Y-90778571D01*
X226103928Y-90802380D01*
X226056309Y-90826190D01*
X225937261Y-90826190D01*
X225889642Y-90802380D01*
X225865833Y-90778571D01*
%TO.C,C103*%
X221478571Y-79209523D02*
X221502380Y-79233333D01*
X221526190Y-79304761D01*
X221526190Y-79352380D01*
X221502380Y-79423809D01*
X221454761Y-79471428D01*
X221407142Y-79495238D01*
X221311904Y-79519047D01*
X221240476Y-79519047D01*
X221145238Y-79495238D01*
X221097619Y-79471428D01*
X221050000Y-79423809D01*
X221026190Y-79352380D01*
X221026190Y-79304761D01*
X221050000Y-79233333D01*
X221073809Y-79209523D01*
X221526190Y-78733333D02*
X221526190Y-79019047D01*
X221526190Y-78876190D02*
X221026190Y-78876190D01*
X221097619Y-78923809D01*
X221145238Y-78971428D01*
X221169047Y-79019047D01*
X221026190Y-78423809D02*
X221026190Y-78376190D01*
X221050000Y-78328571D01*
X221073809Y-78304761D01*
X221121428Y-78280952D01*
X221216666Y-78257142D01*
X221335714Y-78257142D01*
X221430952Y-78280952D01*
X221478571Y-78304761D01*
X221502380Y-78328571D01*
X221526190Y-78376190D01*
X221526190Y-78423809D01*
X221502380Y-78471428D01*
X221478571Y-78495238D01*
X221430952Y-78519047D01*
X221335714Y-78542857D01*
X221216666Y-78542857D01*
X221121428Y-78519047D01*
X221073809Y-78495238D01*
X221050000Y-78471428D01*
X221026190Y-78423809D01*
X221026190Y-78090476D02*
X221026190Y-77780952D01*
X221216666Y-77947619D01*
X221216666Y-77876190D01*
X221240476Y-77828571D01*
X221264285Y-77804761D01*
X221311904Y-77780952D01*
X221430952Y-77780952D01*
X221478571Y-77804761D01*
X221502380Y-77828571D01*
X221526190Y-77876190D01*
X221526190Y-78019047D01*
X221502380Y-78066666D01*
X221478571Y-78090476D01*
%TO.C,C102*%
X219928571Y-79259523D02*
X219952380Y-79283333D01*
X219976190Y-79354761D01*
X219976190Y-79402380D01*
X219952380Y-79473809D01*
X219904761Y-79521428D01*
X219857142Y-79545238D01*
X219761904Y-79569047D01*
X219690476Y-79569047D01*
X219595238Y-79545238D01*
X219547619Y-79521428D01*
X219500000Y-79473809D01*
X219476190Y-79402380D01*
X219476190Y-79354761D01*
X219500000Y-79283333D01*
X219523809Y-79259523D01*
X219976190Y-78783333D02*
X219976190Y-79069047D01*
X219976190Y-78926190D02*
X219476190Y-78926190D01*
X219547619Y-78973809D01*
X219595238Y-79021428D01*
X219619047Y-79069047D01*
X219476190Y-78473809D02*
X219476190Y-78426190D01*
X219500000Y-78378571D01*
X219523809Y-78354761D01*
X219571428Y-78330952D01*
X219666666Y-78307142D01*
X219785714Y-78307142D01*
X219880952Y-78330952D01*
X219928571Y-78354761D01*
X219952380Y-78378571D01*
X219976190Y-78426190D01*
X219976190Y-78473809D01*
X219952380Y-78521428D01*
X219928571Y-78545238D01*
X219880952Y-78569047D01*
X219785714Y-78592857D01*
X219666666Y-78592857D01*
X219571428Y-78569047D01*
X219523809Y-78545238D01*
X219500000Y-78521428D01*
X219476190Y-78473809D01*
X219523809Y-78116666D02*
X219500000Y-78092857D01*
X219476190Y-78045238D01*
X219476190Y-77926190D01*
X219500000Y-77878571D01*
X219523809Y-77854761D01*
X219571428Y-77830952D01*
X219619047Y-77830952D01*
X219690476Y-77854761D01*
X219976190Y-78140476D01*
X219976190Y-77830952D01*
%TO.C,C101*%
X217540476Y-84128571D02*
X217516666Y-84152380D01*
X217445238Y-84176190D01*
X217397619Y-84176190D01*
X217326190Y-84152380D01*
X217278571Y-84104761D01*
X217254761Y-84057142D01*
X217230952Y-83961904D01*
X217230952Y-83890476D01*
X217254761Y-83795238D01*
X217278571Y-83747619D01*
X217326190Y-83700000D01*
X217397619Y-83676190D01*
X217445238Y-83676190D01*
X217516666Y-83700000D01*
X217540476Y-83723809D01*
X218016666Y-84176190D02*
X217730952Y-84176190D01*
X217873809Y-84176190D02*
X217873809Y-83676190D01*
X217826190Y-83747619D01*
X217778571Y-83795238D01*
X217730952Y-83819047D01*
X218326190Y-83676190D02*
X218373809Y-83676190D01*
X218421428Y-83700000D01*
X218445238Y-83723809D01*
X218469047Y-83771428D01*
X218492857Y-83866666D01*
X218492857Y-83985714D01*
X218469047Y-84080952D01*
X218445238Y-84128571D01*
X218421428Y-84152380D01*
X218373809Y-84176190D01*
X218326190Y-84176190D01*
X218278571Y-84152380D01*
X218254761Y-84128571D01*
X218230952Y-84080952D01*
X218207142Y-83985714D01*
X218207142Y-83866666D01*
X218230952Y-83771428D01*
X218254761Y-83723809D01*
X218278571Y-83700000D01*
X218326190Y-83676190D01*
X218969047Y-84176190D02*
X218683333Y-84176190D01*
X218826190Y-84176190D02*
X218826190Y-83676190D01*
X218778571Y-83747619D01*
X218730952Y-83795238D01*
X218683333Y-83819047D01*
%TO.C,U102*%
X231092857Y-83676190D02*
X231092857Y-84080952D01*
X231116666Y-84128571D01*
X231140476Y-84152380D01*
X231188095Y-84176190D01*
X231283333Y-84176190D01*
X231330952Y-84152380D01*
X231354761Y-84128571D01*
X231378571Y-84080952D01*
X231378571Y-83676190D01*
X231878571Y-84176190D02*
X231592857Y-84176190D01*
X231735714Y-84176190D02*
X231735714Y-83676190D01*
X231688095Y-83747619D01*
X231640476Y-83795238D01*
X231592857Y-83819047D01*
X232188095Y-83676190D02*
X232235714Y-83676190D01*
X232283333Y-83700000D01*
X232307142Y-83723809D01*
X232330952Y-83771428D01*
X232354761Y-83866666D01*
X232354761Y-83985714D01*
X232330952Y-84080952D01*
X232307142Y-84128571D01*
X232283333Y-84152380D01*
X232235714Y-84176190D01*
X232188095Y-84176190D01*
X232140476Y-84152380D01*
X232116666Y-84128571D01*
X232092857Y-84080952D01*
X232069047Y-83985714D01*
X232069047Y-83866666D01*
X232092857Y-83771428D01*
X232116666Y-83723809D01*
X232140476Y-83700000D01*
X232188095Y-83676190D01*
X232545238Y-83723809D02*
X232569047Y-83700000D01*
X232616666Y-83676190D01*
X232735714Y-83676190D01*
X232783333Y-83700000D01*
X232807142Y-83723809D01*
X232830952Y-83771428D01*
X232830952Y-83819047D01*
X232807142Y-83890476D01*
X232521428Y-84176190D01*
X232830952Y-84176190D01*
%TO.C,U104*%
D10*
X244739285Y-93989285D02*
X244739285Y-94596428D01*
X244775000Y-94667857D01*
X244810714Y-94703571D01*
X244882142Y-94739285D01*
X245025000Y-94739285D01*
X245096428Y-94703571D01*
X245132142Y-94667857D01*
X245167857Y-94596428D01*
X245167857Y-93989285D01*
X245917857Y-94739285D02*
X245489285Y-94739285D01*
X245703571Y-94739285D02*
X245703571Y-93989285D01*
X245632142Y-94096428D01*
X245560714Y-94167857D01*
X245489285Y-94203571D01*
X246382142Y-93989285D02*
X246453571Y-93989285D01*
X246525000Y-94025000D01*
X246560714Y-94060714D01*
X246596428Y-94132142D01*
X246632142Y-94275000D01*
X246632142Y-94453571D01*
X246596428Y-94596428D01*
X246560714Y-94667857D01*
X246525000Y-94703571D01*
X246453571Y-94739285D01*
X246382142Y-94739285D01*
X246310714Y-94703571D01*
X246275000Y-94667857D01*
X246239285Y-94596428D01*
X246203571Y-94453571D01*
X246203571Y-94275000D01*
X246239285Y-94132142D01*
X246275000Y-94060714D01*
X246310714Y-94025000D01*
X246382142Y-93989285D01*
X247275000Y-94239285D02*
X247275000Y-94739285D01*
X247096428Y-93953571D02*
X246917857Y-94489285D01*
X247382142Y-94489285D01*
%TO.C,U103*%
X239039285Y-93914285D02*
X239039285Y-94521428D01*
X239075000Y-94592857D01*
X239110714Y-94628571D01*
X239182142Y-94664285D01*
X239325000Y-94664285D01*
X239396428Y-94628571D01*
X239432142Y-94592857D01*
X239467857Y-94521428D01*
X239467857Y-93914285D01*
X240217857Y-94664285D02*
X239789285Y-94664285D01*
X240003571Y-94664285D02*
X240003571Y-93914285D01*
X239932142Y-94021428D01*
X239860714Y-94092857D01*
X239789285Y-94128571D01*
X240682142Y-93914285D02*
X240753571Y-93914285D01*
X240825000Y-93950000D01*
X240860714Y-93985714D01*
X240896428Y-94057142D01*
X240932142Y-94200000D01*
X240932142Y-94378571D01*
X240896428Y-94521428D01*
X240860714Y-94592857D01*
X240825000Y-94628571D01*
X240753571Y-94664285D01*
X240682142Y-94664285D01*
X240610714Y-94628571D01*
X240575000Y-94592857D01*
X240539285Y-94521428D01*
X240503571Y-94378571D01*
X240503571Y-94200000D01*
X240539285Y-94057142D01*
X240575000Y-93985714D01*
X240610714Y-93950000D01*
X240682142Y-93914285D01*
X241182142Y-93914285D02*
X241646428Y-93914285D01*
X241396428Y-94200000D01*
X241503571Y-94200000D01*
X241575000Y-94235714D01*
X241610714Y-94271428D01*
X241646428Y-94342857D01*
X241646428Y-94521428D01*
X241610714Y-94592857D01*
X241575000Y-94628571D01*
X241503571Y-94664285D01*
X241289285Y-94664285D01*
X241217857Y-94628571D01*
X241182142Y-94592857D01*
%TO.C,U101*%
X219464285Y-83339285D02*
X219464285Y-83946428D01*
X219500000Y-84017857D01*
X219535714Y-84053571D01*
X219607142Y-84089285D01*
X219750000Y-84089285D01*
X219821428Y-84053571D01*
X219857142Y-84017857D01*
X219892857Y-83946428D01*
X219892857Y-83339285D01*
X220642857Y-84089285D02*
X220214285Y-84089285D01*
X220428571Y-84089285D02*
X220428571Y-83339285D01*
X220357142Y-83446428D01*
X220285714Y-83517857D01*
X220214285Y-83553571D01*
X221107142Y-83339285D02*
X221178571Y-83339285D01*
X221250000Y-83375000D01*
X221285714Y-83410714D01*
X221321428Y-83482142D01*
X221357142Y-83625000D01*
X221357142Y-83803571D01*
X221321428Y-83946428D01*
X221285714Y-84017857D01*
X221250000Y-84053571D01*
X221178571Y-84089285D01*
X221107142Y-84089285D01*
X221035714Y-84053571D01*
X221000000Y-84017857D01*
X220964285Y-83946428D01*
X220928571Y-83803571D01*
X220928571Y-83625000D01*
X220964285Y-83482142D01*
X221000000Y-83410714D01*
X221035714Y-83375000D01*
X221107142Y-83339285D01*
X222071428Y-84089285D02*
X221642857Y-84089285D01*
X221857142Y-84089285D02*
X221857142Y-83339285D01*
X221785714Y-83446428D01*
X221714285Y-83517857D01*
X221642857Y-83553571D01*
%TO.C,SW101*%
X213489285Y-97154761D02*
X213632142Y-97202380D01*
X213870238Y-97202380D01*
X213965476Y-97154761D01*
X214013095Y-97107142D01*
X214060714Y-97011904D01*
X214060714Y-96916666D01*
X214013095Y-96821428D01*
X213965476Y-96773809D01*
X213870238Y-96726190D01*
X213679761Y-96678571D01*
X213584523Y-96630952D01*
X213536904Y-96583333D01*
X213489285Y-96488095D01*
X213489285Y-96392857D01*
X213536904Y-96297619D01*
X213584523Y-96250000D01*
X213679761Y-96202380D01*
X213917857Y-96202380D01*
X214060714Y-96250000D01*
X214394047Y-96202380D02*
X214632142Y-97202380D01*
X214822619Y-96488095D01*
X215013095Y-97202380D01*
X215251190Y-96202380D01*
X216155952Y-97202380D02*
X215584523Y-97202380D01*
X215870238Y-97202380D02*
X215870238Y-96202380D01*
X215775000Y-96345238D01*
X215679761Y-96440476D01*
X215584523Y-96488095D01*
X216775000Y-96202380D02*
X216870238Y-96202380D01*
X216965476Y-96250000D01*
X217013095Y-96297619D01*
X217060714Y-96392857D01*
X217108333Y-96583333D01*
X217108333Y-96821428D01*
X217060714Y-97011904D01*
X217013095Y-97107142D01*
X216965476Y-97154761D01*
X216870238Y-97202380D01*
X216775000Y-97202380D01*
X216679761Y-97154761D01*
X216632142Y-97107142D01*
X216584523Y-97011904D01*
X216536904Y-96821428D01*
X216536904Y-96583333D01*
X216584523Y-96392857D01*
X216632142Y-96297619D01*
X216679761Y-96250000D01*
X216775000Y-96202380D01*
X218060714Y-97202380D02*
X217489285Y-97202380D01*
X217775000Y-97202380D02*
X217775000Y-96202380D01*
X217679761Y-96345238D01*
X217584523Y-96440476D01*
X217489285Y-96488095D01*
%TO.C,R110*%
D11*
X235030476Y-96076190D02*
X234863809Y-95838095D01*
X234744761Y-96076190D02*
X234744761Y-95576190D01*
X234935238Y-95576190D01*
X234982857Y-95600000D01*
X235006666Y-95623809D01*
X235030476Y-95671428D01*
X235030476Y-95742857D01*
X235006666Y-95790476D01*
X234982857Y-95814285D01*
X234935238Y-95838095D01*
X234744761Y-95838095D01*
X235506666Y-96076190D02*
X235220952Y-96076190D01*
X235363809Y-96076190D02*
X235363809Y-95576190D01*
X235316190Y-95647619D01*
X235268571Y-95695238D01*
X235220952Y-95719047D01*
X235982857Y-96076190D02*
X235697142Y-96076190D01*
X235840000Y-96076190D02*
X235840000Y-95576190D01*
X235792380Y-95647619D01*
X235744761Y-95695238D01*
X235697142Y-95719047D01*
X236292380Y-95576190D02*
X236340000Y-95576190D01*
X236387619Y-95600000D01*
X236411428Y-95623809D01*
X236435238Y-95671428D01*
X236459047Y-95766666D01*
X236459047Y-95885714D01*
X236435238Y-95980952D01*
X236411428Y-96028571D01*
X236387619Y-96052380D01*
X236340000Y-96076190D01*
X236292380Y-96076190D01*
X236244761Y-96052380D01*
X236220952Y-96028571D01*
X236197142Y-95980952D01*
X236173333Y-95885714D01*
X236173333Y-95766666D01*
X236197142Y-95671428D01*
X236220952Y-95623809D01*
X236244761Y-95600000D01*
X236292380Y-95576190D01*
%TO.C,R109*%
X233790476Y-94976190D02*
X233623809Y-94738095D01*
X233504761Y-94976190D02*
X233504761Y-94476190D01*
X233695238Y-94476190D01*
X233742857Y-94500000D01*
X233766666Y-94523809D01*
X233790476Y-94571428D01*
X233790476Y-94642857D01*
X233766666Y-94690476D01*
X233742857Y-94714285D01*
X233695238Y-94738095D01*
X233504761Y-94738095D01*
X234266666Y-94976190D02*
X233980952Y-94976190D01*
X234123809Y-94976190D02*
X234123809Y-94476190D01*
X234076190Y-94547619D01*
X234028571Y-94595238D01*
X233980952Y-94619047D01*
X234576190Y-94476190D02*
X234623809Y-94476190D01*
X234671428Y-94500000D01*
X234695238Y-94523809D01*
X234719047Y-94571428D01*
X234742857Y-94666666D01*
X234742857Y-94785714D01*
X234719047Y-94880952D01*
X234695238Y-94928571D01*
X234671428Y-94952380D01*
X234623809Y-94976190D01*
X234576190Y-94976190D01*
X234528571Y-94952380D01*
X234504761Y-94928571D01*
X234480952Y-94880952D01*
X234457142Y-94785714D01*
X234457142Y-94666666D01*
X234480952Y-94571428D01*
X234504761Y-94523809D01*
X234528571Y-94500000D01*
X234576190Y-94476190D01*
X234980952Y-94976190D02*
X235076190Y-94976190D01*
X235123809Y-94952380D01*
X235147619Y-94928571D01*
X235195238Y-94857142D01*
X235219047Y-94761904D01*
X235219047Y-94571428D01*
X235195238Y-94523809D01*
X235171428Y-94500000D01*
X235123809Y-94476190D01*
X235028571Y-94476190D01*
X234980952Y-94500000D01*
X234957142Y-94523809D01*
X234933333Y-94571428D01*
X234933333Y-94690476D01*
X234957142Y-94738095D01*
X234980952Y-94761904D01*
X235028571Y-94785714D01*
X235123809Y-94785714D01*
X235171428Y-94761904D01*
X235195238Y-94738095D01*
X235219047Y-94690476D01*
%TO.C,R108*%
X236540476Y-84451190D02*
X236373809Y-84213095D01*
X236254761Y-84451190D02*
X236254761Y-83951190D01*
X236445238Y-83951190D01*
X236492857Y-83975000D01*
X236516666Y-83998809D01*
X236540476Y-84046428D01*
X236540476Y-84117857D01*
X236516666Y-84165476D01*
X236492857Y-84189285D01*
X236445238Y-84213095D01*
X236254761Y-84213095D01*
X237016666Y-84451190D02*
X236730952Y-84451190D01*
X236873809Y-84451190D02*
X236873809Y-83951190D01*
X236826190Y-84022619D01*
X236778571Y-84070238D01*
X236730952Y-84094047D01*
X237326190Y-83951190D02*
X237373809Y-83951190D01*
X237421428Y-83975000D01*
X237445238Y-83998809D01*
X237469047Y-84046428D01*
X237492857Y-84141666D01*
X237492857Y-84260714D01*
X237469047Y-84355952D01*
X237445238Y-84403571D01*
X237421428Y-84427380D01*
X237373809Y-84451190D01*
X237326190Y-84451190D01*
X237278571Y-84427380D01*
X237254761Y-84403571D01*
X237230952Y-84355952D01*
X237207142Y-84260714D01*
X237207142Y-84141666D01*
X237230952Y-84046428D01*
X237254761Y-83998809D01*
X237278571Y-83975000D01*
X237326190Y-83951190D01*
X237778571Y-84165476D02*
X237730952Y-84141666D01*
X237707142Y-84117857D01*
X237683333Y-84070238D01*
X237683333Y-84046428D01*
X237707142Y-83998809D01*
X237730952Y-83975000D01*
X237778571Y-83951190D01*
X237873809Y-83951190D01*
X237921428Y-83975000D01*
X237945238Y-83998809D01*
X237969047Y-84046428D01*
X237969047Y-84070238D01*
X237945238Y-84117857D01*
X237921428Y-84141666D01*
X237873809Y-84165476D01*
X237778571Y-84165476D01*
X237730952Y-84189285D01*
X237707142Y-84213095D01*
X237683333Y-84260714D01*
X237683333Y-84355952D01*
X237707142Y-84403571D01*
X237730952Y-84427380D01*
X237778571Y-84451190D01*
X237873809Y-84451190D01*
X237921428Y-84427380D01*
X237945238Y-84403571D01*
X237969047Y-84355952D01*
X237969047Y-84260714D01*
X237945238Y-84213095D01*
X237921428Y-84189285D01*
X237873809Y-84165476D01*
%TO.C,R107*%
X239340476Y-85826190D02*
X239173809Y-85588095D01*
X239054761Y-85826190D02*
X239054761Y-85326190D01*
X239245238Y-85326190D01*
X239292857Y-85350000D01*
X239316666Y-85373809D01*
X239340476Y-85421428D01*
X239340476Y-85492857D01*
X239316666Y-85540476D01*
X239292857Y-85564285D01*
X239245238Y-85588095D01*
X239054761Y-85588095D01*
X239816666Y-85826190D02*
X239530952Y-85826190D01*
X239673809Y-85826190D02*
X239673809Y-85326190D01*
X239626190Y-85397619D01*
X239578571Y-85445238D01*
X239530952Y-85469047D01*
X240126190Y-85326190D02*
X240173809Y-85326190D01*
X240221428Y-85350000D01*
X240245238Y-85373809D01*
X240269047Y-85421428D01*
X240292857Y-85516666D01*
X240292857Y-85635714D01*
X240269047Y-85730952D01*
X240245238Y-85778571D01*
X240221428Y-85802380D01*
X240173809Y-85826190D01*
X240126190Y-85826190D01*
X240078571Y-85802380D01*
X240054761Y-85778571D01*
X240030952Y-85730952D01*
X240007142Y-85635714D01*
X240007142Y-85516666D01*
X240030952Y-85421428D01*
X240054761Y-85373809D01*
X240078571Y-85350000D01*
X240126190Y-85326190D01*
X240459523Y-85326190D02*
X240792857Y-85326190D01*
X240578571Y-85826190D01*
%TO.C,R106*%
X230740476Y-91401190D02*
X230573809Y-91163095D01*
X230454761Y-91401190D02*
X230454761Y-90901190D01*
X230645238Y-90901190D01*
X230692857Y-90925000D01*
X230716666Y-90948809D01*
X230740476Y-90996428D01*
X230740476Y-91067857D01*
X230716666Y-91115476D01*
X230692857Y-91139285D01*
X230645238Y-91163095D01*
X230454761Y-91163095D01*
X231216666Y-91401190D02*
X230930952Y-91401190D01*
X231073809Y-91401190D02*
X231073809Y-90901190D01*
X231026190Y-90972619D01*
X230978571Y-91020238D01*
X230930952Y-91044047D01*
X231526190Y-90901190D02*
X231573809Y-90901190D01*
X231621428Y-90925000D01*
X231645238Y-90948809D01*
X231669047Y-90996428D01*
X231692857Y-91091666D01*
X231692857Y-91210714D01*
X231669047Y-91305952D01*
X231645238Y-91353571D01*
X231621428Y-91377380D01*
X231573809Y-91401190D01*
X231526190Y-91401190D01*
X231478571Y-91377380D01*
X231454761Y-91353571D01*
X231430952Y-91305952D01*
X231407142Y-91210714D01*
X231407142Y-91091666D01*
X231430952Y-90996428D01*
X231454761Y-90948809D01*
X231478571Y-90925000D01*
X231526190Y-90901190D01*
X232121428Y-90901190D02*
X232026190Y-90901190D01*
X231978571Y-90925000D01*
X231954761Y-90948809D01*
X231907142Y-91020238D01*
X231883333Y-91115476D01*
X231883333Y-91305952D01*
X231907142Y-91353571D01*
X231930952Y-91377380D01*
X231978571Y-91401190D01*
X232073809Y-91401190D01*
X232121428Y-91377380D01*
X232145238Y-91353571D01*
X232169047Y-91305952D01*
X232169047Y-91186904D01*
X232145238Y-91139285D01*
X232121428Y-91115476D01*
X232073809Y-91091666D01*
X231978571Y-91091666D01*
X231930952Y-91115476D01*
X231907142Y-91139285D01*
X231883333Y-91186904D01*
%TO.C,R105*%
X214640476Y-86426190D02*
X214473809Y-86188095D01*
X214354761Y-86426190D02*
X214354761Y-85926190D01*
X214545238Y-85926190D01*
X214592857Y-85950000D01*
X214616666Y-85973809D01*
X214640476Y-86021428D01*
X214640476Y-86092857D01*
X214616666Y-86140476D01*
X214592857Y-86164285D01*
X214545238Y-86188095D01*
X214354761Y-86188095D01*
X215116666Y-86426190D02*
X214830952Y-86426190D01*
X214973809Y-86426190D02*
X214973809Y-85926190D01*
X214926190Y-85997619D01*
X214878571Y-86045238D01*
X214830952Y-86069047D01*
X215426190Y-85926190D02*
X215473809Y-85926190D01*
X215521428Y-85950000D01*
X215545238Y-85973809D01*
X215569047Y-86021428D01*
X215592857Y-86116666D01*
X215592857Y-86235714D01*
X215569047Y-86330952D01*
X215545238Y-86378571D01*
X215521428Y-86402380D01*
X215473809Y-86426190D01*
X215426190Y-86426190D01*
X215378571Y-86402380D01*
X215354761Y-86378571D01*
X215330952Y-86330952D01*
X215307142Y-86235714D01*
X215307142Y-86116666D01*
X215330952Y-86021428D01*
X215354761Y-85973809D01*
X215378571Y-85950000D01*
X215426190Y-85926190D01*
X216045238Y-85926190D02*
X215807142Y-85926190D01*
X215783333Y-86164285D01*
X215807142Y-86140476D01*
X215854761Y-86116666D01*
X215973809Y-86116666D01*
X216021428Y-86140476D01*
X216045238Y-86164285D01*
X216069047Y-86211904D01*
X216069047Y-86330952D01*
X216045238Y-86378571D01*
X216021428Y-86402380D01*
X215973809Y-86426190D01*
X215854761Y-86426190D01*
X215807142Y-86402380D01*
X215783333Y-86378571D01*
%TO.C,R104*%
X218590476Y-91376190D02*
X218423809Y-91138095D01*
X218304761Y-91376190D02*
X218304761Y-90876190D01*
X218495238Y-90876190D01*
X218542857Y-90900000D01*
X218566666Y-90923809D01*
X218590476Y-90971428D01*
X218590476Y-91042857D01*
X218566666Y-91090476D01*
X218542857Y-91114285D01*
X218495238Y-91138095D01*
X218304761Y-91138095D01*
X219066666Y-91376190D02*
X218780952Y-91376190D01*
X218923809Y-91376190D02*
X218923809Y-90876190D01*
X218876190Y-90947619D01*
X218828571Y-90995238D01*
X218780952Y-91019047D01*
X219376190Y-90876190D02*
X219423809Y-90876190D01*
X219471428Y-90900000D01*
X219495238Y-90923809D01*
X219519047Y-90971428D01*
X219542857Y-91066666D01*
X219542857Y-91185714D01*
X219519047Y-91280952D01*
X219495238Y-91328571D01*
X219471428Y-91352380D01*
X219423809Y-91376190D01*
X219376190Y-91376190D01*
X219328571Y-91352380D01*
X219304761Y-91328571D01*
X219280952Y-91280952D01*
X219257142Y-91185714D01*
X219257142Y-91066666D01*
X219280952Y-90971428D01*
X219304761Y-90923809D01*
X219328571Y-90900000D01*
X219376190Y-90876190D01*
X219971428Y-91042857D02*
X219971428Y-91376190D01*
X219852380Y-90852380D02*
X219733333Y-91209523D01*
X220042857Y-91209523D01*
%TO.C,R103*%
X220940476Y-93526190D02*
X220773809Y-93288095D01*
X220654761Y-93526190D02*
X220654761Y-93026190D01*
X220845238Y-93026190D01*
X220892857Y-93050000D01*
X220916666Y-93073809D01*
X220940476Y-93121428D01*
X220940476Y-93192857D01*
X220916666Y-93240476D01*
X220892857Y-93264285D01*
X220845238Y-93288095D01*
X220654761Y-93288095D01*
X221416666Y-93526190D02*
X221130952Y-93526190D01*
X221273809Y-93526190D02*
X221273809Y-93026190D01*
X221226190Y-93097619D01*
X221178571Y-93145238D01*
X221130952Y-93169047D01*
X221726190Y-93026190D02*
X221773809Y-93026190D01*
X221821428Y-93050000D01*
X221845238Y-93073809D01*
X221869047Y-93121428D01*
X221892857Y-93216666D01*
X221892857Y-93335714D01*
X221869047Y-93430952D01*
X221845238Y-93478571D01*
X221821428Y-93502380D01*
X221773809Y-93526190D01*
X221726190Y-93526190D01*
X221678571Y-93502380D01*
X221654761Y-93478571D01*
X221630952Y-93430952D01*
X221607142Y-93335714D01*
X221607142Y-93216666D01*
X221630952Y-93121428D01*
X221654761Y-93073809D01*
X221678571Y-93050000D01*
X221726190Y-93026190D01*
X222059523Y-93026190D02*
X222369047Y-93026190D01*
X222202380Y-93216666D01*
X222273809Y-93216666D01*
X222321428Y-93240476D01*
X222345238Y-93264285D01*
X222369047Y-93311904D01*
X222369047Y-93430952D01*
X222345238Y-93478571D01*
X222321428Y-93502380D01*
X222273809Y-93526190D01*
X222130952Y-93526190D01*
X222083333Y-93502380D01*
X222059523Y-93478571D01*
%TO.C,R102*%
X223976190Y-92359523D02*
X223738095Y-92526190D01*
X223976190Y-92645238D02*
X223476190Y-92645238D01*
X223476190Y-92454761D01*
X223500000Y-92407142D01*
X223523809Y-92383333D01*
X223571428Y-92359523D01*
X223642857Y-92359523D01*
X223690476Y-92383333D01*
X223714285Y-92407142D01*
X223738095Y-92454761D01*
X223738095Y-92645238D01*
X223976190Y-91883333D02*
X223976190Y-92169047D01*
X223976190Y-92026190D02*
X223476190Y-92026190D01*
X223547619Y-92073809D01*
X223595238Y-92121428D01*
X223619047Y-92169047D01*
X223476190Y-91573809D02*
X223476190Y-91526190D01*
X223500000Y-91478571D01*
X223523809Y-91454761D01*
X223571428Y-91430952D01*
X223666666Y-91407142D01*
X223785714Y-91407142D01*
X223880952Y-91430952D01*
X223928571Y-91454761D01*
X223952380Y-91478571D01*
X223976190Y-91526190D01*
X223976190Y-91573809D01*
X223952380Y-91621428D01*
X223928571Y-91645238D01*
X223880952Y-91669047D01*
X223785714Y-91692857D01*
X223666666Y-91692857D01*
X223571428Y-91669047D01*
X223523809Y-91645238D01*
X223500000Y-91621428D01*
X223476190Y-91573809D01*
X223523809Y-91216666D02*
X223500000Y-91192857D01*
X223476190Y-91145238D01*
X223476190Y-91026190D01*
X223500000Y-90978571D01*
X223523809Y-90954761D01*
X223571428Y-90930952D01*
X223619047Y-90930952D01*
X223690476Y-90954761D01*
X223976190Y-91240476D01*
X223976190Y-90930952D01*
%TO.C,R101*%
X214640476Y-87426190D02*
X214473809Y-87188095D01*
X214354761Y-87426190D02*
X214354761Y-86926190D01*
X214545238Y-86926190D01*
X214592857Y-86950000D01*
X214616666Y-86973809D01*
X214640476Y-87021428D01*
X214640476Y-87092857D01*
X214616666Y-87140476D01*
X214592857Y-87164285D01*
X214545238Y-87188095D01*
X214354761Y-87188095D01*
X215116666Y-87426190D02*
X214830952Y-87426190D01*
X214973809Y-87426190D02*
X214973809Y-86926190D01*
X214926190Y-86997619D01*
X214878571Y-87045238D01*
X214830952Y-87069047D01*
X215426190Y-86926190D02*
X215473809Y-86926190D01*
X215521428Y-86950000D01*
X215545238Y-86973809D01*
X215569047Y-87021428D01*
X215592857Y-87116666D01*
X215592857Y-87235714D01*
X215569047Y-87330952D01*
X215545238Y-87378571D01*
X215521428Y-87402380D01*
X215473809Y-87426190D01*
X215426190Y-87426190D01*
X215378571Y-87402380D01*
X215354761Y-87378571D01*
X215330952Y-87330952D01*
X215307142Y-87235714D01*
X215307142Y-87116666D01*
X215330952Y-87021428D01*
X215354761Y-86973809D01*
X215378571Y-86950000D01*
X215426190Y-86926190D01*
X216069047Y-87426190D02*
X215783333Y-87426190D01*
X215926190Y-87426190D02*
X215926190Y-86926190D01*
X215878571Y-86997619D01*
X215830952Y-87045238D01*
X215783333Y-87069047D01*
%TO.C,R100*%
X214590476Y-88526190D02*
X214423809Y-88288095D01*
X214304761Y-88526190D02*
X214304761Y-88026190D01*
X214495238Y-88026190D01*
X214542857Y-88050000D01*
X214566666Y-88073809D01*
X214590476Y-88121428D01*
X214590476Y-88192857D01*
X214566666Y-88240476D01*
X214542857Y-88264285D01*
X214495238Y-88288095D01*
X214304761Y-88288095D01*
X215066666Y-88526190D02*
X214780952Y-88526190D01*
X214923809Y-88526190D02*
X214923809Y-88026190D01*
X214876190Y-88097619D01*
X214828571Y-88145238D01*
X214780952Y-88169047D01*
X215376190Y-88026190D02*
X215423809Y-88026190D01*
X215471428Y-88050000D01*
X215495238Y-88073809D01*
X215519047Y-88121428D01*
X215542857Y-88216666D01*
X215542857Y-88335714D01*
X215519047Y-88430952D01*
X215495238Y-88478571D01*
X215471428Y-88502380D01*
X215423809Y-88526190D01*
X215376190Y-88526190D01*
X215328571Y-88502380D01*
X215304761Y-88478571D01*
X215280952Y-88430952D01*
X215257142Y-88335714D01*
X215257142Y-88216666D01*
X215280952Y-88121428D01*
X215304761Y-88073809D01*
X215328571Y-88050000D01*
X215376190Y-88026190D01*
X215852380Y-88026190D02*
X215900000Y-88026190D01*
X215947619Y-88050000D01*
X215971428Y-88073809D01*
X215995238Y-88121428D01*
X216019047Y-88216666D01*
X216019047Y-88335714D01*
X215995238Y-88430952D01*
X215971428Y-88478571D01*
X215947619Y-88502380D01*
X215900000Y-88526190D01*
X215852380Y-88526190D01*
X215804761Y-88502380D01*
X215780952Y-88478571D01*
X215757142Y-88430952D01*
X215733333Y-88335714D01*
X215733333Y-88216666D01*
X215757142Y-88121428D01*
X215780952Y-88073809D01*
X215804761Y-88050000D01*
X215852380Y-88026190D01*
%TO.C,L102*%
X229814476Y-80926190D02*
X229576380Y-80926190D01*
X229576380Y-80426190D01*
X230243047Y-80926190D02*
X229957333Y-80926190D01*
X230100190Y-80926190D02*
X230100190Y-80426190D01*
X230052571Y-80497619D01*
X230004952Y-80545238D01*
X229957333Y-80569047D01*
X230552571Y-80426190D02*
X230600190Y-80426190D01*
X230647809Y-80450000D01*
X230671619Y-80473809D01*
X230695428Y-80521428D01*
X230719238Y-80616666D01*
X230719238Y-80735714D01*
X230695428Y-80830952D01*
X230671619Y-80878571D01*
X230647809Y-80902380D01*
X230600190Y-80926190D01*
X230552571Y-80926190D01*
X230504952Y-80902380D01*
X230481142Y-80878571D01*
X230457333Y-80830952D01*
X230433523Y-80735714D01*
X230433523Y-80616666D01*
X230457333Y-80521428D01*
X230481142Y-80473809D01*
X230504952Y-80450000D01*
X230552571Y-80426190D01*
X230909714Y-80473809D02*
X230933523Y-80450000D01*
X230981142Y-80426190D01*
X231100190Y-80426190D01*
X231147809Y-80450000D01*
X231171619Y-80473809D01*
X231195428Y-80521428D01*
X231195428Y-80569047D01*
X231171619Y-80640476D01*
X230885904Y-80926190D01*
X231195428Y-80926190D01*
%TO.C,L101*%
X227140476Y-84126190D02*
X226902380Y-84126190D01*
X226902380Y-83626190D01*
X227569047Y-84126190D02*
X227283333Y-84126190D01*
X227426190Y-84126190D02*
X227426190Y-83626190D01*
X227378571Y-83697619D01*
X227330952Y-83745238D01*
X227283333Y-83769047D01*
X227878571Y-83626190D02*
X227926190Y-83626190D01*
X227973809Y-83650000D01*
X227997619Y-83673809D01*
X228021428Y-83721428D01*
X228045238Y-83816666D01*
X228045238Y-83935714D01*
X228021428Y-84030952D01*
X227997619Y-84078571D01*
X227973809Y-84102380D01*
X227926190Y-84126190D01*
X227878571Y-84126190D01*
X227830952Y-84102380D01*
X227807142Y-84078571D01*
X227783333Y-84030952D01*
X227759523Y-83935714D01*
X227759523Y-83816666D01*
X227783333Y-83721428D01*
X227807142Y-83673809D01*
X227830952Y-83650000D01*
X227878571Y-83626190D01*
X228521428Y-84126190D02*
X228235714Y-84126190D01*
X228378571Y-84126190D02*
X228378571Y-83626190D01*
X228330952Y-83697619D01*
X228283333Y-83745238D01*
X228235714Y-83769047D01*
%TO.C,JP2*%
X209758333Y-92801190D02*
X209758333Y-93158333D01*
X209734523Y-93229761D01*
X209686904Y-93277380D01*
X209615476Y-93301190D01*
X209567857Y-93301190D01*
X209996428Y-93301190D02*
X209996428Y-92801190D01*
X210186904Y-92801190D01*
X210234523Y-92825000D01*
X210258333Y-92848809D01*
X210282142Y-92896428D01*
X210282142Y-92967857D01*
X210258333Y-93015476D01*
X210234523Y-93039285D01*
X210186904Y-93063095D01*
X209996428Y-93063095D01*
X210472619Y-92848809D02*
X210496428Y-92825000D01*
X210544047Y-92801190D01*
X210663095Y-92801190D01*
X210710714Y-92825000D01*
X210734523Y-92848809D01*
X210758333Y-92896428D01*
X210758333Y-92944047D01*
X210734523Y-93015476D01*
X210448809Y-93301190D01*
X210758333Y-93301190D01*
%TO.C,J103*%
D17*
X240965142Y-72017523D02*
X240965142Y-72924666D01*
X240904666Y-73106095D01*
X240783714Y-73227047D01*
X240602285Y-73287523D01*
X240481333Y-73287523D01*
X242235142Y-73287523D02*
X241509428Y-73287523D01*
X241872285Y-73287523D02*
X241872285Y-72017523D01*
X241751333Y-72198952D01*
X241630380Y-72319904D01*
X241509428Y-72380380D01*
X243021333Y-72017523D02*
X243142285Y-72017523D01*
X243263238Y-72078000D01*
X243323714Y-72138476D01*
X243384190Y-72259428D01*
X243444666Y-72501333D01*
X243444666Y-72803714D01*
X243384190Y-73045619D01*
X243323714Y-73166571D01*
X243263238Y-73227047D01*
X243142285Y-73287523D01*
X243021333Y-73287523D01*
X242900380Y-73227047D01*
X242839904Y-73166571D01*
X242779428Y-73045619D01*
X242718952Y-72803714D01*
X242718952Y-72501333D01*
X242779428Y-72259428D01*
X242839904Y-72138476D01*
X242900380Y-72078000D01*
X243021333Y-72017523D01*
X243868000Y-72017523D02*
X244654190Y-72017523D01*
X244230857Y-72501333D01*
X244412285Y-72501333D01*
X244533238Y-72561809D01*
X244593714Y-72622285D01*
X244654190Y-72743238D01*
X244654190Y-73045619D01*
X244593714Y-73166571D01*
X244533238Y-73227047D01*
X244412285Y-73287523D01*
X244049428Y-73287523D01*
X243928476Y-73227047D01*
X243868000Y-73166571D01*
%TO.C,J102*%
X216804523Y-107582857D02*
X217711666Y-107582857D01*
X217893095Y-107643333D01*
X218014047Y-107764285D01*
X218074523Y-107945714D01*
X218074523Y-108066666D01*
X218074523Y-106312857D02*
X218074523Y-107038571D01*
X218074523Y-106675714D02*
X216804523Y-106675714D01*
X216985952Y-106796666D01*
X217106904Y-106917619D01*
X217167380Y-107038571D01*
X216804523Y-105526666D02*
X216804523Y-105405714D01*
X216865000Y-105284761D01*
X216925476Y-105224285D01*
X217046428Y-105163809D01*
X217288333Y-105103333D01*
X217590714Y-105103333D01*
X217832619Y-105163809D01*
X217953571Y-105224285D01*
X218014047Y-105284761D01*
X218074523Y-105405714D01*
X218074523Y-105526666D01*
X218014047Y-105647619D01*
X217953571Y-105708095D01*
X217832619Y-105768571D01*
X217590714Y-105829047D01*
X217288333Y-105829047D01*
X217046428Y-105768571D01*
X216925476Y-105708095D01*
X216865000Y-105647619D01*
X216804523Y-105526666D01*
X216925476Y-104619523D02*
X216865000Y-104559047D01*
X216804523Y-104438095D01*
X216804523Y-104135714D01*
X216865000Y-104014761D01*
X216925476Y-103954285D01*
X217046428Y-103893809D01*
X217167380Y-103893809D01*
X217348809Y-103954285D01*
X218074523Y-104680000D01*
X218074523Y-103893809D01*
%TO.C,J101*%
D12*
X217352380Y-73610714D02*
X218066666Y-73610714D01*
X218209523Y-73658333D01*
X218304761Y-73753571D01*
X218352380Y-73896428D01*
X218352380Y-73991666D01*
X218352380Y-72610714D02*
X218352380Y-73182142D01*
X218352380Y-72896428D02*
X217352380Y-72896428D01*
X217495238Y-72991666D01*
X217590476Y-73086904D01*
X217638095Y-73182142D01*
X217352380Y-71991666D02*
X217352380Y-71896428D01*
X217400000Y-71801190D01*
X217447619Y-71753571D01*
X217542857Y-71705952D01*
X217733333Y-71658333D01*
X217971428Y-71658333D01*
X218161904Y-71705952D01*
X218257142Y-71753571D01*
X218304761Y-71801190D01*
X218352380Y-71896428D01*
X218352380Y-71991666D01*
X218304761Y-72086904D01*
X218257142Y-72134523D01*
X218161904Y-72182142D01*
X217971428Y-72229761D01*
X217733333Y-72229761D01*
X217542857Y-72182142D01*
X217447619Y-72134523D01*
X217400000Y-72086904D01*
X217352380Y-71991666D01*
X218352380Y-70705952D02*
X218352380Y-71277380D01*
X218352380Y-70991666D02*
X217352380Y-70991666D01*
X217495238Y-71086904D01*
X217590476Y-71182142D01*
X217638095Y-71277380D01*
D17*
%TO.C,D101*%
D11*
X212304761Y-86676190D02*
X212304761Y-86176190D01*
X212423809Y-86176190D01*
X212495238Y-86200000D01*
X212542857Y-86247619D01*
X212566666Y-86295238D01*
X212590476Y-86390476D01*
X212590476Y-86461904D01*
X212566666Y-86557142D01*
X212542857Y-86604761D01*
X212495238Y-86652380D01*
X212423809Y-86676190D01*
X212304761Y-86676190D01*
X213066666Y-86676190D02*
X212780952Y-86676190D01*
X212923809Y-86676190D02*
X212923809Y-86176190D01*
X212876190Y-86247619D01*
X212828571Y-86295238D01*
X212780952Y-86319047D01*
X213376190Y-86176190D02*
X213423809Y-86176190D01*
X213471428Y-86200000D01*
X213495238Y-86223809D01*
X213519047Y-86271428D01*
X213542857Y-86366666D01*
X213542857Y-86485714D01*
X213519047Y-86580952D01*
X213495238Y-86628571D01*
X213471428Y-86652380D01*
X213423809Y-86676190D01*
X213376190Y-86676190D01*
X213328571Y-86652380D01*
X213304761Y-86628571D01*
X213280952Y-86580952D01*
X213257142Y-86485714D01*
X213257142Y-86366666D01*
X213280952Y-86271428D01*
X213304761Y-86223809D01*
X213328571Y-86200000D01*
X213376190Y-86176190D01*
X214019047Y-86676190D02*
X213733333Y-86676190D01*
X213876190Y-86676190D02*
X213876190Y-86176190D01*
X213828571Y-86247619D01*
X213780952Y-86295238D01*
X213733333Y-86319047D01*
%TO.C,D102*%
X212354761Y-89501190D02*
X212354761Y-89001190D01*
X212473809Y-89001190D01*
X212545238Y-89025000D01*
X212592857Y-89072619D01*
X212616666Y-89120238D01*
X212640476Y-89215476D01*
X212640476Y-89286904D01*
X212616666Y-89382142D01*
X212592857Y-89429761D01*
X212545238Y-89477380D01*
X212473809Y-89501190D01*
X212354761Y-89501190D01*
X213116666Y-89501190D02*
X212830952Y-89501190D01*
X212973809Y-89501190D02*
X212973809Y-89001190D01*
X212926190Y-89072619D01*
X212878571Y-89120238D01*
X212830952Y-89144047D01*
X213426190Y-89001190D02*
X213473809Y-89001190D01*
X213521428Y-89025000D01*
X213545238Y-89048809D01*
X213569047Y-89096428D01*
X213592857Y-89191666D01*
X213592857Y-89310714D01*
X213569047Y-89405952D01*
X213545238Y-89453571D01*
X213521428Y-89477380D01*
X213473809Y-89501190D01*
X213426190Y-89501190D01*
X213378571Y-89477380D01*
X213354761Y-89453571D01*
X213330952Y-89405952D01*
X213307142Y-89310714D01*
X213307142Y-89191666D01*
X213330952Y-89096428D01*
X213354761Y-89048809D01*
X213378571Y-89025000D01*
X213426190Y-89001190D01*
X213783333Y-89048809D02*
X213807142Y-89025000D01*
X213854761Y-89001190D01*
X213973809Y-89001190D01*
X214021428Y-89025000D01*
X214045238Y-89048809D01*
X214069047Y-89096428D01*
X214069047Y-89144047D01*
X214045238Y-89215476D01*
X213759523Y-89501190D01*
X214069047Y-89501190D01*
%TO.C,C104*%
X223940476Y-81678571D02*
X223916666Y-81702380D01*
X223845238Y-81726190D01*
X223797619Y-81726190D01*
X223726190Y-81702380D01*
X223678571Y-81654761D01*
X223654761Y-81607142D01*
X223630952Y-81511904D01*
X223630952Y-81440476D01*
X223654761Y-81345238D01*
X223678571Y-81297619D01*
X223726190Y-81250000D01*
X223797619Y-81226190D01*
X223845238Y-81226190D01*
X223916666Y-81250000D01*
X223940476Y-81273809D01*
X224416666Y-81726190D02*
X224130952Y-81726190D01*
X224273809Y-81726190D02*
X224273809Y-81226190D01*
X224226190Y-81297619D01*
X224178571Y-81345238D01*
X224130952Y-81369047D01*
X224726190Y-81226190D02*
X224773809Y-81226190D01*
X224821428Y-81250000D01*
X224845238Y-81273809D01*
X224869047Y-81321428D01*
X224892857Y-81416666D01*
X224892857Y-81535714D01*
X224869047Y-81630952D01*
X224845238Y-81678571D01*
X224821428Y-81702380D01*
X224773809Y-81726190D01*
X224726190Y-81726190D01*
X224678571Y-81702380D01*
X224654761Y-81678571D01*
X224630952Y-81630952D01*
X224607142Y-81535714D01*
X224607142Y-81416666D01*
X224630952Y-81321428D01*
X224654761Y-81273809D01*
X224678571Y-81250000D01*
X224726190Y-81226190D01*
X225321428Y-81392857D02*
X225321428Y-81726190D01*
X225202380Y-81202380D02*
X225083333Y-81559523D01*
X225392857Y-81559523D01*
%TD*%
M02*
