M48
; DRILL file {KiCad (5.1.12-1-10_14)} date Tuesday, February 15, 2022 at 12:54:34 PM
; FORMAT={-:-/ absolute / metric / decimal}
; #@! TF.CreationDate,2022-02-15T12:54:34-08:00
; #@! TF.GenerationSoftware,Kicad,Pcbnew,(5.1.12-1-10_14)
; #@! TF.FileFunction,Plated,1,4,PTH
FMAT,2
METRIC
T1C0.200
T2C0.300
T3C0.400
T4C2.500
%
G90
G05
T1
X220.95Y-85.95
X220.95Y-87.0
X220.95Y-88.05
X222.0Y-85.95
X222.0Y-87.0
X222.0Y-88.05
X223.05Y-85.95
X223.05Y-87.0
X223.05Y-88.05
T2
X231.25Y-86.0
X231.25Y-87.0
X232.0Y-86.5
X232.75Y-86.0
X232.75Y-87.0
T3
X211.55Y-80.75
X211.74Y-89.59
X211.808Y-86.182
X213.4Y-94.5
X214.4Y-80.6
X215.45Y-86.25
X216.6Y-83.7
X216.725Y-89.95
X218.91Y-88.48
X219.642Y-92.358
X219.737Y-83.063
X219.8Y-90.1
X221.31Y-82.93
X221.4Y-99.0
X221.72Y-90.15
X221.77Y-94.72
X222.52Y-96.47
X222.7Y-80.25
X222.87Y-93.51
X223.375Y-99.895
X223.82Y-90.13
X223.9Y-97.82
X225.15Y-85.75
X225.36Y-87.25
X226.73Y-79.03
X227.015Y-91.385
X229.3Y-87.49
X230.11Y-84.96
X231.45Y-99.3
X231.5Y-89.16
X232.75Y-83.3
X233.175Y-89.375
X233.8Y-82.7
X234.69Y-89.18
X234.75Y-87.06
X235.37Y-85.85
X237.04Y-80.67
X237.095Y-89.265
X238.375Y-83.125
X239.41Y-95.8
X239.6Y-83.125
X240.8Y-84.84
X240.85Y-78.76
X240.905Y-90.665
X242.76Y-89.3
X242.76Y-90.77
X243.375Y-76.805
X244.03Y-85.92
X244.755Y-82.145
X245.87Y-76.61
X245.88Y-77.58
X245.9Y-84.05
X245.905Y-82.95
X247.18Y-76.48
X247.99Y-75.44
X248.02Y-92.48
X255.9Y-93.9
X255.95Y-90.3
T4
X213.0Y-74.0
X213.0Y-106.0
X255.0Y-74.0
X255.0Y-106.0
T0
M30
