%FSLAX45Y45*%
G04 Gerber Fmt 4.5, Leading zero omitted, Abs format (unit mm)*
G04 Created by KiCad (PCBNEW (5.1.12-1-10_14)) date 2022-02-15 12:54:34*
%MOMM*%
%LPD*%
G01*
G04 APERTURE LIST*
%TA.AperFunction,Profile*%
%ADD10C,0.100000*%
%TD*%
%ADD11C,0.200000*%
%ADD12C,0.300000*%
G04 APERTURE END LIST*
D10*
X25600000Y-7000000D02*
G75*
G02*
X25900000Y-7300000I0J-300000D01*
G01*
X25900000Y-10700000D02*
G75*
G02*
X25600000Y-11000000I-300000J0D01*
G01*
X21200000Y-11000000D02*
G75*
G02*
X20900000Y-10700000I0J300000D01*
G01*
X20900000Y-7300000D02*
G75*
G02*
X21200000Y-7000000I300000J0D01*
G01*
X20900000Y-10700000D02*
X20900000Y-7300000D01*
X25600000Y-11000000D02*
X21200000Y-11000000D01*
X25900000Y-7300000D02*
X25900000Y-10700000D01*
X21200000Y-7000000D02*
X25600000Y-7000000D01*
D11*
D12*
X21181428Y-11470714D02*
X21181428Y-11170714D01*
X21252857Y-11170714D01*
X21295714Y-11185000D01*
X21324286Y-11213571D01*
X21338571Y-11242143D01*
X21352857Y-11299286D01*
X21352857Y-11342143D01*
X21338571Y-11399286D01*
X21324286Y-11427857D01*
X21295714Y-11456429D01*
X21252857Y-11470714D01*
X21181428Y-11470714D01*
X21481428Y-11470714D02*
X21481428Y-11270714D01*
X21481428Y-11327857D02*
X21495714Y-11299286D01*
X21510000Y-11285000D01*
X21538571Y-11270714D01*
X21567143Y-11270714D01*
X21667143Y-11470714D02*
X21667143Y-11270714D01*
X21667143Y-11170714D02*
X21652857Y-11185000D01*
X21667143Y-11199286D01*
X21681428Y-11185000D01*
X21667143Y-11170714D01*
X21667143Y-11199286D01*
X21852857Y-11470714D02*
X21824286Y-11456429D01*
X21810000Y-11427857D01*
X21810000Y-11170714D01*
X22010000Y-11470714D02*
X21981428Y-11456429D01*
X21967143Y-11427857D01*
X21967143Y-11170714D01*
X22352857Y-11470714D02*
X22352857Y-11170714D01*
X22452857Y-11385000D01*
X22552857Y-11170714D01*
X22552857Y-11470714D01*
X22824286Y-11470714D02*
X22824286Y-11313571D01*
X22810000Y-11285000D01*
X22781428Y-11270714D01*
X22724286Y-11270714D01*
X22695714Y-11285000D01*
X22824286Y-11456429D02*
X22795714Y-11470714D01*
X22724286Y-11470714D01*
X22695714Y-11456429D01*
X22681428Y-11427857D01*
X22681428Y-11399286D01*
X22695714Y-11370714D01*
X22724286Y-11356429D01*
X22795714Y-11356429D01*
X22824286Y-11342143D01*
X22967143Y-11270714D02*
X22967143Y-11570714D01*
X22967143Y-11285000D02*
X22995714Y-11270714D01*
X23052857Y-11270714D01*
X23081428Y-11285000D01*
X23095714Y-11299286D01*
X23110000Y-11327857D01*
X23110000Y-11413571D01*
X23095714Y-11442143D01*
X23081428Y-11456429D01*
X23052857Y-11470714D01*
X22995714Y-11470714D01*
X22967143Y-11456429D01*
X23238571Y-11442143D02*
X23252857Y-11456429D01*
X23238571Y-11470714D01*
X23224286Y-11456429D01*
X23238571Y-11442143D01*
X23238571Y-11470714D01*
X23238571Y-11285000D02*
X23252857Y-11299286D01*
X23238571Y-11313571D01*
X23224286Y-11299286D01*
X23238571Y-11285000D01*
X23238571Y-11313571D01*
M02*
