%TF.GenerationSoftware,KiCad,Pcbnew,(5.1.12-1-10_14)*%
%TF.CreationDate,2022-02-15T12:54:36-08:00*%
%TF.ProjectId,g3_power,67335f70-6f77-4657-922e-6b696361645f,rev?*%
%TF.SameCoordinates,Original*%
%TF.FileFunction,Copper,L3,Inr*%
%TF.FilePolarity,Positive*%
%FSLAX46Y46*%
G04 Gerber Fmt 4.6, Leading zero omitted, Abs format (unit mm)*
G04 Created by KiCad (PCBNEW (5.1.12-1-10_14)) date 2022-02-15 12:54:36*
%MOMM*%
%LPD*%
G01*
G04 APERTURE LIST*
%TA.AperFunction,ComponentPad*%
%ADD10C,5.000000*%
%TD*%
%TA.AperFunction,ComponentPad*%
%ADD11C,0.300000*%
%TD*%
%TA.AperFunction,ComponentPad*%
%ADD12C,0.500000*%
%TD*%
%TA.AperFunction,ViaPad*%
%ADD13C,0.800000*%
%TD*%
%TA.AperFunction,Conductor*%
%ADD14C,0.254000*%
%TD*%
%TA.AperFunction,Conductor*%
%ADD15C,0.100000*%
%TD*%
G04 APERTURE END LIST*
D10*
%TO.N,Net-(H104-Pad1)*%
%TO.C,H104*%
X255000000Y-106000000D03*
%TD*%
%TO.N,Net-(H103-Pad1)*%
%TO.C,H103*%
X213000000Y-106000000D03*
%TD*%
%TO.N,Net-(H102-Pad1)*%
%TO.C,H102*%
X255000000Y-74000000D03*
%TD*%
%TO.N,Net-(H101-Pad1)*%
%TO.C,H101*%
X213000000Y-74000000D03*
%TD*%
D11*
%TO.N,GND*%
%TO.C,U102*%
X232750000Y-87000000D03*
X231250000Y-86000000D03*
X232750000Y-86000000D03*
X231250000Y-87000000D03*
X232000000Y-86500000D03*
%TD*%
D12*
%TO.N,GND*%
%TO.C,U101*%
X223050000Y-88050000D03*
X222000000Y-88050000D03*
X220950000Y-88050000D03*
X223050000Y-87000000D03*
X222000000Y-87000000D03*
X220950000Y-87000000D03*
X223050000Y-85950000D03*
X222000000Y-85950000D03*
X220950000Y-85950000D03*
%TD*%
D13*
%TO.N,GND*%
X245870000Y-76610000D03*
X245880000Y-77580000D03*
X240800000Y-84840000D03*
X229300000Y-87490000D03*
X245905000Y-82950000D03*
X225150000Y-85750000D03*
X234750000Y-87060000D03*
X223375000Y-99895000D03*
X239410000Y-95800000D03*
X216600000Y-83700000D03*
X226730000Y-79030000D03*
X222700000Y-80250000D03*
X233800000Y-82700000D03*
X221770000Y-94720000D03*
X237095000Y-89265000D03*
X214400000Y-80600000D03*
X255900000Y-93900000D03*
X231450000Y-99300000D03*
X213400000Y-94500000D03*
X227015000Y-91385000D03*
X248020000Y-92480000D03*
%TO.N,CC_PIMD*%
X219736511Y-83063489D03*
%TO.N,V_REGN*%
X221310000Y-82930000D03*
X211807500Y-86182500D03*
X211740000Y-89590000D03*
X222870000Y-93510000D03*
X211550000Y-80750000D03*
%TO.N,CC_PWR_OUT*%
X215450000Y-86250000D03*
X219642500Y-92357500D03*
X225360000Y-87250000D03*
X230110000Y-84960000D03*
%TO.N,+5V*%
X247180000Y-76480000D03*
X247990000Y-75440000D03*
X240905000Y-90665000D03*
X245900000Y-84050000D03*
X232750000Y-83300000D03*
X233175000Y-89375000D03*
X244030000Y-85920000D03*
X255950000Y-90300000D03*
%TO.N,BOOST_VAUX*%
X231500000Y-89160000D03*
X235370000Y-85850000D03*
%TO.N,/BOOST_PS*%
X237040000Y-80670000D03*
X234690000Y-89180000D03*
%TO.N,/~CC_INT*%
X243375000Y-76805000D03*
X216725000Y-89950000D03*
%TO.N,/~CC_CE*%
X221720000Y-90150000D03*
X222520000Y-96470000D03*
X223900000Y-97820000D03*
X244755001Y-82144999D03*
%TO.N,/~CC_QON*%
X240850000Y-78760000D03*
%TO.N,Net-(JP3-Pad2)*%
X223820000Y-90130000D03*
X221400000Y-99000000D03*
%TO.N,/SCL*%
X218910000Y-88480000D03*
X242760000Y-90770000D03*
X239600000Y-83125000D03*
%TO.N,/SDA*%
X219800000Y-90100000D03*
X242760000Y-89300000D03*
X238375000Y-83125000D03*
%TD*%
D14*
%TO.N,CC_PWR_OUT*%
X215789870Y-84350506D02*
X215796063Y-84359774D01*
X215940226Y-84503937D01*
X216109744Y-84617205D01*
X216298102Y-84695226D01*
X216498061Y-84735000D01*
X216701939Y-84735000D01*
X216901898Y-84695226D01*
X217090256Y-84617205D01*
X217259774Y-84503937D01*
X217403937Y-84359774D01*
X217406058Y-84356599D01*
X225469521Y-84386999D01*
X225470000Y-84387000D01*
X226809528Y-84387000D01*
X230542666Y-84416014D01*
X230539368Y-85664313D01*
X230495167Y-85771024D01*
X230465000Y-85922684D01*
X230465000Y-86077316D01*
X230495167Y-86228976D01*
X230537605Y-86331432D01*
X230536709Y-86670733D01*
X230495167Y-86771024D01*
X230465000Y-86922684D01*
X230465000Y-87077316D01*
X230495167Y-87228976D01*
X230534980Y-87325094D01*
X230531098Y-88794551D01*
X230504774Y-88858102D01*
X230465000Y-89058061D01*
X230465000Y-89261939D01*
X230504774Y-89461898D01*
X230529179Y-89520817D01*
X230523339Y-91731330D01*
X228361664Y-91703011D01*
X228359469Y-91703001D01*
X228002938Y-91704493D01*
X228010226Y-91686898D01*
X228050000Y-91486939D01*
X228050000Y-91283061D01*
X228010226Y-91083102D01*
X227932205Y-90894744D01*
X227818937Y-90725226D01*
X227674774Y-90581063D01*
X227505256Y-90467795D01*
X227316898Y-90389774D01*
X227116939Y-90350000D01*
X226913061Y-90350000D01*
X226713102Y-90389774D01*
X226524744Y-90467795D01*
X226355226Y-90581063D01*
X226211063Y-90725226D01*
X226097795Y-90894744D01*
X226019774Y-91083102D01*
X225980000Y-91283061D01*
X225980000Y-91486939D01*
X226019774Y-91686898D01*
X226030481Y-91712746D01*
X225969965Y-91712999D01*
X220850496Y-91693001D01*
X220825710Y-91695344D01*
X220801858Y-91702478D01*
X220779856Y-91714129D01*
X220760549Y-91729847D01*
X220744680Y-91749031D01*
X220732858Y-91770941D01*
X220725538Y-91794737D01*
X220723005Y-91818856D01*
X220714139Y-92803000D01*
X218634776Y-92803000D01*
X217934686Y-89185867D01*
X217927582Y-89162006D01*
X217915960Y-89139989D01*
X217900265Y-89120662D01*
X217881102Y-89104769D01*
X217859206Y-89092920D01*
X217835419Y-89085570D01*
X217810000Y-89083000D01*
X217290393Y-89083000D01*
X217215256Y-89032795D01*
X217026898Y-88954774D01*
X216826939Y-88915000D01*
X216623061Y-88915000D01*
X216423102Y-88954774D01*
X216234744Y-89032795D01*
X216159607Y-89083000D01*
X215074730Y-89083000D01*
X215062016Y-88378061D01*
X217875000Y-88378061D01*
X217875000Y-88581939D01*
X217914774Y-88781898D01*
X217992795Y-88970256D01*
X218106063Y-89139774D01*
X218250226Y-89283937D01*
X218419744Y-89397205D01*
X218608102Y-89475226D01*
X218808061Y-89515000D01*
X218946101Y-89515000D01*
X218882795Y-89609744D01*
X218804774Y-89798102D01*
X218765000Y-89998061D01*
X218765000Y-90201939D01*
X218804774Y-90401898D01*
X218882795Y-90590256D01*
X218996063Y-90759774D01*
X219140226Y-90903937D01*
X219309744Y-91017205D01*
X219498102Y-91095226D01*
X219698061Y-91135000D01*
X219901939Y-91135000D01*
X220101898Y-91095226D01*
X220290256Y-91017205D01*
X220459774Y-90903937D01*
X220603937Y-90759774D01*
X220717205Y-90590256D01*
X220749645Y-90511940D01*
X220802795Y-90640256D01*
X220916063Y-90809774D01*
X221060226Y-90953937D01*
X221229744Y-91067205D01*
X221418102Y-91145226D01*
X221618061Y-91185000D01*
X221821939Y-91185000D01*
X222021898Y-91145226D01*
X222210256Y-91067205D01*
X222379774Y-90953937D01*
X222523937Y-90809774D01*
X222637205Y-90640256D01*
X222715226Y-90451898D01*
X222755000Y-90251939D01*
X222755000Y-90048061D01*
X222751022Y-90028061D01*
X222785000Y-90028061D01*
X222785000Y-90231939D01*
X222824774Y-90431898D01*
X222902795Y-90620256D01*
X223016063Y-90789774D01*
X223160226Y-90933937D01*
X223329744Y-91047205D01*
X223518102Y-91125226D01*
X223718061Y-91165000D01*
X223921939Y-91165000D01*
X224121898Y-91125226D01*
X224310256Y-91047205D01*
X224479774Y-90933937D01*
X224623937Y-90789774D01*
X224737205Y-90620256D01*
X224815226Y-90431898D01*
X224855000Y-90231939D01*
X224855000Y-90028061D01*
X224815226Y-89828102D01*
X224737205Y-89639744D01*
X224623937Y-89470226D01*
X224479774Y-89326063D01*
X224310256Y-89212795D01*
X224121898Y-89134774D01*
X223921939Y-89095000D01*
X223718061Y-89095000D01*
X223518102Y-89134774D01*
X223329744Y-89212795D01*
X223160226Y-89326063D01*
X223016063Y-89470226D01*
X222902795Y-89639744D01*
X222824774Y-89828102D01*
X222785000Y-90028061D01*
X222751022Y-90028061D01*
X222715226Y-89848102D01*
X222637205Y-89659744D01*
X222523937Y-89490226D01*
X222379774Y-89346063D01*
X222210256Y-89232795D01*
X222021898Y-89154774D01*
X221821939Y-89115000D01*
X221618061Y-89115000D01*
X221418102Y-89154774D01*
X221229744Y-89232795D01*
X221060226Y-89346063D01*
X220916063Y-89490226D01*
X220802795Y-89659744D01*
X220770355Y-89738060D01*
X220717205Y-89609744D01*
X220603937Y-89440226D01*
X220459774Y-89296063D01*
X220290256Y-89182795D01*
X220101898Y-89104774D01*
X219901939Y-89065000D01*
X219763899Y-89065000D01*
X219827205Y-88970256D01*
X219905226Y-88781898D01*
X219945000Y-88581939D01*
X219945000Y-88378061D01*
X219905226Y-88178102D01*
X219827205Y-87989744D01*
X219713937Y-87820226D01*
X219569774Y-87676063D01*
X219400256Y-87562795D01*
X219211898Y-87484774D01*
X219011939Y-87445000D01*
X218808061Y-87445000D01*
X218608102Y-87484774D01*
X218419744Y-87562795D01*
X218250226Y-87676063D01*
X218106063Y-87820226D01*
X217992795Y-87989744D01*
X217914774Y-88178102D01*
X217875000Y-88378061D01*
X215062016Y-88378061D01*
X215016652Y-85862835D01*
X220065000Y-85862835D01*
X220065000Y-86037165D01*
X220099010Y-86208145D01*
X220165723Y-86369205D01*
X220236413Y-86475000D01*
X220165723Y-86580795D01*
X220099010Y-86741855D01*
X220065000Y-86912835D01*
X220065000Y-87087165D01*
X220099010Y-87258145D01*
X220165723Y-87419205D01*
X220236413Y-87525000D01*
X220165723Y-87630795D01*
X220099010Y-87791855D01*
X220065000Y-87962835D01*
X220065000Y-88137165D01*
X220099010Y-88308145D01*
X220165723Y-88469205D01*
X220262576Y-88614155D01*
X220385845Y-88737424D01*
X220530795Y-88834277D01*
X220691855Y-88900990D01*
X220862835Y-88935000D01*
X221037165Y-88935000D01*
X221208145Y-88900990D01*
X221369205Y-88834277D01*
X221475000Y-88763587D01*
X221580795Y-88834277D01*
X221741855Y-88900990D01*
X221912835Y-88935000D01*
X222087165Y-88935000D01*
X222258145Y-88900990D01*
X222419205Y-88834277D01*
X222525000Y-88763587D01*
X222630795Y-88834277D01*
X222791855Y-88900990D01*
X222962835Y-88935000D01*
X223137165Y-88935000D01*
X223308145Y-88900990D01*
X223469205Y-88834277D01*
X223614155Y-88737424D01*
X223737424Y-88614155D01*
X223834277Y-88469205D01*
X223900990Y-88308145D01*
X223935000Y-88137165D01*
X223935000Y-87962835D01*
X223900990Y-87791855D01*
X223834277Y-87630795D01*
X223763587Y-87525000D01*
X223834277Y-87419205D01*
X223847177Y-87388061D01*
X228265000Y-87388061D01*
X228265000Y-87591939D01*
X228304774Y-87791898D01*
X228382795Y-87980256D01*
X228496063Y-88149774D01*
X228640226Y-88293937D01*
X228809744Y-88407205D01*
X228998102Y-88485226D01*
X229198061Y-88525000D01*
X229401939Y-88525000D01*
X229601898Y-88485226D01*
X229790256Y-88407205D01*
X229959774Y-88293937D01*
X230103937Y-88149774D01*
X230217205Y-87980256D01*
X230295226Y-87791898D01*
X230335000Y-87591939D01*
X230335000Y-87388061D01*
X230295226Y-87188102D01*
X230217205Y-86999744D01*
X230103937Y-86830226D01*
X229959774Y-86686063D01*
X229790256Y-86572795D01*
X229601898Y-86494774D01*
X229401939Y-86455000D01*
X229198061Y-86455000D01*
X228998102Y-86494774D01*
X228809744Y-86572795D01*
X228640226Y-86686063D01*
X228496063Y-86830226D01*
X228382795Y-86999744D01*
X228304774Y-87188102D01*
X228265000Y-87388061D01*
X223847177Y-87388061D01*
X223900990Y-87258145D01*
X223935000Y-87087165D01*
X223935000Y-86912835D01*
X223900990Y-86741855D01*
X223834277Y-86580795D01*
X223763587Y-86475000D01*
X223834277Y-86369205D01*
X223900990Y-86208145D01*
X223935000Y-86037165D01*
X223935000Y-85862835D01*
X223900990Y-85691855D01*
X223882850Y-85648061D01*
X224115000Y-85648061D01*
X224115000Y-85851939D01*
X224154774Y-86051898D01*
X224232795Y-86240256D01*
X224346063Y-86409774D01*
X224490226Y-86553937D01*
X224659744Y-86667205D01*
X224848102Y-86745226D01*
X225048061Y-86785000D01*
X225251939Y-86785000D01*
X225451898Y-86745226D01*
X225640256Y-86667205D01*
X225809774Y-86553937D01*
X225953937Y-86409774D01*
X226067205Y-86240256D01*
X226145226Y-86051898D01*
X226185000Y-85851939D01*
X226185000Y-85648061D01*
X226145226Y-85448102D01*
X226067205Y-85259744D01*
X225953937Y-85090226D01*
X225809774Y-84946063D01*
X225640256Y-84832795D01*
X225451898Y-84754774D01*
X225251939Y-84715000D01*
X225048061Y-84715000D01*
X224848102Y-84754774D01*
X224659744Y-84832795D01*
X224490226Y-84946063D01*
X224346063Y-85090226D01*
X224232795Y-85259744D01*
X224154774Y-85448102D01*
X224115000Y-85648061D01*
X223882850Y-85648061D01*
X223834277Y-85530795D01*
X223737424Y-85385845D01*
X223614155Y-85262576D01*
X223469205Y-85165723D01*
X223308145Y-85099010D01*
X223137165Y-85065000D01*
X222962835Y-85065000D01*
X222791855Y-85099010D01*
X222630795Y-85165723D01*
X222525000Y-85236413D01*
X222419205Y-85165723D01*
X222258145Y-85099010D01*
X222087165Y-85065000D01*
X221912835Y-85065000D01*
X221741855Y-85099010D01*
X221580795Y-85165723D01*
X221475000Y-85236413D01*
X221369205Y-85165723D01*
X221208145Y-85099010D01*
X221037165Y-85065000D01*
X220862835Y-85065000D01*
X220691855Y-85099010D01*
X220530795Y-85165723D01*
X220385845Y-85262576D01*
X220262576Y-85385845D01*
X220165723Y-85530795D01*
X220099010Y-85691855D01*
X220065000Y-85862835D01*
X215016652Y-85862835D01*
X214989320Y-84347488D01*
X215789870Y-84350506D01*
%TA.AperFunction,Conductor*%
D15*
G36*
X215789870Y-84350506D02*
G01*
X215796063Y-84359774D01*
X215940226Y-84503937D01*
X216109744Y-84617205D01*
X216298102Y-84695226D01*
X216498061Y-84735000D01*
X216701939Y-84735000D01*
X216901898Y-84695226D01*
X217090256Y-84617205D01*
X217259774Y-84503937D01*
X217403937Y-84359774D01*
X217406058Y-84356599D01*
X225469521Y-84386999D01*
X225470000Y-84387000D01*
X226809528Y-84387000D01*
X230542666Y-84416014D01*
X230539368Y-85664313D01*
X230495167Y-85771024D01*
X230465000Y-85922684D01*
X230465000Y-86077316D01*
X230495167Y-86228976D01*
X230537605Y-86331432D01*
X230536709Y-86670733D01*
X230495167Y-86771024D01*
X230465000Y-86922684D01*
X230465000Y-87077316D01*
X230495167Y-87228976D01*
X230534980Y-87325094D01*
X230531098Y-88794551D01*
X230504774Y-88858102D01*
X230465000Y-89058061D01*
X230465000Y-89261939D01*
X230504774Y-89461898D01*
X230529179Y-89520817D01*
X230523339Y-91731330D01*
X228361664Y-91703011D01*
X228359469Y-91703001D01*
X228002938Y-91704493D01*
X228010226Y-91686898D01*
X228050000Y-91486939D01*
X228050000Y-91283061D01*
X228010226Y-91083102D01*
X227932205Y-90894744D01*
X227818937Y-90725226D01*
X227674774Y-90581063D01*
X227505256Y-90467795D01*
X227316898Y-90389774D01*
X227116939Y-90350000D01*
X226913061Y-90350000D01*
X226713102Y-90389774D01*
X226524744Y-90467795D01*
X226355226Y-90581063D01*
X226211063Y-90725226D01*
X226097795Y-90894744D01*
X226019774Y-91083102D01*
X225980000Y-91283061D01*
X225980000Y-91486939D01*
X226019774Y-91686898D01*
X226030481Y-91712746D01*
X225969965Y-91712999D01*
X220850496Y-91693001D01*
X220825710Y-91695344D01*
X220801858Y-91702478D01*
X220779856Y-91714129D01*
X220760549Y-91729847D01*
X220744680Y-91749031D01*
X220732858Y-91770941D01*
X220725538Y-91794737D01*
X220723005Y-91818856D01*
X220714139Y-92803000D01*
X218634776Y-92803000D01*
X217934686Y-89185867D01*
X217927582Y-89162006D01*
X217915960Y-89139989D01*
X217900265Y-89120662D01*
X217881102Y-89104769D01*
X217859206Y-89092920D01*
X217835419Y-89085570D01*
X217810000Y-89083000D01*
X217290393Y-89083000D01*
X217215256Y-89032795D01*
X217026898Y-88954774D01*
X216826939Y-88915000D01*
X216623061Y-88915000D01*
X216423102Y-88954774D01*
X216234744Y-89032795D01*
X216159607Y-89083000D01*
X215074730Y-89083000D01*
X215062016Y-88378061D01*
X217875000Y-88378061D01*
X217875000Y-88581939D01*
X217914774Y-88781898D01*
X217992795Y-88970256D01*
X218106063Y-89139774D01*
X218250226Y-89283937D01*
X218419744Y-89397205D01*
X218608102Y-89475226D01*
X218808061Y-89515000D01*
X218946101Y-89515000D01*
X218882795Y-89609744D01*
X218804774Y-89798102D01*
X218765000Y-89998061D01*
X218765000Y-90201939D01*
X218804774Y-90401898D01*
X218882795Y-90590256D01*
X218996063Y-90759774D01*
X219140226Y-90903937D01*
X219309744Y-91017205D01*
X219498102Y-91095226D01*
X219698061Y-91135000D01*
X219901939Y-91135000D01*
X220101898Y-91095226D01*
X220290256Y-91017205D01*
X220459774Y-90903937D01*
X220603937Y-90759774D01*
X220717205Y-90590256D01*
X220749645Y-90511940D01*
X220802795Y-90640256D01*
X220916063Y-90809774D01*
X221060226Y-90953937D01*
X221229744Y-91067205D01*
X221418102Y-91145226D01*
X221618061Y-91185000D01*
X221821939Y-91185000D01*
X222021898Y-91145226D01*
X222210256Y-91067205D01*
X222379774Y-90953937D01*
X222523937Y-90809774D01*
X222637205Y-90640256D01*
X222715226Y-90451898D01*
X222755000Y-90251939D01*
X222755000Y-90048061D01*
X222751022Y-90028061D01*
X222785000Y-90028061D01*
X222785000Y-90231939D01*
X222824774Y-90431898D01*
X222902795Y-90620256D01*
X223016063Y-90789774D01*
X223160226Y-90933937D01*
X223329744Y-91047205D01*
X223518102Y-91125226D01*
X223718061Y-91165000D01*
X223921939Y-91165000D01*
X224121898Y-91125226D01*
X224310256Y-91047205D01*
X224479774Y-90933937D01*
X224623937Y-90789774D01*
X224737205Y-90620256D01*
X224815226Y-90431898D01*
X224855000Y-90231939D01*
X224855000Y-90028061D01*
X224815226Y-89828102D01*
X224737205Y-89639744D01*
X224623937Y-89470226D01*
X224479774Y-89326063D01*
X224310256Y-89212795D01*
X224121898Y-89134774D01*
X223921939Y-89095000D01*
X223718061Y-89095000D01*
X223518102Y-89134774D01*
X223329744Y-89212795D01*
X223160226Y-89326063D01*
X223016063Y-89470226D01*
X222902795Y-89639744D01*
X222824774Y-89828102D01*
X222785000Y-90028061D01*
X222751022Y-90028061D01*
X222715226Y-89848102D01*
X222637205Y-89659744D01*
X222523937Y-89490226D01*
X222379774Y-89346063D01*
X222210256Y-89232795D01*
X222021898Y-89154774D01*
X221821939Y-89115000D01*
X221618061Y-89115000D01*
X221418102Y-89154774D01*
X221229744Y-89232795D01*
X221060226Y-89346063D01*
X220916063Y-89490226D01*
X220802795Y-89659744D01*
X220770355Y-89738060D01*
X220717205Y-89609744D01*
X220603937Y-89440226D01*
X220459774Y-89296063D01*
X220290256Y-89182795D01*
X220101898Y-89104774D01*
X219901939Y-89065000D01*
X219763899Y-89065000D01*
X219827205Y-88970256D01*
X219905226Y-88781898D01*
X219945000Y-88581939D01*
X219945000Y-88378061D01*
X219905226Y-88178102D01*
X219827205Y-87989744D01*
X219713937Y-87820226D01*
X219569774Y-87676063D01*
X219400256Y-87562795D01*
X219211898Y-87484774D01*
X219011939Y-87445000D01*
X218808061Y-87445000D01*
X218608102Y-87484774D01*
X218419744Y-87562795D01*
X218250226Y-87676063D01*
X218106063Y-87820226D01*
X217992795Y-87989744D01*
X217914774Y-88178102D01*
X217875000Y-88378061D01*
X215062016Y-88378061D01*
X215016652Y-85862835D01*
X220065000Y-85862835D01*
X220065000Y-86037165D01*
X220099010Y-86208145D01*
X220165723Y-86369205D01*
X220236413Y-86475000D01*
X220165723Y-86580795D01*
X220099010Y-86741855D01*
X220065000Y-86912835D01*
X220065000Y-87087165D01*
X220099010Y-87258145D01*
X220165723Y-87419205D01*
X220236413Y-87525000D01*
X220165723Y-87630795D01*
X220099010Y-87791855D01*
X220065000Y-87962835D01*
X220065000Y-88137165D01*
X220099010Y-88308145D01*
X220165723Y-88469205D01*
X220262576Y-88614155D01*
X220385845Y-88737424D01*
X220530795Y-88834277D01*
X220691855Y-88900990D01*
X220862835Y-88935000D01*
X221037165Y-88935000D01*
X221208145Y-88900990D01*
X221369205Y-88834277D01*
X221475000Y-88763587D01*
X221580795Y-88834277D01*
X221741855Y-88900990D01*
X221912835Y-88935000D01*
X222087165Y-88935000D01*
X222258145Y-88900990D01*
X222419205Y-88834277D01*
X222525000Y-88763587D01*
X222630795Y-88834277D01*
X222791855Y-88900990D01*
X222962835Y-88935000D01*
X223137165Y-88935000D01*
X223308145Y-88900990D01*
X223469205Y-88834277D01*
X223614155Y-88737424D01*
X223737424Y-88614155D01*
X223834277Y-88469205D01*
X223900990Y-88308145D01*
X223935000Y-88137165D01*
X223935000Y-87962835D01*
X223900990Y-87791855D01*
X223834277Y-87630795D01*
X223763587Y-87525000D01*
X223834277Y-87419205D01*
X223847177Y-87388061D01*
X228265000Y-87388061D01*
X228265000Y-87591939D01*
X228304774Y-87791898D01*
X228382795Y-87980256D01*
X228496063Y-88149774D01*
X228640226Y-88293937D01*
X228809744Y-88407205D01*
X228998102Y-88485226D01*
X229198061Y-88525000D01*
X229401939Y-88525000D01*
X229601898Y-88485226D01*
X229790256Y-88407205D01*
X229959774Y-88293937D01*
X230103937Y-88149774D01*
X230217205Y-87980256D01*
X230295226Y-87791898D01*
X230335000Y-87591939D01*
X230335000Y-87388061D01*
X230295226Y-87188102D01*
X230217205Y-86999744D01*
X230103937Y-86830226D01*
X229959774Y-86686063D01*
X229790256Y-86572795D01*
X229601898Y-86494774D01*
X229401939Y-86455000D01*
X229198061Y-86455000D01*
X228998102Y-86494774D01*
X228809744Y-86572795D01*
X228640226Y-86686063D01*
X228496063Y-86830226D01*
X228382795Y-86999744D01*
X228304774Y-87188102D01*
X228265000Y-87388061D01*
X223847177Y-87388061D01*
X223900990Y-87258145D01*
X223935000Y-87087165D01*
X223935000Y-86912835D01*
X223900990Y-86741855D01*
X223834277Y-86580795D01*
X223763587Y-86475000D01*
X223834277Y-86369205D01*
X223900990Y-86208145D01*
X223935000Y-86037165D01*
X223935000Y-85862835D01*
X223900990Y-85691855D01*
X223882850Y-85648061D01*
X224115000Y-85648061D01*
X224115000Y-85851939D01*
X224154774Y-86051898D01*
X224232795Y-86240256D01*
X224346063Y-86409774D01*
X224490226Y-86553937D01*
X224659744Y-86667205D01*
X224848102Y-86745226D01*
X225048061Y-86785000D01*
X225251939Y-86785000D01*
X225451898Y-86745226D01*
X225640256Y-86667205D01*
X225809774Y-86553937D01*
X225953937Y-86409774D01*
X226067205Y-86240256D01*
X226145226Y-86051898D01*
X226185000Y-85851939D01*
X226185000Y-85648061D01*
X226145226Y-85448102D01*
X226067205Y-85259744D01*
X225953937Y-85090226D01*
X225809774Y-84946063D01*
X225640256Y-84832795D01*
X225451898Y-84754774D01*
X225251939Y-84715000D01*
X225048061Y-84715000D01*
X224848102Y-84754774D01*
X224659744Y-84832795D01*
X224490226Y-84946063D01*
X224346063Y-85090226D01*
X224232795Y-85259744D01*
X224154774Y-85448102D01*
X224115000Y-85648061D01*
X223882850Y-85648061D01*
X223834277Y-85530795D01*
X223737424Y-85385845D01*
X223614155Y-85262576D01*
X223469205Y-85165723D01*
X223308145Y-85099010D01*
X223137165Y-85065000D01*
X222962835Y-85065000D01*
X222791855Y-85099010D01*
X222630795Y-85165723D01*
X222525000Y-85236413D01*
X222419205Y-85165723D01*
X222258145Y-85099010D01*
X222087165Y-85065000D01*
X221912835Y-85065000D01*
X221741855Y-85099010D01*
X221580795Y-85165723D01*
X221475000Y-85236413D01*
X221369205Y-85165723D01*
X221208145Y-85099010D01*
X221037165Y-85065000D01*
X220862835Y-85065000D01*
X220691855Y-85099010D01*
X220530795Y-85165723D01*
X220385845Y-85262576D01*
X220262576Y-85385845D01*
X220165723Y-85530795D01*
X220099010Y-85691855D01*
X220065000Y-85862835D01*
X215016652Y-85862835D01*
X214989320Y-84347488D01*
X215789870Y-84350506D01*
G37*
%TD.AperFunction*%
%TD*%
D14*
%TO.N,V_REGN*%
X230853000Y-83685111D02*
X230798719Y-83668183D01*
X230674935Y-83655019D01*
X226814935Y-83625019D01*
X226810000Y-83625000D01*
X225471068Y-83625000D01*
X220618329Y-83606705D01*
X220653716Y-83553745D01*
X220731737Y-83365387D01*
X220771511Y-83165428D01*
X220771511Y-82961550D01*
X220731737Y-82761591D01*
X220653716Y-82573233D01*
X220540448Y-82403715D01*
X220396285Y-82259552D01*
X220226767Y-82146284D01*
X220038409Y-82068263D01*
X219838450Y-82028489D01*
X219634572Y-82028489D01*
X219434613Y-82068263D01*
X219246255Y-82146284D01*
X219076737Y-82259552D01*
X218932574Y-82403715D01*
X218819306Y-82573233D01*
X218741285Y-82761591D01*
X218701511Y-82961550D01*
X218701511Y-83165428D01*
X218741285Y-83365387D01*
X218819306Y-83553745D01*
X218850239Y-83600039D01*
X217634482Y-83595456D01*
X217595226Y-83398102D01*
X217517205Y-83209744D01*
X217403937Y-83040226D01*
X217259774Y-82896063D01*
X217090256Y-82782795D01*
X216901898Y-82704774D01*
X216701939Y-82665000D01*
X216498061Y-82665000D01*
X216298102Y-82704774D01*
X216109744Y-82782795D01*
X215940226Y-82896063D01*
X215796063Y-83040226D01*
X215682795Y-83209744D01*
X215604774Y-83398102D01*
X215567069Y-83587662D01*
X214862394Y-83585005D01*
X214724907Y-83599537D01*
X214606456Y-83637814D01*
X214497749Y-83698465D01*
X214402963Y-83779157D01*
X214325741Y-83876791D01*
X214269050Y-83987615D01*
X214235069Y-84107369D01*
X214225103Y-84231451D01*
X214315103Y-89221451D01*
X214327201Y-89333882D01*
X214363336Y-89453004D01*
X214422017Y-89562787D01*
X214500987Y-89659013D01*
X214597213Y-89737983D01*
X214706996Y-89796664D01*
X214826118Y-89832799D01*
X214950000Y-89845000D01*
X215690609Y-89845000D01*
X215690000Y-89848061D01*
X215690000Y-90051939D01*
X215729774Y-90251898D01*
X215807795Y-90440256D01*
X215921063Y-90609774D01*
X216065226Y-90753937D01*
X216234744Y-90867205D01*
X216423102Y-90945226D01*
X216623061Y-90985000D01*
X216826939Y-90985000D01*
X217026898Y-90945226D01*
X217215256Y-90867205D01*
X217384774Y-90753937D01*
X217449512Y-90689199D01*
X217906570Y-93050664D01*
X217943336Y-93173004D01*
X218002017Y-93282787D01*
X218080987Y-93379013D01*
X218177213Y-93457983D01*
X218286996Y-93516664D01*
X218406118Y-93552799D01*
X218530000Y-93565000D01*
X220840000Y-93565000D01*
X220958267Y-93553889D01*
X221077709Y-93518829D01*
X221188016Y-93461140D01*
X221284950Y-93383040D01*
X221364784Y-93287529D01*
X221424451Y-93178279D01*
X221461657Y-93059488D01*
X221474974Y-92935720D01*
X221479283Y-92457463D01*
X225967520Y-92474995D01*
X225972657Y-92474994D01*
X228357116Y-92465017D01*
X230641682Y-92494946D01*
X230772236Y-92483124D01*
X230853000Y-92458857D01*
X230853000Y-98454119D01*
X230790226Y-98496063D01*
X230646063Y-98640226D01*
X230532795Y-98809744D01*
X230454774Y-98998102D01*
X230415000Y-99198061D01*
X230415000Y-99401939D01*
X230454774Y-99601898D01*
X230532795Y-99790256D01*
X230646063Y-99959774D01*
X230790226Y-100103937D01*
X230853000Y-100145881D01*
X230853000Y-109315000D01*
X212033504Y-109315000D01*
X211550984Y-109267688D01*
X211119073Y-109137287D01*
X210720720Y-108925480D01*
X210371086Y-108640325D01*
X210083503Y-108292697D01*
X209868915Y-107895825D01*
X209735500Y-107464834D01*
X209685000Y-106984346D01*
X209685000Y-105691229D01*
X209865000Y-105691229D01*
X209865000Y-106308771D01*
X209985476Y-106914446D01*
X210221799Y-107484979D01*
X210564886Y-107998446D01*
X211001554Y-108435114D01*
X211515021Y-108778201D01*
X212085554Y-109014524D01*
X212691229Y-109135000D01*
X213308771Y-109135000D01*
X213914446Y-109014524D01*
X214484979Y-108778201D01*
X214998446Y-108435114D01*
X215435114Y-107998446D01*
X215778201Y-107484979D01*
X216014524Y-106914446D01*
X216135000Y-106308771D01*
X216135000Y-105691229D01*
X216014524Y-105085554D01*
X215778201Y-104515021D01*
X215435114Y-104001554D01*
X214998446Y-103564886D01*
X214484979Y-103221799D01*
X213914446Y-102985476D01*
X213308771Y-102865000D01*
X212691229Y-102865000D01*
X212085554Y-102985476D01*
X211515021Y-103221799D01*
X211001554Y-103564886D01*
X210564886Y-104001554D01*
X210221799Y-104515021D01*
X209985476Y-105085554D01*
X209865000Y-105691229D01*
X209685000Y-105691229D01*
X209685000Y-98898061D01*
X220365000Y-98898061D01*
X220365000Y-99101939D01*
X220404774Y-99301898D01*
X220482795Y-99490256D01*
X220596063Y-99659774D01*
X220740226Y-99803937D01*
X220909744Y-99917205D01*
X221098102Y-99995226D01*
X221298061Y-100035000D01*
X221501939Y-100035000D01*
X221701898Y-99995226D01*
X221890256Y-99917205D01*
X222059774Y-99803937D01*
X222070650Y-99793061D01*
X222340000Y-99793061D01*
X222340000Y-99996939D01*
X222379774Y-100196898D01*
X222457795Y-100385256D01*
X222571063Y-100554774D01*
X222715226Y-100698937D01*
X222884744Y-100812205D01*
X223073102Y-100890226D01*
X223273061Y-100930000D01*
X223476939Y-100930000D01*
X223676898Y-100890226D01*
X223865256Y-100812205D01*
X224034774Y-100698937D01*
X224178937Y-100554774D01*
X224292205Y-100385256D01*
X224370226Y-100196898D01*
X224410000Y-99996939D01*
X224410000Y-99793061D01*
X224370226Y-99593102D01*
X224292205Y-99404744D01*
X224178937Y-99235226D01*
X224034774Y-99091063D01*
X223865256Y-98977795D01*
X223676898Y-98899774D01*
X223476939Y-98860000D01*
X223273061Y-98860000D01*
X223073102Y-98899774D01*
X222884744Y-98977795D01*
X222715226Y-99091063D01*
X222571063Y-99235226D01*
X222457795Y-99404744D01*
X222379774Y-99593102D01*
X222340000Y-99793061D01*
X222070650Y-99793061D01*
X222203937Y-99659774D01*
X222317205Y-99490256D01*
X222395226Y-99301898D01*
X222435000Y-99101939D01*
X222435000Y-98898061D01*
X222395226Y-98698102D01*
X222317205Y-98509744D01*
X222203937Y-98340226D01*
X222059774Y-98196063D01*
X221890256Y-98082795D01*
X221701898Y-98004774D01*
X221501939Y-97965000D01*
X221298061Y-97965000D01*
X221098102Y-98004774D01*
X220909744Y-98082795D01*
X220740226Y-98196063D01*
X220596063Y-98340226D01*
X220482795Y-98509744D01*
X220404774Y-98698102D01*
X220365000Y-98898061D01*
X209685000Y-98898061D01*
X209685000Y-94398061D01*
X212365000Y-94398061D01*
X212365000Y-94601939D01*
X212404774Y-94801898D01*
X212482795Y-94990256D01*
X212596063Y-95159774D01*
X212740226Y-95303937D01*
X212909744Y-95417205D01*
X213098102Y-95495226D01*
X213298061Y-95535000D01*
X213501939Y-95535000D01*
X213701898Y-95495226D01*
X213890256Y-95417205D01*
X214059774Y-95303937D01*
X214203937Y-95159774D01*
X214317205Y-94990256D01*
X214395226Y-94801898D01*
X214431793Y-94618061D01*
X220735000Y-94618061D01*
X220735000Y-94821939D01*
X220774774Y-95021898D01*
X220852795Y-95210256D01*
X220966063Y-95379774D01*
X221110226Y-95523937D01*
X221279744Y-95637205D01*
X221468102Y-95715226D01*
X221668061Y-95755000D01*
X221771289Y-95755000D01*
X221716063Y-95810226D01*
X221602795Y-95979744D01*
X221524774Y-96168102D01*
X221485000Y-96368061D01*
X221485000Y-96571939D01*
X221524774Y-96771898D01*
X221602795Y-96960256D01*
X221716063Y-97129774D01*
X221860226Y-97273937D01*
X222029744Y-97387205D01*
X222218102Y-97465226D01*
X222418061Y-97505000D01*
X222621939Y-97505000D01*
X222821898Y-97465226D01*
X222948377Y-97412836D01*
X222904774Y-97518102D01*
X222865000Y-97718061D01*
X222865000Y-97921939D01*
X222904774Y-98121898D01*
X222982795Y-98310256D01*
X223096063Y-98479774D01*
X223240226Y-98623937D01*
X223409744Y-98737205D01*
X223598102Y-98815226D01*
X223798061Y-98855000D01*
X224001939Y-98855000D01*
X224201898Y-98815226D01*
X224390256Y-98737205D01*
X224559774Y-98623937D01*
X224703937Y-98479774D01*
X224817205Y-98310256D01*
X224895226Y-98121898D01*
X224935000Y-97921939D01*
X224935000Y-97718061D01*
X224895226Y-97518102D01*
X224817205Y-97329744D01*
X224703937Y-97160226D01*
X224559774Y-97016063D01*
X224390256Y-96902795D01*
X224201898Y-96824774D01*
X224001939Y-96785000D01*
X223798061Y-96785000D01*
X223598102Y-96824774D01*
X223471623Y-96877164D01*
X223515226Y-96771898D01*
X223555000Y-96571939D01*
X223555000Y-96368061D01*
X223515226Y-96168102D01*
X223437205Y-95979744D01*
X223323937Y-95810226D01*
X223179774Y-95666063D01*
X223010256Y-95552795D01*
X222821898Y-95474774D01*
X222621939Y-95435000D01*
X222518711Y-95435000D01*
X222573937Y-95379774D01*
X222687205Y-95210256D01*
X222765226Y-95021898D01*
X222805000Y-94821939D01*
X222805000Y-94618061D01*
X222765226Y-94418102D01*
X222687205Y-94229744D01*
X222573937Y-94060226D01*
X222429774Y-93916063D01*
X222260256Y-93802795D01*
X222071898Y-93724774D01*
X221871939Y-93685000D01*
X221668061Y-93685000D01*
X221468102Y-93724774D01*
X221279744Y-93802795D01*
X221110226Y-93916063D01*
X220966063Y-94060226D01*
X220852795Y-94229744D01*
X220774774Y-94418102D01*
X220735000Y-94618061D01*
X214431793Y-94618061D01*
X214435000Y-94601939D01*
X214435000Y-94398061D01*
X214395226Y-94198102D01*
X214317205Y-94009744D01*
X214203937Y-93840226D01*
X214059774Y-93696063D01*
X213890256Y-93582795D01*
X213701898Y-93504774D01*
X213501939Y-93465000D01*
X213298061Y-93465000D01*
X213098102Y-93504774D01*
X212909744Y-93582795D01*
X212740226Y-93696063D01*
X212596063Y-93840226D01*
X212482795Y-94009744D01*
X212404774Y-94198102D01*
X212365000Y-94398061D01*
X209685000Y-94398061D01*
X209685000Y-80498061D01*
X213365000Y-80498061D01*
X213365000Y-80701939D01*
X213404774Y-80901898D01*
X213482795Y-81090256D01*
X213596063Y-81259774D01*
X213740226Y-81403937D01*
X213909744Y-81517205D01*
X214098102Y-81595226D01*
X214298061Y-81635000D01*
X214501939Y-81635000D01*
X214701898Y-81595226D01*
X214890256Y-81517205D01*
X215059774Y-81403937D01*
X215203937Y-81259774D01*
X215317205Y-81090256D01*
X215395226Y-80901898D01*
X215435000Y-80701939D01*
X215435000Y-80498061D01*
X215395226Y-80298102D01*
X215333077Y-80148061D01*
X221665000Y-80148061D01*
X221665000Y-80351939D01*
X221704774Y-80551898D01*
X221782795Y-80740256D01*
X221896063Y-80909774D01*
X222040226Y-81053937D01*
X222209744Y-81167205D01*
X222398102Y-81245226D01*
X222598061Y-81285000D01*
X222801939Y-81285000D01*
X223001898Y-81245226D01*
X223190256Y-81167205D01*
X223359774Y-81053937D01*
X223503937Y-80909774D01*
X223617205Y-80740256D01*
X223695226Y-80551898D01*
X223735000Y-80351939D01*
X223735000Y-80148061D01*
X223695226Y-79948102D01*
X223617205Y-79759744D01*
X223503937Y-79590226D01*
X223359774Y-79446063D01*
X223190256Y-79332795D01*
X223001898Y-79254774D01*
X222801939Y-79215000D01*
X222598061Y-79215000D01*
X222398102Y-79254774D01*
X222209744Y-79332795D01*
X222040226Y-79446063D01*
X221896063Y-79590226D01*
X221782795Y-79759744D01*
X221704774Y-79948102D01*
X221665000Y-80148061D01*
X215333077Y-80148061D01*
X215317205Y-80109744D01*
X215203937Y-79940226D01*
X215059774Y-79796063D01*
X214890256Y-79682795D01*
X214701898Y-79604774D01*
X214501939Y-79565000D01*
X214298061Y-79565000D01*
X214098102Y-79604774D01*
X213909744Y-79682795D01*
X213740226Y-79796063D01*
X213596063Y-79940226D01*
X213482795Y-80109744D01*
X213404774Y-80298102D01*
X213365000Y-80498061D01*
X209685000Y-80498061D01*
X209685000Y-78928061D01*
X225695000Y-78928061D01*
X225695000Y-79131939D01*
X225734774Y-79331898D01*
X225812795Y-79520256D01*
X225926063Y-79689774D01*
X226070226Y-79833937D01*
X226239744Y-79947205D01*
X226428102Y-80025226D01*
X226628061Y-80065000D01*
X226831939Y-80065000D01*
X227031898Y-80025226D01*
X227220256Y-79947205D01*
X227389774Y-79833937D01*
X227533937Y-79689774D01*
X227647205Y-79520256D01*
X227725226Y-79331898D01*
X227765000Y-79131939D01*
X227765000Y-78928061D01*
X227725226Y-78728102D01*
X227647205Y-78539744D01*
X227533937Y-78370226D01*
X227389774Y-78226063D01*
X227220256Y-78112795D01*
X227031898Y-78034774D01*
X226831939Y-77995000D01*
X226628061Y-77995000D01*
X226428102Y-78034774D01*
X226239744Y-78112795D01*
X226070226Y-78226063D01*
X225926063Y-78370226D01*
X225812795Y-78539744D01*
X225734774Y-78728102D01*
X225695000Y-78928061D01*
X209685000Y-78928061D01*
X209685000Y-73691229D01*
X209865000Y-73691229D01*
X209865000Y-74308771D01*
X209985476Y-74914446D01*
X210221799Y-75484979D01*
X210564886Y-75998446D01*
X211001554Y-76435114D01*
X211515021Y-76778201D01*
X212085554Y-77014524D01*
X212691229Y-77135000D01*
X213308771Y-77135000D01*
X213914446Y-77014524D01*
X214484979Y-76778201D01*
X214998446Y-76435114D01*
X215435114Y-75998446D01*
X215778201Y-75484979D01*
X216014524Y-74914446D01*
X216135000Y-74308771D01*
X216135000Y-73691229D01*
X216014524Y-73085554D01*
X215778201Y-72515021D01*
X215435114Y-72001554D01*
X214998446Y-71564886D01*
X214484979Y-71221799D01*
X213914446Y-70985476D01*
X213308771Y-70865000D01*
X212691229Y-70865000D01*
X212085554Y-70985476D01*
X211515021Y-71221799D01*
X211001554Y-71564886D01*
X210564886Y-72001554D01*
X210221799Y-72515021D01*
X209985476Y-73085554D01*
X209865000Y-73691229D01*
X209685000Y-73691229D01*
X209685000Y-73033505D01*
X209732312Y-72550984D01*
X209862714Y-72119070D01*
X210074524Y-71720715D01*
X210359675Y-71371086D01*
X210707303Y-71083503D01*
X211104177Y-70868914D01*
X211535161Y-70735502D01*
X212015654Y-70685000D01*
X230853000Y-70685000D01*
X230853000Y-83685111D01*
%TA.AperFunction,Conductor*%
D15*
G36*
X230853000Y-83685111D02*
G01*
X230798719Y-83668183D01*
X230674935Y-83655019D01*
X226814935Y-83625019D01*
X226810000Y-83625000D01*
X225471068Y-83625000D01*
X220618329Y-83606705D01*
X220653716Y-83553745D01*
X220731737Y-83365387D01*
X220771511Y-83165428D01*
X220771511Y-82961550D01*
X220731737Y-82761591D01*
X220653716Y-82573233D01*
X220540448Y-82403715D01*
X220396285Y-82259552D01*
X220226767Y-82146284D01*
X220038409Y-82068263D01*
X219838450Y-82028489D01*
X219634572Y-82028489D01*
X219434613Y-82068263D01*
X219246255Y-82146284D01*
X219076737Y-82259552D01*
X218932574Y-82403715D01*
X218819306Y-82573233D01*
X218741285Y-82761591D01*
X218701511Y-82961550D01*
X218701511Y-83165428D01*
X218741285Y-83365387D01*
X218819306Y-83553745D01*
X218850239Y-83600039D01*
X217634482Y-83595456D01*
X217595226Y-83398102D01*
X217517205Y-83209744D01*
X217403937Y-83040226D01*
X217259774Y-82896063D01*
X217090256Y-82782795D01*
X216901898Y-82704774D01*
X216701939Y-82665000D01*
X216498061Y-82665000D01*
X216298102Y-82704774D01*
X216109744Y-82782795D01*
X215940226Y-82896063D01*
X215796063Y-83040226D01*
X215682795Y-83209744D01*
X215604774Y-83398102D01*
X215567069Y-83587662D01*
X214862394Y-83585005D01*
X214724907Y-83599537D01*
X214606456Y-83637814D01*
X214497749Y-83698465D01*
X214402963Y-83779157D01*
X214325741Y-83876791D01*
X214269050Y-83987615D01*
X214235069Y-84107369D01*
X214225103Y-84231451D01*
X214315103Y-89221451D01*
X214327201Y-89333882D01*
X214363336Y-89453004D01*
X214422017Y-89562787D01*
X214500987Y-89659013D01*
X214597213Y-89737983D01*
X214706996Y-89796664D01*
X214826118Y-89832799D01*
X214950000Y-89845000D01*
X215690609Y-89845000D01*
X215690000Y-89848061D01*
X215690000Y-90051939D01*
X215729774Y-90251898D01*
X215807795Y-90440256D01*
X215921063Y-90609774D01*
X216065226Y-90753937D01*
X216234744Y-90867205D01*
X216423102Y-90945226D01*
X216623061Y-90985000D01*
X216826939Y-90985000D01*
X217026898Y-90945226D01*
X217215256Y-90867205D01*
X217384774Y-90753937D01*
X217449512Y-90689199D01*
X217906570Y-93050664D01*
X217943336Y-93173004D01*
X218002017Y-93282787D01*
X218080987Y-93379013D01*
X218177213Y-93457983D01*
X218286996Y-93516664D01*
X218406118Y-93552799D01*
X218530000Y-93565000D01*
X220840000Y-93565000D01*
X220958267Y-93553889D01*
X221077709Y-93518829D01*
X221188016Y-93461140D01*
X221284950Y-93383040D01*
X221364784Y-93287529D01*
X221424451Y-93178279D01*
X221461657Y-93059488D01*
X221474974Y-92935720D01*
X221479283Y-92457463D01*
X225967520Y-92474995D01*
X225972657Y-92474994D01*
X228357116Y-92465017D01*
X230641682Y-92494946D01*
X230772236Y-92483124D01*
X230853000Y-92458857D01*
X230853000Y-98454119D01*
X230790226Y-98496063D01*
X230646063Y-98640226D01*
X230532795Y-98809744D01*
X230454774Y-98998102D01*
X230415000Y-99198061D01*
X230415000Y-99401939D01*
X230454774Y-99601898D01*
X230532795Y-99790256D01*
X230646063Y-99959774D01*
X230790226Y-100103937D01*
X230853000Y-100145881D01*
X230853000Y-109315000D01*
X212033504Y-109315000D01*
X211550984Y-109267688D01*
X211119073Y-109137287D01*
X210720720Y-108925480D01*
X210371086Y-108640325D01*
X210083503Y-108292697D01*
X209868915Y-107895825D01*
X209735500Y-107464834D01*
X209685000Y-106984346D01*
X209685000Y-105691229D01*
X209865000Y-105691229D01*
X209865000Y-106308771D01*
X209985476Y-106914446D01*
X210221799Y-107484979D01*
X210564886Y-107998446D01*
X211001554Y-108435114D01*
X211515021Y-108778201D01*
X212085554Y-109014524D01*
X212691229Y-109135000D01*
X213308771Y-109135000D01*
X213914446Y-109014524D01*
X214484979Y-108778201D01*
X214998446Y-108435114D01*
X215435114Y-107998446D01*
X215778201Y-107484979D01*
X216014524Y-106914446D01*
X216135000Y-106308771D01*
X216135000Y-105691229D01*
X216014524Y-105085554D01*
X215778201Y-104515021D01*
X215435114Y-104001554D01*
X214998446Y-103564886D01*
X214484979Y-103221799D01*
X213914446Y-102985476D01*
X213308771Y-102865000D01*
X212691229Y-102865000D01*
X212085554Y-102985476D01*
X211515021Y-103221799D01*
X211001554Y-103564886D01*
X210564886Y-104001554D01*
X210221799Y-104515021D01*
X209985476Y-105085554D01*
X209865000Y-105691229D01*
X209685000Y-105691229D01*
X209685000Y-98898061D01*
X220365000Y-98898061D01*
X220365000Y-99101939D01*
X220404774Y-99301898D01*
X220482795Y-99490256D01*
X220596063Y-99659774D01*
X220740226Y-99803937D01*
X220909744Y-99917205D01*
X221098102Y-99995226D01*
X221298061Y-100035000D01*
X221501939Y-100035000D01*
X221701898Y-99995226D01*
X221890256Y-99917205D01*
X222059774Y-99803937D01*
X222070650Y-99793061D01*
X222340000Y-99793061D01*
X222340000Y-99996939D01*
X222379774Y-100196898D01*
X222457795Y-100385256D01*
X222571063Y-100554774D01*
X222715226Y-100698937D01*
X222884744Y-100812205D01*
X223073102Y-100890226D01*
X223273061Y-100930000D01*
X223476939Y-100930000D01*
X223676898Y-100890226D01*
X223865256Y-100812205D01*
X224034774Y-100698937D01*
X224178937Y-100554774D01*
X224292205Y-100385256D01*
X224370226Y-100196898D01*
X224410000Y-99996939D01*
X224410000Y-99793061D01*
X224370226Y-99593102D01*
X224292205Y-99404744D01*
X224178937Y-99235226D01*
X224034774Y-99091063D01*
X223865256Y-98977795D01*
X223676898Y-98899774D01*
X223476939Y-98860000D01*
X223273061Y-98860000D01*
X223073102Y-98899774D01*
X222884744Y-98977795D01*
X222715226Y-99091063D01*
X222571063Y-99235226D01*
X222457795Y-99404744D01*
X222379774Y-99593102D01*
X222340000Y-99793061D01*
X222070650Y-99793061D01*
X222203937Y-99659774D01*
X222317205Y-99490256D01*
X222395226Y-99301898D01*
X222435000Y-99101939D01*
X222435000Y-98898061D01*
X222395226Y-98698102D01*
X222317205Y-98509744D01*
X222203937Y-98340226D01*
X222059774Y-98196063D01*
X221890256Y-98082795D01*
X221701898Y-98004774D01*
X221501939Y-97965000D01*
X221298061Y-97965000D01*
X221098102Y-98004774D01*
X220909744Y-98082795D01*
X220740226Y-98196063D01*
X220596063Y-98340226D01*
X220482795Y-98509744D01*
X220404774Y-98698102D01*
X220365000Y-98898061D01*
X209685000Y-98898061D01*
X209685000Y-94398061D01*
X212365000Y-94398061D01*
X212365000Y-94601939D01*
X212404774Y-94801898D01*
X212482795Y-94990256D01*
X212596063Y-95159774D01*
X212740226Y-95303937D01*
X212909744Y-95417205D01*
X213098102Y-95495226D01*
X213298061Y-95535000D01*
X213501939Y-95535000D01*
X213701898Y-95495226D01*
X213890256Y-95417205D01*
X214059774Y-95303937D01*
X214203937Y-95159774D01*
X214317205Y-94990256D01*
X214395226Y-94801898D01*
X214431793Y-94618061D01*
X220735000Y-94618061D01*
X220735000Y-94821939D01*
X220774774Y-95021898D01*
X220852795Y-95210256D01*
X220966063Y-95379774D01*
X221110226Y-95523937D01*
X221279744Y-95637205D01*
X221468102Y-95715226D01*
X221668061Y-95755000D01*
X221771289Y-95755000D01*
X221716063Y-95810226D01*
X221602795Y-95979744D01*
X221524774Y-96168102D01*
X221485000Y-96368061D01*
X221485000Y-96571939D01*
X221524774Y-96771898D01*
X221602795Y-96960256D01*
X221716063Y-97129774D01*
X221860226Y-97273937D01*
X222029744Y-97387205D01*
X222218102Y-97465226D01*
X222418061Y-97505000D01*
X222621939Y-97505000D01*
X222821898Y-97465226D01*
X222948377Y-97412836D01*
X222904774Y-97518102D01*
X222865000Y-97718061D01*
X222865000Y-97921939D01*
X222904774Y-98121898D01*
X222982795Y-98310256D01*
X223096063Y-98479774D01*
X223240226Y-98623937D01*
X223409744Y-98737205D01*
X223598102Y-98815226D01*
X223798061Y-98855000D01*
X224001939Y-98855000D01*
X224201898Y-98815226D01*
X224390256Y-98737205D01*
X224559774Y-98623937D01*
X224703937Y-98479774D01*
X224817205Y-98310256D01*
X224895226Y-98121898D01*
X224935000Y-97921939D01*
X224935000Y-97718061D01*
X224895226Y-97518102D01*
X224817205Y-97329744D01*
X224703937Y-97160226D01*
X224559774Y-97016063D01*
X224390256Y-96902795D01*
X224201898Y-96824774D01*
X224001939Y-96785000D01*
X223798061Y-96785000D01*
X223598102Y-96824774D01*
X223471623Y-96877164D01*
X223515226Y-96771898D01*
X223555000Y-96571939D01*
X223555000Y-96368061D01*
X223515226Y-96168102D01*
X223437205Y-95979744D01*
X223323937Y-95810226D01*
X223179774Y-95666063D01*
X223010256Y-95552795D01*
X222821898Y-95474774D01*
X222621939Y-95435000D01*
X222518711Y-95435000D01*
X222573937Y-95379774D01*
X222687205Y-95210256D01*
X222765226Y-95021898D01*
X222805000Y-94821939D01*
X222805000Y-94618061D01*
X222765226Y-94418102D01*
X222687205Y-94229744D01*
X222573937Y-94060226D01*
X222429774Y-93916063D01*
X222260256Y-93802795D01*
X222071898Y-93724774D01*
X221871939Y-93685000D01*
X221668061Y-93685000D01*
X221468102Y-93724774D01*
X221279744Y-93802795D01*
X221110226Y-93916063D01*
X220966063Y-94060226D01*
X220852795Y-94229744D01*
X220774774Y-94418102D01*
X220735000Y-94618061D01*
X214431793Y-94618061D01*
X214435000Y-94601939D01*
X214435000Y-94398061D01*
X214395226Y-94198102D01*
X214317205Y-94009744D01*
X214203937Y-93840226D01*
X214059774Y-93696063D01*
X213890256Y-93582795D01*
X213701898Y-93504774D01*
X213501939Y-93465000D01*
X213298061Y-93465000D01*
X213098102Y-93504774D01*
X212909744Y-93582795D01*
X212740226Y-93696063D01*
X212596063Y-93840226D01*
X212482795Y-94009744D01*
X212404774Y-94198102D01*
X212365000Y-94398061D01*
X209685000Y-94398061D01*
X209685000Y-80498061D01*
X213365000Y-80498061D01*
X213365000Y-80701939D01*
X213404774Y-80901898D01*
X213482795Y-81090256D01*
X213596063Y-81259774D01*
X213740226Y-81403937D01*
X213909744Y-81517205D01*
X214098102Y-81595226D01*
X214298061Y-81635000D01*
X214501939Y-81635000D01*
X214701898Y-81595226D01*
X214890256Y-81517205D01*
X215059774Y-81403937D01*
X215203937Y-81259774D01*
X215317205Y-81090256D01*
X215395226Y-80901898D01*
X215435000Y-80701939D01*
X215435000Y-80498061D01*
X215395226Y-80298102D01*
X215333077Y-80148061D01*
X221665000Y-80148061D01*
X221665000Y-80351939D01*
X221704774Y-80551898D01*
X221782795Y-80740256D01*
X221896063Y-80909774D01*
X222040226Y-81053937D01*
X222209744Y-81167205D01*
X222398102Y-81245226D01*
X222598061Y-81285000D01*
X222801939Y-81285000D01*
X223001898Y-81245226D01*
X223190256Y-81167205D01*
X223359774Y-81053937D01*
X223503937Y-80909774D01*
X223617205Y-80740256D01*
X223695226Y-80551898D01*
X223735000Y-80351939D01*
X223735000Y-80148061D01*
X223695226Y-79948102D01*
X223617205Y-79759744D01*
X223503937Y-79590226D01*
X223359774Y-79446063D01*
X223190256Y-79332795D01*
X223001898Y-79254774D01*
X222801939Y-79215000D01*
X222598061Y-79215000D01*
X222398102Y-79254774D01*
X222209744Y-79332795D01*
X222040226Y-79446063D01*
X221896063Y-79590226D01*
X221782795Y-79759744D01*
X221704774Y-79948102D01*
X221665000Y-80148061D01*
X215333077Y-80148061D01*
X215317205Y-80109744D01*
X215203937Y-79940226D01*
X215059774Y-79796063D01*
X214890256Y-79682795D01*
X214701898Y-79604774D01*
X214501939Y-79565000D01*
X214298061Y-79565000D01*
X214098102Y-79604774D01*
X213909744Y-79682795D01*
X213740226Y-79796063D01*
X213596063Y-79940226D01*
X213482795Y-80109744D01*
X213404774Y-80298102D01*
X213365000Y-80498061D01*
X209685000Y-80498061D01*
X209685000Y-78928061D01*
X225695000Y-78928061D01*
X225695000Y-79131939D01*
X225734774Y-79331898D01*
X225812795Y-79520256D01*
X225926063Y-79689774D01*
X226070226Y-79833937D01*
X226239744Y-79947205D01*
X226428102Y-80025226D01*
X226628061Y-80065000D01*
X226831939Y-80065000D01*
X227031898Y-80025226D01*
X227220256Y-79947205D01*
X227389774Y-79833937D01*
X227533937Y-79689774D01*
X227647205Y-79520256D01*
X227725226Y-79331898D01*
X227765000Y-79131939D01*
X227765000Y-78928061D01*
X227725226Y-78728102D01*
X227647205Y-78539744D01*
X227533937Y-78370226D01*
X227389774Y-78226063D01*
X227220256Y-78112795D01*
X227031898Y-78034774D01*
X226831939Y-77995000D01*
X226628061Y-77995000D01*
X226428102Y-78034774D01*
X226239744Y-78112795D01*
X226070226Y-78226063D01*
X225926063Y-78370226D01*
X225812795Y-78539744D01*
X225734774Y-78728102D01*
X225695000Y-78928061D01*
X209685000Y-78928061D01*
X209685000Y-73691229D01*
X209865000Y-73691229D01*
X209865000Y-74308771D01*
X209985476Y-74914446D01*
X210221799Y-75484979D01*
X210564886Y-75998446D01*
X211001554Y-76435114D01*
X211515021Y-76778201D01*
X212085554Y-77014524D01*
X212691229Y-77135000D01*
X213308771Y-77135000D01*
X213914446Y-77014524D01*
X214484979Y-76778201D01*
X214998446Y-76435114D01*
X215435114Y-75998446D01*
X215778201Y-75484979D01*
X216014524Y-74914446D01*
X216135000Y-74308771D01*
X216135000Y-73691229D01*
X216014524Y-73085554D01*
X215778201Y-72515021D01*
X215435114Y-72001554D01*
X214998446Y-71564886D01*
X214484979Y-71221799D01*
X213914446Y-70985476D01*
X213308771Y-70865000D01*
X212691229Y-70865000D01*
X212085554Y-70985476D01*
X211515021Y-71221799D01*
X211001554Y-71564886D01*
X210564886Y-72001554D01*
X210221799Y-72515021D01*
X209985476Y-73085554D01*
X209865000Y-73691229D01*
X209685000Y-73691229D01*
X209685000Y-73033505D01*
X209732312Y-72550984D01*
X209862714Y-72119070D01*
X210074524Y-71720715D01*
X210359675Y-71371086D01*
X210707303Y-71083503D01*
X211104177Y-70868914D01*
X211535161Y-70735502D01*
X212015654Y-70685000D01*
X230853000Y-70685000D01*
X230853000Y-83685111D01*
G37*
%TD.AperFunction*%
%TD*%
D14*
%TO.N,+5V*%
X256449016Y-70732312D02*
X256880930Y-70862714D01*
X257279285Y-71074524D01*
X257628914Y-71359675D01*
X257916497Y-71707303D01*
X258131086Y-72104177D01*
X258264498Y-72535161D01*
X258315000Y-73015654D01*
X258315001Y-106966485D01*
X258267688Y-107449016D01*
X258137287Y-107880927D01*
X257925480Y-108279280D01*
X257640325Y-108628914D01*
X257292697Y-108916497D01*
X256895825Y-109131085D01*
X256464834Y-109264500D01*
X255984346Y-109315000D01*
X232377000Y-109315000D01*
X232377000Y-105691229D01*
X251865000Y-105691229D01*
X251865000Y-106308771D01*
X251985476Y-106914446D01*
X252221799Y-107484979D01*
X252564886Y-107998446D01*
X253001554Y-108435114D01*
X253515021Y-108778201D01*
X254085554Y-109014524D01*
X254691229Y-109135000D01*
X255308771Y-109135000D01*
X255914446Y-109014524D01*
X256484979Y-108778201D01*
X256998446Y-108435114D01*
X257435114Y-107998446D01*
X257778201Y-107484979D01*
X258014524Y-106914446D01*
X258135000Y-106308771D01*
X258135000Y-105691229D01*
X258014524Y-105085554D01*
X257778201Y-104515021D01*
X257435114Y-104001554D01*
X256998446Y-103564886D01*
X256484979Y-103221799D01*
X255914446Y-102985476D01*
X255308771Y-102865000D01*
X254691229Y-102865000D01*
X254085554Y-102985476D01*
X253515021Y-103221799D01*
X253001554Y-103564886D01*
X252564886Y-104001554D01*
X252221799Y-104515021D01*
X251985476Y-105085554D01*
X251865000Y-105691229D01*
X232377000Y-105691229D01*
X232377000Y-99766609D01*
X232445226Y-99601898D01*
X232485000Y-99401939D01*
X232485000Y-99198061D01*
X232445226Y-98998102D01*
X232377000Y-98833391D01*
X232377000Y-95698061D01*
X238375000Y-95698061D01*
X238375000Y-95901939D01*
X238414774Y-96101898D01*
X238492795Y-96290256D01*
X238606063Y-96459774D01*
X238750226Y-96603937D01*
X238919744Y-96717205D01*
X239108102Y-96795226D01*
X239308061Y-96835000D01*
X239511939Y-96835000D01*
X239711898Y-96795226D01*
X239900256Y-96717205D01*
X240069774Y-96603937D01*
X240213937Y-96459774D01*
X240327205Y-96290256D01*
X240405226Y-96101898D01*
X240445000Y-95901939D01*
X240445000Y-95698061D01*
X240405226Y-95498102D01*
X240327205Y-95309744D01*
X240213937Y-95140226D01*
X240069774Y-94996063D01*
X239900256Y-94882795D01*
X239711898Y-94804774D01*
X239511939Y-94765000D01*
X239308061Y-94765000D01*
X239108102Y-94804774D01*
X238919744Y-94882795D01*
X238750226Y-94996063D01*
X238606063Y-95140226D01*
X238492795Y-95309744D01*
X238414774Y-95498102D01*
X238375000Y-95698061D01*
X232377000Y-95698061D01*
X232377000Y-93798061D01*
X254865000Y-93798061D01*
X254865000Y-94001939D01*
X254904774Y-94201898D01*
X254982795Y-94390256D01*
X255096063Y-94559774D01*
X255240226Y-94703937D01*
X255409744Y-94817205D01*
X255598102Y-94895226D01*
X255798061Y-94935000D01*
X256001939Y-94935000D01*
X256201898Y-94895226D01*
X256390256Y-94817205D01*
X256559774Y-94703937D01*
X256703937Y-94559774D01*
X256817205Y-94390256D01*
X256895226Y-94201898D01*
X256935000Y-94001939D01*
X256935000Y-93798061D01*
X256895226Y-93598102D01*
X256817205Y-93409744D01*
X256703937Y-93240226D01*
X256559774Y-93096063D01*
X256390256Y-92982795D01*
X256201898Y-92904774D01*
X256001939Y-92865000D01*
X255798061Y-92865000D01*
X255598102Y-92904774D01*
X255409744Y-92982795D01*
X255240226Y-93096063D01*
X255096063Y-93240226D01*
X254982795Y-93409744D01*
X254904774Y-93598102D01*
X254865000Y-93798061D01*
X232377000Y-93798061D01*
X232377000Y-92378061D01*
X246985000Y-92378061D01*
X246985000Y-92581939D01*
X247024774Y-92781898D01*
X247102795Y-92970256D01*
X247216063Y-93139774D01*
X247360226Y-93283937D01*
X247529744Y-93397205D01*
X247718102Y-93475226D01*
X247918061Y-93515000D01*
X248121939Y-93515000D01*
X248321898Y-93475226D01*
X248510256Y-93397205D01*
X248679774Y-93283937D01*
X248823937Y-93139774D01*
X248937205Y-92970256D01*
X249015226Y-92781898D01*
X249055000Y-92581939D01*
X249055000Y-92378061D01*
X249015226Y-92178102D01*
X248937205Y-91989744D01*
X248823937Y-91820226D01*
X248679774Y-91676063D01*
X248510256Y-91562795D01*
X248321898Y-91484774D01*
X248121939Y-91445000D01*
X247918061Y-91445000D01*
X247718102Y-91484774D01*
X247529744Y-91562795D01*
X247360226Y-91676063D01*
X247216063Y-91820226D01*
X247102795Y-91989744D01*
X247024774Y-92178102D01*
X246985000Y-92378061D01*
X232377000Y-92378061D01*
X232377000Y-89710427D01*
X232417205Y-89650256D01*
X232495226Y-89461898D01*
X232535000Y-89261939D01*
X232535000Y-89078061D01*
X233655000Y-89078061D01*
X233655000Y-89281939D01*
X233694774Y-89481898D01*
X233772795Y-89670256D01*
X233886063Y-89839774D01*
X234030226Y-89983937D01*
X234199744Y-90097205D01*
X234388102Y-90175226D01*
X234588061Y-90215000D01*
X234791939Y-90215000D01*
X234991898Y-90175226D01*
X235180256Y-90097205D01*
X235349774Y-89983937D01*
X235493937Y-89839774D01*
X235607205Y-89670256D01*
X235685226Y-89481898D01*
X235725000Y-89281939D01*
X235725000Y-89163061D01*
X236060000Y-89163061D01*
X236060000Y-89366939D01*
X236099774Y-89566898D01*
X236177795Y-89755256D01*
X236291063Y-89924774D01*
X236435226Y-90068937D01*
X236604744Y-90182205D01*
X236793102Y-90260226D01*
X236993061Y-90300000D01*
X237196939Y-90300000D01*
X237396898Y-90260226D01*
X237585256Y-90182205D01*
X237754774Y-90068937D01*
X237898937Y-89924774D01*
X238012205Y-89755256D01*
X238090226Y-89566898D01*
X238130000Y-89366939D01*
X238130000Y-89198061D01*
X241725000Y-89198061D01*
X241725000Y-89401939D01*
X241764774Y-89601898D01*
X241842795Y-89790256D01*
X241956063Y-89959774D01*
X242031289Y-90035000D01*
X241956063Y-90110226D01*
X241842795Y-90279744D01*
X241764774Y-90468102D01*
X241725000Y-90668061D01*
X241725000Y-90871939D01*
X241764774Y-91071898D01*
X241842795Y-91260256D01*
X241956063Y-91429774D01*
X242100226Y-91573937D01*
X242269744Y-91687205D01*
X242458102Y-91765226D01*
X242658061Y-91805000D01*
X242861939Y-91805000D01*
X243061898Y-91765226D01*
X243250256Y-91687205D01*
X243419774Y-91573937D01*
X243563937Y-91429774D01*
X243677205Y-91260256D01*
X243755226Y-91071898D01*
X243795000Y-90871939D01*
X243795000Y-90668061D01*
X243755226Y-90468102D01*
X243677205Y-90279744D01*
X243563937Y-90110226D01*
X243488711Y-90035000D01*
X243563937Y-89959774D01*
X243677205Y-89790256D01*
X243755226Y-89601898D01*
X243795000Y-89401939D01*
X243795000Y-89198061D01*
X243755226Y-88998102D01*
X243677205Y-88809744D01*
X243563937Y-88640226D01*
X243419774Y-88496063D01*
X243250256Y-88382795D01*
X243061898Y-88304774D01*
X242861939Y-88265000D01*
X242658061Y-88265000D01*
X242458102Y-88304774D01*
X242269744Y-88382795D01*
X242100226Y-88496063D01*
X241956063Y-88640226D01*
X241842795Y-88809744D01*
X241764774Y-88998102D01*
X241725000Y-89198061D01*
X238130000Y-89198061D01*
X238130000Y-89163061D01*
X238090226Y-88963102D01*
X238012205Y-88774744D01*
X237898937Y-88605226D01*
X237754774Y-88461063D01*
X237585256Y-88347795D01*
X237396898Y-88269774D01*
X237196939Y-88230000D01*
X236993061Y-88230000D01*
X236793102Y-88269774D01*
X236604744Y-88347795D01*
X236435226Y-88461063D01*
X236291063Y-88605226D01*
X236177795Y-88774744D01*
X236099774Y-88963102D01*
X236060000Y-89163061D01*
X235725000Y-89163061D01*
X235725000Y-89078061D01*
X235685226Y-88878102D01*
X235607205Y-88689744D01*
X235493937Y-88520226D01*
X235349774Y-88376063D01*
X235180256Y-88262795D01*
X234991898Y-88184774D01*
X234791939Y-88145000D01*
X234588061Y-88145000D01*
X234388102Y-88184774D01*
X234199744Y-88262795D01*
X234030226Y-88376063D01*
X233886063Y-88520226D01*
X233772795Y-88689744D01*
X233694774Y-88878102D01*
X233655000Y-89078061D01*
X232535000Y-89078061D01*
X232535000Y-89058061D01*
X232495226Y-88858102D01*
X232417205Y-88669744D01*
X232377000Y-88609573D01*
X232377000Y-87694881D01*
X232378163Y-87695658D01*
X232521024Y-87754833D01*
X232672684Y-87785000D01*
X232827316Y-87785000D01*
X232978976Y-87754833D01*
X233121837Y-87695658D01*
X233250408Y-87609749D01*
X233359749Y-87500408D01*
X233445658Y-87371837D01*
X233504833Y-87228976D01*
X233535000Y-87077316D01*
X233535000Y-86958061D01*
X233715000Y-86958061D01*
X233715000Y-87161939D01*
X233754774Y-87361898D01*
X233832795Y-87550256D01*
X233946063Y-87719774D01*
X234090226Y-87863937D01*
X234259744Y-87977205D01*
X234448102Y-88055226D01*
X234648061Y-88095000D01*
X234851939Y-88095000D01*
X235051898Y-88055226D01*
X235240256Y-87977205D01*
X235409774Y-87863937D01*
X235553937Y-87719774D01*
X235667205Y-87550256D01*
X235745226Y-87361898D01*
X235785000Y-87161939D01*
X235785000Y-86958061D01*
X235755655Y-86810532D01*
X235860256Y-86767205D01*
X236029774Y-86653937D01*
X236173937Y-86509774D01*
X236287205Y-86340256D01*
X236365226Y-86151898D01*
X236405000Y-85951939D01*
X236405000Y-85748061D01*
X236365226Y-85548102D01*
X236287205Y-85359744D01*
X236173937Y-85190226D01*
X236029774Y-85046063D01*
X235860256Y-84932795D01*
X235671898Y-84854774D01*
X235471939Y-84815000D01*
X235268061Y-84815000D01*
X235068102Y-84854774D01*
X234879744Y-84932795D01*
X234710226Y-85046063D01*
X234566063Y-85190226D01*
X234452795Y-85359744D01*
X234374774Y-85548102D01*
X234335000Y-85748061D01*
X234335000Y-85951939D01*
X234364345Y-86099468D01*
X234259744Y-86142795D01*
X234090226Y-86256063D01*
X233946063Y-86400226D01*
X233832795Y-86569744D01*
X233754774Y-86758102D01*
X233715000Y-86958061D01*
X233535000Y-86958061D01*
X233535000Y-86922684D01*
X233504833Y-86771024D01*
X233445658Y-86628163D01*
X233360022Y-86500000D01*
X233445658Y-86371837D01*
X233504833Y-86228976D01*
X233535000Y-86077316D01*
X233535000Y-85922684D01*
X233504833Y-85771024D01*
X233445658Y-85628163D01*
X233359749Y-85499592D01*
X233250408Y-85390251D01*
X233121837Y-85304342D01*
X232978976Y-85245167D01*
X232827316Y-85215000D01*
X232672684Y-85215000D01*
X232521024Y-85245167D01*
X232378163Y-85304342D01*
X232377000Y-85305119D01*
X232377000Y-84738061D01*
X239765000Y-84738061D01*
X239765000Y-84941939D01*
X239804774Y-85141898D01*
X239882795Y-85330256D01*
X239996063Y-85499774D01*
X240140226Y-85643937D01*
X240309744Y-85757205D01*
X240498102Y-85835226D01*
X240698061Y-85875000D01*
X240901939Y-85875000D01*
X241101898Y-85835226D01*
X241290256Y-85757205D01*
X241459774Y-85643937D01*
X241603937Y-85499774D01*
X241717205Y-85330256D01*
X241795226Y-85141898D01*
X241835000Y-84941939D01*
X241835000Y-84738061D01*
X241795226Y-84538102D01*
X241717205Y-84349744D01*
X241603937Y-84180226D01*
X241459774Y-84036063D01*
X241290256Y-83922795D01*
X241101898Y-83844774D01*
X240901939Y-83805000D01*
X240698061Y-83805000D01*
X240498102Y-83844774D01*
X240309744Y-83922795D01*
X240140226Y-84036063D01*
X239996063Y-84180226D01*
X239882795Y-84349744D01*
X239804774Y-84538102D01*
X239765000Y-84738061D01*
X232377000Y-84738061D01*
X232377000Y-82598061D01*
X232765000Y-82598061D01*
X232765000Y-82801939D01*
X232804774Y-83001898D01*
X232882795Y-83190256D01*
X232996063Y-83359774D01*
X233140226Y-83503937D01*
X233309744Y-83617205D01*
X233498102Y-83695226D01*
X233698061Y-83735000D01*
X233901939Y-83735000D01*
X234101898Y-83695226D01*
X234290256Y-83617205D01*
X234459774Y-83503937D01*
X234603937Y-83359774D01*
X234717205Y-83190256D01*
X234786459Y-83023061D01*
X237340000Y-83023061D01*
X237340000Y-83226939D01*
X237379774Y-83426898D01*
X237457795Y-83615256D01*
X237571063Y-83784774D01*
X237715226Y-83928937D01*
X237884744Y-84042205D01*
X238073102Y-84120226D01*
X238273061Y-84160000D01*
X238476939Y-84160000D01*
X238676898Y-84120226D01*
X238865256Y-84042205D01*
X238987500Y-83960524D01*
X239109744Y-84042205D01*
X239298102Y-84120226D01*
X239498061Y-84160000D01*
X239701939Y-84160000D01*
X239901898Y-84120226D01*
X240090256Y-84042205D01*
X240259774Y-83928937D01*
X240403937Y-83784774D01*
X240517205Y-83615256D01*
X240595226Y-83426898D01*
X240635000Y-83226939D01*
X240635000Y-83023061D01*
X240595226Y-82823102D01*
X240517205Y-82634744D01*
X240403937Y-82465226D01*
X240259774Y-82321063D01*
X240090256Y-82207795D01*
X239901898Y-82129774D01*
X239701939Y-82090000D01*
X239498061Y-82090000D01*
X239298102Y-82129774D01*
X239109744Y-82207795D01*
X238987500Y-82289476D01*
X238865256Y-82207795D01*
X238676898Y-82129774D01*
X238476939Y-82090000D01*
X238273061Y-82090000D01*
X238073102Y-82129774D01*
X237884744Y-82207795D01*
X237715226Y-82321063D01*
X237571063Y-82465226D01*
X237457795Y-82634744D01*
X237379774Y-82823102D01*
X237340000Y-83023061D01*
X234786459Y-83023061D01*
X234795226Y-83001898D01*
X234835000Y-82801939D01*
X234835000Y-82598061D01*
X234795226Y-82398102D01*
X234717205Y-82209744D01*
X234605831Y-82043060D01*
X243720001Y-82043060D01*
X243720001Y-82246938D01*
X243759775Y-82446897D01*
X243837796Y-82635255D01*
X243951064Y-82804773D01*
X244095227Y-82948936D01*
X244264745Y-83062204D01*
X244453103Y-83140225D01*
X244653062Y-83179999D01*
X244856940Y-83179999D01*
X244894006Y-83172626D01*
X244909774Y-83251898D01*
X244987795Y-83440256D01*
X245101063Y-83609774D01*
X245245226Y-83753937D01*
X245414744Y-83867205D01*
X245603102Y-83945226D01*
X245803061Y-83985000D01*
X246006939Y-83985000D01*
X246206898Y-83945226D01*
X246395256Y-83867205D01*
X246564774Y-83753937D01*
X246708937Y-83609774D01*
X246822205Y-83440256D01*
X246900226Y-83251898D01*
X246940000Y-83051939D01*
X246940000Y-82848061D01*
X246900226Y-82648102D01*
X246822205Y-82459744D01*
X246708937Y-82290226D01*
X246564774Y-82146063D01*
X246395256Y-82032795D01*
X246206898Y-81954774D01*
X246006939Y-81915000D01*
X245803061Y-81915000D01*
X245765995Y-81922373D01*
X245750227Y-81843101D01*
X245672206Y-81654743D01*
X245558938Y-81485225D01*
X245414775Y-81341062D01*
X245245257Y-81227794D01*
X245056899Y-81149773D01*
X244856940Y-81109999D01*
X244653062Y-81109999D01*
X244453103Y-81149773D01*
X244264745Y-81227794D01*
X244095227Y-81341062D01*
X243951064Y-81485225D01*
X243837796Y-81654743D01*
X243759775Y-81843101D01*
X243720001Y-82043060D01*
X234605831Y-82043060D01*
X234603937Y-82040226D01*
X234459774Y-81896063D01*
X234290256Y-81782795D01*
X234101898Y-81704774D01*
X233901939Y-81665000D01*
X233698061Y-81665000D01*
X233498102Y-81704774D01*
X233309744Y-81782795D01*
X233140226Y-81896063D01*
X232996063Y-82040226D01*
X232882795Y-82209744D01*
X232804774Y-82398102D01*
X232765000Y-82598061D01*
X232377000Y-82598061D01*
X232377000Y-80568061D01*
X236005000Y-80568061D01*
X236005000Y-80771939D01*
X236044774Y-80971898D01*
X236122795Y-81160256D01*
X236236063Y-81329774D01*
X236380226Y-81473937D01*
X236549744Y-81587205D01*
X236738102Y-81665226D01*
X236938061Y-81705000D01*
X237141939Y-81705000D01*
X237341898Y-81665226D01*
X237530256Y-81587205D01*
X237699774Y-81473937D01*
X237843937Y-81329774D01*
X237957205Y-81160256D01*
X238035226Y-80971898D01*
X238075000Y-80771939D01*
X238075000Y-80568061D01*
X238035226Y-80368102D01*
X237957205Y-80179744D01*
X237843937Y-80010226D01*
X237699774Y-79866063D01*
X237530256Y-79752795D01*
X237341898Y-79674774D01*
X237141939Y-79635000D01*
X236938061Y-79635000D01*
X236738102Y-79674774D01*
X236549744Y-79752795D01*
X236380226Y-79866063D01*
X236236063Y-80010226D01*
X236122795Y-80179744D01*
X236044774Y-80368102D01*
X236005000Y-80568061D01*
X232377000Y-80568061D01*
X232377000Y-78658061D01*
X239815000Y-78658061D01*
X239815000Y-78861939D01*
X239854774Y-79061898D01*
X239932795Y-79250256D01*
X240046063Y-79419774D01*
X240190226Y-79563937D01*
X240359744Y-79677205D01*
X240548102Y-79755226D01*
X240748061Y-79795000D01*
X240951939Y-79795000D01*
X241151898Y-79755226D01*
X241340256Y-79677205D01*
X241509774Y-79563937D01*
X241653937Y-79419774D01*
X241767205Y-79250256D01*
X241845226Y-79061898D01*
X241885000Y-78861939D01*
X241885000Y-78658061D01*
X241845226Y-78458102D01*
X241767205Y-78269744D01*
X241653937Y-78100226D01*
X241509774Y-77956063D01*
X241340256Y-77842795D01*
X241151898Y-77764774D01*
X240951939Y-77725000D01*
X240748061Y-77725000D01*
X240548102Y-77764774D01*
X240359744Y-77842795D01*
X240190226Y-77956063D01*
X240046063Y-78100226D01*
X239932795Y-78269744D01*
X239854774Y-78458102D01*
X239815000Y-78658061D01*
X232377000Y-78658061D01*
X232377000Y-76703061D01*
X242340000Y-76703061D01*
X242340000Y-76906939D01*
X242379774Y-77106898D01*
X242457795Y-77295256D01*
X242571063Y-77464774D01*
X242715226Y-77608937D01*
X242884744Y-77722205D01*
X243073102Y-77800226D01*
X243273061Y-77840000D01*
X243476939Y-77840000D01*
X243676898Y-77800226D01*
X243865256Y-77722205D01*
X244034774Y-77608937D01*
X244178937Y-77464774D01*
X244292205Y-77295256D01*
X244370226Y-77106898D01*
X244410000Y-76906939D01*
X244410000Y-76703061D01*
X244371213Y-76508061D01*
X244835000Y-76508061D01*
X244835000Y-76711939D01*
X244874774Y-76911898D01*
X244952795Y-77100256D01*
X244956280Y-77105472D01*
X244884774Y-77278102D01*
X244845000Y-77478061D01*
X244845000Y-77681939D01*
X244884774Y-77881898D01*
X244962795Y-78070256D01*
X245076063Y-78239774D01*
X245220226Y-78383937D01*
X245389744Y-78497205D01*
X245578102Y-78575226D01*
X245778061Y-78615000D01*
X245981939Y-78615000D01*
X246181898Y-78575226D01*
X246370256Y-78497205D01*
X246539774Y-78383937D01*
X246683937Y-78239774D01*
X246797205Y-78070256D01*
X246875226Y-77881898D01*
X246915000Y-77681939D01*
X246915000Y-77478061D01*
X246875226Y-77278102D01*
X246797205Y-77089744D01*
X246793720Y-77084528D01*
X246865226Y-76911898D01*
X246905000Y-76711939D01*
X246905000Y-76508061D01*
X246865226Y-76308102D01*
X246787205Y-76119744D01*
X246673937Y-75950226D01*
X246529774Y-75806063D01*
X246360256Y-75692795D01*
X246171898Y-75614774D01*
X245971939Y-75575000D01*
X245768061Y-75575000D01*
X245568102Y-75614774D01*
X245379744Y-75692795D01*
X245210226Y-75806063D01*
X245066063Y-75950226D01*
X244952795Y-76119744D01*
X244874774Y-76308102D01*
X244835000Y-76508061D01*
X244371213Y-76508061D01*
X244370226Y-76503102D01*
X244292205Y-76314744D01*
X244178937Y-76145226D01*
X244034774Y-76001063D01*
X243865256Y-75887795D01*
X243676898Y-75809774D01*
X243476939Y-75770000D01*
X243273061Y-75770000D01*
X243073102Y-75809774D01*
X242884744Y-75887795D01*
X242715226Y-76001063D01*
X242571063Y-76145226D01*
X242457795Y-76314744D01*
X242379774Y-76503102D01*
X242340000Y-76703061D01*
X232377000Y-76703061D01*
X232377000Y-73691229D01*
X251865000Y-73691229D01*
X251865000Y-74308771D01*
X251985476Y-74914446D01*
X252221799Y-75484979D01*
X252564886Y-75998446D01*
X253001554Y-76435114D01*
X253515021Y-76778201D01*
X254085554Y-77014524D01*
X254691229Y-77135000D01*
X255308771Y-77135000D01*
X255914446Y-77014524D01*
X256484979Y-76778201D01*
X256998446Y-76435114D01*
X257435114Y-75998446D01*
X257778201Y-75484979D01*
X258014524Y-74914446D01*
X258135000Y-74308771D01*
X258135000Y-73691229D01*
X258014524Y-73085554D01*
X257778201Y-72515021D01*
X257435114Y-72001554D01*
X256998446Y-71564886D01*
X256484979Y-71221799D01*
X255914446Y-70985476D01*
X255308771Y-70865000D01*
X254691229Y-70865000D01*
X254085554Y-70985476D01*
X253515021Y-71221799D01*
X253001554Y-71564886D01*
X252564886Y-72001554D01*
X252221799Y-72515021D01*
X251985476Y-73085554D01*
X251865000Y-73691229D01*
X232377000Y-73691229D01*
X232377000Y-70685000D01*
X255966495Y-70685000D01*
X256449016Y-70732312D01*
%TA.AperFunction,Conductor*%
D15*
G36*
X256449016Y-70732312D02*
G01*
X256880930Y-70862714D01*
X257279285Y-71074524D01*
X257628914Y-71359675D01*
X257916497Y-71707303D01*
X258131086Y-72104177D01*
X258264498Y-72535161D01*
X258315000Y-73015654D01*
X258315001Y-106966485D01*
X258267688Y-107449016D01*
X258137287Y-107880927D01*
X257925480Y-108279280D01*
X257640325Y-108628914D01*
X257292697Y-108916497D01*
X256895825Y-109131085D01*
X256464834Y-109264500D01*
X255984346Y-109315000D01*
X232377000Y-109315000D01*
X232377000Y-105691229D01*
X251865000Y-105691229D01*
X251865000Y-106308771D01*
X251985476Y-106914446D01*
X252221799Y-107484979D01*
X252564886Y-107998446D01*
X253001554Y-108435114D01*
X253515021Y-108778201D01*
X254085554Y-109014524D01*
X254691229Y-109135000D01*
X255308771Y-109135000D01*
X255914446Y-109014524D01*
X256484979Y-108778201D01*
X256998446Y-108435114D01*
X257435114Y-107998446D01*
X257778201Y-107484979D01*
X258014524Y-106914446D01*
X258135000Y-106308771D01*
X258135000Y-105691229D01*
X258014524Y-105085554D01*
X257778201Y-104515021D01*
X257435114Y-104001554D01*
X256998446Y-103564886D01*
X256484979Y-103221799D01*
X255914446Y-102985476D01*
X255308771Y-102865000D01*
X254691229Y-102865000D01*
X254085554Y-102985476D01*
X253515021Y-103221799D01*
X253001554Y-103564886D01*
X252564886Y-104001554D01*
X252221799Y-104515021D01*
X251985476Y-105085554D01*
X251865000Y-105691229D01*
X232377000Y-105691229D01*
X232377000Y-99766609D01*
X232445226Y-99601898D01*
X232485000Y-99401939D01*
X232485000Y-99198061D01*
X232445226Y-98998102D01*
X232377000Y-98833391D01*
X232377000Y-95698061D01*
X238375000Y-95698061D01*
X238375000Y-95901939D01*
X238414774Y-96101898D01*
X238492795Y-96290256D01*
X238606063Y-96459774D01*
X238750226Y-96603937D01*
X238919744Y-96717205D01*
X239108102Y-96795226D01*
X239308061Y-96835000D01*
X239511939Y-96835000D01*
X239711898Y-96795226D01*
X239900256Y-96717205D01*
X240069774Y-96603937D01*
X240213937Y-96459774D01*
X240327205Y-96290256D01*
X240405226Y-96101898D01*
X240445000Y-95901939D01*
X240445000Y-95698061D01*
X240405226Y-95498102D01*
X240327205Y-95309744D01*
X240213937Y-95140226D01*
X240069774Y-94996063D01*
X239900256Y-94882795D01*
X239711898Y-94804774D01*
X239511939Y-94765000D01*
X239308061Y-94765000D01*
X239108102Y-94804774D01*
X238919744Y-94882795D01*
X238750226Y-94996063D01*
X238606063Y-95140226D01*
X238492795Y-95309744D01*
X238414774Y-95498102D01*
X238375000Y-95698061D01*
X232377000Y-95698061D01*
X232377000Y-93798061D01*
X254865000Y-93798061D01*
X254865000Y-94001939D01*
X254904774Y-94201898D01*
X254982795Y-94390256D01*
X255096063Y-94559774D01*
X255240226Y-94703937D01*
X255409744Y-94817205D01*
X255598102Y-94895226D01*
X255798061Y-94935000D01*
X256001939Y-94935000D01*
X256201898Y-94895226D01*
X256390256Y-94817205D01*
X256559774Y-94703937D01*
X256703937Y-94559774D01*
X256817205Y-94390256D01*
X256895226Y-94201898D01*
X256935000Y-94001939D01*
X256935000Y-93798061D01*
X256895226Y-93598102D01*
X256817205Y-93409744D01*
X256703937Y-93240226D01*
X256559774Y-93096063D01*
X256390256Y-92982795D01*
X256201898Y-92904774D01*
X256001939Y-92865000D01*
X255798061Y-92865000D01*
X255598102Y-92904774D01*
X255409744Y-92982795D01*
X255240226Y-93096063D01*
X255096063Y-93240226D01*
X254982795Y-93409744D01*
X254904774Y-93598102D01*
X254865000Y-93798061D01*
X232377000Y-93798061D01*
X232377000Y-92378061D01*
X246985000Y-92378061D01*
X246985000Y-92581939D01*
X247024774Y-92781898D01*
X247102795Y-92970256D01*
X247216063Y-93139774D01*
X247360226Y-93283937D01*
X247529744Y-93397205D01*
X247718102Y-93475226D01*
X247918061Y-93515000D01*
X248121939Y-93515000D01*
X248321898Y-93475226D01*
X248510256Y-93397205D01*
X248679774Y-93283937D01*
X248823937Y-93139774D01*
X248937205Y-92970256D01*
X249015226Y-92781898D01*
X249055000Y-92581939D01*
X249055000Y-92378061D01*
X249015226Y-92178102D01*
X248937205Y-91989744D01*
X248823937Y-91820226D01*
X248679774Y-91676063D01*
X248510256Y-91562795D01*
X248321898Y-91484774D01*
X248121939Y-91445000D01*
X247918061Y-91445000D01*
X247718102Y-91484774D01*
X247529744Y-91562795D01*
X247360226Y-91676063D01*
X247216063Y-91820226D01*
X247102795Y-91989744D01*
X247024774Y-92178102D01*
X246985000Y-92378061D01*
X232377000Y-92378061D01*
X232377000Y-89710427D01*
X232417205Y-89650256D01*
X232495226Y-89461898D01*
X232535000Y-89261939D01*
X232535000Y-89078061D01*
X233655000Y-89078061D01*
X233655000Y-89281939D01*
X233694774Y-89481898D01*
X233772795Y-89670256D01*
X233886063Y-89839774D01*
X234030226Y-89983937D01*
X234199744Y-90097205D01*
X234388102Y-90175226D01*
X234588061Y-90215000D01*
X234791939Y-90215000D01*
X234991898Y-90175226D01*
X235180256Y-90097205D01*
X235349774Y-89983937D01*
X235493937Y-89839774D01*
X235607205Y-89670256D01*
X235685226Y-89481898D01*
X235725000Y-89281939D01*
X235725000Y-89163061D01*
X236060000Y-89163061D01*
X236060000Y-89366939D01*
X236099774Y-89566898D01*
X236177795Y-89755256D01*
X236291063Y-89924774D01*
X236435226Y-90068937D01*
X236604744Y-90182205D01*
X236793102Y-90260226D01*
X236993061Y-90300000D01*
X237196939Y-90300000D01*
X237396898Y-90260226D01*
X237585256Y-90182205D01*
X237754774Y-90068937D01*
X237898937Y-89924774D01*
X238012205Y-89755256D01*
X238090226Y-89566898D01*
X238130000Y-89366939D01*
X238130000Y-89198061D01*
X241725000Y-89198061D01*
X241725000Y-89401939D01*
X241764774Y-89601898D01*
X241842795Y-89790256D01*
X241956063Y-89959774D01*
X242031289Y-90035000D01*
X241956063Y-90110226D01*
X241842795Y-90279744D01*
X241764774Y-90468102D01*
X241725000Y-90668061D01*
X241725000Y-90871939D01*
X241764774Y-91071898D01*
X241842795Y-91260256D01*
X241956063Y-91429774D01*
X242100226Y-91573937D01*
X242269744Y-91687205D01*
X242458102Y-91765226D01*
X242658061Y-91805000D01*
X242861939Y-91805000D01*
X243061898Y-91765226D01*
X243250256Y-91687205D01*
X243419774Y-91573937D01*
X243563937Y-91429774D01*
X243677205Y-91260256D01*
X243755226Y-91071898D01*
X243795000Y-90871939D01*
X243795000Y-90668061D01*
X243755226Y-90468102D01*
X243677205Y-90279744D01*
X243563937Y-90110226D01*
X243488711Y-90035000D01*
X243563937Y-89959774D01*
X243677205Y-89790256D01*
X243755226Y-89601898D01*
X243795000Y-89401939D01*
X243795000Y-89198061D01*
X243755226Y-88998102D01*
X243677205Y-88809744D01*
X243563937Y-88640226D01*
X243419774Y-88496063D01*
X243250256Y-88382795D01*
X243061898Y-88304774D01*
X242861939Y-88265000D01*
X242658061Y-88265000D01*
X242458102Y-88304774D01*
X242269744Y-88382795D01*
X242100226Y-88496063D01*
X241956063Y-88640226D01*
X241842795Y-88809744D01*
X241764774Y-88998102D01*
X241725000Y-89198061D01*
X238130000Y-89198061D01*
X238130000Y-89163061D01*
X238090226Y-88963102D01*
X238012205Y-88774744D01*
X237898937Y-88605226D01*
X237754774Y-88461063D01*
X237585256Y-88347795D01*
X237396898Y-88269774D01*
X237196939Y-88230000D01*
X236993061Y-88230000D01*
X236793102Y-88269774D01*
X236604744Y-88347795D01*
X236435226Y-88461063D01*
X236291063Y-88605226D01*
X236177795Y-88774744D01*
X236099774Y-88963102D01*
X236060000Y-89163061D01*
X235725000Y-89163061D01*
X235725000Y-89078061D01*
X235685226Y-88878102D01*
X235607205Y-88689744D01*
X235493937Y-88520226D01*
X235349774Y-88376063D01*
X235180256Y-88262795D01*
X234991898Y-88184774D01*
X234791939Y-88145000D01*
X234588061Y-88145000D01*
X234388102Y-88184774D01*
X234199744Y-88262795D01*
X234030226Y-88376063D01*
X233886063Y-88520226D01*
X233772795Y-88689744D01*
X233694774Y-88878102D01*
X233655000Y-89078061D01*
X232535000Y-89078061D01*
X232535000Y-89058061D01*
X232495226Y-88858102D01*
X232417205Y-88669744D01*
X232377000Y-88609573D01*
X232377000Y-87694881D01*
X232378163Y-87695658D01*
X232521024Y-87754833D01*
X232672684Y-87785000D01*
X232827316Y-87785000D01*
X232978976Y-87754833D01*
X233121837Y-87695658D01*
X233250408Y-87609749D01*
X233359749Y-87500408D01*
X233445658Y-87371837D01*
X233504833Y-87228976D01*
X233535000Y-87077316D01*
X233535000Y-86958061D01*
X233715000Y-86958061D01*
X233715000Y-87161939D01*
X233754774Y-87361898D01*
X233832795Y-87550256D01*
X233946063Y-87719774D01*
X234090226Y-87863937D01*
X234259744Y-87977205D01*
X234448102Y-88055226D01*
X234648061Y-88095000D01*
X234851939Y-88095000D01*
X235051898Y-88055226D01*
X235240256Y-87977205D01*
X235409774Y-87863937D01*
X235553937Y-87719774D01*
X235667205Y-87550256D01*
X235745226Y-87361898D01*
X235785000Y-87161939D01*
X235785000Y-86958061D01*
X235755655Y-86810532D01*
X235860256Y-86767205D01*
X236029774Y-86653937D01*
X236173937Y-86509774D01*
X236287205Y-86340256D01*
X236365226Y-86151898D01*
X236405000Y-85951939D01*
X236405000Y-85748061D01*
X236365226Y-85548102D01*
X236287205Y-85359744D01*
X236173937Y-85190226D01*
X236029774Y-85046063D01*
X235860256Y-84932795D01*
X235671898Y-84854774D01*
X235471939Y-84815000D01*
X235268061Y-84815000D01*
X235068102Y-84854774D01*
X234879744Y-84932795D01*
X234710226Y-85046063D01*
X234566063Y-85190226D01*
X234452795Y-85359744D01*
X234374774Y-85548102D01*
X234335000Y-85748061D01*
X234335000Y-85951939D01*
X234364345Y-86099468D01*
X234259744Y-86142795D01*
X234090226Y-86256063D01*
X233946063Y-86400226D01*
X233832795Y-86569744D01*
X233754774Y-86758102D01*
X233715000Y-86958061D01*
X233535000Y-86958061D01*
X233535000Y-86922684D01*
X233504833Y-86771024D01*
X233445658Y-86628163D01*
X233360022Y-86500000D01*
X233445658Y-86371837D01*
X233504833Y-86228976D01*
X233535000Y-86077316D01*
X233535000Y-85922684D01*
X233504833Y-85771024D01*
X233445658Y-85628163D01*
X233359749Y-85499592D01*
X233250408Y-85390251D01*
X233121837Y-85304342D01*
X232978976Y-85245167D01*
X232827316Y-85215000D01*
X232672684Y-85215000D01*
X232521024Y-85245167D01*
X232378163Y-85304342D01*
X232377000Y-85305119D01*
X232377000Y-84738061D01*
X239765000Y-84738061D01*
X239765000Y-84941939D01*
X239804774Y-85141898D01*
X239882795Y-85330256D01*
X239996063Y-85499774D01*
X240140226Y-85643937D01*
X240309744Y-85757205D01*
X240498102Y-85835226D01*
X240698061Y-85875000D01*
X240901939Y-85875000D01*
X241101898Y-85835226D01*
X241290256Y-85757205D01*
X241459774Y-85643937D01*
X241603937Y-85499774D01*
X241717205Y-85330256D01*
X241795226Y-85141898D01*
X241835000Y-84941939D01*
X241835000Y-84738061D01*
X241795226Y-84538102D01*
X241717205Y-84349744D01*
X241603937Y-84180226D01*
X241459774Y-84036063D01*
X241290256Y-83922795D01*
X241101898Y-83844774D01*
X240901939Y-83805000D01*
X240698061Y-83805000D01*
X240498102Y-83844774D01*
X240309744Y-83922795D01*
X240140226Y-84036063D01*
X239996063Y-84180226D01*
X239882795Y-84349744D01*
X239804774Y-84538102D01*
X239765000Y-84738061D01*
X232377000Y-84738061D01*
X232377000Y-82598061D01*
X232765000Y-82598061D01*
X232765000Y-82801939D01*
X232804774Y-83001898D01*
X232882795Y-83190256D01*
X232996063Y-83359774D01*
X233140226Y-83503937D01*
X233309744Y-83617205D01*
X233498102Y-83695226D01*
X233698061Y-83735000D01*
X233901939Y-83735000D01*
X234101898Y-83695226D01*
X234290256Y-83617205D01*
X234459774Y-83503937D01*
X234603937Y-83359774D01*
X234717205Y-83190256D01*
X234786459Y-83023061D01*
X237340000Y-83023061D01*
X237340000Y-83226939D01*
X237379774Y-83426898D01*
X237457795Y-83615256D01*
X237571063Y-83784774D01*
X237715226Y-83928937D01*
X237884744Y-84042205D01*
X238073102Y-84120226D01*
X238273061Y-84160000D01*
X238476939Y-84160000D01*
X238676898Y-84120226D01*
X238865256Y-84042205D01*
X238987500Y-83960524D01*
X239109744Y-84042205D01*
X239298102Y-84120226D01*
X239498061Y-84160000D01*
X239701939Y-84160000D01*
X239901898Y-84120226D01*
X240090256Y-84042205D01*
X240259774Y-83928937D01*
X240403937Y-83784774D01*
X240517205Y-83615256D01*
X240595226Y-83426898D01*
X240635000Y-83226939D01*
X240635000Y-83023061D01*
X240595226Y-82823102D01*
X240517205Y-82634744D01*
X240403937Y-82465226D01*
X240259774Y-82321063D01*
X240090256Y-82207795D01*
X239901898Y-82129774D01*
X239701939Y-82090000D01*
X239498061Y-82090000D01*
X239298102Y-82129774D01*
X239109744Y-82207795D01*
X238987500Y-82289476D01*
X238865256Y-82207795D01*
X238676898Y-82129774D01*
X238476939Y-82090000D01*
X238273061Y-82090000D01*
X238073102Y-82129774D01*
X237884744Y-82207795D01*
X237715226Y-82321063D01*
X237571063Y-82465226D01*
X237457795Y-82634744D01*
X237379774Y-82823102D01*
X237340000Y-83023061D01*
X234786459Y-83023061D01*
X234795226Y-83001898D01*
X234835000Y-82801939D01*
X234835000Y-82598061D01*
X234795226Y-82398102D01*
X234717205Y-82209744D01*
X234605831Y-82043060D01*
X243720001Y-82043060D01*
X243720001Y-82246938D01*
X243759775Y-82446897D01*
X243837796Y-82635255D01*
X243951064Y-82804773D01*
X244095227Y-82948936D01*
X244264745Y-83062204D01*
X244453103Y-83140225D01*
X244653062Y-83179999D01*
X244856940Y-83179999D01*
X244894006Y-83172626D01*
X244909774Y-83251898D01*
X244987795Y-83440256D01*
X245101063Y-83609774D01*
X245245226Y-83753937D01*
X245414744Y-83867205D01*
X245603102Y-83945226D01*
X245803061Y-83985000D01*
X246006939Y-83985000D01*
X246206898Y-83945226D01*
X246395256Y-83867205D01*
X246564774Y-83753937D01*
X246708937Y-83609774D01*
X246822205Y-83440256D01*
X246900226Y-83251898D01*
X246940000Y-83051939D01*
X246940000Y-82848061D01*
X246900226Y-82648102D01*
X246822205Y-82459744D01*
X246708937Y-82290226D01*
X246564774Y-82146063D01*
X246395256Y-82032795D01*
X246206898Y-81954774D01*
X246006939Y-81915000D01*
X245803061Y-81915000D01*
X245765995Y-81922373D01*
X245750227Y-81843101D01*
X245672206Y-81654743D01*
X245558938Y-81485225D01*
X245414775Y-81341062D01*
X245245257Y-81227794D01*
X245056899Y-81149773D01*
X244856940Y-81109999D01*
X244653062Y-81109999D01*
X244453103Y-81149773D01*
X244264745Y-81227794D01*
X244095227Y-81341062D01*
X243951064Y-81485225D01*
X243837796Y-81654743D01*
X243759775Y-81843101D01*
X243720001Y-82043060D01*
X234605831Y-82043060D01*
X234603937Y-82040226D01*
X234459774Y-81896063D01*
X234290256Y-81782795D01*
X234101898Y-81704774D01*
X233901939Y-81665000D01*
X233698061Y-81665000D01*
X233498102Y-81704774D01*
X233309744Y-81782795D01*
X233140226Y-81896063D01*
X232996063Y-82040226D01*
X232882795Y-82209744D01*
X232804774Y-82398102D01*
X232765000Y-82598061D01*
X232377000Y-82598061D01*
X232377000Y-80568061D01*
X236005000Y-80568061D01*
X236005000Y-80771939D01*
X236044774Y-80971898D01*
X236122795Y-81160256D01*
X236236063Y-81329774D01*
X236380226Y-81473937D01*
X236549744Y-81587205D01*
X236738102Y-81665226D01*
X236938061Y-81705000D01*
X237141939Y-81705000D01*
X237341898Y-81665226D01*
X237530256Y-81587205D01*
X237699774Y-81473937D01*
X237843937Y-81329774D01*
X237957205Y-81160256D01*
X238035226Y-80971898D01*
X238075000Y-80771939D01*
X238075000Y-80568061D01*
X238035226Y-80368102D01*
X237957205Y-80179744D01*
X237843937Y-80010226D01*
X237699774Y-79866063D01*
X237530256Y-79752795D01*
X237341898Y-79674774D01*
X237141939Y-79635000D01*
X236938061Y-79635000D01*
X236738102Y-79674774D01*
X236549744Y-79752795D01*
X236380226Y-79866063D01*
X236236063Y-80010226D01*
X236122795Y-80179744D01*
X236044774Y-80368102D01*
X236005000Y-80568061D01*
X232377000Y-80568061D01*
X232377000Y-78658061D01*
X239815000Y-78658061D01*
X239815000Y-78861939D01*
X239854774Y-79061898D01*
X239932795Y-79250256D01*
X240046063Y-79419774D01*
X240190226Y-79563937D01*
X240359744Y-79677205D01*
X240548102Y-79755226D01*
X240748061Y-79795000D01*
X240951939Y-79795000D01*
X241151898Y-79755226D01*
X241340256Y-79677205D01*
X241509774Y-79563937D01*
X241653937Y-79419774D01*
X241767205Y-79250256D01*
X241845226Y-79061898D01*
X241885000Y-78861939D01*
X241885000Y-78658061D01*
X241845226Y-78458102D01*
X241767205Y-78269744D01*
X241653937Y-78100226D01*
X241509774Y-77956063D01*
X241340256Y-77842795D01*
X241151898Y-77764774D01*
X240951939Y-77725000D01*
X240748061Y-77725000D01*
X240548102Y-77764774D01*
X240359744Y-77842795D01*
X240190226Y-77956063D01*
X240046063Y-78100226D01*
X239932795Y-78269744D01*
X239854774Y-78458102D01*
X239815000Y-78658061D01*
X232377000Y-78658061D01*
X232377000Y-76703061D01*
X242340000Y-76703061D01*
X242340000Y-76906939D01*
X242379774Y-77106898D01*
X242457795Y-77295256D01*
X242571063Y-77464774D01*
X242715226Y-77608937D01*
X242884744Y-77722205D01*
X243073102Y-77800226D01*
X243273061Y-77840000D01*
X243476939Y-77840000D01*
X243676898Y-77800226D01*
X243865256Y-77722205D01*
X244034774Y-77608937D01*
X244178937Y-77464774D01*
X244292205Y-77295256D01*
X244370226Y-77106898D01*
X244410000Y-76906939D01*
X244410000Y-76703061D01*
X244371213Y-76508061D01*
X244835000Y-76508061D01*
X244835000Y-76711939D01*
X244874774Y-76911898D01*
X244952795Y-77100256D01*
X244956280Y-77105472D01*
X244884774Y-77278102D01*
X244845000Y-77478061D01*
X244845000Y-77681939D01*
X244884774Y-77881898D01*
X244962795Y-78070256D01*
X245076063Y-78239774D01*
X245220226Y-78383937D01*
X245389744Y-78497205D01*
X245578102Y-78575226D01*
X245778061Y-78615000D01*
X245981939Y-78615000D01*
X246181898Y-78575226D01*
X246370256Y-78497205D01*
X246539774Y-78383937D01*
X246683937Y-78239774D01*
X246797205Y-78070256D01*
X246875226Y-77881898D01*
X246915000Y-77681939D01*
X246915000Y-77478061D01*
X246875226Y-77278102D01*
X246797205Y-77089744D01*
X246793720Y-77084528D01*
X246865226Y-76911898D01*
X246905000Y-76711939D01*
X246905000Y-76508061D01*
X246865226Y-76308102D01*
X246787205Y-76119744D01*
X246673937Y-75950226D01*
X246529774Y-75806063D01*
X246360256Y-75692795D01*
X246171898Y-75614774D01*
X245971939Y-75575000D01*
X245768061Y-75575000D01*
X245568102Y-75614774D01*
X245379744Y-75692795D01*
X245210226Y-75806063D01*
X245066063Y-75950226D01*
X244952795Y-76119744D01*
X244874774Y-76308102D01*
X244835000Y-76508061D01*
X244371213Y-76508061D01*
X244370226Y-76503102D01*
X244292205Y-76314744D01*
X244178937Y-76145226D01*
X244034774Y-76001063D01*
X243865256Y-75887795D01*
X243676898Y-75809774D01*
X243476939Y-75770000D01*
X243273061Y-75770000D01*
X243073102Y-75809774D01*
X242884744Y-75887795D01*
X242715226Y-76001063D01*
X242571063Y-76145226D01*
X242457795Y-76314744D01*
X242379774Y-76503102D01*
X242340000Y-76703061D01*
X232377000Y-76703061D01*
X232377000Y-73691229D01*
X251865000Y-73691229D01*
X251865000Y-74308771D01*
X251985476Y-74914446D01*
X252221799Y-75484979D01*
X252564886Y-75998446D01*
X253001554Y-76435114D01*
X253515021Y-76778201D01*
X254085554Y-77014524D01*
X254691229Y-77135000D01*
X255308771Y-77135000D01*
X255914446Y-77014524D01*
X256484979Y-76778201D01*
X256998446Y-76435114D01*
X257435114Y-75998446D01*
X257778201Y-75484979D01*
X258014524Y-74914446D01*
X258135000Y-74308771D01*
X258135000Y-73691229D01*
X258014524Y-73085554D01*
X257778201Y-72515021D01*
X257435114Y-72001554D01*
X256998446Y-71564886D01*
X256484979Y-71221799D01*
X255914446Y-70985476D01*
X255308771Y-70865000D01*
X254691229Y-70865000D01*
X254085554Y-70985476D01*
X253515021Y-71221799D01*
X253001554Y-71564886D01*
X252564886Y-72001554D01*
X252221799Y-72515021D01*
X251985476Y-73085554D01*
X251865000Y-73691229D01*
X232377000Y-73691229D01*
X232377000Y-70685000D01*
X255966495Y-70685000D01*
X256449016Y-70732312D01*
G37*
%TD.AperFunction*%
%TD*%
M02*
