%FSLAX45Y45*%
G04 Gerber Fmt 4.5, Leading zero omitted, Abs format (unit mm)*
G04 Created by KiCad (PCBNEW (5.1.12-1-10_14)) date 2022-02-15 12:56:46*
%MOMM*%
%LPD*%
G01*
G04 APERTURE LIST*
%TA.AperFunction,Profile*%
%ADD10C,0.100000*%
%TD*%
%ADD11C,0.200000*%
%ADD12C,0.300000*%
G04 APERTURE END LIST*
D10*
X20000000Y-14700000D02*
G75*
G02*
X19700000Y-15000000I-300000J0D01*
G01*
X10300000Y-15000000D02*
G75*
G02*
X10000000Y-14700000I0J300000D01*
G01*
X10000000Y-5300000D02*
G75*
G02*
X10300000Y-5000000I300000J0D01*
G01*
X19700000Y-5000000D02*
G75*
G02*
X20000000Y-5300000I0J-300000D01*
G01*
X20000000Y-5300000D02*
X20000000Y-14700000D01*
X10300000Y-5000000D02*
X19700000Y-5000000D01*
X10000000Y-14700000D02*
X10000000Y-5300000D01*
X19700000Y-15000000D02*
X10300000Y-15000000D01*
D11*
X17051000Y-6950000D02*
X17351000Y-7250000D01*
X17351000Y-6950000D02*
X17051000Y-7250000D01*
X17051000Y-12752000D02*
X17351000Y-13052000D01*
X17351000Y-12752000D02*
X17051000Y-13052000D01*
X19353000Y-6948000D02*
X19653000Y-7248000D01*
X19653000Y-6948000D02*
X19353000Y-7248000D01*
X19357000Y-12752000D02*
X19657000Y-13052000D01*
X19657000Y-12752000D02*
X19357000Y-13052000D01*
D12*
X10281428Y-15470714D02*
X10281428Y-15170714D01*
X10352857Y-15170714D01*
X10395714Y-15185000D01*
X10424286Y-15213571D01*
X10438571Y-15242143D01*
X10452857Y-15299286D01*
X10452857Y-15342143D01*
X10438571Y-15399286D01*
X10424286Y-15427857D01*
X10395714Y-15456429D01*
X10352857Y-15470714D01*
X10281428Y-15470714D01*
X10581428Y-15470714D02*
X10581428Y-15270714D01*
X10581428Y-15327857D02*
X10595714Y-15299286D01*
X10610000Y-15285000D01*
X10638571Y-15270714D01*
X10667143Y-15270714D01*
X10767143Y-15470714D02*
X10767143Y-15270714D01*
X10767143Y-15170714D02*
X10752857Y-15185000D01*
X10767143Y-15199286D01*
X10781428Y-15185000D01*
X10767143Y-15170714D01*
X10767143Y-15199286D01*
X10952857Y-15470714D02*
X10924286Y-15456429D01*
X10910000Y-15427857D01*
X10910000Y-15170714D01*
X11110000Y-15470714D02*
X11081428Y-15456429D01*
X11067143Y-15427857D01*
X11067143Y-15170714D01*
X11452857Y-15470714D02*
X11452857Y-15170714D01*
X11552857Y-15385000D01*
X11652857Y-15170714D01*
X11652857Y-15470714D01*
X11924286Y-15470714D02*
X11924286Y-15313571D01*
X11910000Y-15285000D01*
X11881428Y-15270714D01*
X11824286Y-15270714D01*
X11795714Y-15285000D01*
X11924286Y-15456429D02*
X11895714Y-15470714D01*
X11824286Y-15470714D01*
X11795714Y-15456429D01*
X11781428Y-15427857D01*
X11781428Y-15399286D01*
X11795714Y-15370714D01*
X11824286Y-15356429D01*
X11895714Y-15356429D01*
X11924286Y-15342143D01*
X12067143Y-15270714D02*
X12067143Y-15570714D01*
X12067143Y-15285000D02*
X12095714Y-15270714D01*
X12152857Y-15270714D01*
X12181428Y-15285000D01*
X12195714Y-15299286D01*
X12210000Y-15327857D01*
X12210000Y-15413571D01*
X12195714Y-15442143D01*
X12181428Y-15456429D01*
X12152857Y-15470714D01*
X12095714Y-15470714D01*
X12067143Y-15456429D01*
X12338571Y-15442143D02*
X12352857Y-15456429D01*
X12338571Y-15470714D01*
X12324286Y-15456429D01*
X12338571Y-15442143D01*
X12338571Y-15470714D01*
X12338571Y-15285000D02*
X12352857Y-15299286D01*
X12338571Y-15313571D01*
X12324286Y-15299286D01*
X12338571Y-15285000D01*
X12338571Y-15313571D01*
X9695000Y-15815000D02*
X9995000Y-16115000D01*
X9995000Y-15815000D02*
X9695000Y-16115000D01*
X10252857Y-15800714D02*
X10438571Y-15800714D01*
X10338571Y-15915000D01*
X10381428Y-15915000D01*
X10410000Y-15929286D01*
X10424286Y-15943571D01*
X10438571Y-15972143D01*
X10438571Y-16043571D01*
X10424286Y-16072143D01*
X10410000Y-16086429D01*
X10381428Y-16100714D01*
X10295714Y-16100714D01*
X10267143Y-16086429D01*
X10252857Y-16072143D01*
X10567143Y-16072143D02*
X10581428Y-16086429D01*
X10567143Y-16100714D01*
X10552857Y-16086429D01*
X10567143Y-16072143D01*
X10567143Y-16100714D01*
X10767143Y-15800714D02*
X10795714Y-15800714D01*
X10824286Y-15815000D01*
X10838571Y-15829286D01*
X10852857Y-15857857D01*
X10867143Y-15915000D01*
X10867143Y-15986429D01*
X10852857Y-16043571D01*
X10838571Y-16072143D01*
X10824286Y-16086429D01*
X10795714Y-16100714D01*
X10767143Y-16100714D01*
X10738571Y-16086429D01*
X10724286Y-16072143D01*
X10710000Y-16043571D01*
X10695714Y-15986429D01*
X10695714Y-15915000D01*
X10710000Y-15857857D01*
X10724286Y-15829286D01*
X10738571Y-15815000D01*
X10767143Y-15800714D01*
X11052857Y-15800714D02*
X11081428Y-15800714D01*
X11110000Y-15815000D01*
X11124286Y-15829286D01*
X11138571Y-15857857D01*
X11152857Y-15915000D01*
X11152857Y-15986429D01*
X11138571Y-16043571D01*
X11124286Y-16072143D01*
X11110000Y-16086429D01*
X11081428Y-16100714D01*
X11052857Y-16100714D01*
X11024286Y-16086429D01*
X11010000Y-16072143D01*
X10995714Y-16043571D01*
X10981428Y-15986429D01*
X10981428Y-15915000D01*
X10995714Y-15857857D01*
X11010000Y-15829286D01*
X11024286Y-15815000D01*
X11052857Y-15800714D01*
X11338571Y-15800714D02*
X11367143Y-15800714D01*
X11395714Y-15815000D01*
X11410000Y-15829286D01*
X11424286Y-15857857D01*
X11438571Y-15915000D01*
X11438571Y-15986429D01*
X11424286Y-16043571D01*
X11410000Y-16072143D01*
X11395714Y-16086429D01*
X11367143Y-16100714D01*
X11338571Y-16100714D01*
X11310000Y-16086429D01*
X11295714Y-16072143D01*
X11281428Y-16043571D01*
X11267143Y-15986429D01*
X11267143Y-15915000D01*
X11281428Y-15857857D01*
X11295714Y-15829286D01*
X11310000Y-15815000D01*
X11338571Y-15800714D01*
X11567143Y-16100714D02*
X11567143Y-15900714D01*
X11567143Y-15929286D02*
X11581428Y-15915000D01*
X11610000Y-15900714D01*
X11652857Y-15900714D01*
X11681428Y-15915000D01*
X11695714Y-15943571D01*
X11695714Y-16100714D01*
X11695714Y-15943571D02*
X11710000Y-15915000D01*
X11738571Y-15900714D01*
X11781428Y-15900714D01*
X11810000Y-15915000D01*
X11824286Y-15943571D01*
X11824286Y-16100714D01*
X11967143Y-16100714D02*
X11967143Y-15900714D01*
X11967143Y-15929286D02*
X11981428Y-15915000D01*
X12010000Y-15900714D01*
X12052857Y-15900714D01*
X12081428Y-15915000D01*
X12095714Y-15943571D01*
X12095714Y-16100714D01*
X12095714Y-15943571D02*
X12110000Y-15915000D01*
X12138571Y-15900714D01*
X12181428Y-15900714D01*
X12210000Y-15915000D01*
X12224286Y-15943571D01*
X12224286Y-16100714D01*
X12810000Y-15786429D02*
X12552857Y-16172143D01*
X13195714Y-15800714D02*
X13224286Y-15800714D01*
X13252857Y-15815000D01*
X13267143Y-15829286D01*
X13281428Y-15857857D01*
X13295714Y-15915000D01*
X13295714Y-15986429D01*
X13281428Y-16043571D01*
X13267143Y-16072143D01*
X13252857Y-16086429D01*
X13224286Y-16100714D01*
X13195714Y-16100714D01*
X13167143Y-16086429D01*
X13152857Y-16072143D01*
X13138571Y-16043571D01*
X13124286Y-15986429D01*
X13124286Y-15915000D01*
X13138571Y-15857857D01*
X13152857Y-15829286D01*
X13167143Y-15815000D01*
X13195714Y-15800714D01*
X13424286Y-16072143D02*
X13438571Y-16086429D01*
X13424286Y-16100714D01*
X13410000Y-16086429D01*
X13424286Y-16072143D01*
X13424286Y-16100714D01*
X13724286Y-16100714D02*
X13552857Y-16100714D01*
X13638571Y-16100714D02*
X13638571Y-15800714D01*
X13610000Y-15843571D01*
X13581428Y-15872143D01*
X13552857Y-15886429D01*
X14010000Y-16100714D02*
X13838571Y-16100714D01*
X13924286Y-16100714D02*
X13924286Y-15800714D01*
X13895714Y-15843571D01*
X13867143Y-15872143D01*
X13838571Y-15886429D01*
X14181428Y-15929286D02*
X14152857Y-15915000D01*
X14138571Y-15900714D01*
X14124286Y-15872143D01*
X14124286Y-15857857D01*
X14138571Y-15829286D01*
X14152857Y-15815000D01*
X14181428Y-15800714D01*
X14238571Y-15800714D01*
X14267143Y-15815000D01*
X14281428Y-15829286D01*
X14295714Y-15857857D01*
X14295714Y-15872143D01*
X14281428Y-15900714D01*
X14267143Y-15915000D01*
X14238571Y-15929286D01*
X14181428Y-15929286D01*
X14152857Y-15943571D01*
X14138571Y-15957857D01*
X14124286Y-15986429D01*
X14124286Y-16043571D01*
X14138571Y-16072143D01*
X14152857Y-16086429D01*
X14181428Y-16100714D01*
X14238571Y-16100714D01*
X14267143Y-16086429D01*
X14281428Y-16072143D01*
X14295714Y-16043571D01*
X14295714Y-15986429D01*
X14281428Y-15957857D01*
X14267143Y-15943571D01*
X14238571Y-15929286D01*
X14581428Y-16100714D02*
X14410000Y-16100714D01*
X14495714Y-16100714D02*
X14495714Y-15800714D01*
X14467143Y-15843571D01*
X14438571Y-15872143D01*
X14410000Y-15886429D01*
X14695714Y-15800714D02*
X14695714Y-15857857D01*
X14810000Y-15800714D02*
X14810000Y-15857857D01*
X15252857Y-16215000D02*
X15238571Y-16200714D01*
X15210000Y-16157857D01*
X15195714Y-16129286D01*
X15181428Y-16086429D01*
X15167143Y-16015000D01*
X15167143Y-15957857D01*
X15181428Y-15886429D01*
X15195714Y-15843571D01*
X15210000Y-15815000D01*
X15238571Y-15772143D01*
X15252857Y-15757857D01*
X15495714Y-15900714D02*
X15495714Y-16100714D01*
X15424286Y-15786429D02*
X15352857Y-16000714D01*
X15538571Y-16000714D01*
X15881428Y-16100714D02*
X15881428Y-15800714D01*
X16010000Y-16100714D02*
X16010000Y-15943571D01*
X15995714Y-15915000D01*
X15967143Y-15900714D01*
X15924286Y-15900714D01*
X15895714Y-15915000D01*
X15881428Y-15929286D01*
X16195714Y-16100714D02*
X16167143Y-16086429D01*
X16152857Y-16072143D01*
X16138571Y-16043571D01*
X16138571Y-15957857D01*
X16152857Y-15929286D01*
X16167143Y-15915000D01*
X16195714Y-15900714D01*
X16238571Y-15900714D01*
X16267143Y-15915000D01*
X16281428Y-15929286D01*
X16295714Y-15957857D01*
X16295714Y-16043571D01*
X16281428Y-16072143D01*
X16267143Y-16086429D01*
X16238571Y-16100714D01*
X16195714Y-16100714D01*
X16467143Y-16100714D02*
X16438571Y-16086429D01*
X16424286Y-16057857D01*
X16424286Y-15800714D01*
X16695714Y-16086429D02*
X16667143Y-16100714D01*
X16610000Y-16100714D01*
X16581428Y-16086429D01*
X16567143Y-16057857D01*
X16567143Y-15943571D01*
X16581428Y-15915000D01*
X16610000Y-15900714D01*
X16667143Y-15900714D01*
X16695714Y-15915000D01*
X16710000Y-15943571D01*
X16710000Y-15972143D01*
X16567143Y-16000714D01*
X16824286Y-16086429D02*
X16852857Y-16100714D01*
X16910000Y-16100714D01*
X16938571Y-16086429D01*
X16952857Y-16057857D01*
X16952857Y-16043571D01*
X16938571Y-16015000D01*
X16910000Y-16000714D01*
X16867143Y-16000714D01*
X16838571Y-15986429D01*
X16824286Y-15957857D01*
X16824286Y-15943571D01*
X16838571Y-15915000D01*
X16867143Y-15900714D01*
X16910000Y-15900714D01*
X16938571Y-15915000D01*
X17052857Y-16215000D02*
X17067143Y-16200714D01*
X17095714Y-16157857D01*
X17110000Y-16129286D01*
X17124286Y-16086429D01*
X17138571Y-16015000D01*
X17138571Y-15957857D01*
X17124286Y-15886429D01*
X17110000Y-15843571D01*
X17095714Y-15815000D01*
X17067143Y-15772143D01*
X17052857Y-15757857D01*
X17595714Y-16215000D02*
X17581428Y-16200714D01*
X17552857Y-16157857D01*
X17538571Y-16129286D01*
X17524286Y-16086429D01*
X17510000Y-16015000D01*
X17510000Y-15957857D01*
X17524286Y-15886429D01*
X17538571Y-15843571D01*
X17552857Y-15815000D01*
X17581428Y-15772143D01*
X17595714Y-15757857D01*
X17710000Y-15900714D02*
X17710000Y-16100714D01*
X17710000Y-15929286D02*
X17724286Y-15915000D01*
X17752857Y-15900714D01*
X17795714Y-15900714D01*
X17824286Y-15915000D01*
X17838571Y-15943571D01*
X17838571Y-16100714D01*
X18024286Y-16100714D02*
X17995714Y-16086429D01*
X17981428Y-16072143D01*
X17967143Y-16043571D01*
X17967143Y-15957857D01*
X17981428Y-15929286D01*
X17995714Y-15915000D01*
X18024286Y-15900714D01*
X18067143Y-15900714D01*
X18095714Y-15915000D01*
X18110000Y-15929286D01*
X18124286Y-15957857D01*
X18124286Y-16043571D01*
X18110000Y-16072143D01*
X18095714Y-16086429D01*
X18067143Y-16100714D01*
X18024286Y-16100714D01*
X18210000Y-15900714D02*
X18324286Y-15900714D01*
X18252857Y-15800714D02*
X18252857Y-16057857D01*
X18267143Y-16086429D01*
X18295714Y-16100714D01*
X18324286Y-16100714D01*
X18652857Y-15900714D02*
X18652857Y-16200714D01*
X18652857Y-15915000D02*
X18681428Y-15900714D01*
X18738571Y-15900714D01*
X18767143Y-15915000D01*
X18781428Y-15929286D01*
X18795714Y-15957857D01*
X18795714Y-16043571D01*
X18781428Y-16072143D01*
X18767143Y-16086429D01*
X18738571Y-16100714D01*
X18681428Y-16100714D01*
X18652857Y-16086429D01*
X18967143Y-16100714D02*
X18938571Y-16086429D01*
X18924286Y-16057857D01*
X18924286Y-15800714D01*
X19210000Y-16100714D02*
X19210000Y-15943571D01*
X19195714Y-15915000D01*
X19167143Y-15900714D01*
X19110000Y-15900714D01*
X19081428Y-15915000D01*
X19210000Y-16086429D02*
X19181428Y-16100714D01*
X19110000Y-16100714D01*
X19081428Y-16086429D01*
X19067143Y-16057857D01*
X19067143Y-16029286D01*
X19081428Y-16000714D01*
X19110000Y-15986429D01*
X19181428Y-15986429D01*
X19210000Y-15972143D01*
X19310000Y-15900714D02*
X19424286Y-15900714D01*
X19352857Y-15800714D02*
X19352857Y-16057857D01*
X19367143Y-16086429D01*
X19395714Y-16100714D01*
X19424286Y-16100714D01*
X19638571Y-16086429D02*
X19610000Y-16100714D01*
X19552857Y-16100714D01*
X19524286Y-16086429D01*
X19510000Y-16057857D01*
X19510000Y-15943571D01*
X19524286Y-15915000D01*
X19552857Y-15900714D01*
X19610000Y-15900714D01*
X19638571Y-15915000D01*
X19652857Y-15943571D01*
X19652857Y-15972143D01*
X19510000Y-16000714D01*
X19910000Y-16100714D02*
X19910000Y-15800714D01*
X19910000Y-16086429D02*
X19881428Y-16100714D01*
X19824286Y-16100714D01*
X19795714Y-16086429D01*
X19781428Y-16072143D01*
X19767143Y-16043571D01*
X19767143Y-15957857D01*
X19781428Y-15929286D01*
X19795714Y-15915000D01*
X19824286Y-15900714D01*
X19881428Y-15900714D01*
X19910000Y-15915000D01*
X20024286Y-16215000D02*
X20038571Y-16200714D01*
X20067143Y-16157857D01*
X20081428Y-16129286D01*
X20095714Y-16086429D01*
X20110000Y-16015000D01*
X20110000Y-15957857D01*
X20095714Y-15886429D01*
X20081428Y-15843571D01*
X20067143Y-15815000D01*
X20038571Y-15772143D01*
X20024286Y-15757857D01*
M02*
