%TF.GenerationSoftware,KiCad,Pcbnew,(5.1.12-1-10_14)*%
%TF.CreationDate,2022-02-15T12:56:50-08:00*%
%TF.ProjectId,g3_compute,67335f63-6f6d-4707-9574-652e6b696361,1*%
%TF.SameCoordinates,Original*%
%TF.FileFunction,Soldermask,Top*%
%TF.FilePolarity,Negative*%
%FSLAX46Y46*%
G04 Gerber Fmt 4.6, Leading zero omitted, Abs format (unit mm)*
G04 Created by KiCad (PCBNEW (5.1.12-1-10_14)) date 2022-02-15 12:56:50*
%MOMM*%
%LPD*%
G01*
G04 APERTURE LIST*
%ADD10R,1.000000X2.510000*%
%ADD11R,1.050000X1.000000*%
%ADD12R,2.200000X1.050000*%
%ADD13R,1.000000X1.050000*%
%ADD14R,1.050000X2.200000*%
%ADD15R,2.200000X1.400000*%
%ADD16R,1.400000X2.200000*%
%ADD17R,2.510000X1.000000*%
%ADD18C,3.000000*%
%ADD19R,2.220000X1.020000*%
%ADD20R,0.900000X0.800000*%
%ADD21R,0.650000X0.400000*%
%ADD22R,2.700000X2.700000*%
%ADD23R,2.000000X1.000000*%
%ADD24R,2.300000X1.000000*%
%ADD25R,1.000000X2.300000*%
%ADD26R,0.457200X1.003300*%
%ADD27C,0.100000*%
%ADD28O,1.700000X1.700000*%
%ADD29R,1.700000X1.700000*%
%ADD30R,0.812800X2.794000*%
%ADD31R,1.701800X5.003800*%
%ADD32R,0.800000X1.300000*%
%ADD33R,2.100000X3.000000*%
%ADD34R,0.650000X1.525000*%
%ADD35C,5.000000*%
G04 APERTURE END LIST*
D10*
%TO.C,J104*%
X127440000Y-56000000D03*
X132520000Y-56000000D03*
X137600000Y-56000000D03*
X129980000Y-52690000D03*
X135060000Y-52690000D03*
X140140000Y-52690000D03*
%TD*%
D11*
%TO.C,J110*%
X108700000Y-79200000D03*
D12*
X107200000Y-80675000D03*
X107200000Y-77725000D03*
%TD*%
D13*
%TO.C,J109*%
X136600000Y-140650000D03*
D14*
X138075000Y-142150000D03*
X135125000Y-142150000D03*
%TD*%
D11*
%TO.C,J108*%
X109250000Y-119300000D03*
D12*
X107750000Y-120775000D03*
X107750000Y-117825000D03*
%TD*%
D15*
%TO.C,TP140*%
X185425000Y-143550000D03*
%TD*%
%TO.C,TP139*%
X147925000Y-102375000D03*
%TD*%
%TO.C,TP138*%
X123100000Y-66950000D03*
%TD*%
D16*
%TO.C,TP137*%
X152850000Y-77300000D03*
%TD*%
%TO.C,TP136*%
X150350000Y-77300000D03*
%TD*%
%TO.C,TP135*%
X183050000Y-55000000D03*
%TD*%
%TO.C,TP134*%
X170360000Y-54990000D03*
%TD*%
%TO.C,TP133*%
X172870000Y-54990000D03*
%TD*%
D15*
%TO.C,TP132*%
X165450000Y-113950000D03*
%TD*%
%TO.C,TP131*%
X165450000Y-106350000D03*
%TD*%
D16*
%TO.C,TP130*%
X185590000Y-54990000D03*
%TD*%
%TO.C,TP129*%
X167810000Y-55010000D03*
%TD*%
%TO.C,TP128*%
X188130000Y-55000000D03*
%TD*%
%TO.C,TP127*%
X180510000Y-54990000D03*
%TD*%
%TO.C,TP126*%
X175440000Y-54990000D03*
%TD*%
%TO.C,TP125*%
X177940000Y-54990000D03*
%TD*%
%TO.C,TP124*%
X165270000Y-55010000D03*
%TD*%
D15*
%TO.C,TP123*%
X165450000Y-121550000D03*
%TD*%
%TO.C,TP122*%
X197250000Y-62400000D03*
%TD*%
%TO.C,TP121*%
X159100000Y-58950000D03*
%TD*%
%TO.C,TP120*%
X193150000Y-62400000D03*
%TD*%
%TO.C,TP119*%
X170075000Y-145625000D03*
%TD*%
%TO.C,TP118*%
X160450000Y-86000000D03*
%TD*%
%TO.C,TP117*%
X160450000Y-83500000D03*
%TD*%
D16*
%TO.C,TP116*%
X147600000Y-59950000D03*
%TD*%
%TO.C,TP115*%
X145150000Y-60000000D03*
%TD*%
%TO.C,TP114*%
X113750000Y-64650000D03*
%TD*%
%TO.C,TP113*%
X116250000Y-64650000D03*
%TD*%
D15*
%TO.C,TP112*%
X139800000Y-71800000D03*
%TD*%
%TO.C,TP111*%
X139800000Y-69650000D03*
%TD*%
D16*
%TO.C,TP110*%
X134300000Y-60500000D03*
%TD*%
%TO.C,TP109*%
X132050000Y-60500000D03*
%TD*%
D15*
%TO.C,TP108*%
X166250000Y-139000000D03*
%TD*%
%TO.C,TP107*%
X182650000Y-137000000D03*
%TD*%
%TO.C,TP106*%
X167300000Y-143500000D03*
%TD*%
D16*
%TO.C,TP105*%
X156500000Y-124150000D03*
%TD*%
%TO.C,TP104*%
X154150000Y-124100000D03*
%TD*%
D15*
%TO.C,TP103*%
X165450000Y-119100000D03*
%TD*%
%TO.C,TP102*%
X142050000Y-96250000D03*
%TD*%
%TO.C,TP101*%
X142050000Y-93900000D03*
%TD*%
D17*
%TO.C,J111*%
X156490000Y-66430000D03*
X153180000Y-63890000D03*
%TD*%
D18*
%TO.C,J106*%
X172010000Y-71000000D03*
X195030000Y-70980000D03*
X195070000Y-129020000D03*
X172010000Y-129020000D03*
D19*
X169175000Y-124130000D03*
X174825000Y-124130000D03*
X169175000Y-121590000D03*
X174825000Y-121590000D03*
X169175000Y-119050000D03*
X174825000Y-119050000D03*
X169175000Y-116510000D03*
X174825000Y-116510000D03*
X169175000Y-113970000D03*
X174825000Y-113970000D03*
X169175000Y-111430000D03*
X174825000Y-111430000D03*
X169175000Y-108890000D03*
X174825000Y-108890000D03*
X169175000Y-106350000D03*
X174825000Y-106350000D03*
X169175000Y-103810000D03*
X174825000Y-103810000D03*
X169175000Y-101270000D03*
X174825000Y-101270000D03*
X169175000Y-98730000D03*
X174825000Y-98730000D03*
X169175000Y-96190000D03*
X174825000Y-96190000D03*
X169175000Y-93650000D03*
X174825000Y-93650000D03*
X169175000Y-91110000D03*
X174825000Y-91110000D03*
X169175000Y-88570000D03*
X174825000Y-88570000D03*
X169175000Y-86030000D03*
X174825000Y-86030000D03*
X169175000Y-83490000D03*
X174825000Y-83490000D03*
X169175000Y-80950000D03*
X174825000Y-80950000D03*
X169175000Y-78410000D03*
X174825000Y-78410000D03*
X169175000Y-75870000D03*
X174825000Y-75870000D03*
%TD*%
D20*
%TO.C,Y201*%
X141820000Y-125570000D03*
X140420000Y-125570000D03*
X140420000Y-124470000D03*
X141820000Y-124470000D03*
%TD*%
D21*
%TO.C,U202*%
X119825000Y-119925000D03*
X119825000Y-118625000D03*
X121725000Y-119275000D03*
X119825000Y-119275000D03*
X121725000Y-118625000D03*
X121725000Y-119925000D03*
%TD*%
D22*
%TO.C,U201*%
X139400000Y-119150000D03*
G36*
G01*
X137787500Y-120525000D02*
X137087500Y-120525000D01*
G75*
G02*
X137025000Y-120462500I0J62500D01*
G01*
X137025000Y-120337500D01*
G75*
G02*
X137087500Y-120275000I62500J0D01*
G01*
X137787500Y-120275000D01*
G75*
G02*
X137850000Y-120337500I0J-62500D01*
G01*
X137850000Y-120462500D01*
G75*
G02*
X137787500Y-120525000I-62500J0D01*
G01*
G37*
G36*
G01*
X137787500Y-120025000D02*
X137087500Y-120025000D01*
G75*
G02*
X137025000Y-119962500I0J62500D01*
G01*
X137025000Y-119837500D01*
G75*
G02*
X137087500Y-119775000I62500J0D01*
G01*
X137787500Y-119775000D01*
G75*
G02*
X137850000Y-119837500I0J-62500D01*
G01*
X137850000Y-119962500D01*
G75*
G02*
X137787500Y-120025000I-62500J0D01*
G01*
G37*
G36*
G01*
X137787500Y-119525000D02*
X137087500Y-119525000D01*
G75*
G02*
X137025000Y-119462500I0J62500D01*
G01*
X137025000Y-119337500D01*
G75*
G02*
X137087500Y-119275000I62500J0D01*
G01*
X137787500Y-119275000D01*
G75*
G02*
X137850000Y-119337500I0J-62500D01*
G01*
X137850000Y-119462500D01*
G75*
G02*
X137787500Y-119525000I-62500J0D01*
G01*
G37*
G36*
G01*
X137787500Y-119025000D02*
X137087500Y-119025000D01*
G75*
G02*
X137025000Y-118962500I0J62500D01*
G01*
X137025000Y-118837500D01*
G75*
G02*
X137087500Y-118775000I62500J0D01*
G01*
X137787500Y-118775000D01*
G75*
G02*
X137850000Y-118837500I0J-62500D01*
G01*
X137850000Y-118962500D01*
G75*
G02*
X137787500Y-119025000I-62500J0D01*
G01*
G37*
G36*
G01*
X137787500Y-118525000D02*
X137087500Y-118525000D01*
G75*
G02*
X137025000Y-118462500I0J62500D01*
G01*
X137025000Y-118337500D01*
G75*
G02*
X137087500Y-118275000I62500J0D01*
G01*
X137787500Y-118275000D01*
G75*
G02*
X137850000Y-118337500I0J-62500D01*
G01*
X137850000Y-118462500D01*
G75*
G02*
X137787500Y-118525000I-62500J0D01*
G01*
G37*
G36*
G01*
X137787500Y-118025000D02*
X137087500Y-118025000D01*
G75*
G02*
X137025000Y-117962500I0J62500D01*
G01*
X137025000Y-117837500D01*
G75*
G02*
X137087500Y-117775000I62500J0D01*
G01*
X137787500Y-117775000D01*
G75*
G02*
X137850000Y-117837500I0J-62500D01*
G01*
X137850000Y-117962500D01*
G75*
G02*
X137787500Y-118025000I-62500J0D01*
G01*
G37*
G36*
G01*
X138212500Y-117600000D02*
X138087500Y-117600000D01*
G75*
G02*
X138025000Y-117537500I0J62500D01*
G01*
X138025000Y-116837500D01*
G75*
G02*
X138087500Y-116775000I62500J0D01*
G01*
X138212500Y-116775000D01*
G75*
G02*
X138275000Y-116837500I0J-62500D01*
G01*
X138275000Y-117537500D01*
G75*
G02*
X138212500Y-117600000I-62500J0D01*
G01*
G37*
G36*
G01*
X138712500Y-117600000D02*
X138587500Y-117600000D01*
G75*
G02*
X138525000Y-117537500I0J62500D01*
G01*
X138525000Y-116837500D01*
G75*
G02*
X138587500Y-116775000I62500J0D01*
G01*
X138712500Y-116775000D01*
G75*
G02*
X138775000Y-116837500I0J-62500D01*
G01*
X138775000Y-117537500D01*
G75*
G02*
X138712500Y-117600000I-62500J0D01*
G01*
G37*
G36*
G01*
X139212500Y-117600000D02*
X139087500Y-117600000D01*
G75*
G02*
X139025000Y-117537500I0J62500D01*
G01*
X139025000Y-116837500D01*
G75*
G02*
X139087500Y-116775000I62500J0D01*
G01*
X139212500Y-116775000D01*
G75*
G02*
X139275000Y-116837500I0J-62500D01*
G01*
X139275000Y-117537500D01*
G75*
G02*
X139212500Y-117600000I-62500J0D01*
G01*
G37*
G36*
G01*
X139712500Y-117600000D02*
X139587500Y-117600000D01*
G75*
G02*
X139525000Y-117537500I0J62500D01*
G01*
X139525000Y-116837500D01*
G75*
G02*
X139587500Y-116775000I62500J0D01*
G01*
X139712500Y-116775000D01*
G75*
G02*
X139775000Y-116837500I0J-62500D01*
G01*
X139775000Y-117537500D01*
G75*
G02*
X139712500Y-117600000I-62500J0D01*
G01*
G37*
G36*
G01*
X140212500Y-117600000D02*
X140087500Y-117600000D01*
G75*
G02*
X140025000Y-117537500I0J62500D01*
G01*
X140025000Y-116837500D01*
G75*
G02*
X140087500Y-116775000I62500J0D01*
G01*
X140212500Y-116775000D01*
G75*
G02*
X140275000Y-116837500I0J-62500D01*
G01*
X140275000Y-117537500D01*
G75*
G02*
X140212500Y-117600000I-62500J0D01*
G01*
G37*
G36*
G01*
X140712500Y-117600000D02*
X140587500Y-117600000D01*
G75*
G02*
X140525000Y-117537500I0J62500D01*
G01*
X140525000Y-116837500D01*
G75*
G02*
X140587500Y-116775000I62500J0D01*
G01*
X140712500Y-116775000D01*
G75*
G02*
X140775000Y-116837500I0J-62500D01*
G01*
X140775000Y-117537500D01*
G75*
G02*
X140712500Y-117600000I-62500J0D01*
G01*
G37*
G36*
G01*
X141712500Y-118025000D02*
X141012500Y-118025000D01*
G75*
G02*
X140950000Y-117962500I0J62500D01*
G01*
X140950000Y-117837500D01*
G75*
G02*
X141012500Y-117775000I62500J0D01*
G01*
X141712500Y-117775000D01*
G75*
G02*
X141775000Y-117837500I0J-62500D01*
G01*
X141775000Y-117962500D01*
G75*
G02*
X141712500Y-118025000I-62500J0D01*
G01*
G37*
G36*
G01*
X141712500Y-118525000D02*
X141012500Y-118525000D01*
G75*
G02*
X140950000Y-118462500I0J62500D01*
G01*
X140950000Y-118337500D01*
G75*
G02*
X141012500Y-118275000I62500J0D01*
G01*
X141712500Y-118275000D01*
G75*
G02*
X141775000Y-118337500I0J-62500D01*
G01*
X141775000Y-118462500D01*
G75*
G02*
X141712500Y-118525000I-62500J0D01*
G01*
G37*
G36*
G01*
X141712500Y-119025000D02*
X141012500Y-119025000D01*
G75*
G02*
X140950000Y-118962500I0J62500D01*
G01*
X140950000Y-118837500D01*
G75*
G02*
X141012500Y-118775000I62500J0D01*
G01*
X141712500Y-118775000D01*
G75*
G02*
X141775000Y-118837500I0J-62500D01*
G01*
X141775000Y-118962500D01*
G75*
G02*
X141712500Y-119025000I-62500J0D01*
G01*
G37*
G36*
G01*
X141712500Y-119525000D02*
X141012500Y-119525000D01*
G75*
G02*
X140950000Y-119462500I0J62500D01*
G01*
X140950000Y-119337500D01*
G75*
G02*
X141012500Y-119275000I62500J0D01*
G01*
X141712500Y-119275000D01*
G75*
G02*
X141775000Y-119337500I0J-62500D01*
G01*
X141775000Y-119462500D01*
G75*
G02*
X141712500Y-119525000I-62500J0D01*
G01*
G37*
G36*
G01*
X141712500Y-120025000D02*
X141012500Y-120025000D01*
G75*
G02*
X140950000Y-119962500I0J62500D01*
G01*
X140950000Y-119837500D01*
G75*
G02*
X141012500Y-119775000I62500J0D01*
G01*
X141712500Y-119775000D01*
G75*
G02*
X141775000Y-119837500I0J-62500D01*
G01*
X141775000Y-119962500D01*
G75*
G02*
X141712500Y-120025000I-62500J0D01*
G01*
G37*
G36*
G01*
X141712500Y-120525000D02*
X141012500Y-120525000D01*
G75*
G02*
X140950000Y-120462500I0J62500D01*
G01*
X140950000Y-120337500D01*
G75*
G02*
X141012500Y-120275000I62500J0D01*
G01*
X141712500Y-120275000D01*
G75*
G02*
X141775000Y-120337500I0J-62500D01*
G01*
X141775000Y-120462500D01*
G75*
G02*
X141712500Y-120525000I-62500J0D01*
G01*
G37*
G36*
G01*
X140712500Y-121525000D02*
X140587500Y-121525000D01*
G75*
G02*
X140525000Y-121462500I0J62500D01*
G01*
X140525000Y-120762500D01*
G75*
G02*
X140587500Y-120700000I62500J0D01*
G01*
X140712500Y-120700000D01*
G75*
G02*
X140775000Y-120762500I0J-62500D01*
G01*
X140775000Y-121462500D01*
G75*
G02*
X140712500Y-121525000I-62500J0D01*
G01*
G37*
G36*
G01*
X140212500Y-121525000D02*
X140087500Y-121525000D01*
G75*
G02*
X140025000Y-121462500I0J62500D01*
G01*
X140025000Y-120762500D01*
G75*
G02*
X140087500Y-120700000I62500J0D01*
G01*
X140212500Y-120700000D01*
G75*
G02*
X140275000Y-120762500I0J-62500D01*
G01*
X140275000Y-121462500D01*
G75*
G02*
X140212500Y-121525000I-62500J0D01*
G01*
G37*
G36*
G01*
X139712500Y-121525000D02*
X139587500Y-121525000D01*
G75*
G02*
X139525000Y-121462500I0J62500D01*
G01*
X139525000Y-120762500D01*
G75*
G02*
X139587500Y-120700000I62500J0D01*
G01*
X139712500Y-120700000D01*
G75*
G02*
X139775000Y-120762500I0J-62500D01*
G01*
X139775000Y-121462500D01*
G75*
G02*
X139712500Y-121525000I-62500J0D01*
G01*
G37*
G36*
G01*
X139212500Y-121525000D02*
X139087500Y-121525000D01*
G75*
G02*
X139025000Y-121462500I0J62500D01*
G01*
X139025000Y-120762500D01*
G75*
G02*
X139087500Y-120700000I62500J0D01*
G01*
X139212500Y-120700000D01*
G75*
G02*
X139275000Y-120762500I0J-62500D01*
G01*
X139275000Y-121462500D01*
G75*
G02*
X139212500Y-121525000I-62500J0D01*
G01*
G37*
G36*
G01*
X138712500Y-121525000D02*
X138587500Y-121525000D01*
G75*
G02*
X138525000Y-121462500I0J62500D01*
G01*
X138525000Y-120762500D01*
G75*
G02*
X138587500Y-120700000I62500J0D01*
G01*
X138712500Y-120700000D01*
G75*
G02*
X138775000Y-120762500I0J-62500D01*
G01*
X138775000Y-121462500D01*
G75*
G02*
X138712500Y-121525000I-62500J0D01*
G01*
G37*
G36*
G01*
X138212500Y-121525000D02*
X138087500Y-121525000D01*
G75*
G02*
X138025000Y-121462500I0J62500D01*
G01*
X138025000Y-120762500D01*
G75*
G02*
X138087500Y-120700000I62500J0D01*
G01*
X138212500Y-120700000D01*
G75*
G02*
X138275000Y-120762500I0J-62500D01*
G01*
X138275000Y-121462500D01*
G75*
G02*
X138212500Y-121525000I-62500J0D01*
G01*
G37*
%TD*%
D23*
%TO.C,U102*%
X146500000Y-144950000D03*
X146450000Y-143450000D03*
X146450000Y-141950000D03*
X146450000Y-140450000D03*
X146450000Y-138950000D03*
X146450000Y-137450000D03*
X146450000Y-135950000D03*
X146450000Y-134450000D03*
X146450000Y-132950000D03*
X146450000Y-131450000D03*
X162450000Y-131500000D03*
X162450000Y-133000000D03*
X162450000Y-134500000D03*
X162500000Y-136000000D03*
X162500000Y-137500000D03*
X162450000Y-139000000D03*
X162450000Y-140500000D03*
X162450000Y-142000000D03*
X162450000Y-143500000D03*
X162450000Y-145000000D03*
%TD*%
D24*
%TO.C,U101*%
X123950000Y-96950000D03*
X123950000Y-95700000D03*
X123950000Y-94450000D03*
X123950000Y-89450000D03*
X123950000Y-90700000D03*
X123950000Y-91950000D03*
X123950000Y-93200000D03*
D25*
X126200000Y-87200000D03*
X127450000Y-87200000D03*
X128700000Y-87200000D03*
X133700000Y-87200000D03*
X132450000Y-87200000D03*
X131200000Y-87200000D03*
X129950000Y-87200000D03*
D24*
X135950000Y-89450000D03*
X135950000Y-90700000D03*
X135950000Y-91950000D03*
X135950000Y-96950000D03*
X135950000Y-95700000D03*
X135950000Y-94450000D03*
X135950000Y-93200000D03*
D25*
X133700000Y-99200000D03*
X132450000Y-99200000D03*
X131200000Y-99200000D03*
X126200000Y-99200000D03*
X127450000Y-99200000D03*
X128700000Y-99200000D03*
X129950000Y-99200000D03*
%TD*%
%TO.C,R201*%
G36*
G01*
X118860000Y-116420000D02*
X118540000Y-116420000D01*
G75*
G02*
X118380000Y-116260000I0J160000D01*
G01*
X118380000Y-115865000D01*
G75*
G02*
X118540000Y-115705000I160000J0D01*
G01*
X118860000Y-115705000D01*
G75*
G02*
X119020000Y-115865000I0J-160000D01*
G01*
X119020000Y-116260000D01*
G75*
G02*
X118860000Y-116420000I-160000J0D01*
G01*
G37*
G36*
G01*
X118860000Y-117615000D02*
X118540000Y-117615000D01*
G75*
G02*
X118380000Y-117455000I0J160000D01*
G01*
X118380000Y-117060000D01*
G75*
G02*
X118540000Y-116900000I160000J0D01*
G01*
X118860000Y-116900000D01*
G75*
G02*
X119020000Y-117060000I0J-160000D01*
G01*
X119020000Y-117455000D01*
G75*
G02*
X118860000Y-117615000I-160000J0D01*
G01*
G37*
%TD*%
%TO.C,R109*%
G36*
G01*
X149942500Y-80660000D02*
X149942500Y-80340000D01*
G75*
G02*
X150102500Y-80180000I160000J0D01*
G01*
X150497500Y-80180000D01*
G75*
G02*
X150657500Y-80340000I0J-160000D01*
G01*
X150657500Y-80660000D01*
G75*
G02*
X150497500Y-80820000I-160000J0D01*
G01*
X150102500Y-80820000D01*
G75*
G02*
X149942500Y-80660000I0J160000D01*
G01*
G37*
G36*
G01*
X148747500Y-80660000D02*
X148747500Y-80340000D01*
G75*
G02*
X148907500Y-80180000I160000J0D01*
G01*
X149302500Y-80180000D01*
G75*
G02*
X149462500Y-80340000I0J-160000D01*
G01*
X149462500Y-80660000D01*
G75*
G02*
X149302500Y-80820000I-160000J0D01*
G01*
X148907500Y-80820000D01*
G75*
G02*
X148747500Y-80660000I0J160000D01*
G01*
G37*
%TD*%
%TO.C,R108*%
G36*
G01*
X148742500Y-89260000D02*
X148742500Y-88940000D01*
G75*
G02*
X148902500Y-88780000I160000J0D01*
G01*
X149297500Y-88780000D01*
G75*
G02*
X149457500Y-88940000I0J-160000D01*
G01*
X149457500Y-89260000D01*
G75*
G02*
X149297500Y-89420000I-160000J0D01*
G01*
X148902500Y-89420000D01*
G75*
G02*
X148742500Y-89260000I0J160000D01*
G01*
G37*
G36*
G01*
X147547500Y-89260000D02*
X147547500Y-88940000D01*
G75*
G02*
X147707500Y-88780000I160000J0D01*
G01*
X148102500Y-88780000D01*
G75*
G02*
X148262500Y-88940000I0J-160000D01*
G01*
X148262500Y-89260000D01*
G75*
G02*
X148102500Y-89420000I-160000J0D01*
G01*
X147707500Y-89420000D01*
G75*
G02*
X147547500Y-89260000I0J160000D01*
G01*
G37*
%TD*%
%TO.C,R107*%
G36*
G01*
X112857500Y-79040000D02*
X112857500Y-79360000D01*
G75*
G02*
X112697500Y-79520000I-160000J0D01*
G01*
X112302500Y-79520000D01*
G75*
G02*
X112142500Y-79360000I0J160000D01*
G01*
X112142500Y-79040000D01*
G75*
G02*
X112302500Y-78880000I160000J0D01*
G01*
X112697500Y-78880000D01*
G75*
G02*
X112857500Y-79040000I0J-160000D01*
G01*
G37*
G36*
G01*
X114052500Y-79040000D02*
X114052500Y-79360000D01*
G75*
G02*
X113892500Y-79520000I-160000J0D01*
G01*
X113497500Y-79520000D01*
G75*
G02*
X113337500Y-79360000I0J160000D01*
G01*
X113337500Y-79040000D01*
G75*
G02*
X113497500Y-78880000I160000J0D01*
G01*
X113892500Y-78880000D01*
G75*
G02*
X114052500Y-79040000I0J-160000D01*
G01*
G37*
%TD*%
%TO.C,R106*%
G36*
G01*
X179412500Y-139337500D02*
X178937500Y-139337500D01*
G75*
G02*
X178700000Y-139100000I0J237500D01*
G01*
X178700000Y-138600000D01*
G75*
G02*
X178937500Y-138362500I237500J0D01*
G01*
X179412500Y-138362500D01*
G75*
G02*
X179650000Y-138600000I0J-237500D01*
G01*
X179650000Y-139100000D01*
G75*
G02*
X179412500Y-139337500I-237500J0D01*
G01*
G37*
G36*
G01*
X179412500Y-137512500D02*
X178937500Y-137512500D01*
G75*
G02*
X178700000Y-137275000I0J237500D01*
G01*
X178700000Y-136775000D01*
G75*
G02*
X178937500Y-136537500I237500J0D01*
G01*
X179412500Y-136537500D01*
G75*
G02*
X179650000Y-136775000I0J-237500D01*
G01*
X179650000Y-137275000D01*
G75*
G02*
X179412500Y-137512500I-237500J0D01*
G01*
G37*
%TD*%
%TO.C,R105*%
G36*
G01*
X164460000Y-143857500D02*
X164140000Y-143857500D01*
G75*
G02*
X163980000Y-143697500I0J160000D01*
G01*
X163980000Y-143302500D01*
G75*
G02*
X164140000Y-143142500I160000J0D01*
G01*
X164460000Y-143142500D01*
G75*
G02*
X164620000Y-143302500I0J-160000D01*
G01*
X164620000Y-143697500D01*
G75*
G02*
X164460000Y-143857500I-160000J0D01*
G01*
G37*
G36*
G01*
X164460000Y-142662500D02*
X164140000Y-142662500D01*
G75*
G02*
X163980000Y-142502500I0J160000D01*
G01*
X163980000Y-142107500D01*
G75*
G02*
X164140000Y-141947500I160000J0D01*
G01*
X164460000Y-141947500D01*
G75*
G02*
X164620000Y-142107500I0J-160000D01*
G01*
X164620000Y-142502500D01*
G75*
G02*
X164460000Y-142662500I-160000J0D01*
G01*
G37*
%TD*%
%TO.C,R104*%
G36*
G01*
X127690000Y-72637500D02*
X128010000Y-72637500D01*
G75*
G02*
X128170000Y-72797500I0J-160000D01*
G01*
X128170000Y-73192500D01*
G75*
G02*
X128010000Y-73352500I-160000J0D01*
G01*
X127690000Y-73352500D01*
G75*
G02*
X127530000Y-73192500I0J160000D01*
G01*
X127530000Y-72797500D01*
G75*
G02*
X127690000Y-72637500I160000J0D01*
G01*
G37*
G36*
G01*
X127690000Y-71442500D02*
X128010000Y-71442500D01*
G75*
G02*
X128170000Y-71602500I0J-160000D01*
G01*
X128170000Y-71997500D01*
G75*
G02*
X128010000Y-72157500I-160000J0D01*
G01*
X127690000Y-72157500D01*
G75*
G02*
X127530000Y-71997500I0J160000D01*
G01*
X127530000Y-71602500D01*
G75*
G02*
X127690000Y-71442500I160000J0D01*
G01*
G37*
%TD*%
%TO.C,R103*%
G36*
G01*
X128840000Y-72637500D02*
X129160000Y-72637500D01*
G75*
G02*
X129320000Y-72797500I0J-160000D01*
G01*
X129320000Y-73192500D01*
G75*
G02*
X129160000Y-73352500I-160000J0D01*
G01*
X128840000Y-73352500D01*
G75*
G02*
X128680000Y-73192500I0J160000D01*
G01*
X128680000Y-72797500D01*
G75*
G02*
X128840000Y-72637500I160000J0D01*
G01*
G37*
G36*
G01*
X128840000Y-71442500D02*
X129160000Y-71442500D01*
G75*
G02*
X129320000Y-71602500I0J-160000D01*
G01*
X129320000Y-71997500D01*
G75*
G02*
X129160000Y-72157500I-160000J0D01*
G01*
X128840000Y-72157500D01*
G75*
G02*
X128680000Y-71997500I0J160000D01*
G01*
X128680000Y-71602500D01*
G75*
G02*
X128840000Y-71442500I160000J0D01*
G01*
G37*
%TD*%
%TO.C,R102*%
G36*
G01*
X128010000Y-68907500D02*
X127690000Y-68907500D01*
G75*
G02*
X127530000Y-68747500I0J160000D01*
G01*
X127530000Y-68352500D01*
G75*
G02*
X127690000Y-68192500I160000J0D01*
G01*
X128010000Y-68192500D01*
G75*
G02*
X128170000Y-68352500I0J-160000D01*
G01*
X128170000Y-68747500D01*
G75*
G02*
X128010000Y-68907500I-160000J0D01*
G01*
G37*
G36*
G01*
X128010000Y-70102500D02*
X127690000Y-70102500D01*
G75*
G02*
X127530000Y-69942500I0J160000D01*
G01*
X127530000Y-69547500D01*
G75*
G02*
X127690000Y-69387500I160000J0D01*
G01*
X128010000Y-69387500D01*
G75*
G02*
X128170000Y-69547500I0J-160000D01*
G01*
X128170000Y-69942500D01*
G75*
G02*
X128010000Y-70102500I-160000J0D01*
G01*
G37*
%TD*%
%TO.C,R101*%
G36*
G01*
X129110000Y-68907500D02*
X128790000Y-68907500D01*
G75*
G02*
X128630000Y-68747500I0J160000D01*
G01*
X128630000Y-68352500D01*
G75*
G02*
X128790000Y-68192500I160000J0D01*
G01*
X129110000Y-68192500D01*
G75*
G02*
X129270000Y-68352500I0J-160000D01*
G01*
X129270000Y-68747500D01*
G75*
G02*
X129110000Y-68907500I-160000J0D01*
G01*
G37*
G36*
G01*
X129110000Y-70102500D02*
X128790000Y-70102500D01*
G75*
G02*
X128630000Y-69942500I0J160000D01*
G01*
X128630000Y-69547500D01*
G75*
G02*
X128790000Y-69387500I160000J0D01*
G01*
X129110000Y-69387500D01*
G75*
G02*
X129270000Y-69547500I0J-160000D01*
G01*
X129270000Y-69942500D01*
G75*
G02*
X129110000Y-70102500I-160000J0D01*
G01*
G37*
%TD*%
D26*
%TO.C,Q101*%
X173374999Y-141877550D03*
X174325000Y-141877550D03*
X175275001Y-141877550D03*
X175275001Y-139172450D03*
X174325000Y-139172450D03*
X173374999Y-139172450D03*
%TD*%
%TO.C,L207*%
G36*
G01*
X113210000Y-119090000D02*
X113210000Y-119410000D01*
G75*
G02*
X113050000Y-119570000I-160000J0D01*
G01*
X112605000Y-119570000D01*
G75*
G02*
X112445000Y-119410000I0J160000D01*
G01*
X112445000Y-119090000D01*
G75*
G02*
X112605000Y-118930000I160000J0D01*
G01*
X113050000Y-118930000D01*
G75*
G02*
X113210000Y-119090000I0J-160000D01*
G01*
G37*
G36*
G01*
X114355000Y-119090000D02*
X114355000Y-119410000D01*
G75*
G02*
X114195000Y-119570000I-160000J0D01*
G01*
X113750000Y-119570000D01*
G75*
G02*
X113590000Y-119410000I0J160000D01*
G01*
X113590000Y-119090000D01*
G75*
G02*
X113750000Y-118930000I160000J0D01*
G01*
X114195000Y-118930000D01*
G75*
G02*
X114355000Y-119090000I0J-160000D01*
G01*
G37*
%TD*%
%TO.C,L206*%
G36*
G01*
X124560000Y-119740000D02*
X124560000Y-120060000D01*
G75*
G02*
X124400000Y-120220000I-160000J0D01*
G01*
X123955000Y-120220000D01*
G75*
G02*
X123795000Y-120060000I0J160000D01*
G01*
X123795000Y-119740000D01*
G75*
G02*
X123955000Y-119580000I160000J0D01*
G01*
X124400000Y-119580000D01*
G75*
G02*
X124560000Y-119740000I0J-160000D01*
G01*
G37*
G36*
G01*
X125705000Y-119740000D02*
X125705000Y-120060000D01*
G75*
G02*
X125545000Y-120220000I-160000J0D01*
G01*
X125100000Y-120220000D01*
G75*
G02*
X124940000Y-120060000I0J160000D01*
G01*
X124940000Y-119740000D01*
G75*
G02*
X125100000Y-119580000I160000J0D01*
G01*
X125545000Y-119580000D01*
G75*
G02*
X125705000Y-119740000I0J-160000D01*
G01*
G37*
%TD*%
%TO.C,L205*%
G36*
G01*
X130360000Y-119715000D02*
X130360000Y-120035000D01*
G75*
G02*
X130200000Y-120195000I-160000J0D01*
G01*
X129755000Y-120195000D01*
G75*
G02*
X129595000Y-120035000I0J160000D01*
G01*
X129595000Y-119715000D01*
G75*
G02*
X129755000Y-119555000I160000J0D01*
G01*
X130200000Y-119555000D01*
G75*
G02*
X130360000Y-119715000I0J-160000D01*
G01*
G37*
G36*
G01*
X131505000Y-119715000D02*
X131505000Y-120035000D01*
G75*
G02*
X131345000Y-120195000I-160000J0D01*
G01*
X130900000Y-120195000D01*
G75*
G02*
X130740000Y-120035000I0J160000D01*
G01*
X130740000Y-119715000D01*
G75*
G02*
X130900000Y-119555000I160000J0D01*
G01*
X131345000Y-119555000D01*
G75*
G02*
X131505000Y-119715000I0J-160000D01*
G01*
G37*
%TD*%
%TO.C,L204*%
G36*
G01*
X133215000Y-120665000D02*
X133535000Y-120665000D01*
G75*
G02*
X133695000Y-120825000I0J-160000D01*
G01*
X133695000Y-121270000D01*
G75*
G02*
X133535000Y-121430000I-160000J0D01*
G01*
X133215000Y-121430000D01*
G75*
G02*
X133055000Y-121270000I0J160000D01*
G01*
X133055000Y-120825000D01*
G75*
G02*
X133215000Y-120665000I160000J0D01*
G01*
G37*
G36*
G01*
X133215000Y-119520000D02*
X133535000Y-119520000D01*
G75*
G02*
X133695000Y-119680000I0J-160000D01*
G01*
X133695000Y-120125000D01*
G75*
G02*
X133535000Y-120285000I-160000J0D01*
G01*
X133215000Y-120285000D01*
G75*
G02*
X133055000Y-120125000I0J160000D01*
G01*
X133055000Y-119680000D01*
G75*
G02*
X133215000Y-119520000I160000J0D01*
G01*
G37*
%TD*%
%TO.C,L203*%
G36*
G01*
X135960000Y-117912500D02*
X135640000Y-117912500D01*
G75*
G02*
X135480000Y-117752500I0J160000D01*
G01*
X135480000Y-117307500D01*
G75*
G02*
X135640000Y-117147500I160000J0D01*
G01*
X135960000Y-117147500D01*
G75*
G02*
X136120000Y-117307500I0J-160000D01*
G01*
X136120000Y-117752500D01*
G75*
G02*
X135960000Y-117912500I-160000J0D01*
G01*
G37*
G36*
G01*
X135960000Y-119057500D02*
X135640000Y-119057500D01*
G75*
G02*
X135480000Y-118897500I0J160000D01*
G01*
X135480000Y-118452500D01*
G75*
G02*
X135640000Y-118292500I160000J0D01*
G01*
X135960000Y-118292500D01*
G75*
G02*
X136120000Y-118452500I0J-160000D01*
G01*
X136120000Y-118897500D01*
G75*
G02*
X135960000Y-119057500I-160000J0D01*
G01*
G37*
%TD*%
%TO.C,L202*%
G36*
G01*
X134960000Y-119740000D02*
X134960000Y-120060000D01*
G75*
G02*
X134800000Y-120220000I-160000J0D01*
G01*
X134355000Y-120220000D01*
G75*
G02*
X134195000Y-120060000I0J160000D01*
G01*
X134195000Y-119740000D01*
G75*
G02*
X134355000Y-119580000I160000J0D01*
G01*
X134800000Y-119580000D01*
G75*
G02*
X134960000Y-119740000I0J-160000D01*
G01*
G37*
G36*
G01*
X136105000Y-119740000D02*
X136105000Y-120060000D01*
G75*
G02*
X135945000Y-120220000I-160000J0D01*
G01*
X135500000Y-120220000D01*
G75*
G02*
X135340000Y-120060000I0J160000D01*
G01*
X135340000Y-119740000D01*
G75*
G02*
X135500000Y-119580000I160000J0D01*
G01*
X135945000Y-119580000D01*
G75*
G02*
X136105000Y-119740000I0J-160000D01*
G01*
G37*
%TD*%
%TO.C,L201*%
G36*
G01*
X146610001Y-119635000D02*
X145909999Y-119635000D01*
G75*
G02*
X145660000Y-119385001I0J249999D01*
G01*
X145660000Y-118834999D01*
G75*
G02*
X145909999Y-118585000I249999J0D01*
G01*
X146610001Y-118585000D01*
G75*
G02*
X146860000Y-118834999I0J-249999D01*
G01*
X146860000Y-119385001D01*
G75*
G02*
X146610001Y-119635000I-249999J0D01*
G01*
G37*
G36*
G01*
X146610001Y-121935000D02*
X145909999Y-121935000D01*
G75*
G02*
X145660000Y-121685001I0J249999D01*
G01*
X145660000Y-121134999D01*
G75*
G02*
X145909999Y-120885000I249999J0D01*
G01*
X146610001Y-120885000D01*
G75*
G02*
X146860000Y-121134999I0J-249999D01*
G01*
X146860000Y-121685001D01*
G75*
G02*
X146610001Y-121935000I-249999J0D01*
G01*
G37*
%TD*%
D27*
%TO.C,JP104*%
G36*
X148350000Y-63300000D02*
G01*
X148350000Y-63800000D01*
X148349398Y-63800000D01*
X148349398Y-63824534D01*
X148344588Y-63873365D01*
X148335016Y-63921490D01*
X148320772Y-63968445D01*
X148301995Y-64013778D01*
X148278864Y-64057051D01*
X148251604Y-64097850D01*
X148220476Y-64135779D01*
X148185779Y-64170476D01*
X148147850Y-64201604D01*
X148107051Y-64228864D01*
X148063778Y-64251995D01*
X148018445Y-64270772D01*
X147971490Y-64285016D01*
X147923365Y-64294588D01*
X147874534Y-64299398D01*
X147850000Y-64299398D01*
X147850000Y-64300000D01*
X147350000Y-64300000D01*
X147350000Y-64299398D01*
X147325466Y-64299398D01*
X147276635Y-64294588D01*
X147228510Y-64285016D01*
X147181555Y-64270772D01*
X147136222Y-64251995D01*
X147092949Y-64228864D01*
X147052150Y-64201604D01*
X147014221Y-64170476D01*
X146979524Y-64135779D01*
X146948396Y-64097850D01*
X146921136Y-64057051D01*
X146898005Y-64013778D01*
X146879228Y-63968445D01*
X146864984Y-63921490D01*
X146855412Y-63873365D01*
X146850602Y-63824534D01*
X146850602Y-63800000D01*
X146850000Y-63800000D01*
X146850000Y-63300000D01*
X148350000Y-63300000D01*
G37*
G36*
X146850602Y-62500000D02*
G01*
X146850602Y-62475466D01*
X146855412Y-62426635D01*
X146864984Y-62378510D01*
X146879228Y-62331555D01*
X146898005Y-62286222D01*
X146921136Y-62242949D01*
X146948396Y-62202150D01*
X146979524Y-62164221D01*
X147014221Y-62129524D01*
X147052150Y-62098396D01*
X147092949Y-62071136D01*
X147136222Y-62048005D01*
X147181555Y-62029228D01*
X147228510Y-62014984D01*
X147276635Y-62005412D01*
X147325466Y-62000602D01*
X147350000Y-62000602D01*
X147350000Y-62000000D01*
X147850000Y-62000000D01*
X147850000Y-62000602D01*
X147874534Y-62000602D01*
X147923365Y-62005412D01*
X147971490Y-62014984D01*
X148018445Y-62029228D01*
X148063778Y-62048005D01*
X148107051Y-62071136D01*
X148147850Y-62098396D01*
X148185779Y-62129524D01*
X148220476Y-62164221D01*
X148251604Y-62202150D01*
X148278864Y-62242949D01*
X148301995Y-62286222D01*
X148320772Y-62331555D01*
X148335016Y-62378510D01*
X148344588Y-62426635D01*
X148349398Y-62475466D01*
X148349398Y-62500000D01*
X148350000Y-62500000D01*
X148350000Y-63000000D01*
X146850000Y-63000000D01*
X146850000Y-62500000D01*
X146850602Y-62500000D01*
G37*
%TD*%
%TO.C,JP103*%
G36*
X145700000Y-63300000D02*
G01*
X145700000Y-63800000D01*
X145699398Y-63800000D01*
X145699398Y-63824534D01*
X145694588Y-63873365D01*
X145685016Y-63921490D01*
X145670772Y-63968445D01*
X145651995Y-64013778D01*
X145628864Y-64057051D01*
X145601604Y-64097850D01*
X145570476Y-64135779D01*
X145535779Y-64170476D01*
X145497850Y-64201604D01*
X145457051Y-64228864D01*
X145413778Y-64251995D01*
X145368445Y-64270772D01*
X145321490Y-64285016D01*
X145273365Y-64294588D01*
X145224534Y-64299398D01*
X145200000Y-64299398D01*
X145200000Y-64300000D01*
X144700000Y-64300000D01*
X144700000Y-64299398D01*
X144675466Y-64299398D01*
X144626635Y-64294588D01*
X144578510Y-64285016D01*
X144531555Y-64270772D01*
X144486222Y-64251995D01*
X144442949Y-64228864D01*
X144402150Y-64201604D01*
X144364221Y-64170476D01*
X144329524Y-64135779D01*
X144298396Y-64097850D01*
X144271136Y-64057051D01*
X144248005Y-64013778D01*
X144229228Y-63968445D01*
X144214984Y-63921490D01*
X144205412Y-63873365D01*
X144200602Y-63824534D01*
X144200602Y-63800000D01*
X144200000Y-63800000D01*
X144200000Y-63300000D01*
X145700000Y-63300000D01*
G37*
G36*
X144200602Y-62500000D02*
G01*
X144200602Y-62475466D01*
X144205412Y-62426635D01*
X144214984Y-62378510D01*
X144229228Y-62331555D01*
X144248005Y-62286222D01*
X144271136Y-62242949D01*
X144298396Y-62202150D01*
X144329524Y-62164221D01*
X144364221Y-62129524D01*
X144402150Y-62098396D01*
X144442949Y-62071136D01*
X144486222Y-62048005D01*
X144531555Y-62029228D01*
X144578510Y-62014984D01*
X144626635Y-62005412D01*
X144675466Y-62000602D01*
X144700000Y-62000602D01*
X144700000Y-62000000D01*
X145200000Y-62000000D01*
X145200000Y-62000602D01*
X145224534Y-62000602D01*
X145273365Y-62005412D01*
X145321490Y-62014984D01*
X145368445Y-62029228D01*
X145413778Y-62048005D01*
X145457051Y-62071136D01*
X145497850Y-62098396D01*
X145535779Y-62129524D01*
X145570476Y-62164221D01*
X145601604Y-62202150D01*
X145628864Y-62242949D01*
X145651995Y-62286222D01*
X145670772Y-62331555D01*
X145685016Y-62378510D01*
X145694588Y-62426635D01*
X145699398Y-62475466D01*
X145699398Y-62500000D01*
X145700000Y-62500000D01*
X145700000Y-63000000D01*
X144200000Y-63000000D01*
X144200000Y-62500000D01*
X144200602Y-62500000D01*
G37*
%TD*%
%TO.C,JP102*%
G36*
X114400000Y-68000000D02*
G01*
X114400000Y-68500000D01*
X114399398Y-68500000D01*
X114399398Y-68524534D01*
X114394588Y-68573365D01*
X114385016Y-68621490D01*
X114370772Y-68668445D01*
X114351995Y-68713778D01*
X114328864Y-68757051D01*
X114301604Y-68797850D01*
X114270476Y-68835779D01*
X114235779Y-68870476D01*
X114197850Y-68901604D01*
X114157051Y-68928864D01*
X114113778Y-68951995D01*
X114068445Y-68970772D01*
X114021490Y-68985016D01*
X113973365Y-68994588D01*
X113924534Y-68999398D01*
X113900000Y-68999398D01*
X113900000Y-69000000D01*
X113400000Y-69000000D01*
X113400000Y-68999398D01*
X113375466Y-68999398D01*
X113326635Y-68994588D01*
X113278510Y-68985016D01*
X113231555Y-68970772D01*
X113186222Y-68951995D01*
X113142949Y-68928864D01*
X113102150Y-68901604D01*
X113064221Y-68870476D01*
X113029524Y-68835779D01*
X112998396Y-68797850D01*
X112971136Y-68757051D01*
X112948005Y-68713778D01*
X112929228Y-68668445D01*
X112914984Y-68621490D01*
X112905412Y-68573365D01*
X112900602Y-68524534D01*
X112900602Y-68500000D01*
X112900000Y-68500000D01*
X112900000Y-68000000D01*
X114400000Y-68000000D01*
G37*
G36*
X112900602Y-67200000D02*
G01*
X112900602Y-67175466D01*
X112905412Y-67126635D01*
X112914984Y-67078510D01*
X112929228Y-67031555D01*
X112948005Y-66986222D01*
X112971136Y-66942949D01*
X112998396Y-66902150D01*
X113029524Y-66864221D01*
X113064221Y-66829524D01*
X113102150Y-66798396D01*
X113142949Y-66771136D01*
X113186222Y-66748005D01*
X113231555Y-66729228D01*
X113278510Y-66714984D01*
X113326635Y-66705412D01*
X113375466Y-66700602D01*
X113400000Y-66700602D01*
X113400000Y-66700000D01*
X113900000Y-66700000D01*
X113900000Y-66700602D01*
X113924534Y-66700602D01*
X113973365Y-66705412D01*
X114021490Y-66714984D01*
X114068445Y-66729228D01*
X114113778Y-66748005D01*
X114157051Y-66771136D01*
X114197850Y-66798396D01*
X114235779Y-66829524D01*
X114270476Y-66864221D01*
X114301604Y-66902150D01*
X114328864Y-66942949D01*
X114351995Y-66986222D01*
X114370772Y-67031555D01*
X114385016Y-67078510D01*
X114394588Y-67126635D01*
X114399398Y-67175466D01*
X114399398Y-67200000D01*
X114400000Y-67200000D01*
X114400000Y-67700000D01*
X112900000Y-67700000D01*
X112900000Y-67200000D01*
X112900602Y-67200000D01*
G37*
%TD*%
%TO.C,JP101*%
G36*
X117150000Y-68000000D02*
G01*
X117150000Y-68500000D01*
X117149398Y-68500000D01*
X117149398Y-68524534D01*
X117144588Y-68573365D01*
X117135016Y-68621490D01*
X117120772Y-68668445D01*
X117101995Y-68713778D01*
X117078864Y-68757051D01*
X117051604Y-68797850D01*
X117020476Y-68835779D01*
X116985779Y-68870476D01*
X116947850Y-68901604D01*
X116907051Y-68928864D01*
X116863778Y-68951995D01*
X116818445Y-68970772D01*
X116771490Y-68985016D01*
X116723365Y-68994588D01*
X116674534Y-68999398D01*
X116650000Y-68999398D01*
X116650000Y-69000000D01*
X116150000Y-69000000D01*
X116150000Y-68999398D01*
X116125466Y-68999398D01*
X116076635Y-68994588D01*
X116028510Y-68985016D01*
X115981555Y-68970772D01*
X115936222Y-68951995D01*
X115892949Y-68928864D01*
X115852150Y-68901604D01*
X115814221Y-68870476D01*
X115779524Y-68835779D01*
X115748396Y-68797850D01*
X115721136Y-68757051D01*
X115698005Y-68713778D01*
X115679228Y-68668445D01*
X115664984Y-68621490D01*
X115655412Y-68573365D01*
X115650602Y-68524534D01*
X115650602Y-68500000D01*
X115650000Y-68500000D01*
X115650000Y-68000000D01*
X117150000Y-68000000D01*
G37*
G36*
X115650602Y-67200000D02*
G01*
X115650602Y-67175466D01*
X115655412Y-67126635D01*
X115664984Y-67078510D01*
X115679228Y-67031555D01*
X115698005Y-66986222D01*
X115721136Y-66942949D01*
X115748396Y-66902150D01*
X115779524Y-66864221D01*
X115814221Y-66829524D01*
X115852150Y-66798396D01*
X115892949Y-66771136D01*
X115936222Y-66748005D01*
X115981555Y-66729228D01*
X116028510Y-66714984D01*
X116076635Y-66705412D01*
X116125466Y-66700602D01*
X116150000Y-66700602D01*
X116150000Y-66700000D01*
X116650000Y-66700000D01*
X116650000Y-66700602D01*
X116674534Y-66700602D01*
X116723365Y-66705412D01*
X116771490Y-66714984D01*
X116818445Y-66729228D01*
X116863778Y-66748005D01*
X116907051Y-66771136D01*
X116947850Y-66798396D01*
X116985779Y-66829524D01*
X117020476Y-66864221D01*
X117051604Y-66902150D01*
X117078864Y-66942949D01*
X117101995Y-66986222D01*
X117120772Y-67031555D01*
X117135016Y-67078510D01*
X117144588Y-67126635D01*
X117149398Y-67175466D01*
X117149398Y-67200000D01*
X117150000Y-67200000D01*
X117150000Y-67700000D01*
X115650000Y-67700000D01*
X115650000Y-67200000D01*
X115650602Y-67200000D01*
G37*
%TD*%
D28*
%TO.C,J107*%
X147850000Y-73750000D03*
X150390000Y-73750000D03*
X152930000Y-73750000D03*
X155470000Y-73750000D03*
X158010000Y-73750000D03*
D29*
X160550000Y-73750000D03*
%TD*%
D28*
%TO.C,J105*%
X188110000Y-59000000D03*
X185570000Y-59000000D03*
X183030000Y-59000000D03*
X180490000Y-59000000D03*
X177950000Y-59000000D03*
X175410000Y-59000000D03*
X172870000Y-59000000D03*
X170330000Y-59000000D03*
X167790000Y-59000000D03*
D29*
X165250000Y-59000000D03*
%TD*%
D30*
%TO.C,J103*%
X121300000Y-60899999D03*
X118800000Y-60899999D03*
X116300000Y-60899999D03*
X113800000Y-60899999D03*
D31*
X123900000Y-54300000D03*
X111200000Y-54300000D03*
%TD*%
D32*
%TO.C,J102*%
X156375000Y-56258000D03*
X155125000Y-56258000D03*
X153875000Y-56258000D03*
X152625000Y-56258000D03*
X151375000Y-56258000D03*
X150125000Y-56258000D03*
X148875000Y-56258000D03*
X147625000Y-56258000D03*
D33*
X158925000Y-53508000D03*
X145075000Y-53508000D03*
%TD*%
D28*
%TO.C,J101*%
X151060000Y-110540000D03*
X148520000Y-110540000D03*
X145980000Y-110540000D03*
X143440000Y-110540000D03*
X140900000Y-110540000D03*
X138360000Y-110540000D03*
X135820000Y-110540000D03*
X133280000Y-110540000D03*
D29*
X130740000Y-110540000D03*
%TD*%
D34*
%TO.C,IC101*%
X147805000Y-87512000D03*
X149075000Y-87512000D03*
X150345000Y-87512000D03*
X151615000Y-87512000D03*
X152885000Y-87512000D03*
X154155000Y-87512000D03*
X155425000Y-87512000D03*
X156695000Y-87512000D03*
X156695000Y-82088000D03*
X155425000Y-82088000D03*
X154155000Y-82088000D03*
X152885000Y-82088000D03*
X151615000Y-82088000D03*
X150345000Y-82088000D03*
X149075000Y-82088000D03*
X147805000Y-82088000D03*
%TD*%
D35*
%TO.C,H104*%
X195000000Y-145000000D03*
%TD*%
%TO.C,H103*%
X105000000Y-145000000D03*
%TD*%
%TO.C,H102*%
X195000000Y-55000000D03*
%TD*%
%TO.C,H101*%
X105000000Y-55000000D03*
%TD*%
%TO.C,FB101*%
G36*
G01*
X173535000Y-145982500D02*
X173215000Y-145982500D01*
G75*
G02*
X173055000Y-145822500I0J160000D01*
G01*
X173055000Y-145427500D01*
G75*
G02*
X173215000Y-145267500I160000J0D01*
G01*
X173535000Y-145267500D01*
G75*
G02*
X173695000Y-145427500I0J-160000D01*
G01*
X173695000Y-145822500D01*
G75*
G02*
X173535000Y-145982500I-160000J0D01*
G01*
G37*
G36*
G01*
X173535000Y-144787500D02*
X173215000Y-144787500D01*
G75*
G02*
X173055000Y-144627500I0J160000D01*
G01*
X173055000Y-144232500D01*
G75*
G02*
X173215000Y-144072500I160000J0D01*
G01*
X173535000Y-144072500D01*
G75*
G02*
X173695000Y-144232500I0J-160000D01*
G01*
X173695000Y-144627500D01*
G75*
G02*
X173535000Y-144787500I-160000J0D01*
G01*
G37*
%TD*%
%TO.C,C217*%
G36*
G01*
X111570000Y-120050000D02*
X111880000Y-120050000D01*
G75*
G02*
X112035000Y-120205000I0J-155000D01*
G01*
X112035000Y-120630000D01*
G75*
G02*
X111880000Y-120785000I-155000J0D01*
G01*
X111570000Y-120785000D01*
G75*
G02*
X111415000Y-120630000I0J155000D01*
G01*
X111415000Y-120205000D01*
G75*
G02*
X111570000Y-120050000I155000J0D01*
G01*
G37*
G36*
G01*
X111570000Y-118915000D02*
X111880000Y-118915000D01*
G75*
G02*
X112035000Y-119070000I0J-155000D01*
G01*
X112035000Y-119495000D01*
G75*
G02*
X111880000Y-119650000I-155000J0D01*
G01*
X111570000Y-119650000D01*
G75*
G02*
X111415000Y-119495000I0J155000D01*
G01*
X111415000Y-119070000D01*
G75*
G02*
X111570000Y-118915000I155000J0D01*
G01*
G37*
%TD*%
%TO.C,C216*%
G36*
G01*
X114920000Y-120050000D02*
X115230000Y-120050000D01*
G75*
G02*
X115385000Y-120205000I0J-155000D01*
G01*
X115385000Y-120630000D01*
G75*
G02*
X115230000Y-120785000I-155000J0D01*
G01*
X114920000Y-120785000D01*
G75*
G02*
X114765000Y-120630000I0J155000D01*
G01*
X114765000Y-120205000D01*
G75*
G02*
X114920000Y-120050000I155000J0D01*
G01*
G37*
G36*
G01*
X114920000Y-118915000D02*
X115230000Y-118915000D01*
G75*
G02*
X115385000Y-119070000I0J-155000D01*
G01*
X115385000Y-119495000D01*
G75*
G02*
X115230000Y-119650000I-155000J0D01*
G01*
X114920000Y-119650000D01*
G75*
G02*
X114765000Y-119495000I0J155000D01*
G01*
X114765000Y-119070000D01*
G75*
G02*
X114920000Y-118915000I155000J0D01*
G01*
G37*
%TD*%
%TO.C,C215*%
G36*
G01*
X117775000Y-119120000D02*
X117775000Y-119430000D01*
G75*
G02*
X117620000Y-119585000I-155000J0D01*
G01*
X117195000Y-119585000D01*
G75*
G02*
X117040000Y-119430000I0J155000D01*
G01*
X117040000Y-119120000D01*
G75*
G02*
X117195000Y-118965000I155000J0D01*
G01*
X117620000Y-118965000D01*
G75*
G02*
X117775000Y-119120000I0J-155000D01*
G01*
G37*
G36*
G01*
X118910000Y-119120000D02*
X118910000Y-119430000D01*
G75*
G02*
X118755000Y-119585000I-155000J0D01*
G01*
X118330000Y-119585000D01*
G75*
G02*
X118175000Y-119430000I0J155000D01*
G01*
X118175000Y-119120000D01*
G75*
G02*
X118330000Y-118965000I155000J0D01*
G01*
X118755000Y-118965000D01*
G75*
G02*
X118910000Y-119120000I0J-155000D01*
G01*
G37*
%TD*%
%TO.C,C214*%
G36*
G01*
X119980000Y-116475000D02*
X119670000Y-116475000D01*
G75*
G02*
X119515000Y-116320000I0J155000D01*
G01*
X119515000Y-115895000D01*
G75*
G02*
X119670000Y-115740000I155000J0D01*
G01*
X119980000Y-115740000D01*
G75*
G02*
X120135000Y-115895000I0J-155000D01*
G01*
X120135000Y-116320000D01*
G75*
G02*
X119980000Y-116475000I-155000J0D01*
G01*
G37*
G36*
G01*
X119980000Y-117610000D02*
X119670000Y-117610000D01*
G75*
G02*
X119515000Y-117455000I0J155000D01*
G01*
X119515000Y-117030000D01*
G75*
G02*
X119670000Y-116875000I155000J0D01*
G01*
X119980000Y-116875000D01*
G75*
G02*
X120135000Y-117030000I0J-155000D01*
G01*
X120135000Y-117455000D01*
G75*
G02*
X119980000Y-117610000I-155000J0D01*
G01*
G37*
%TD*%
%TO.C,C213*%
G36*
G01*
X122870000Y-120700000D02*
X123180000Y-120700000D01*
G75*
G02*
X123335000Y-120855000I0J-155000D01*
G01*
X123335000Y-121280000D01*
G75*
G02*
X123180000Y-121435000I-155000J0D01*
G01*
X122870000Y-121435000D01*
G75*
G02*
X122715000Y-121280000I0J155000D01*
G01*
X122715000Y-120855000D01*
G75*
G02*
X122870000Y-120700000I155000J0D01*
G01*
G37*
G36*
G01*
X122870000Y-119565000D02*
X123180000Y-119565000D01*
G75*
G02*
X123335000Y-119720000I0J-155000D01*
G01*
X123335000Y-120145000D01*
G75*
G02*
X123180000Y-120300000I-155000J0D01*
G01*
X122870000Y-120300000D01*
G75*
G02*
X122715000Y-120145000I0J155000D01*
G01*
X122715000Y-119720000D01*
G75*
G02*
X122870000Y-119565000I155000J0D01*
G01*
G37*
%TD*%
%TO.C,C212*%
G36*
G01*
X126957500Y-119745000D02*
X126957500Y-120055000D01*
G75*
G02*
X126802500Y-120210000I-155000J0D01*
G01*
X126377500Y-120210000D01*
G75*
G02*
X126222500Y-120055000I0J155000D01*
G01*
X126222500Y-119745000D01*
G75*
G02*
X126377500Y-119590000I155000J0D01*
G01*
X126802500Y-119590000D01*
G75*
G02*
X126957500Y-119745000I0J-155000D01*
G01*
G37*
G36*
G01*
X128092500Y-119745000D02*
X128092500Y-120055000D01*
G75*
G02*
X127937500Y-120210000I-155000J0D01*
G01*
X127512500Y-120210000D01*
G75*
G02*
X127357500Y-120055000I0J155000D01*
G01*
X127357500Y-119745000D01*
G75*
G02*
X127512500Y-119590000I155000J0D01*
G01*
X127937500Y-119590000D01*
G75*
G02*
X128092500Y-119745000I0J-155000D01*
G01*
G37*
%TD*%
%TO.C,C211*%
G36*
G01*
X128695000Y-120725000D02*
X129005000Y-120725000D01*
G75*
G02*
X129160000Y-120880000I0J-155000D01*
G01*
X129160000Y-121305000D01*
G75*
G02*
X129005000Y-121460000I-155000J0D01*
G01*
X128695000Y-121460000D01*
G75*
G02*
X128540000Y-121305000I0J155000D01*
G01*
X128540000Y-120880000D01*
G75*
G02*
X128695000Y-120725000I155000J0D01*
G01*
G37*
G36*
G01*
X128695000Y-119590000D02*
X129005000Y-119590000D01*
G75*
G02*
X129160000Y-119745000I0J-155000D01*
G01*
X129160000Y-120170000D01*
G75*
G02*
X129005000Y-120325000I-155000J0D01*
G01*
X128695000Y-120325000D01*
G75*
G02*
X128540000Y-120170000I0J155000D01*
G01*
X128540000Y-119745000D01*
G75*
G02*
X128695000Y-119590000I155000J0D01*
G01*
G37*
%TD*%
%TO.C,C210*%
G36*
G01*
X132455000Y-117875000D02*
X132145000Y-117875000D01*
G75*
G02*
X131990000Y-117720000I0J155000D01*
G01*
X131990000Y-117295000D01*
G75*
G02*
X132145000Y-117140000I155000J0D01*
G01*
X132455000Y-117140000D01*
G75*
G02*
X132610000Y-117295000I0J-155000D01*
G01*
X132610000Y-117720000D01*
G75*
G02*
X132455000Y-117875000I-155000J0D01*
G01*
G37*
G36*
G01*
X132455000Y-119010000D02*
X132145000Y-119010000D01*
G75*
G02*
X131990000Y-118855000I0J155000D01*
G01*
X131990000Y-118430000D01*
G75*
G02*
X132145000Y-118275000I155000J0D01*
G01*
X132455000Y-118275000D01*
G75*
G02*
X132610000Y-118430000I0J-155000D01*
G01*
X132610000Y-118855000D01*
G75*
G02*
X132455000Y-119010000I-155000J0D01*
G01*
G37*
%TD*%
%TO.C,C209*%
G36*
G01*
X130375000Y-120845000D02*
X130375000Y-121155000D01*
G75*
G02*
X130220000Y-121310000I-155000J0D01*
G01*
X129795000Y-121310000D01*
G75*
G02*
X129640000Y-121155000I0J155000D01*
G01*
X129640000Y-120845000D01*
G75*
G02*
X129795000Y-120690000I155000J0D01*
G01*
X130220000Y-120690000D01*
G75*
G02*
X130375000Y-120845000I0J-155000D01*
G01*
G37*
G36*
G01*
X131510000Y-120845000D02*
X131510000Y-121155000D01*
G75*
G02*
X131355000Y-121310000I-155000J0D01*
G01*
X130930000Y-121310000D01*
G75*
G02*
X130775000Y-121155000I0J155000D01*
G01*
X130775000Y-120845000D01*
G75*
G02*
X130930000Y-120690000I155000J0D01*
G01*
X131355000Y-120690000D01*
G75*
G02*
X131510000Y-120845000I0J-155000D01*
G01*
G37*
%TD*%
%TO.C,C208*%
G36*
G01*
X133832500Y-118520000D02*
X133832500Y-118830000D01*
G75*
G02*
X133677500Y-118985000I-155000J0D01*
G01*
X133252500Y-118985000D01*
G75*
G02*
X133097500Y-118830000I0J155000D01*
G01*
X133097500Y-118520000D01*
G75*
G02*
X133252500Y-118365000I155000J0D01*
G01*
X133677500Y-118365000D01*
G75*
G02*
X133832500Y-118520000I0J-155000D01*
G01*
G37*
G36*
G01*
X134967500Y-118520000D02*
X134967500Y-118830000D01*
G75*
G02*
X134812500Y-118985000I-155000J0D01*
G01*
X134387500Y-118985000D01*
G75*
G02*
X134232500Y-118830000I0J155000D01*
G01*
X134232500Y-118520000D01*
G75*
G02*
X134387500Y-118365000I155000J0D01*
G01*
X134812500Y-118365000D01*
G75*
G02*
X134967500Y-118520000I0J-155000D01*
G01*
G37*
%TD*%
%TO.C,C207*%
G36*
G01*
X132120000Y-120675000D02*
X132430000Y-120675000D01*
G75*
G02*
X132585000Y-120830000I0J-155000D01*
G01*
X132585000Y-121255000D01*
G75*
G02*
X132430000Y-121410000I-155000J0D01*
G01*
X132120000Y-121410000D01*
G75*
G02*
X131965000Y-121255000I0J155000D01*
G01*
X131965000Y-120830000D01*
G75*
G02*
X132120000Y-120675000I155000J0D01*
G01*
G37*
G36*
G01*
X132120000Y-119540000D02*
X132430000Y-119540000D01*
G75*
G02*
X132585000Y-119695000I0J-155000D01*
G01*
X132585000Y-120120000D01*
G75*
G02*
X132430000Y-120275000I-155000J0D01*
G01*
X132120000Y-120275000D01*
G75*
G02*
X131965000Y-120120000I0J155000D01*
G01*
X131965000Y-119695000D01*
G75*
G02*
X132120000Y-119540000I155000J0D01*
G01*
G37*
%TD*%
%TO.C,C206*%
G36*
G01*
X133850000Y-117320000D02*
X133850000Y-117630000D01*
G75*
G02*
X133695000Y-117785000I-155000J0D01*
G01*
X133270000Y-117785000D01*
G75*
G02*
X133115000Y-117630000I0J155000D01*
G01*
X133115000Y-117320000D01*
G75*
G02*
X133270000Y-117165000I155000J0D01*
G01*
X133695000Y-117165000D01*
G75*
G02*
X133850000Y-117320000I0J-155000D01*
G01*
G37*
G36*
G01*
X134985000Y-117320000D02*
X134985000Y-117630000D01*
G75*
G02*
X134830000Y-117785000I-155000J0D01*
G01*
X134405000Y-117785000D01*
G75*
G02*
X134250000Y-117630000I0J155000D01*
G01*
X134250000Y-117320000D01*
G75*
G02*
X134405000Y-117165000I155000J0D01*
G01*
X134830000Y-117165000D01*
G75*
G02*
X134985000Y-117320000I0J-155000D01*
G01*
G37*
%TD*%
%TO.C,C205*%
G36*
G01*
X134370000Y-121800000D02*
X134680000Y-121800000D01*
G75*
G02*
X134835000Y-121955000I0J-155000D01*
G01*
X134835000Y-122380000D01*
G75*
G02*
X134680000Y-122535000I-155000J0D01*
G01*
X134370000Y-122535000D01*
G75*
G02*
X134215000Y-122380000I0J155000D01*
G01*
X134215000Y-121955000D01*
G75*
G02*
X134370000Y-121800000I155000J0D01*
G01*
G37*
G36*
G01*
X134370000Y-120665000D02*
X134680000Y-120665000D01*
G75*
G02*
X134835000Y-120820000I0J-155000D01*
G01*
X134835000Y-121245000D01*
G75*
G02*
X134680000Y-121400000I-155000J0D01*
G01*
X134370000Y-121400000D01*
G75*
G02*
X134215000Y-121245000I0J155000D01*
G01*
X134215000Y-120820000D01*
G75*
G02*
X134370000Y-120665000I155000J0D01*
G01*
G37*
%TD*%
%TO.C,C204*%
G36*
G01*
X135645000Y-121775000D02*
X135955000Y-121775000D01*
G75*
G02*
X136110000Y-121930000I0J-155000D01*
G01*
X136110000Y-122355000D01*
G75*
G02*
X135955000Y-122510000I-155000J0D01*
G01*
X135645000Y-122510000D01*
G75*
G02*
X135490000Y-122355000I0J155000D01*
G01*
X135490000Y-121930000D01*
G75*
G02*
X135645000Y-121775000I155000J0D01*
G01*
G37*
G36*
G01*
X135645000Y-120640000D02*
X135955000Y-120640000D01*
G75*
G02*
X136110000Y-120795000I0J-155000D01*
G01*
X136110000Y-121220000D01*
G75*
G02*
X135955000Y-121375000I-155000J0D01*
G01*
X135645000Y-121375000D01*
G75*
G02*
X135490000Y-121220000I0J155000D01*
G01*
X135490000Y-120795000D01*
G75*
G02*
X135645000Y-120640000I155000J0D01*
G01*
G37*
%TD*%
%TO.C,C203*%
G36*
G01*
X138005000Y-123520000D02*
X138315000Y-123520000D01*
G75*
G02*
X138470000Y-123675000I0J-155000D01*
G01*
X138470000Y-124100000D01*
G75*
G02*
X138315000Y-124255000I-155000J0D01*
G01*
X138005000Y-124255000D01*
G75*
G02*
X137850000Y-124100000I0J155000D01*
G01*
X137850000Y-123675000D01*
G75*
G02*
X138005000Y-123520000I155000J0D01*
G01*
G37*
G36*
G01*
X138005000Y-122385000D02*
X138315000Y-122385000D01*
G75*
G02*
X138470000Y-122540000I0J-155000D01*
G01*
X138470000Y-122965000D01*
G75*
G02*
X138315000Y-123120000I-155000J0D01*
G01*
X138005000Y-123120000D01*
G75*
G02*
X137850000Y-122965000I0J155000D01*
G01*
X137850000Y-122540000D01*
G75*
G02*
X138005000Y-122385000I155000J0D01*
G01*
G37*
%TD*%
%TO.C,C202*%
G36*
G01*
X143215000Y-117630000D02*
X142905000Y-117630000D01*
G75*
G02*
X142750000Y-117475000I0J155000D01*
G01*
X142750000Y-117050000D01*
G75*
G02*
X142905000Y-116895000I155000J0D01*
G01*
X143215000Y-116895000D01*
G75*
G02*
X143370000Y-117050000I0J-155000D01*
G01*
X143370000Y-117475000D01*
G75*
G02*
X143215000Y-117630000I-155000J0D01*
G01*
G37*
G36*
G01*
X143215000Y-118765000D02*
X142905000Y-118765000D01*
G75*
G02*
X142750000Y-118610000I0J155000D01*
G01*
X142750000Y-118185000D01*
G75*
G02*
X142905000Y-118030000I155000J0D01*
G01*
X143215000Y-118030000D01*
G75*
G02*
X143370000Y-118185000I0J-155000D01*
G01*
X143370000Y-118610000D01*
G75*
G02*
X143215000Y-118765000I-155000J0D01*
G01*
G37*
%TD*%
%TO.C,C201*%
G36*
G01*
X144375000Y-120817500D02*
X144065000Y-120817500D01*
G75*
G02*
X143910000Y-120662500I0J155000D01*
G01*
X143910000Y-120237500D01*
G75*
G02*
X144065000Y-120082500I155000J0D01*
G01*
X144375000Y-120082500D01*
G75*
G02*
X144530000Y-120237500I0J-155000D01*
G01*
X144530000Y-120662500D01*
G75*
G02*
X144375000Y-120817500I-155000J0D01*
G01*
G37*
G36*
G01*
X144375000Y-121952500D02*
X144065000Y-121952500D01*
G75*
G02*
X143910000Y-121797500I0J155000D01*
G01*
X143910000Y-121372500D01*
G75*
G02*
X144065000Y-121217500I155000J0D01*
G01*
X144375000Y-121217500D01*
G75*
G02*
X144530000Y-121372500I0J-155000D01*
G01*
X144530000Y-121797500D01*
G75*
G02*
X144375000Y-121952500I-155000J0D01*
G01*
G37*
%TD*%
%TO.C,C108*%
G36*
G01*
X111245000Y-79967500D02*
X111555000Y-79967500D01*
G75*
G02*
X111710000Y-80122500I0J-155000D01*
G01*
X111710000Y-80547500D01*
G75*
G02*
X111555000Y-80702500I-155000J0D01*
G01*
X111245000Y-80702500D01*
G75*
G02*
X111090000Y-80547500I0J155000D01*
G01*
X111090000Y-80122500D01*
G75*
G02*
X111245000Y-79967500I155000J0D01*
G01*
G37*
G36*
G01*
X111245000Y-78832500D02*
X111555000Y-78832500D01*
G75*
G02*
X111710000Y-78987500I0J-155000D01*
G01*
X111710000Y-79412500D01*
G75*
G02*
X111555000Y-79567500I-155000J0D01*
G01*
X111245000Y-79567500D01*
G75*
G02*
X111090000Y-79412500I0J155000D01*
G01*
X111090000Y-78987500D01*
G75*
G02*
X111245000Y-78832500I155000J0D01*
G01*
G37*
%TD*%
%TO.C,C107*%
G36*
G01*
X114645000Y-79967500D02*
X114955000Y-79967500D01*
G75*
G02*
X115110000Y-80122500I0J-155000D01*
G01*
X115110000Y-80547500D01*
G75*
G02*
X114955000Y-80702500I-155000J0D01*
G01*
X114645000Y-80702500D01*
G75*
G02*
X114490000Y-80547500I0J155000D01*
G01*
X114490000Y-80122500D01*
G75*
G02*
X114645000Y-79967500I155000J0D01*
G01*
G37*
G36*
G01*
X114645000Y-78832500D02*
X114955000Y-78832500D01*
G75*
G02*
X115110000Y-78987500I0J-155000D01*
G01*
X115110000Y-79412500D01*
G75*
G02*
X114955000Y-79567500I-155000J0D01*
G01*
X114645000Y-79567500D01*
G75*
G02*
X114490000Y-79412500I0J155000D01*
G01*
X114490000Y-78987500D01*
G75*
G02*
X114645000Y-78832500I155000J0D01*
G01*
G37*
%TD*%
%TO.C,C106*%
G36*
G01*
X166495000Y-66432500D02*
X166805000Y-66432500D01*
G75*
G02*
X166960000Y-66587500I0J-155000D01*
G01*
X166960000Y-67012500D01*
G75*
G02*
X166805000Y-67167500I-155000J0D01*
G01*
X166495000Y-67167500D01*
G75*
G02*
X166340000Y-67012500I0J155000D01*
G01*
X166340000Y-66587500D01*
G75*
G02*
X166495000Y-66432500I155000J0D01*
G01*
G37*
G36*
G01*
X166495000Y-65297500D02*
X166805000Y-65297500D01*
G75*
G02*
X166960000Y-65452500I0J-155000D01*
G01*
X166960000Y-65877500D01*
G75*
G02*
X166805000Y-66032500I-155000J0D01*
G01*
X166495000Y-66032500D01*
G75*
G02*
X166340000Y-65877500I0J155000D01*
G01*
X166340000Y-65452500D01*
G75*
G02*
X166495000Y-65297500I155000J0D01*
G01*
G37*
%TD*%
%TO.C,C105*%
G36*
G01*
X165095000Y-66432500D02*
X165405000Y-66432500D01*
G75*
G02*
X165560000Y-66587500I0J-155000D01*
G01*
X165560000Y-67012500D01*
G75*
G02*
X165405000Y-67167500I-155000J0D01*
G01*
X165095000Y-67167500D01*
G75*
G02*
X164940000Y-67012500I0J155000D01*
G01*
X164940000Y-66587500D01*
G75*
G02*
X165095000Y-66432500I155000J0D01*
G01*
G37*
G36*
G01*
X165095000Y-65297500D02*
X165405000Y-65297500D01*
G75*
G02*
X165560000Y-65452500I0J-155000D01*
G01*
X165560000Y-65877500D01*
G75*
G02*
X165405000Y-66032500I-155000J0D01*
G01*
X165095000Y-66032500D01*
G75*
G02*
X164940000Y-65877500I0J155000D01*
G01*
X164940000Y-65452500D01*
G75*
G02*
X165095000Y-65297500I155000J0D01*
G01*
G37*
%TD*%
%TO.C,C104*%
G36*
G01*
X127067500Y-102405000D02*
X127067500Y-102095000D01*
G75*
G02*
X127222500Y-101940000I155000J0D01*
G01*
X127647500Y-101940000D01*
G75*
G02*
X127802500Y-102095000I0J-155000D01*
G01*
X127802500Y-102405000D01*
G75*
G02*
X127647500Y-102560000I-155000J0D01*
G01*
X127222500Y-102560000D01*
G75*
G02*
X127067500Y-102405000I0J155000D01*
G01*
G37*
G36*
G01*
X125932500Y-102405000D02*
X125932500Y-102095000D01*
G75*
G02*
X126087500Y-101940000I155000J0D01*
G01*
X126512500Y-101940000D01*
G75*
G02*
X126667500Y-102095000I0J-155000D01*
G01*
X126667500Y-102405000D01*
G75*
G02*
X126512500Y-102560000I-155000J0D01*
G01*
X126087500Y-102560000D01*
G75*
G02*
X125932500Y-102405000I0J155000D01*
G01*
G37*
%TD*%
%TO.C,C103*%
G36*
G01*
X126667500Y-101045000D02*
X126667500Y-101355000D01*
G75*
G02*
X126512500Y-101510000I-155000J0D01*
G01*
X126087500Y-101510000D01*
G75*
G02*
X125932500Y-101355000I0J155000D01*
G01*
X125932500Y-101045000D01*
G75*
G02*
X126087500Y-100890000I155000J0D01*
G01*
X126512500Y-100890000D01*
G75*
G02*
X126667500Y-101045000I0J-155000D01*
G01*
G37*
G36*
G01*
X127802500Y-101045000D02*
X127802500Y-101355000D01*
G75*
G02*
X127647500Y-101510000I-155000J0D01*
G01*
X127222500Y-101510000D01*
G75*
G02*
X127067500Y-101355000I0J155000D01*
G01*
X127067500Y-101045000D01*
G75*
G02*
X127222500Y-100890000I155000J0D01*
G01*
X127647500Y-100890000D01*
G75*
G02*
X127802500Y-101045000I0J-155000D01*
G01*
G37*
%TD*%
%TO.C,C102*%
G36*
G01*
X165505000Y-146702500D02*
X165195000Y-146702500D01*
G75*
G02*
X165040000Y-146547500I0J155000D01*
G01*
X165040000Y-146122500D01*
G75*
G02*
X165195000Y-145967500I155000J0D01*
G01*
X165505000Y-145967500D01*
G75*
G02*
X165660000Y-146122500I0J-155000D01*
G01*
X165660000Y-146547500D01*
G75*
G02*
X165505000Y-146702500I-155000J0D01*
G01*
G37*
G36*
G01*
X165505000Y-145567500D02*
X165195000Y-145567500D01*
G75*
G02*
X165040000Y-145412500I0J155000D01*
G01*
X165040000Y-144987500D01*
G75*
G02*
X165195000Y-144832500I155000J0D01*
G01*
X165505000Y-144832500D01*
G75*
G02*
X165660000Y-144987500I0J-155000D01*
G01*
X165660000Y-145412500D01*
G75*
G02*
X165505000Y-145567500I-155000J0D01*
G01*
G37*
%TD*%
%TO.C,C101*%
G36*
G01*
X164455000Y-146685000D02*
X164145000Y-146685000D01*
G75*
G02*
X163990000Y-146530000I0J155000D01*
G01*
X163990000Y-146105000D01*
G75*
G02*
X164145000Y-145950000I155000J0D01*
G01*
X164455000Y-145950000D01*
G75*
G02*
X164610000Y-146105000I0J-155000D01*
G01*
X164610000Y-146530000D01*
G75*
G02*
X164455000Y-146685000I-155000J0D01*
G01*
G37*
G36*
G01*
X164455000Y-145550000D02*
X164145000Y-145550000D01*
G75*
G02*
X163990000Y-145395000I0J155000D01*
G01*
X163990000Y-144970000D01*
G75*
G02*
X164145000Y-144815000I155000J0D01*
G01*
X164455000Y-144815000D01*
G75*
G02*
X164610000Y-144970000I0J-155000D01*
G01*
X164610000Y-145395000D01*
G75*
G02*
X164455000Y-145550000I-155000J0D01*
G01*
G37*
%TD*%
M02*
