M48
; DRILL file {KiCad (5.1.12-1-10_14)} date Tuesday, February 15, 2022 at 12:56:46 PM
; FORMAT={-:-/ absolute / metric / decimal}
; #@! TF.CreationDate,2022-02-15T12:56:46-08:00
; #@! TF.GenerationSoftware,Kicad,Pcbnew,(5.1.12-1-10_14)
; #@! TF.FileFunction,Plated,1,4,PTH
FMAT,2
METRIC
T1C0.400
T2C1.000
T3C2.500
%
G90
G05
T1
X107.2Y-76.4
X107.2Y-82.0
X107.75Y-116.4
X107.75Y-122.2
X110.1Y-78.4
X110.1Y-79.95
X110.6Y-118.55
X110.6Y-120.05
X111.375Y-78.05
X111.4Y-81.375
X111.725Y-118.2
X111.725Y-121.425
X112.425Y-78.05
X112.465Y-80.335
X112.75Y-118.2
X112.825Y-120.325
X113.7Y-78.05
X113.725Y-80.335
X113.875Y-118.225
X113.975Y-120.3
X114.775Y-81.375
X114.85Y-78.05
X115.025Y-118.2
X115.075Y-121.45
X115.875Y-78.45
X115.9Y-79.95
X116.15Y-118.525
X116.2Y-120.025
X117.025Y-78.45
X117.025Y-79.95
X117.35Y-118.3
X117.4Y-120.425
X118.175Y-79.95
X118.2Y-78.45
X118.575Y-118.3
X118.625Y-120.4
X118.7Y-114.93
X118.75Y-63.35
X119.45Y-78.45
X119.475Y-79.95
X119.825Y-122.325
X120.7Y-78.45
X120.7Y-79.95
X120.837Y-116.108
X121.225Y-66.95
X121.3Y-63.3
X121.65Y-89.45
X121.95Y-78.45
X121.95Y-79.95
X123.025Y-118.875
X123.2Y-78.45
X123.225Y-79.95
X124.075Y-118.9
X124.125Y-121.0
X124.45Y-79.95
X124.475Y-78.45
X125.275Y-118.9
X125.3Y-121.0
X125.775Y-79.95
X125.8Y-78.45
X126.0Y-91.95
X126.3Y-103.45
X126.475Y-121.0
X126.525Y-118.9
X126.95Y-78.45
X126.95Y-79.95
X127.4Y-58.4
X127.435Y-103.435
X127.675Y-118.9
X127.675Y-120.95
X127.725Y-122.05
X128.125Y-78.45
X128.15Y-79.95
X128.825Y-118.9
X128.825Y-122.15
X129.25Y-78.45
X129.3Y-79.95
X130.0Y-122.05
X130.025Y-118.85
X130.05Y-68.55
X130.2Y-72.995
X130.325Y-79.95
X130.425Y-78.45
X131.025Y-80.65
X131.1Y-118.85
X131.175Y-122.05
X131.2Y-89.25
X131.463Y-78.837
X131.775Y-81.4
X132.05Y-65.725
X132.225Y-79.6
X132.275Y-122.2
X132.3Y-116.325
X132.55Y-82.175
X132.95Y-80.325
X132.95Y-83.125
X132.95Y-84.15
X132.95Y-85.15
X133.35Y-122.2
X133.375Y-123.2
X133.482Y-116.343
X133.713Y-81.087
X133.85Y-142.15
X134.275Y-65.75
X134.425Y-81.8
X134.45Y-82.9
X134.45Y-83.95
X134.45Y-84.95
X134.525Y-123.25
X135.0Y-58.4
X135.8Y-123.25
X135.85Y-137.5
X135.85Y-138.5
X135.85Y-139.4
X136.125Y-136.625
X136.912Y-135.862
X137.275Y-122.752
X137.375Y-137.55
X137.375Y-138.55
X137.375Y-139.5
X137.6Y-58.5
X137.737Y-135.037
X137.95Y-89.45
X138.112Y-136.787
X138.16Y-125.015
X138.537Y-134.237
X138.862Y-136.037
X139.287Y-133.487
X139.35Y-142.15
X139.55Y-135.35
X140.088Y-132.688
X140.175Y-123.475
X140.287Y-134.612
X140.887Y-131.887
X140.987Y-133.912
X141.637Y-131.137
X141.762Y-133.137
X142.525Y-130.7
X142.562Y-132.338
X142.7Y-52.7
X142.99Y-122.95
X143.05Y-125.57
X143.06Y-120.45
X143.65Y-84.3
X143.65Y-132.25
X143.675Y-130.7
X144.08Y-114.92
X144.127Y-117.262
X144.675Y-130.7
X144.675Y-132.225
X144.851Y-83.151
X145.925Y-102.375
X147.6Y-71.0
X147.65Y-65.4
X147.8Y-80.5
X147.9Y-90.3
X148.3Y-132.95
X148.3Y-143.45
X149.1Y-79.5
X149.1Y-90.3
X150.1Y-57.8
X150.3Y-79.5
X151.4Y-57.8
X151.975Y-89.4
X152.44Y-66.48
X152.6Y-57.8
X152.885Y-80.59
X153.725Y-89.4
X153.9Y-57.8
X154.225Y-80.5
X155.075Y-89.35
X155.125Y-57.8
X155.4Y-80.5
X156.05Y-57.8
X157.6Y-56.25
X158.138Y-87.512
X158.6Y-56.25
X160.5Y-134.5
X160.65Y-142.0
X162.5Y-103.8
X162.5Y-106.4
X162.5Y-113.95
X162.55Y-119.1
X162.6Y-121.5
X163.218Y-146.317
X163.525Y-101.275
X164.3Y-141.1
X164.55Y-96.2
X165.25Y-67.95
X165.55Y-93.65
X166.4Y-91.1
X166.4Y-98.75
X166.4Y-111.4
X166.44Y-116.51
X166.48Y-88.57
X166.65Y-64.35
X168.5Y-74.6
X169.85Y-74.6
X172.63Y-124.13
X173.375Y-137.625
X174.15Y-74.6
X175.4Y-74.6
X176.9Y-106.35
X176.96Y-96.19
X177.03Y-86.03
X183.425Y-143.55
X193.175Y-60.6
X197.25Y-60.675
T2
X130.74Y-110.54
X133.28Y-110.54
X135.82Y-110.54
X138.36Y-110.54
X140.9Y-110.54
X143.44Y-110.54
X145.98Y-110.54
X147.85Y-73.75
X148.52Y-110.54
X150.39Y-73.75
X151.06Y-110.54
X152.93Y-73.75
X155.47Y-73.75
X158.01Y-73.75
X160.55Y-73.75
X165.25Y-59.0
X167.79Y-59.0
X170.33Y-59.0
X172.87Y-59.0
X175.41Y-59.0
X177.95Y-59.0
X180.49Y-59.0
X183.03Y-59.0
X185.57Y-59.0
X188.11Y-59.0
T3
X105.0Y-55.0
X105.0Y-145.0
X195.0Y-55.0
X195.0Y-145.0
T0
M30
