%TF.GenerationSoftware,KiCad,Pcbnew,(5.1.12-1-10_14)*%
%TF.CreationDate,2022-02-15T12:56:50-08:00*%
%TF.ProjectId,g3_compute,67335f63-6f6d-4707-9574-652e6b696361,1*%
%TF.SameCoordinates,Original*%
%TF.FileFunction,Copper,L1,Top*%
%TF.FilePolarity,Positive*%
%FSLAX46Y46*%
G04 Gerber Fmt 4.6, Leading zero omitted, Abs format (unit mm)*
G04 Created by KiCad (PCBNEW (5.1.12-1-10_14)) date 2022-02-15 12:56:50*
%MOMM*%
%LPD*%
G01*
G04 APERTURE LIST*
%TA.AperFunction,EtchedComponent*%
%ADD10C,0.100000*%
%TD*%
%TA.AperFunction,SMDPad,CuDef*%
%ADD11R,1.000000X2.510000*%
%TD*%
%TA.AperFunction,SMDPad,CuDef*%
%ADD12R,1.050000X1.000000*%
%TD*%
%TA.AperFunction,SMDPad,CuDef*%
%ADD13R,2.200000X1.050000*%
%TD*%
%TA.AperFunction,SMDPad,CuDef*%
%ADD14R,1.000000X1.050000*%
%TD*%
%TA.AperFunction,SMDPad,CuDef*%
%ADD15R,1.050000X2.200000*%
%TD*%
%TA.AperFunction,SMDPad,CuDef*%
%ADD16R,2.200000X1.400000*%
%TD*%
%TA.AperFunction,SMDPad,CuDef*%
%ADD17R,1.400000X2.200000*%
%TD*%
%TA.AperFunction,SMDPad,CuDef*%
%ADD18R,2.510000X1.000000*%
%TD*%
%TA.AperFunction,SMDPad,CuDef*%
%ADD19R,2.220000X1.020000*%
%TD*%
%TA.AperFunction,SMDPad,CuDef*%
%ADD20R,0.900000X0.800000*%
%TD*%
%TA.AperFunction,SMDPad,CuDef*%
%ADD21R,0.650000X0.400000*%
%TD*%
%TA.AperFunction,SMDPad,CuDef*%
%ADD22R,2.700000X2.700000*%
%TD*%
%TA.AperFunction,SMDPad,CuDef*%
%ADD23R,2.000000X1.000000*%
%TD*%
%TA.AperFunction,SMDPad,CuDef*%
%ADD24R,2.300000X1.000000*%
%TD*%
%TA.AperFunction,SMDPad,CuDef*%
%ADD25R,1.000000X2.300000*%
%TD*%
%TA.AperFunction,SMDPad,CuDef*%
%ADD26R,0.457200X1.003300*%
%TD*%
%TA.AperFunction,SMDPad,CuDef*%
%ADD27C,0.100000*%
%TD*%
%TA.AperFunction,ComponentPad*%
%ADD28O,1.700000X1.700000*%
%TD*%
%TA.AperFunction,ComponentPad*%
%ADD29R,1.700000X1.700000*%
%TD*%
%TA.AperFunction,SMDPad,CuDef*%
%ADD30R,0.812800X2.794000*%
%TD*%
%TA.AperFunction,SMDPad,CuDef*%
%ADD31R,1.701800X5.003800*%
%TD*%
%TA.AperFunction,SMDPad,CuDef*%
%ADD32R,0.800000X1.300000*%
%TD*%
%TA.AperFunction,SMDPad,CuDef*%
%ADD33R,2.100000X3.000000*%
%TD*%
%TA.AperFunction,SMDPad,CuDef*%
%ADD34R,0.650000X1.525000*%
%TD*%
%TA.AperFunction,ComponentPad*%
%ADD35C,5.000000*%
%TD*%
%TA.AperFunction,ViaPad*%
%ADD36C,0.800000*%
%TD*%
%TA.AperFunction,Conductor*%
%ADD37C,0.250000*%
%TD*%
%TA.AperFunction,Conductor*%
%ADD38C,0.279400*%
%TD*%
%TA.AperFunction,Conductor*%
%ADD39C,0.200000*%
%TD*%
%TA.AperFunction,Conductor*%
%ADD40C,0.500000*%
%TD*%
%TA.AperFunction,Conductor*%
%ADD41C,0.254000*%
%TD*%
%TA.AperFunction,Conductor*%
%ADD42C,0.100000*%
%TD*%
G04 APERTURE END LIST*
D10*
%TO.C,JP104*%
G36*
X147300000Y-62900000D02*
G01*
X147300000Y-63400000D01*
X147900000Y-63400000D01*
X147900000Y-62900000D01*
X147300000Y-62900000D01*
G37*
%TO.C,JP103*%
G36*
X144650000Y-62900000D02*
G01*
X144650000Y-63400000D01*
X145250000Y-63400000D01*
X145250000Y-62900000D01*
X144650000Y-62900000D01*
G37*
%TO.C,JP102*%
G36*
X113350000Y-67600000D02*
G01*
X113350000Y-68100000D01*
X113950000Y-68100000D01*
X113950000Y-67600000D01*
X113350000Y-67600000D01*
G37*
%TO.C,JP101*%
G36*
X116100000Y-67600000D02*
G01*
X116100000Y-68100000D01*
X116700000Y-68100000D01*
X116700000Y-67600000D01*
X116100000Y-67600000D01*
G37*
%TD*%
D11*
%TO.P,J104,6*%
%TO.N,/CPPC_INT*%
X127440000Y-56000000D03*
%TO.P,J104,4*%
%TO.N,/CPPC_RX*%
X132520000Y-56000000D03*
%TO.P,J104,2*%
%TO.N,+3V3*%
X137600000Y-56000000D03*
%TO.P,J104,5*%
%TO.N,/CPPC_TX*%
X129980000Y-52690000D03*
%TO.P,J104,3*%
%TO.N,GND*%
X135060000Y-52690000D03*
%TO.P,J104,1*%
%TO.N,+5V*%
X140140000Y-52690000D03*
%TD*%
D12*
%TO.P,J110,2*%
%TO.N,/ANT*%
X108700000Y-79200000D03*
D13*
%TO.P,J110,1*%
%TO.N,GND*%
X107200000Y-80675000D03*
X107200000Y-77725000D03*
%TD*%
D14*
%TO.P,J109,2*%
%TO.N,Net-(J109-Pad2)*%
X136600000Y-140650000D03*
D15*
%TO.P,J109,1*%
%TO.N,GND*%
X138075000Y-142150000D03*
X135125000Y-142150000D03*
%TD*%
D12*
%TO.P,J108,2*%
%TO.N,/LoRa Module/ANT*%
X109250000Y-119300000D03*
D13*
%TO.P,J108,1*%
%TO.N,GND*%
X107750000Y-120775000D03*
X107750000Y-117825000D03*
%TD*%
D16*
%TO.P,TP140,1*%
%TO.N,GND*%
X185425000Y-143550000D03*
%TD*%
%TO.P,TP139,1*%
%TO.N,GND*%
X147925000Y-102375000D03*
%TD*%
%TO.P,TP138,1*%
%TO.N,GND*%
X123100000Y-66950000D03*
%TD*%
D17*
%TO.P,TP137,1*%
%TO.N,/LOAD_RX*%
X152850000Y-77300000D03*
%TD*%
%TO.P,TP136,1*%
%TO.N,/LOAD_TX*%
X150350000Y-77300000D03*
%TD*%
%TO.P,TP135,1*%
%TO.N,/PI_GPIO5*%
X183050000Y-55000000D03*
%TD*%
%TO.P,TP134,1*%
%TO.N,/PI_GPIO27*%
X170360000Y-54990000D03*
%TD*%
%TO.P,TP133,1*%
%TO.N,/PI_GPIO22*%
X172870000Y-54990000D03*
%TD*%
D16*
%TO.P,TP132,1*%
%TO.N,/MUX_SELB*%
X165450000Y-113950000D03*
%TD*%
%TO.P,TP131,1*%
%TO.N,/MUX_SELA*%
X165450000Y-106350000D03*
%TD*%
D17*
%TO.P,TP130,1*%
%TO.N,/PI_GPIO6*%
X185590000Y-54990000D03*
%TD*%
%TO.P,TP129,1*%
%TO.N,/PI_GPIO17*%
X167810000Y-55010000D03*
%TD*%
%TO.P,TP128,1*%
%TO.N,/PI_GPIO13*%
X188130000Y-55000000D03*
%TD*%
%TO.P,TP127,1*%
%TO.N,/PI_GPIO11*%
X180510000Y-54990000D03*
%TD*%
%TO.P,TP126,1*%
%TO.N,/PI_GPIO10*%
X175440000Y-54990000D03*
%TD*%
%TO.P,TP125,1*%
%TO.N,/PI_GPIO9*%
X177940000Y-54990000D03*
%TD*%
%TO.P,TP124,1*%
%TO.N,/PI_GPIO4*%
X165270000Y-55010000D03*
%TD*%
D16*
%TO.P,TP123,1*%
%TO.N,/~E5_BOOT*%
X165450000Y-121550000D03*
%TD*%
%TO.P,TP122,1*%
%TO.N,GND*%
X197250000Y-62400000D03*
%TD*%
%TO.P,TP121,1*%
%TO.N,+5V*%
X159100000Y-58950000D03*
%TD*%
%TO.P,TP120,1*%
%TO.N,+3V3*%
X193150000Y-62400000D03*
%TD*%
%TO.P,TP119,1*%
%TO.N,V_GPS*%
X170075000Y-145625000D03*
%TD*%
%TO.P,TP118,1*%
%TO.N,/PI_RXD0*%
X160450000Y-86000000D03*
%TD*%
%TO.P,TP117,1*%
%TO.N,/PI_TXD0*%
X160450000Y-83500000D03*
%TD*%
D17*
%TO.P,TP116,1*%
%TO.N,/PS_CC_SCL*%
X147600000Y-59950000D03*
%TD*%
%TO.P,TP115,1*%
%TO.N,/PS_CC_SDA*%
X145150000Y-60000000D03*
%TD*%
%TO.P,TP114,1*%
%TO.N,/Temp_SCL*%
X113750000Y-64650000D03*
%TD*%
%TO.P,TP113,1*%
%TO.N,/Temp_SDA*%
X116250000Y-64650000D03*
%TD*%
D16*
%TO.P,TP112,1*%
%TO.N,/PI_SCL*%
X139800000Y-71800000D03*
%TD*%
%TO.P,TP111,1*%
%TO.N,/PI_SDA*%
X139800000Y-69650000D03*
%TD*%
D17*
%TO.P,TP110,1*%
%TO.N,/CPPC_RX*%
X134300000Y-60500000D03*
%TD*%
%TO.P,TP109,1*%
%TO.N,/CPPC_TX*%
X132050000Y-60500000D03*
%TD*%
D16*
%TO.P,TP108,1*%
%TO.N,/GPS_3DFIX*%
X166250000Y-139000000D03*
%TD*%
%TO.P,TP107,1*%
%TO.N,/GPS_SW_EN*%
X182650000Y-137000000D03*
%TD*%
%TO.P,TP106,1*%
%TO.N,/~GPS_RESET*%
X167300000Y-143500000D03*
%TD*%
D17*
%TO.P,TP105,1*%
%TO.N,/GPS_RX*%
X156500000Y-124150000D03*
%TD*%
%TO.P,TP104,1*%
%TO.N,/GPS_TX*%
X154150000Y-124100000D03*
%TD*%
D16*
%TO.P,TP103,1*%
%TO.N,/~E5_RESET*%
X165450000Y-119100000D03*
%TD*%
%TO.P,TP102,1*%
%TO.N,/E5_RX*%
X142050000Y-96250000D03*
%TD*%
%TO.P,TP101,1*%
%TO.N,/E5_TX*%
X142050000Y-93900000D03*
%TD*%
D18*
%TO.P,J111,2*%
%TO.N,+5V*%
X156490000Y-66430000D03*
%TO.P,J111,1*%
%TO.N,Net-(J107-Pad3)*%
X153180000Y-63890000D03*
%TD*%
D19*
%TO.P,J106,40*%
%TO.N,/GPS_3DFIX*%
X169175000Y-124130000D03*
%TO.P,J106,39*%
%TO.N,GND*%
X174825000Y-124130000D03*
%TO.P,J106,38*%
%TO.N,/~E5_BOOT*%
X169175000Y-121590000D03*
%TO.P,J106,37*%
%TO.N,/~GPS_RESET*%
X174825000Y-121590000D03*
%TO.P,J106,36*%
%TO.N,/~E5_RESET*%
X169175000Y-119050000D03*
%TO.P,J106,35*%
%TO.N,/GPS_SW_EN*%
X174825000Y-119050000D03*
%TO.P,J106,34*%
%TO.N,GND*%
X169175000Y-116510000D03*
%TO.P,J106,33*%
%TO.N,/PI_GPIO13*%
X174825000Y-116510000D03*
%TO.P,J106,32*%
%TO.N,/MUX_SELB*%
X169175000Y-113970000D03*
%TO.P,J106,31*%
%TO.N,/PI_GPIO6*%
X174825000Y-113970000D03*
%TO.P,J106,30*%
%TO.N,GND*%
X169175000Y-111430000D03*
%TO.P,J106,29*%
%TO.N,/PI_GPIO5*%
X174825000Y-111430000D03*
%TO.P,J106,28*%
%TO.N,Net-(J106-Pad28)*%
X169175000Y-108890000D03*
%TO.P,J106,27*%
%TO.N,Net-(J106-Pad27)*%
X174825000Y-108890000D03*
%TO.P,J106,26*%
%TO.N,/MUX_SELA*%
X169175000Y-106350000D03*
%TO.P,J106,25*%
%TO.N,GND*%
X174825000Y-106350000D03*
%TO.P,J106,24*%
%TO.N,/CPPC_INT*%
X169175000Y-103810000D03*
%TO.P,J106,23*%
%TO.N,/PI_GPIO11*%
X174825000Y-103810000D03*
%TO.P,J106,22*%
%TO.N,/~PS_CC_QON*%
X169175000Y-101270000D03*
%TO.P,J106,21*%
%TO.N,/PI_GPIO9*%
X174825000Y-101270000D03*
%TO.P,J106,20*%
%TO.N,GND*%
X169175000Y-98730000D03*
%TO.P,J106,19*%
%TO.N,/PI_GPIO10*%
X174825000Y-98730000D03*
%TO.P,J106,18*%
%TO.N,/~PS_CC_CE*%
X169175000Y-96190000D03*
%TO.P,J106,17*%
%TO.N,+3V3*%
X174825000Y-96190000D03*
%TO.P,J106,16*%
%TO.N,/~PS_CC_INT*%
X169175000Y-93650000D03*
%TO.P,J106,15*%
%TO.N,/PI_GPIO22*%
X174825000Y-93650000D03*
%TO.P,J106,14*%
%TO.N,GND*%
X169175000Y-91110000D03*
%TO.P,J106,13*%
%TO.N,/PI_GPIO27*%
X174825000Y-91110000D03*
%TO.P,J106,12*%
%TO.N,/PS_BOOST_PS*%
X169175000Y-88570000D03*
%TO.P,J106,11*%
%TO.N,/PI_GPIO17*%
X174825000Y-88570000D03*
%TO.P,J106,10*%
%TO.N,/PI_RXD0*%
X169175000Y-86030000D03*
%TO.P,J106,9*%
%TO.N,GND*%
X174825000Y-86030000D03*
%TO.P,J106,8*%
%TO.N,/PI_TXD0*%
X169175000Y-83490000D03*
%TO.P,J106,7*%
%TO.N,/PI_GPIO4*%
X174825000Y-83490000D03*
%TO.P,J106,6*%
%TO.N,GND*%
X169175000Y-80950000D03*
%TO.P,J106,5*%
%TO.N,/PI_SCL*%
X174825000Y-80950000D03*
%TO.P,J106,4*%
%TO.N,Net-(J106-Pad4)*%
X169175000Y-78410000D03*
%TO.P,J106,3*%
%TO.N,/PI_SDA*%
X174825000Y-78410000D03*
%TO.P,J106,2*%
%TO.N,+5V*%
X169175000Y-75870000D03*
%TO.P,J106,1*%
%TO.N,+3V3*%
X174825000Y-75870000D03*
%TD*%
D20*
%TO.P,Y201,4*%
%TO.N,GND*%
X141820000Y-125570000D03*
%TO.P,Y201,3*%
%TO.N,Net-(U201-Pad3)*%
X140420000Y-125570000D03*
%TO.P,Y201,2*%
%TO.N,GND*%
X140420000Y-124470000D03*
%TO.P,Y201,1*%
%TO.N,Net-(U201-Pad4)*%
X141820000Y-124470000D03*
%TD*%
D21*
%TO.P,U202,6*%
%TO.N,+3V3*%
X119825000Y-119925000D03*
%TO.P,U202,4*%
%TO.N,Net-(C214-Pad1)*%
X119825000Y-118625000D03*
%TO.P,U202,2*%
%TO.N,GND*%
X121725000Y-119275000D03*
%TO.P,U202,5*%
%TO.N,Net-(C215-Pad1)*%
X119825000Y-119275000D03*
%TO.P,U202,3*%
%TO.N,Net-(C208-Pad2)*%
X121725000Y-118625000D03*
%TO.P,U202,1*%
%TO.N,Net-(C213-Pad1)*%
X121725000Y-119925000D03*
%TD*%
D22*
%TO.P,U201,25*%
%TO.N,GND*%
X139400000Y-119150000D03*
%TO.P,U201,24*%
%TO.N,Net-(C204-Pad1)*%
%TA.AperFunction,SMDPad,CuDef*%
G36*
G01*
X137787500Y-120525000D02*
X137087500Y-120525000D01*
G75*
G02*
X137025000Y-120462500I0J62500D01*
G01*
X137025000Y-120337500D01*
G75*
G02*
X137087500Y-120275000I62500J0D01*
G01*
X137787500Y-120275000D01*
G75*
G02*
X137850000Y-120337500I0J-62500D01*
G01*
X137850000Y-120462500D01*
G75*
G02*
X137787500Y-120525000I-62500J0D01*
G01*
G37*
%TD.AperFunction*%
%TO.P,U201,23*%
%TO.N,Net-(L202-Pad1)*%
%TA.AperFunction,SMDPad,CuDef*%
G36*
G01*
X137787500Y-120025000D02*
X137087500Y-120025000D01*
G75*
G02*
X137025000Y-119962500I0J62500D01*
G01*
X137025000Y-119837500D01*
G75*
G02*
X137087500Y-119775000I62500J0D01*
G01*
X137787500Y-119775000D01*
G75*
G02*
X137850000Y-119837500I0J-62500D01*
G01*
X137850000Y-119962500D01*
G75*
G02*
X137787500Y-120025000I-62500J0D01*
G01*
G37*
%TD.AperFunction*%
%TO.P,U201,22*%
%TO.N,Net-(C208-Pad1)*%
%TA.AperFunction,SMDPad,CuDef*%
G36*
G01*
X137787500Y-119525000D02*
X137087500Y-119525000D01*
G75*
G02*
X137025000Y-119462500I0J62500D01*
G01*
X137025000Y-119337500D01*
G75*
G02*
X137087500Y-119275000I62500J0D01*
G01*
X137787500Y-119275000D01*
G75*
G02*
X137850000Y-119337500I0J-62500D01*
G01*
X137850000Y-119462500D01*
G75*
G02*
X137787500Y-119525000I-62500J0D01*
G01*
G37*
%TD.AperFunction*%
%TO.P,U201,21*%
%TO.N,Net-(C206-Pad1)*%
%TA.AperFunction,SMDPad,CuDef*%
G36*
G01*
X137787500Y-119025000D02*
X137087500Y-119025000D01*
G75*
G02*
X137025000Y-118962500I0J62500D01*
G01*
X137025000Y-118837500D01*
G75*
G02*
X137087500Y-118775000I62500J0D01*
G01*
X137787500Y-118775000D01*
G75*
G02*
X137850000Y-118837500I0J-62500D01*
G01*
X137850000Y-118962500D01*
G75*
G02*
X137787500Y-119025000I-62500J0D01*
G01*
G37*
%TD.AperFunction*%
%TO.P,U201,20*%
%TO.N,GND*%
%TA.AperFunction,SMDPad,CuDef*%
G36*
G01*
X137787500Y-118525000D02*
X137087500Y-118525000D01*
G75*
G02*
X137025000Y-118462500I0J62500D01*
G01*
X137025000Y-118337500D01*
G75*
G02*
X137087500Y-118275000I62500J0D01*
G01*
X137787500Y-118275000D01*
G75*
G02*
X137850000Y-118337500I0J-62500D01*
G01*
X137850000Y-118462500D01*
G75*
G02*
X137787500Y-118525000I-62500J0D01*
G01*
G37*
%TD.AperFunction*%
%TO.P,U201,19*%
%TO.N,/~SX_CS*%
%TA.AperFunction,SMDPad,CuDef*%
G36*
G01*
X137787500Y-118025000D02*
X137087500Y-118025000D01*
G75*
G02*
X137025000Y-117962500I0J62500D01*
G01*
X137025000Y-117837500D01*
G75*
G02*
X137087500Y-117775000I62500J0D01*
G01*
X137787500Y-117775000D01*
G75*
G02*
X137850000Y-117837500I0J-62500D01*
G01*
X137850000Y-117962500D01*
G75*
G02*
X137787500Y-118025000I-62500J0D01*
G01*
G37*
%TD.AperFunction*%
%TO.P,U201,18*%
%TO.N,/SX_SCK*%
%TA.AperFunction,SMDPad,CuDef*%
G36*
G01*
X138212500Y-117600000D02*
X138087500Y-117600000D01*
G75*
G02*
X138025000Y-117537500I0J62500D01*
G01*
X138025000Y-116837500D01*
G75*
G02*
X138087500Y-116775000I62500J0D01*
G01*
X138212500Y-116775000D01*
G75*
G02*
X138275000Y-116837500I0J-62500D01*
G01*
X138275000Y-117537500D01*
G75*
G02*
X138212500Y-117600000I-62500J0D01*
G01*
G37*
%TD.AperFunction*%
%TO.P,U201,17*%
%TO.N,/SX_SDI*%
%TA.AperFunction,SMDPad,CuDef*%
G36*
G01*
X138712500Y-117600000D02*
X138587500Y-117600000D01*
G75*
G02*
X138525000Y-117537500I0J62500D01*
G01*
X138525000Y-116837500D01*
G75*
G02*
X138587500Y-116775000I62500J0D01*
G01*
X138712500Y-116775000D01*
G75*
G02*
X138775000Y-116837500I0J-62500D01*
G01*
X138775000Y-117537500D01*
G75*
G02*
X138712500Y-117600000I-62500J0D01*
G01*
G37*
%TD.AperFunction*%
%TO.P,U201,16*%
%TO.N,/SX_SDO*%
%TA.AperFunction,SMDPad,CuDef*%
G36*
G01*
X139212500Y-117600000D02*
X139087500Y-117600000D01*
G75*
G02*
X139025000Y-117537500I0J62500D01*
G01*
X139025000Y-116837500D01*
G75*
G02*
X139087500Y-116775000I62500J0D01*
G01*
X139212500Y-116775000D01*
G75*
G02*
X139275000Y-116837500I0J-62500D01*
G01*
X139275000Y-117537500D01*
G75*
G02*
X139212500Y-117600000I-62500J0D01*
G01*
G37*
%TD.AperFunction*%
%TO.P,U201,15*%
%TO.N,/~SX_RESET*%
%TA.AperFunction,SMDPad,CuDef*%
G36*
G01*
X139712500Y-117600000D02*
X139587500Y-117600000D01*
G75*
G02*
X139525000Y-117537500I0J62500D01*
G01*
X139525000Y-116837500D01*
G75*
G02*
X139587500Y-116775000I62500J0D01*
G01*
X139712500Y-116775000D01*
G75*
G02*
X139775000Y-116837500I0J-62500D01*
G01*
X139775000Y-117537500D01*
G75*
G02*
X139712500Y-117600000I-62500J0D01*
G01*
G37*
%TD.AperFunction*%
%TO.P,U201,14*%
%TO.N,/SX_BUSY*%
%TA.AperFunction,SMDPad,CuDef*%
G36*
G01*
X140212500Y-117600000D02*
X140087500Y-117600000D01*
G75*
G02*
X140025000Y-117537500I0J62500D01*
G01*
X140025000Y-116837500D01*
G75*
G02*
X140087500Y-116775000I62500J0D01*
G01*
X140212500Y-116775000D01*
G75*
G02*
X140275000Y-116837500I0J-62500D01*
G01*
X140275000Y-117537500D01*
G75*
G02*
X140212500Y-117600000I-62500J0D01*
G01*
G37*
%TD.AperFunction*%
%TO.P,U201,13*%
%TO.N,/SX_DIO1*%
%TA.AperFunction,SMDPad,CuDef*%
G36*
G01*
X140712500Y-117600000D02*
X140587500Y-117600000D01*
G75*
G02*
X140525000Y-117537500I0J62500D01*
G01*
X140525000Y-116837500D01*
G75*
G02*
X140587500Y-116775000I62500J0D01*
G01*
X140712500Y-116775000D01*
G75*
G02*
X140775000Y-116837500I0J-62500D01*
G01*
X140775000Y-117537500D01*
G75*
G02*
X140712500Y-117600000I-62500J0D01*
G01*
G37*
%TD.AperFunction*%
%TO.P,U201,12*%
%TO.N,/SX_DIO2*%
%TA.AperFunction,SMDPad,CuDef*%
G36*
G01*
X141712500Y-118025000D02*
X141012500Y-118025000D01*
G75*
G02*
X140950000Y-117962500I0J62500D01*
G01*
X140950000Y-117837500D01*
G75*
G02*
X141012500Y-117775000I62500J0D01*
G01*
X141712500Y-117775000D01*
G75*
G02*
X141775000Y-117837500I0J-62500D01*
G01*
X141775000Y-117962500D01*
G75*
G02*
X141712500Y-118025000I-62500J0D01*
G01*
G37*
%TD.AperFunction*%
%TO.P,U201,11*%
%TO.N,Net-(C202-Pad1)*%
%TA.AperFunction,SMDPad,CuDef*%
G36*
G01*
X141712500Y-118525000D02*
X141012500Y-118525000D01*
G75*
G02*
X140950000Y-118462500I0J62500D01*
G01*
X140950000Y-118337500D01*
G75*
G02*
X141012500Y-118275000I62500J0D01*
G01*
X141712500Y-118275000D01*
G75*
G02*
X141775000Y-118337500I0J-62500D01*
G01*
X141775000Y-118462500D01*
G75*
G02*
X141712500Y-118525000I-62500J0D01*
G01*
G37*
%TD.AperFunction*%
%TO.P,U201,10*%
%TA.AperFunction,SMDPad,CuDef*%
G36*
G01*
X141712500Y-119025000D02*
X141012500Y-119025000D01*
G75*
G02*
X140950000Y-118962500I0J62500D01*
G01*
X140950000Y-118837500D01*
G75*
G02*
X141012500Y-118775000I62500J0D01*
G01*
X141712500Y-118775000D01*
G75*
G02*
X141775000Y-118837500I0J-62500D01*
G01*
X141775000Y-118962500D01*
G75*
G02*
X141712500Y-119025000I-62500J0D01*
G01*
G37*
%TD.AperFunction*%
%TO.P,U201,9*%
%TO.N,Net-(L201-Pad2)*%
%TA.AperFunction,SMDPad,CuDef*%
G36*
G01*
X141712500Y-119525000D02*
X141012500Y-119525000D01*
G75*
G02*
X140950000Y-119462500I0J62500D01*
G01*
X140950000Y-119337500D01*
G75*
G02*
X141012500Y-119275000I62500J0D01*
G01*
X141712500Y-119275000D01*
G75*
G02*
X141775000Y-119337500I0J-62500D01*
G01*
X141775000Y-119462500D01*
G75*
G02*
X141712500Y-119525000I-62500J0D01*
G01*
G37*
%TD.AperFunction*%
%TO.P,U201,8*%
%TO.N,GND*%
%TA.AperFunction,SMDPad,CuDef*%
G36*
G01*
X141712500Y-120025000D02*
X141012500Y-120025000D01*
G75*
G02*
X140950000Y-119962500I0J62500D01*
G01*
X140950000Y-119837500D01*
G75*
G02*
X141012500Y-119775000I62500J0D01*
G01*
X141712500Y-119775000D01*
G75*
G02*
X141775000Y-119837500I0J-62500D01*
G01*
X141775000Y-119962500D01*
G75*
G02*
X141712500Y-120025000I-62500J0D01*
G01*
G37*
%TD.AperFunction*%
%TO.P,U201,7*%
%TO.N,Net-(C201-Pad1)*%
%TA.AperFunction,SMDPad,CuDef*%
G36*
G01*
X141712500Y-120525000D02*
X141012500Y-120525000D01*
G75*
G02*
X140950000Y-120462500I0J62500D01*
G01*
X140950000Y-120337500D01*
G75*
G02*
X141012500Y-120275000I62500J0D01*
G01*
X141712500Y-120275000D01*
G75*
G02*
X141775000Y-120337500I0J-62500D01*
G01*
X141775000Y-120462500D01*
G75*
G02*
X141712500Y-120525000I-62500J0D01*
G01*
G37*
%TD.AperFunction*%
%TO.P,U201,6*%
%TO.N,/SX_DIO3*%
%TA.AperFunction,SMDPad,CuDef*%
G36*
G01*
X140712500Y-121525000D02*
X140587500Y-121525000D01*
G75*
G02*
X140525000Y-121462500I0J62500D01*
G01*
X140525000Y-120762500D01*
G75*
G02*
X140587500Y-120700000I62500J0D01*
G01*
X140712500Y-120700000D01*
G75*
G02*
X140775000Y-120762500I0J-62500D01*
G01*
X140775000Y-121462500D01*
G75*
G02*
X140712500Y-121525000I-62500J0D01*
G01*
G37*
%TD.AperFunction*%
%TO.P,U201,5*%
%TO.N,GND*%
%TA.AperFunction,SMDPad,CuDef*%
G36*
G01*
X140212500Y-121525000D02*
X140087500Y-121525000D01*
G75*
G02*
X140025000Y-121462500I0J62500D01*
G01*
X140025000Y-120762500D01*
G75*
G02*
X140087500Y-120700000I62500J0D01*
G01*
X140212500Y-120700000D01*
G75*
G02*
X140275000Y-120762500I0J-62500D01*
G01*
X140275000Y-121462500D01*
G75*
G02*
X140212500Y-121525000I-62500J0D01*
G01*
G37*
%TD.AperFunction*%
%TO.P,U201,4*%
%TO.N,Net-(U201-Pad4)*%
%TA.AperFunction,SMDPad,CuDef*%
G36*
G01*
X139712500Y-121525000D02*
X139587500Y-121525000D01*
G75*
G02*
X139525000Y-121462500I0J62500D01*
G01*
X139525000Y-120762500D01*
G75*
G02*
X139587500Y-120700000I62500J0D01*
G01*
X139712500Y-120700000D01*
G75*
G02*
X139775000Y-120762500I0J-62500D01*
G01*
X139775000Y-121462500D01*
G75*
G02*
X139712500Y-121525000I-62500J0D01*
G01*
G37*
%TD.AperFunction*%
%TO.P,U201,3*%
%TO.N,Net-(U201-Pad3)*%
%TA.AperFunction,SMDPad,CuDef*%
G36*
G01*
X139212500Y-121525000D02*
X139087500Y-121525000D01*
G75*
G02*
X139025000Y-121462500I0J62500D01*
G01*
X139025000Y-120762500D01*
G75*
G02*
X139087500Y-120700000I62500J0D01*
G01*
X139212500Y-120700000D01*
G75*
G02*
X139275000Y-120762500I0J-62500D01*
G01*
X139275000Y-121462500D01*
G75*
G02*
X139212500Y-121525000I-62500J0D01*
G01*
G37*
%TD.AperFunction*%
%TO.P,U201,2*%
%TO.N,GND*%
%TA.AperFunction,SMDPad,CuDef*%
G36*
G01*
X138712500Y-121525000D02*
X138587500Y-121525000D01*
G75*
G02*
X138525000Y-121462500I0J62500D01*
G01*
X138525000Y-120762500D01*
G75*
G02*
X138587500Y-120700000I62500J0D01*
G01*
X138712500Y-120700000D01*
G75*
G02*
X138775000Y-120762500I0J-62500D01*
G01*
X138775000Y-121462500D01*
G75*
G02*
X138712500Y-121525000I-62500J0D01*
G01*
G37*
%TD.AperFunction*%
%TO.P,U201,1*%
%TO.N,+3V3*%
%TA.AperFunction,SMDPad,CuDef*%
G36*
G01*
X138212500Y-121525000D02*
X138087500Y-121525000D01*
G75*
G02*
X138025000Y-121462500I0J62500D01*
G01*
X138025000Y-120762500D01*
G75*
G02*
X138087500Y-120700000I62500J0D01*
G01*
X138212500Y-120700000D01*
G75*
G02*
X138275000Y-120762500I0J-62500D01*
G01*
X138275000Y-121462500D01*
G75*
G02*
X138212500Y-121525000I-62500J0D01*
G01*
G37*
%TD.AperFunction*%
%TD*%
D23*
%TO.P,U102,20*%
%TO.N,Net-(U102-Pad20)*%
X146500000Y-144950000D03*
%TO.P,U102,19*%
%TO.N,GND*%
X146450000Y-143450000D03*
%TO.P,U102,18*%
%TO.N,Net-(U102-Pad18)*%
X146450000Y-141950000D03*
%TO.P,U102,17*%
%TO.N,Net-(U102-Pad17)*%
X146450000Y-140450000D03*
%TO.P,U102,16*%
%TO.N,Net-(U102-Pad16)*%
X146450000Y-138950000D03*
%TO.P,U102,15*%
%TO.N,Net-(U102-Pad15)*%
X146450000Y-137450000D03*
%TO.P,U102,14*%
%TO.N,Net-(U102-Pad14)*%
X146450000Y-135950000D03*
%TO.P,U102,13*%
%TO.N,Net-(U102-Pad13)*%
X146450000Y-134450000D03*
%TO.P,U102,12*%
%TO.N,GND*%
X146450000Y-132950000D03*
%TO.P,U102,11*%
%TO.N,Net-(J109-Pad2)*%
X146450000Y-131450000D03*
%TO.P,U102,10*%
%TO.N,/GPS_RX*%
X162450000Y-131500000D03*
%TO.P,U102,9*%
%TO.N,/GPS_TX*%
X162450000Y-133000000D03*
%TO.P,U102,8*%
%TO.N,GND*%
X162450000Y-134500000D03*
%TO.P,U102,7*%
%TO.N,Net-(U102-Pad7)*%
X162500000Y-136000000D03*
%TO.P,U102,6*%
%TO.N,Net-(U102-Pad6)*%
X162500000Y-137500000D03*
%TO.P,U102,5*%
%TO.N,/GPS_3DFIX*%
X162450000Y-139000000D03*
%TO.P,U102,4*%
%TO.N,Net-(U102-Pad4)*%
X162450000Y-140500000D03*
%TO.P,U102,3*%
%TO.N,GND*%
X162450000Y-142000000D03*
%TO.P,U102,2*%
%TO.N,/~GPS_RESET*%
X162450000Y-143500000D03*
%TO.P,U102,1*%
%TO.N,V_GPS*%
X162450000Y-145000000D03*
%TD*%
D24*
%TO.P,U101,28*%
%TO.N,Net-(U101-Pad28)*%
X123950000Y-96950000D03*
%TO.P,U101,27*%
%TO.N,Net-(U101-Pad27)*%
X123950000Y-95700000D03*
%TO.P,U101,26*%
%TO.N,Net-(U101-Pad26)*%
X123950000Y-94450000D03*
%TO.P,U101,22*%
%TO.N,GND*%
X123950000Y-89450000D03*
%TO.P,U101,23*%
%TO.N,Net-(U101-Pad23)*%
X123950000Y-90700000D03*
%TO.P,U101,24*%
%TO.N,/~E5_BOOT*%
X123950000Y-91950000D03*
%TO.P,U101,25*%
%TO.N,Net-(U101-Pad25)*%
X123950000Y-93200000D03*
D25*
%TO.P,U101,21*%
%TO.N,Net-(U101-Pad21)*%
X126200000Y-87200000D03*
%TO.P,U101,20*%
%TO.N,Net-(U101-Pad20)*%
X127450000Y-87200000D03*
%TO.P,U101,19*%
%TO.N,Net-(U101-Pad19)*%
X128700000Y-87200000D03*
%TO.P,U101,15*%
%TO.N,/E5_RFIO*%
X133700000Y-87200000D03*
%TO.P,U101,16*%
%TO.N,GND*%
X132450000Y-87200000D03*
%TO.P,U101,17*%
%TO.N,/~E5_RESET*%
X131200000Y-87200000D03*
%TO.P,U101,18*%
%TO.N,Net-(U101-Pad18)*%
X129950000Y-87200000D03*
D24*
%TO.P,U101,14*%
%TO.N,GND*%
X135950000Y-89450000D03*
%TO.P,U101,13*%
%TO.N,Net-(U101-Pad13)*%
X135950000Y-90700000D03*
%TO.P,U101,12*%
%TO.N,Net-(U101-Pad12)*%
X135950000Y-91950000D03*
%TO.P,U101,8*%
%TO.N,Net-(U101-Pad8)*%
X135950000Y-96950000D03*
%TO.P,U101,9*%
%TO.N,/E5_RX*%
X135950000Y-95700000D03*
%TO.P,U101,10*%
%TO.N,/E5_TX*%
X135950000Y-94450000D03*
%TO.P,U101,11*%
%TO.N,Net-(U101-Pad11)*%
X135950000Y-93200000D03*
D25*
%TO.P,U101,7*%
%TO.N,Net-(U101-Pad7)*%
X133700000Y-99200000D03*
%TO.P,U101,6*%
%TO.N,Net-(U101-Pad6)*%
X132450000Y-99200000D03*
%TO.P,U101,5*%
%TO.N,Net-(U101-Pad5)*%
X131200000Y-99200000D03*
%TO.P,U101,1*%
%TO.N,+3V3*%
X126200000Y-99200000D03*
%TO.P,U101,2*%
%TO.N,GND*%
X127450000Y-99200000D03*
%TO.P,U101,3*%
%TO.N,Net-(U101-Pad3)*%
X128700000Y-99200000D03*
%TO.P,U101,4*%
%TO.N,Net-(U101-Pad4)*%
X129950000Y-99200000D03*
%TD*%
%TO.P,R201,2*%
%TO.N,/SX_DIO2*%
%TA.AperFunction,SMDPad,CuDef*%
G36*
G01*
X118860000Y-116420000D02*
X118540000Y-116420000D01*
G75*
G02*
X118380000Y-116260000I0J160000D01*
G01*
X118380000Y-115865000D01*
G75*
G02*
X118540000Y-115705000I160000J0D01*
G01*
X118860000Y-115705000D01*
G75*
G02*
X119020000Y-115865000I0J-160000D01*
G01*
X119020000Y-116260000D01*
G75*
G02*
X118860000Y-116420000I-160000J0D01*
G01*
G37*
%TD.AperFunction*%
%TO.P,R201,1*%
%TO.N,Net-(C214-Pad1)*%
%TA.AperFunction,SMDPad,CuDef*%
G36*
G01*
X118860000Y-117615000D02*
X118540000Y-117615000D01*
G75*
G02*
X118380000Y-117455000I0J160000D01*
G01*
X118380000Y-117060000D01*
G75*
G02*
X118540000Y-116900000I160000J0D01*
G01*
X118860000Y-116900000D01*
G75*
G02*
X119020000Y-117060000I0J-160000D01*
G01*
X119020000Y-117455000D01*
G75*
G02*
X118860000Y-117615000I-160000J0D01*
G01*
G37*
%TD.AperFunction*%
%TD*%
%TO.P,R109,2*%
%TO.N,/MUX_SELA*%
%TA.AperFunction,SMDPad,CuDef*%
G36*
G01*
X149942500Y-80660000D02*
X149942500Y-80340000D01*
G75*
G02*
X150102500Y-80180000I160000J0D01*
G01*
X150497500Y-80180000D01*
G75*
G02*
X150657500Y-80340000I0J-160000D01*
G01*
X150657500Y-80660000D01*
G75*
G02*
X150497500Y-80820000I-160000J0D01*
G01*
X150102500Y-80820000D01*
G75*
G02*
X149942500Y-80660000I0J160000D01*
G01*
G37*
%TD.AperFunction*%
%TO.P,R109,1*%
%TO.N,GND*%
%TA.AperFunction,SMDPad,CuDef*%
G36*
G01*
X148747500Y-80660000D02*
X148747500Y-80340000D01*
G75*
G02*
X148907500Y-80180000I160000J0D01*
G01*
X149302500Y-80180000D01*
G75*
G02*
X149462500Y-80340000I0J-160000D01*
G01*
X149462500Y-80660000D01*
G75*
G02*
X149302500Y-80820000I-160000J0D01*
G01*
X148907500Y-80820000D01*
G75*
G02*
X148747500Y-80660000I0J160000D01*
G01*
G37*
%TD.AperFunction*%
%TD*%
%TO.P,R108,2*%
%TO.N,/MUX_SELB*%
%TA.AperFunction,SMDPad,CuDef*%
G36*
G01*
X148742500Y-89260000D02*
X148742500Y-88940000D01*
G75*
G02*
X148902500Y-88780000I160000J0D01*
G01*
X149297500Y-88780000D01*
G75*
G02*
X149457500Y-88940000I0J-160000D01*
G01*
X149457500Y-89260000D01*
G75*
G02*
X149297500Y-89420000I-160000J0D01*
G01*
X148902500Y-89420000D01*
G75*
G02*
X148742500Y-89260000I0J160000D01*
G01*
G37*
%TD.AperFunction*%
%TO.P,R108,1*%
%TO.N,GND*%
%TA.AperFunction,SMDPad,CuDef*%
G36*
G01*
X147547500Y-89260000D02*
X147547500Y-88940000D01*
G75*
G02*
X147707500Y-88780000I160000J0D01*
G01*
X148102500Y-88780000D01*
G75*
G02*
X148262500Y-88940000I0J-160000D01*
G01*
X148262500Y-89260000D01*
G75*
G02*
X148102500Y-89420000I-160000J0D01*
G01*
X147707500Y-89420000D01*
G75*
G02*
X147547500Y-89260000I0J160000D01*
G01*
G37*
%TD.AperFunction*%
%TD*%
%TO.P,R107,2*%
%TO.N,/ANT*%
%TA.AperFunction,SMDPad,CuDef*%
G36*
G01*
X112857500Y-79040000D02*
X112857500Y-79360000D01*
G75*
G02*
X112697500Y-79520000I-160000J0D01*
G01*
X112302500Y-79520000D01*
G75*
G02*
X112142500Y-79360000I0J160000D01*
G01*
X112142500Y-79040000D01*
G75*
G02*
X112302500Y-78880000I160000J0D01*
G01*
X112697500Y-78880000D01*
G75*
G02*
X112857500Y-79040000I0J-160000D01*
G01*
G37*
%TD.AperFunction*%
%TO.P,R107,1*%
%TO.N,/E5_RFIO*%
%TA.AperFunction,SMDPad,CuDef*%
G36*
G01*
X114052500Y-79040000D02*
X114052500Y-79360000D01*
G75*
G02*
X113892500Y-79520000I-160000J0D01*
G01*
X113497500Y-79520000D01*
G75*
G02*
X113337500Y-79360000I0J160000D01*
G01*
X113337500Y-79040000D01*
G75*
G02*
X113497500Y-78880000I160000J0D01*
G01*
X113892500Y-78880000D01*
G75*
G02*
X114052500Y-79040000I0J-160000D01*
G01*
G37*
%TD.AperFunction*%
%TD*%
%TO.P,R106,1*%
%TO.N,Net-(Q101-Pad2)*%
%TA.AperFunction,SMDPad,CuDef*%
G36*
G01*
X179412500Y-139337500D02*
X178937500Y-139337500D01*
G75*
G02*
X178700000Y-139100000I0J237500D01*
G01*
X178700000Y-138600000D01*
G75*
G02*
X178937500Y-138362500I237500J0D01*
G01*
X179412500Y-138362500D01*
G75*
G02*
X179650000Y-138600000I0J-237500D01*
G01*
X179650000Y-139100000D01*
G75*
G02*
X179412500Y-139337500I-237500J0D01*
G01*
G37*
%TD.AperFunction*%
%TO.P,R106,2*%
%TO.N,/GPS_SW_EN*%
%TA.AperFunction,SMDPad,CuDef*%
G36*
G01*
X179412500Y-137512500D02*
X178937500Y-137512500D01*
G75*
G02*
X178700000Y-137275000I0J237500D01*
G01*
X178700000Y-136775000D01*
G75*
G02*
X178937500Y-136537500I237500J0D01*
G01*
X179412500Y-136537500D01*
G75*
G02*
X179650000Y-136775000I0J-237500D01*
G01*
X179650000Y-137275000D01*
G75*
G02*
X179412500Y-137512500I-237500J0D01*
G01*
G37*
%TD.AperFunction*%
%TD*%
%TO.P,R105,1*%
%TO.N,/~GPS_RESET*%
%TA.AperFunction,SMDPad,CuDef*%
G36*
G01*
X164460000Y-143857500D02*
X164140000Y-143857500D01*
G75*
G02*
X163980000Y-143697500I0J160000D01*
G01*
X163980000Y-143302500D01*
G75*
G02*
X164140000Y-143142500I160000J0D01*
G01*
X164460000Y-143142500D01*
G75*
G02*
X164620000Y-143302500I0J-160000D01*
G01*
X164620000Y-143697500D01*
G75*
G02*
X164460000Y-143857500I-160000J0D01*
G01*
G37*
%TD.AperFunction*%
%TO.P,R105,2*%
%TO.N,+3V3*%
%TA.AperFunction,SMDPad,CuDef*%
G36*
G01*
X164460000Y-142662500D02*
X164140000Y-142662500D01*
G75*
G02*
X163980000Y-142502500I0J160000D01*
G01*
X163980000Y-142107500D01*
G75*
G02*
X164140000Y-141947500I160000J0D01*
G01*
X164460000Y-141947500D01*
G75*
G02*
X164620000Y-142107500I0J-160000D01*
G01*
X164620000Y-142502500D01*
G75*
G02*
X164460000Y-142662500I-160000J0D01*
G01*
G37*
%TD.AperFunction*%
%TD*%
%TO.P,R104,2*%
%TO.N,+3V3*%
%TA.AperFunction,SMDPad,CuDef*%
G36*
G01*
X127690000Y-72637500D02*
X128010000Y-72637500D01*
G75*
G02*
X128170000Y-72797500I0J-160000D01*
G01*
X128170000Y-73192500D01*
G75*
G02*
X128010000Y-73352500I-160000J0D01*
G01*
X127690000Y-73352500D01*
G75*
G02*
X127530000Y-73192500I0J160000D01*
G01*
X127530000Y-72797500D01*
G75*
G02*
X127690000Y-72637500I160000J0D01*
G01*
G37*
%TD.AperFunction*%
%TO.P,R104,1*%
%TO.N,/PI_SCL*%
%TA.AperFunction,SMDPad,CuDef*%
G36*
G01*
X127690000Y-71442500D02*
X128010000Y-71442500D01*
G75*
G02*
X128170000Y-71602500I0J-160000D01*
G01*
X128170000Y-71997500D01*
G75*
G02*
X128010000Y-72157500I-160000J0D01*
G01*
X127690000Y-72157500D01*
G75*
G02*
X127530000Y-71997500I0J160000D01*
G01*
X127530000Y-71602500D01*
G75*
G02*
X127690000Y-71442500I160000J0D01*
G01*
G37*
%TD.AperFunction*%
%TD*%
%TO.P,R103,2*%
%TO.N,+3V3*%
%TA.AperFunction,SMDPad,CuDef*%
G36*
G01*
X128840000Y-72637500D02*
X129160000Y-72637500D01*
G75*
G02*
X129320000Y-72797500I0J-160000D01*
G01*
X129320000Y-73192500D01*
G75*
G02*
X129160000Y-73352500I-160000J0D01*
G01*
X128840000Y-73352500D01*
G75*
G02*
X128680000Y-73192500I0J160000D01*
G01*
X128680000Y-72797500D01*
G75*
G02*
X128840000Y-72637500I160000J0D01*
G01*
G37*
%TD.AperFunction*%
%TO.P,R103,1*%
%TO.N,/PI_SCL*%
%TA.AperFunction,SMDPad,CuDef*%
G36*
G01*
X128840000Y-71442500D02*
X129160000Y-71442500D01*
G75*
G02*
X129320000Y-71602500I0J-160000D01*
G01*
X129320000Y-71997500D01*
G75*
G02*
X129160000Y-72157500I-160000J0D01*
G01*
X128840000Y-72157500D01*
G75*
G02*
X128680000Y-71997500I0J160000D01*
G01*
X128680000Y-71602500D01*
G75*
G02*
X128840000Y-71442500I160000J0D01*
G01*
G37*
%TD.AperFunction*%
%TD*%
%TO.P,R102,2*%
%TO.N,+3V3*%
%TA.AperFunction,SMDPad,CuDef*%
G36*
G01*
X128010000Y-68907500D02*
X127690000Y-68907500D01*
G75*
G02*
X127530000Y-68747500I0J160000D01*
G01*
X127530000Y-68352500D01*
G75*
G02*
X127690000Y-68192500I160000J0D01*
G01*
X128010000Y-68192500D01*
G75*
G02*
X128170000Y-68352500I0J-160000D01*
G01*
X128170000Y-68747500D01*
G75*
G02*
X128010000Y-68907500I-160000J0D01*
G01*
G37*
%TD.AperFunction*%
%TO.P,R102,1*%
%TO.N,/PI_SDA*%
%TA.AperFunction,SMDPad,CuDef*%
G36*
G01*
X128010000Y-70102500D02*
X127690000Y-70102500D01*
G75*
G02*
X127530000Y-69942500I0J160000D01*
G01*
X127530000Y-69547500D01*
G75*
G02*
X127690000Y-69387500I160000J0D01*
G01*
X128010000Y-69387500D01*
G75*
G02*
X128170000Y-69547500I0J-160000D01*
G01*
X128170000Y-69942500D01*
G75*
G02*
X128010000Y-70102500I-160000J0D01*
G01*
G37*
%TD.AperFunction*%
%TD*%
%TO.P,R101,2*%
%TO.N,+3V3*%
%TA.AperFunction,SMDPad,CuDef*%
G36*
G01*
X129110000Y-68907500D02*
X128790000Y-68907500D01*
G75*
G02*
X128630000Y-68747500I0J160000D01*
G01*
X128630000Y-68352500D01*
G75*
G02*
X128790000Y-68192500I160000J0D01*
G01*
X129110000Y-68192500D01*
G75*
G02*
X129270000Y-68352500I0J-160000D01*
G01*
X129270000Y-68747500D01*
G75*
G02*
X129110000Y-68907500I-160000J0D01*
G01*
G37*
%TD.AperFunction*%
%TO.P,R101,1*%
%TO.N,/PI_SDA*%
%TA.AperFunction,SMDPad,CuDef*%
G36*
G01*
X129110000Y-70102500D02*
X128790000Y-70102500D01*
G75*
G02*
X128630000Y-69942500I0J160000D01*
G01*
X128630000Y-69547500D01*
G75*
G02*
X128790000Y-69387500I160000J0D01*
G01*
X129110000Y-69387500D01*
G75*
G02*
X129270000Y-69547500I0J-160000D01*
G01*
X129270000Y-69942500D01*
G75*
G02*
X129110000Y-70102500I-160000J0D01*
G01*
G37*
%TD.AperFunction*%
%TD*%
D26*
%TO.P,Q101,1*%
%TO.N,Net-(FB101-Pad2)*%
X173374999Y-141877550D03*
%TO.P,Q101,2*%
%TO.N,Net-(Q101-Pad2)*%
X174325000Y-141877550D03*
%TO.P,Q101,3*%
%TO.N,Net-(Q101-Pad3)*%
X175275001Y-141877550D03*
%TO.P,Q101,4*%
%TO.N,Net-(Q101-Pad4)*%
X175275001Y-139172450D03*
%TO.P,Q101,5*%
%TO.N,Net-(Q101-Pad5)*%
X174325000Y-139172450D03*
%TO.P,Q101,6*%
%TO.N,+3V3*%
X173374999Y-139172450D03*
%TD*%
%TO.P,L207,2*%
%TO.N,/LoRa Module/ANT*%
%TA.AperFunction,SMDPad,CuDef*%
G36*
G01*
X113210000Y-119090000D02*
X113210000Y-119410000D01*
G75*
G02*
X113050000Y-119570000I-160000J0D01*
G01*
X112605000Y-119570000D01*
G75*
G02*
X112445000Y-119410000I0J160000D01*
G01*
X112445000Y-119090000D01*
G75*
G02*
X112605000Y-118930000I160000J0D01*
G01*
X113050000Y-118930000D01*
G75*
G02*
X113210000Y-119090000I0J-160000D01*
G01*
G37*
%TD.AperFunction*%
%TO.P,L207,1*%
%TO.N,Net-(C215-Pad2)*%
%TA.AperFunction,SMDPad,CuDef*%
G36*
G01*
X114355000Y-119090000D02*
X114355000Y-119410000D01*
G75*
G02*
X114195000Y-119570000I-160000J0D01*
G01*
X113750000Y-119570000D01*
G75*
G02*
X113590000Y-119410000I0J160000D01*
G01*
X113590000Y-119090000D01*
G75*
G02*
X113750000Y-118930000I160000J0D01*
G01*
X114195000Y-118930000D01*
G75*
G02*
X114355000Y-119090000I0J-160000D01*
G01*
G37*
%TD.AperFunction*%
%TD*%
%TO.P,L206,2*%
%TO.N,Net-(C213-Pad1)*%
%TA.AperFunction,SMDPad,CuDef*%
G36*
G01*
X124560000Y-119740000D02*
X124560000Y-120060000D01*
G75*
G02*
X124400000Y-120220000I-160000J0D01*
G01*
X123955000Y-120220000D01*
G75*
G02*
X123795000Y-120060000I0J160000D01*
G01*
X123795000Y-119740000D01*
G75*
G02*
X123955000Y-119580000I160000J0D01*
G01*
X124400000Y-119580000D01*
G75*
G02*
X124560000Y-119740000I0J-160000D01*
G01*
G37*
%TD.AperFunction*%
%TO.P,L206,1*%
%TO.N,Net-(C212-Pad2)*%
%TA.AperFunction,SMDPad,CuDef*%
G36*
G01*
X125705000Y-119740000D02*
X125705000Y-120060000D01*
G75*
G02*
X125545000Y-120220000I-160000J0D01*
G01*
X125100000Y-120220000D01*
G75*
G02*
X124940000Y-120060000I0J160000D01*
G01*
X124940000Y-119740000D01*
G75*
G02*
X125100000Y-119580000I160000J0D01*
G01*
X125545000Y-119580000D01*
G75*
G02*
X125705000Y-119740000I0J-160000D01*
G01*
G37*
%TD.AperFunction*%
%TD*%
%TO.P,L205,2*%
%TO.N,Net-(C209-Pad2)*%
%TA.AperFunction,SMDPad,CuDef*%
G36*
G01*
X130360000Y-119715000D02*
X130360000Y-120035000D01*
G75*
G02*
X130200000Y-120195000I-160000J0D01*
G01*
X129755000Y-120195000D01*
G75*
G02*
X129595000Y-120035000I0J160000D01*
G01*
X129595000Y-119715000D01*
G75*
G02*
X129755000Y-119555000I160000J0D01*
G01*
X130200000Y-119555000D01*
G75*
G02*
X130360000Y-119715000I0J-160000D01*
G01*
G37*
%TD.AperFunction*%
%TO.P,L205,1*%
%TO.N,Net-(C207-Pad1)*%
%TA.AperFunction,SMDPad,CuDef*%
G36*
G01*
X131505000Y-119715000D02*
X131505000Y-120035000D01*
G75*
G02*
X131345000Y-120195000I-160000J0D01*
G01*
X130900000Y-120195000D01*
G75*
G02*
X130740000Y-120035000I0J160000D01*
G01*
X130740000Y-119715000D01*
G75*
G02*
X130900000Y-119555000I160000J0D01*
G01*
X131345000Y-119555000D01*
G75*
G02*
X131505000Y-119715000I0J-160000D01*
G01*
G37*
%TD.AperFunction*%
%TD*%
%TO.P,L204,2*%
%TO.N,Net-(C204-Pad1)*%
%TA.AperFunction,SMDPad,CuDef*%
G36*
G01*
X133215000Y-120665000D02*
X133535000Y-120665000D01*
G75*
G02*
X133695000Y-120825000I0J-160000D01*
G01*
X133695000Y-121270000D01*
G75*
G02*
X133535000Y-121430000I-160000J0D01*
G01*
X133215000Y-121430000D01*
G75*
G02*
X133055000Y-121270000I0J160000D01*
G01*
X133055000Y-120825000D01*
G75*
G02*
X133215000Y-120665000I160000J0D01*
G01*
G37*
%TD.AperFunction*%
%TO.P,L204,1*%
%TO.N,Net-(C207-Pad1)*%
%TA.AperFunction,SMDPad,CuDef*%
G36*
G01*
X133215000Y-119520000D02*
X133535000Y-119520000D01*
G75*
G02*
X133695000Y-119680000I0J-160000D01*
G01*
X133695000Y-120125000D01*
G75*
G02*
X133535000Y-120285000I-160000J0D01*
G01*
X133215000Y-120285000D01*
G75*
G02*
X133055000Y-120125000I0J160000D01*
G01*
X133055000Y-119680000D01*
G75*
G02*
X133215000Y-119520000I160000J0D01*
G01*
G37*
%TD.AperFunction*%
%TD*%
%TO.P,L203,2*%
%TO.N,Net-(C206-Pad1)*%
%TA.AperFunction,SMDPad,CuDef*%
G36*
G01*
X135960000Y-117912500D02*
X135640000Y-117912500D01*
G75*
G02*
X135480000Y-117752500I0J160000D01*
G01*
X135480000Y-117307500D01*
G75*
G02*
X135640000Y-117147500I160000J0D01*
G01*
X135960000Y-117147500D01*
G75*
G02*
X136120000Y-117307500I0J-160000D01*
G01*
X136120000Y-117752500D01*
G75*
G02*
X135960000Y-117912500I-160000J0D01*
G01*
G37*
%TD.AperFunction*%
%TO.P,L203,1*%
%TO.N,Net-(C208-Pad1)*%
%TA.AperFunction,SMDPad,CuDef*%
G36*
G01*
X135960000Y-119057500D02*
X135640000Y-119057500D01*
G75*
G02*
X135480000Y-118897500I0J160000D01*
G01*
X135480000Y-118452500D01*
G75*
G02*
X135640000Y-118292500I160000J0D01*
G01*
X135960000Y-118292500D01*
G75*
G02*
X136120000Y-118452500I0J-160000D01*
G01*
X136120000Y-118897500D01*
G75*
G02*
X135960000Y-119057500I-160000J0D01*
G01*
G37*
%TD.AperFunction*%
%TD*%
%TO.P,L202,2*%
%TO.N,Net-(C207-Pad1)*%
%TA.AperFunction,SMDPad,CuDef*%
G36*
G01*
X134960000Y-119740000D02*
X134960000Y-120060000D01*
G75*
G02*
X134800000Y-120220000I-160000J0D01*
G01*
X134355000Y-120220000D01*
G75*
G02*
X134195000Y-120060000I0J160000D01*
G01*
X134195000Y-119740000D01*
G75*
G02*
X134355000Y-119580000I160000J0D01*
G01*
X134800000Y-119580000D01*
G75*
G02*
X134960000Y-119740000I0J-160000D01*
G01*
G37*
%TD.AperFunction*%
%TO.P,L202,1*%
%TO.N,Net-(L202-Pad1)*%
%TA.AperFunction,SMDPad,CuDef*%
G36*
G01*
X136105000Y-119740000D02*
X136105000Y-120060000D01*
G75*
G02*
X135945000Y-120220000I-160000J0D01*
G01*
X135500000Y-120220000D01*
G75*
G02*
X135340000Y-120060000I0J160000D01*
G01*
X135340000Y-119740000D01*
G75*
G02*
X135500000Y-119580000I160000J0D01*
G01*
X135945000Y-119580000D01*
G75*
G02*
X136105000Y-119740000I0J-160000D01*
G01*
G37*
%TD.AperFunction*%
%TD*%
%TO.P,L201,2*%
%TO.N,Net-(L201-Pad2)*%
%TA.AperFunction,SMDPad,CuDef*%
G36*
G01*
X146610001Y-119635000D02*
X145909999Y-119635000D01*
G75*
G02*
X145660000Y-119385001I0J249999D01*
G01*
X145660000Y-118834999D01*
G75*
G02*
X145909999Y-118585000I249999J0D01*
G01*
X146610001Y-118585000D01*
G75*
G02*
X146860000Y-118834999I0J-249999D01*
G01*
X146860000Y-119385001D01*
G75*
G02*
X146610001Y-119635000I-249999J0D01*
G01*
G37*
%TD.AperFunction*%
%TO.P,L201,1*%
%TO.N,Net-(C201-Pad1)*%
%TA.AperFunction,SMDPad,CuDef*%
G36*
G01*
X146610001Y-121935000D02*
X145909999Y-121935000D01*
G75*
G02*
X145660000Y-121685001I0J249999D01*
G01*
X145660000Y-121134999D01*
G75*
G02*
X145909999Y-120885000I249999J0D01*
G01*
X146610001Y-120885000D01*
G75*
G02*
X146860000Y-121134999I0J-249999D01*
G01*
X146860000Y-121685001D01*
G75*
G02*
X146610001Y-121935000I-249999J0D01*
G01*
G37*
%TD.AperFunction*%
%TD*%
%TA.AperFunction,SMDPad,CuDef*%
D27*
%TO.P,JP104,1*%
%TO.N,/PI_SCL*%
G36*
X148350000Y-63300000D02*
G01*
X148350000Y-63800000D01*
X148349398Y-63800000D01*
X148349398Y-63824534D01*
X148344588Y-63873365D01*
X148335016Y-63921490D01*
X148320772Y-63968445D01*
X148301995Y-64013778D01*
X148278864Y-64057051D01*
X148251604Y-64097850D01*
X148220476Y-64135779D01*
X148185779Y-64170476D01*
X148147850Y-64201604D01*
X148107051Y-64228864D01*
X148063778Y-64251995D01*
X148018445Y-64270772D01*
X147971490Y-64285016D01*
X147923365Y-64294588D01*
X147874534Y-64299398D01*
X147850000Y-64299398D01*
X147850000Y-64300000D01*
X147350000Y-64300000D01*
X147350000Y-64299398D01*
X147325466Y-64299398D01*
X147276635Y-64294588D01*
X147228510Y-64285016D01*
X147181555Y-64270772D01*
X147136222Y-64251995D01*
X147092949Y-64228864D01*
X147052150Y-64201604D01*
X147014221Y-64170476D01*
X146979524Y-64135779D01*
X146948396Y-64097850D01*
X146921136Y-64057051D01*
X146898005Y-64013778D01*
X146879228Y-63968445D01*
X146864984Y-63921490D01*
X146855412Y-63873365D01*
X146850602Y-63824534D01*
X146850602Y-63800000D01*
X146850000Y-63800000D01*
X146850000Y-63300000D01*
X148350000Y-63300000D01*
G37*
%TD.AperFunction*%
%TA.AperFunction,SMDPad,CuDef*%
%TO.P,JP104,2*%
%TO.N,/PS_CC_SCL*%
G36*
X146850602Y-62500000D02*
G01*
X146850602Y-62475466D01*
X146855412Y-62426635D01*
X146864984Y-62378510D01*
X146879228Y-62331555D01*
X146898005Y-62286222D01*
X146921136Y-62242949D01*
X146948396Y-62202150D01*
X146979524Y-62164221D01*
X147014221Y-62129524D01*
X147052150Y-62098396D01*
X147092949Y-62071136D01*
X147136222Y-62048005D01*
X147181555Y-62029228D01*
X147228510Y-62014984D01*
X147276635Y-62005412D01*
X147325466Y-62000602D01*
X147350000Y-62000602D01*
X147350000Y-62000000D01*
X147850000Y-62000000D01*
X147850000Y-62000602D01*
X147874534Y-62000602D01*
X147923365Y-62005412D01*
X147971490Y-62014984D01*
X148018445Y-62029228D01*
X148063778Y-62048005D01*
X148107051Y-62071136D01*
X148147850Y-62098396D01*
X148185779Y-62129524D01*
X148220476Y-62164221D01*
X148251604Y-62202150D01*
X148278864Y-62242949D01*
X148301995Y-62286222D01*
X148320772Y-62331555D01*
X148335016Y-62378510D01*
X148344588Y-62426635D01*
X148349398Y-62475466D01*
X148349398Y-62500000D01*
X148350000Y-62500000D01*
X148350000Y-63000000D01*
X146850000Y-63000000D01*
X146850000Y-62500000D01*
X146850602Y-62500000D01*
G37*
%TD.AperFunction*%
%TD*%
%TA.AperFunction,SMDPad,CuDef*%
%TO.P,JP103,1*%
%TO.N,/PI_SDA*%
G36*
X145700000Y-63300000D02*
G01*
X145700000Y-63800000D01*
X145699398Y-63800000D01*
X145699398Y-63824534D01*
X145694588Y-63873365D01*
X145685016Y-63921490D01*
X145670772Y-63968445D01*
X145651995Y-64013778D01*
X145628864Y-64057051D01*
X145601604Y-64097850D01*
X145570476Y-64135779D01*
X145535779Y-64170476D01*
X145497850Y-64201604D01*
X145457051Y-64228864D01*
X145413778Y-64251995D01*
X145368445Y-64270772D01*
X145321490Y-64285016D01*
X145273365Y-64294588D01*
X145224534Y-64299398D01*
X145200000Y-64299398D01*
X145200000Y-64300000D01*
X144700000Y-64300000D01*
X144700000Y-64299398D01*
X144675466Y-64299398D01*
X144626635Y-64294588D01*
X144578510Y-64285016D01*
X144531555Y-64270772D01*
X144486222Y-64251995D01*
X144442949Y-64228864D01*
X144402150Y-64201604D01*
X144364221Y-64170476D01*
X144329524Y-64135779D01*
X144298396Y-64097850D01*
X144271136Y-64057051D01*
X144248005Y-64013778D01*
X144229228Y-63968445D01*
X144214984Y-63921490D01*
X144205412Y-63873365D01*
X144200602Y-63824534D01*
X144200602Y-63800000D01*
X144200000Y-63800000D01*
X144200000Y-63300000D01*
X145700000Y-63300000D01*
G37*
%TD.AperFunction*%
%TA.AperFunction,SMDPad,CuDef*%
%TO.P,JP103,2*%
%TO.N,/PS_CC_SDA*%
G36*
X144200602Y-62500000D02*
G01*
X144200602Y-62475466D01*
X144205412Y-62426635D01*
X144214984Y-62378510D01*
X144229228Y-62331555D01*
X144248005Y-62286222D01*
X144271136Y-62242949D01*
X144298396Y-62202150D01*
X144329524Y-62164221D01*
X144364221Y-62129524D01*
X144402150Y-62098396D01*
X144442949Y-62071136D01*
X144486222Y-62048005D01*
X144531555Y-62029228D01*
X144578510Y-62014984D01*
X144626635Y-62005412D01*
X144675466Y-62000602D01*
X144700000Y-62000602D01*
X144700000Y-62000000D01*
X145200000Y-62000000D01*
X145200000Y-62000602D01*
X145224534Y-62000602D01*
X145273365Y-62005412D01*
X145321490Y-62014984D01*
X145368445Y-62029228D01*
X145413778Y-62048005D01*
X145457051Y-62071136D01*
X145497850Y-62098396D01*
X145535779Y-62129524D01*
X145570476Y-62164221D01*
X145601604Y-62202150D01*
X145628864Y-62242949D01*
X145651995Y-62286222D01*
X145670772Y-62331555D01*
X145685016Y-62378510D01*
X145694588Y-62426635D01*
X145699398Y-62475466D01*
X145699398Y-62500000D01*
X145700000Y-62500000D01*
X145700000Y-63000000D01*
X144200000Y-63000000D01*
X144200000Y-62500000D01*
X144200602Y-62500000D01*
G37*
%TD.AperFunction*%
%TD*%
%TA.AperFunction,SMDPad,CuDef*%
%TO.P,JP102,1*%
%TO.N,/PI_SCL*%
G36*
X114400000Y-68000000D02*
G01*
X114400000Y-68500000D01*
X114399398Y-68500000D01*
X114399398Y-68524534D01*
X114394588Y-68573365D01*
X114385016Y-68621490D01*
X114370772Y-68668445D01*
X114351995Y-68713778D01*
X114328864Y-68757051D01*
X114301604Y-68797850D01*
X114270476Y-68835779D01*
X114235779Y-68870476D01*
X114197850Y-68901604D01*
X114157051Y-68928864D01*
X114113778Y-68951995D01*
X114068445Y-68970772D01*
X114021490Y-68985016D01*
X113973365Y-68994588D01*
X113924534Y-68999398D01*
X113900000Y-68999398D01*
X113900000Y-69000000D01*
X113400000Y-69000000D01*
X113400000Y-68999398D01*
X113375466Y-68999398D01*
X113326635Y-68994588D01*
X113278510Y-68985016D01*
X113231555Y-68970772D01*
X113186222Y-68951995D01*
X113142949Y-68928864D01*
X113102150Y-68901604D01*
X113064221Y-68870476D01*
X113029524Y-68835779D01*
X112998396Y-68797850D01*
X112971136Y-68757051D01*
X112948005Y-68713778D01*
X112929228Y-68668445D01*
X112914984Y-68621490D01*
X112905412Y-68573365D01*
X112900602Y-68524534D01*
X112900602Y-68500000D01*
X112900000Y-68500000D01*
X112900000Y-68000000D01*
X114400000Y-68000000D01*
G37*
%TD.AperFunction*%
%TA.AperFunction,SMDPad,CuDef*%
%TO.P,JP102,2*%
%TO.N,/Temp_SCL*%
G36*
X112900602Y-67200000D02*
G01*
X112900602Y-67175466D01*
X112905412Y-67126635D01*
X112914984Y-67078510D01*
X112929228Y-67031555D01*
X112948005Y-66986222D01*
X112971136Y-66942949D01*
X112998396Y-66902150D01*
X113029524Y-66864221D01*
X113064221Y-66829524D01*
X113102150Y-66798396D01*
X113142949Y-66771136D01*
X113186222Y-66748005D01*
X113231555Y-66729228D01*
X113278510Y-66714984D01*
X113326635Y-66705412D01*
X113375466Y-66700602D01*
X113400000Y-66700602D01*
X113400000Y-66700000D01*
X113900000Y-66700000D01*
X113900000Y-66700602D01*
X113924534Y-66700602D01*
X113973365Y-66705412D01*
X114021490Y-66714984D01*
X114068445Y-66729228D01*
X114113778Y-66748005D01*
X114157051Y-66771136D01*
X114197850Y-66798396D01*
X114235779Y-66829524D01*
X114270476Y-66864221D01*
X114301604Y-66902150D01*
X114328864Y-66942949D01*
X114351995Y-66986222D01*
X114370772Y-67031555D01*
X114385016Y-67078510D01*
X114394588Y-67126635D01*
X114399398Y-67175466D01*
X114399398Y-67200000D01*
X114400000Y-67200000D01*
X114400000Y-67700000D01*
X112900000Y-67700000D01*
X112900000Y-67200000D01*
X112900602Y-67200000D01*
G37*
%TD.AperFunction*%
%TD*%
%TA.AperFunction,SMDPad,CuDef*%
%TO.P,JP101,1*%
%TO.N,/PI_SDA*%
G36*
X117150000Y-68000000D02*
G01*
X117150000Y-68500000D01*
X117149398Y-68500000D01*
X117149398Y-68524534D01*
X117144588Y-68573365D01*
X117135016Y-68621490D01*
X117120772Y-68668445D01*
X117101995Y-68713778D01*
X117078864Y-68757051D01*
X117051604Y-68797850D01*
X117020476Y-68835779D01*
X116985779Y-68870476D01*
X116947850Y-68901604D01*
X116907051Y-68928864D01*
X116863778Y-68951995D01*
X116818445Y-68970772D01*
X116771490Y-68985016D01*
X116723365Y-68994588D01*
X116674534Y-68999398D01*
X116650000Y-68999398D01*
X116650000Y-69000000D01*
X116150000Y-69000000D01*
X116150000Y-68999398D01*
X116125466Y-68999398D01*
X116076635Y-68994588D01*
X116028510Y-68985016D01*
X115981555Y-68970772D01*
X115936222Y-68951995D01*
X115892949Y-68928864D01*
X115852150Y-68901604D01*
X115814221Y-68870476D01*
X115779524Y-68835779D01*
X115748396Y-68797850D01*
X115721136Y-68757051D01*
X115698005Y-68713778D01*
X115679228Y-68668445D01*
X115664984Y-68621490D01*
X115655412Y-68573365D01*
X115650602Y-68524534D01*
X115650602Y-68500000D01*
X115650000Y-68500000D01*
X115650000Y-68000000D01*
X117150000Y-68000000D01*
G37*
%TD.AperFunction*%
%TA.AperFunction,SMDPad,CuDef*%
%TO.P,JP101,2*%
%TO.N,/Temp_SDA*%
G36*
X115650602Y-67200000D02*
G01*
X115650602Y-67175466D01*
X115655412Y-67126635D01*
X115664984Y-67078510D01*
X115679228Y-67031555D01*
X115698005Y-66986222D01*
X115721136Y-66942949D01*
X115748396Y-66902150D01*
X115779524Y-66864221D01*
X115814221Y-66829524D01*
X115852150Y-66798396D01*
X115892949Y-66771136D01*
X115936222Y-66748005D01*
X115981555Y-66729228D01*
X116028510Y-66714984D01*
X116076635Y-66705412D01*
X116125466Y-66700602D01*
X116150000Y-66700602D01*
X116150000Y-66700000D01*
X116650000Y-66700000D01*
X116650000Y-66700602D01*
X116674534Y-66700602D01*
X116723365Y-66705412D01*
X116771490Y-66714984D01*
X116818445Y-66729228D01*
X116863778Y-66748005D01*
X116907051Y-66771136D01*
X116947850Y-66798396D01*
X116985779Y-66829524D01*
X117020476Y-66864221D01*
X117051604Y-66902150D01*
X117078864Y-66942949D01*
X117101995Y-66986222D01*
X117120772Y-67031555D01*
X117135016Y-67078510D01*
X117144588Y-67126635D01*
X117149398Y-67175466D01*
X117149398Y-67200000D01*
X117150000Y-67200000D01*
X117150000Y-67700000D01*
X115650000Y-67700000D01*
X115650000Y-67200000D01*
X115650602Y-67200000D01*
G37*
%TD.AperFunction*%
%TD*%
D28*
%TO.P,J107,6*%
%TO.N,Net-(J107-Pad6)*%
X147850000Y-73750000D03*
%TO.P,J107,5*%
%TO.N,/LOAD_TX*%
X150390000Y-73750000D03*
%TO.P,J107,4*%
%TO.N,/LOAD_RX*%
X152930000Y-73750000D03*
%TO.P,J107,3*%
%TO.N,Net-(J107-Pad3)*%
X155470000Y-73750000D03*
%TO.P,J107,2*%
%TO.N,Net-(J107-Pad2)*%
X158010000Y-73750000D03*
D29*
%TO.P,J107,1*%
%TO.N,GND*%
X160550000Y-73750000D03*
%TD*%
D28*
%TO.P,J105,10*%
%TO.N,/PI_GPIO13*%
X188110000Y-59000000D03*
%TO.P,J105,9*%
%TO.N,/PI_GPIO6*%
X185570000Y-59000000D03*
%TO.P,J105,8*%
%TO.N,/PI_GPIO5*%
X183030000Y-59000000D03*
%TO.P,J105,7*%
%TO.N,/PI_GPIO11*%
X180490000Y-59000000D03*
%TO.P,J105,6*%
%TO.N,/PI_GPIO9*%
X177950000Y-59000000D03*
%TO.P,J105,5*%
%TO.N,/PI_GPIO10*%
X175410000Y-59000000D03*
%TO.P,J105,4*%
%TO.N,/PI_GPIO22*%
X172870000Y-59000000D03*
%TO.P,J105,3*%
%TO.N,/PI_GPIO27*%
X170330000Y-59000000D03*
%TO.P,J105,2*%
%TO.N,/PI_GPIO17*%
X167790000Y-59000000D03*
D29*
%TO.P,J105,1*%
%TO.N,/PI_GPIO4*%
X165250000Y-59000000D03*
%TD*%
D30*
%TO.P,J103,1*%
%TO.N,+3V3*%
X121300000Y-60899999D03*
%TO.P,J103,2*%
%TO.N,GND*%
X118800000Y-60899999D03*
%TO.P,J103,3*%
%TO.N,/Temp_SDA*%
X116300000Y-60899999D03*
%TO.P,J103,4*%
%TO.N,/Temp_SCL*%
X113800000Y-60899999D03*
D31*
%TO.P,J103,5*%
%TO.N,N/C*%
X123900000Y-54300000D03*
%TO.P,J103,6*%
X111200000Y-54300000D03*
%TD*%
D32*
%TO.P,J102,1*%
%TO.N,+5V*%
X156375000Y-56258000D03*
%TO.P,J102,2*%
%TO.N,GND*%
X155125000Y-56258000D03*
%TO.P,J102,3*%
%TO.N,/PS_BOOST_PS*%
X153875000Y-56258000D03*
%TO.P,J102,4*%
%TO.N,/~PS_CC_INT*%
X152625000Y-56258000D03*
%TO.P,J102,5*%
%TO.N,/~PS_CC_CE*%
X151375000Y-56258000D03*
%TO.P,J102,6*%
%TO.N,/~PS_CC_QON*%
X150125000Y-56258000D03*
%TO.P,J102,7*%
%TO.N,/PS_CC_SCL*%
X148875000Y-56258000D03*
%TO.P,J102,8*%
%TO.N,/PS_CC_SDA*%
X147625000Y-56258000D03*
D33*
%TO.P,J102,9*%
%TO.N,N/C*%
X158925000Y-53508000D03*
%TO.P,J102,10*%
X145075000Y-53508000D03*
%TD*%
D28*
%TO.P,J101,9*%
%TO.N,/SX_DIO3*%
X151060000Y-110540000D03*
%TO.P,J101,8*%
%TO.N,/SX_DIO2*%
X148520000Y-110540000D03*
%TO.P,J101,7*%
%TO.N,/SX_DIO1*%
X145980000Y-110540000D03*
%TO.P,J101,6*%
%TO.N,/SX_BUSY*%
X143440000Y-110540000D03*
%TO.P,J101,5*%
%TO.N,/~SX_RESET*%
X140900000Y-110540000D03*
%TO.P,J101,4*%
%TO.N,/SX_SDO*%
X138360000Y-110540000D03*
%TO.P,J101,3*%
%TO.N,/SX_SDI*%
X135820000Y-110540000D03*
%TO.P,J101,2*%
%TO.N,/SX_SCK*%
X133280000Y-110540000D03*
D29*
%TO.P,J101,1*%
%TO.N,/~SX_CS*%
X130740000Y-110540000D03*
%TD*%
D34*
%TO.P,IC101,1*%
%TO.N,GND*%
X147805000Y-87512000D03*
%TO.P,IC101,2*%
%TO.N,/MUX_SELB*%
X149075000Y-87512000D03*
%TO.P,IC101,3*%
%TO.N,/CPPC_TX*%
X150345000Y-87512000D03*
%TO.P,IC101,4*%
%TO.N,/E5_TX*%
X151615000Y-87512000D03*
%TO.P,IC101,5*%
%TO.N,/GPS_TX*%
X152885000Y-87512000D03*
%TO.P,IC101,6*%
%TO.N,/LOAD_TX*%
X154155000Y-87512000D03*
%TO.P,IC101,7*%
%TO.N,/PI_RXD0*%
X155425000Y-87512000D03*
%TO.P,IC101,8*%
%TO.N,GND*%
X156695000Y-87512000D03*
%TO.P,IC101,9*%
%TO.N,/PI_TXD0*%
X156695000Y-82088000D03*
%TO.P,IC101,10*%
%TO.N,/LOAD_RX*%
X155425000Y-82088000D03*
%TO.P,IC101,11*%
%TO.N,/GPS_RX*%
X154155000Y-82088000D03*
%TO.P,IC101,12*%
%TO.N,/E5_RX*%
X152885000Y-82088000D03*
%TO.P,IC101,13*%
%TO.N,/CPPC_RX*%
X151615000Y-82088000D03*
%TO.P,IC101,14*%
%TO.N,/MUX_SELA*%
X150345000Y-82088000D03*
%TO.P,IC101,15*%
%TO.N,GND*%
X149075000Y-82088000D03*
%TO.P,IC101,16*%
%TO.N,+3V3*%
X147805000Y-82088000D03*
%TD*%
D35*
%TO.P,H104,1*%
%TO.N,Net-(H104-Pad1)*%
X195000000Y-145000000D03*
%TD*%
%TO.P,H103,1*%
%TO.N,Net-(H103-Pad1)*%
X105000000Y-145000000D03*
%TD*%
%TO.P,H102,1*%
%TO.N,Net-(H102-Pad1)*%
X195000000Y-55000000D03*
%TD*%
%TO.P,H101,1*%
%TO.N,Net-(H101-Pad1)*%
X105000000Y-55000000D03*
%TD*%
%TO.P,FB101,1*%
%TO.N,V_GPS*%
%TA.AperFunction,SMDPad,CuDef*%
G36*
G01*
X173535000Y-145982500D02*
X173215000Y-145982500D01*
G75*
G02*
X173055000Y-145822500I0J160000D01*
G01*
X173055000Y-145427500D01*
G75*
G02*
X173215000Y-145267500I160000J0D01*
G01*
X173535000Y-145267500D01*
G75*
G02*
X173695000Y-145427500I0J-160000D01*
G01*
X173695000Y-145822500D01*
G75*
G02*
X173535000Y-145982500I-160000J0D01*
G01*
G37*
%TD.AperFunction*%
%TO.P,FB101,2*%
%TO.N,Net-(FB101-Pad2)*%
%TA.AperFunction,SMDPad,CuDef*%
G36*
G01*
X173535000Y-144787500D02*
X173215000Y-144787500D01*
G75*
G02*
X173055000Y-144627500I0J160000D01*
G01*
X173055000Y-144232500D01*
G75*
G02*
X173215000Y-144072500I160000J0D01*
G01*
X173535000Y-144072500D01*
G75*
G02*
X173695000Y-144232500I0J-160000D01*
G01*
X173695000Y-144627500D01*
G75*
G02*
X173535000Y-144787500I-160000J0D01*
G01*
G37*
%TD.AperFunction*%
%TD*%
%TO.P,C217,2*%
%TO.N,GND*%
%TA.AperFunction,SMDPad,CuDef*%
G36*
G01*
X111570000Y-120050000D02*
X111880000Y-120050000D01*
G75*
G02*
X112035000Y-120205000I0J-155000D01*
G01*
X112035000Y-120630000D01*
G75*
G02*
X111880000Y-120785000I-155000J0D01*
G01*
X111570000Y-120785000D01*
G75*
G02*
X111415000Y-120630000I0J155000D01*
G01*
X111415000Y-120205000D01*
G75*
G02*
X111570000Y-120050000I155000J0D01*
G01*
G37*
%TD.AperFunction*%
%TO.P,C217,1*%
%TO.N,/LoRa Module/ANT*%
%TA.AperFunction,SMDPad,CuDef*%
G36*
G01*
X111570000Y-118915000D02*
X111880000Y-118915000D01*
G75*
G02*
X112035000Y-119070000I0J-155000D01*
G01*
X112035000Y-119495000D01*
G75*
G02*
X111880000Y-119650000I-155000J0D01*
G01*
X111570000Y-119650000D01*
G75*
G02*
X111415000Y-119495000I0J155000D01*
G01*
X111415000Y-119070000D01*
G75*
G02*
X111570000Y-118915000I155000J0D01*
G01*
G37*
%TD.AperFunction*%
%TD*%
%TO.P,C216,2*%
%TO.N,GND*%
%TA.AperFunction,SMDPad,CuDef*%
G36*
G01*
X114920000Y-120050000D02*
X115230000Y-120050000D01*
G75*
G02*
X115385000Y-120205000I0J-155000D01*
G01*
X115385000Y-120630000D01*
G75*
G02*
X115230000Y-120785000I-155000J0D01*
G01*
X114920000Y-120785000D01*
G75*
G02*
X114765000Y-120630000I0J155000D01*
G01*
X114765000Y-120205000D01*
G75*
G02*
X114920000Y-120050000I155000J0D01*
G01*
G37*
%TD.AperFunction*%
%TO.P,C216,1*%
%TO.N,Net-(C215-Pad2)*%
%TA.AperFunction,SMDPad,CuDef*%
G36*
G01*
X114920000Y-118915000D02*
X115230000Y-118915000D01*
G75*
G02*
X115385000Y-119070000I0J-155000D01*
G01*
X115385000Y-119495000D01*
G75*
G02*
X115230000Y-119650000I-155000J0D01*
G01*
X114920000Y-119650000D01*
G75*
G02*
X114765000Y-119495000I0J155000D01*
G01*
X114765000Y-119070000D01*
G75*
G02*
X114920000Y-118915000I155000J0D01*
G01*
G37*
%TD.AperFunction*%
%TD*%
%TO.P,C215,2*%
%TO.N,Net-(C215-Pad2)*%
%TA.AperFunction,SMDPad,CuDef*%
G36*
G01*
X117775000Y-119120000D02*
X117775000Y-119430000D01*
G75*
G02*
X117620000Y-119585000I-155000J0D01*
G01*
X117195000Y-119585000D01*
G75*
G02*
X117040000Y-119430000I0J155000D01*
G01*
X117040000Y-119120000D01*
G75*
G02*
X117195000Y-118965000I155000J0D01*
G01*
X117620000Y-118965000D01*
G75*
G02*
X117775000Y-119120000I0J-155000D01*
G01*
G37*
%TD.AperFunction*%
%TO.P,C215,1*%
%TO.N,Net-(C215-Pad1)*%
%TA.AperFunction,SMDPad,CuDef*%
G36*
G01*
X118910000Y-119120000D02*
X118910000Y-119430000D01*
G75*
G02*
X118755000Y-119585000I-155000J0D01*
G01*
X118330000Y-119585000D01*
G75*
G02*
X118175000Y-119430000I0J155000D01*
G01*
X118175000Y-119120000D01*
G75*
G02*
X118330000Y-118965000I155000J0D01*
G01*
X118755000Y-118965000D01*
G75*
G02*
X118910000Y-119120000I0J-155000D01*
G01*
G37*
%TD.AperFunction*%
%TD*%
%TO.P,C214,2*%
%TO.N,GND*%
%TA.AperFunction,SMDPad,CuDef*%
G36*
G01*
X119980000Y-116475000D02*
X119670000Y-116475000D01*
G75*
G02*
X119515000Y-116320000I0J155000D01*
G01*
X119515000Y-115895000D01*
G75*
G02*
X119670000Y-115740000I155000J0D01*
G01*
X119980000Y-115740000D01*
G75*
G02*
X120135000Y-115895000I0J-155000D01*
G01*
X120135000Y-116320000D01*
G75*
G02*
X119980000Y-116475000I-155000J0D01*
G01*
G37*
%TD.AperFunction*%
%TO.P,C214,1*%
%TO.N,Net-(C214-Pad1)*%
%TA.AperFunction,SMDPad,CuDef*%
G36*
G01*
X119980000Y-117610000D02*
X119670000Y-117610000D01*
G75*
G02*
X119515000Y-117455000I0J155000D01*
G01*
X119515000Y-117030000D01*
G75*
G02*
X119670000Y-116875000I155000J0D01*
G01*
X119980000Y-116875000D01*
G75*
G02*
X120135000Y-117030000I0J-155000D01*
G01*
X120135000Y-117455000D01*
G75*
G02*
X119980000Y-117610000I-155000J0D01*
G01*
G37*
%TD.AperFunction*%
%TD*%
%TO.P,C213,2*%
%TO.N,GND*%
%TA.AperFunction,SMDPad,CuDef*%
G36*
G01*
X122870000Y-120700000D02*
X123180000Y-120700000D01*
G75*
G02*
X123335000Y-120855000I0J-155000D01*
G01*
X123335000Y-121280000D01*
G75*
G02*
X123180000Y-121435000I-155000J0D01*
G01*
X122870000Y-121435000D01*
G75*
G02*
X122715000Y-121280000I0J155000D01*
G01*
X122715000Y-120855000D01*
G75*
G02*
X122870000Y-120700000I155000J0D01*
G01*
G37*
%TD.AperFunction*%
%TO.P,C213,1*%
%TO.N,Net-(C213-Pad1)*%
%TA.AperFunction,SMDPad,CuDef*%
G36*
G01*
X122870000Y-119565000D02*
X123180000Y-119565000D01*
G75*
G02*
X123335000Y-119720000I0J-155000D01*
G01*
X123335000Y-120145000D01*
G75*
G02*
X123180000Y-120300000I-155000J0D01*
G01*
X122870000Y-120300000D01*
G75*
G02*
X122715000Y-120145000I0J155000D01*
G01*
X122715000Y-119720000D01*
G75*
G02*
X122870000Y-119565000I155000J0D01*
G01*
G37*
%TD.AperFunction*%
%TD*%
%TO.P,C212,2*%
%TO.N,Net-(C212-Pad2)*%
%TA.AperFunction,SMDPad,CuDef*%
G36*
G01*
X126957500Y-119745000D02*
X126957500Y-120055000D01*
G75*
G02*
X126802500Y-120210000I-155000J0D01*
G01*
X126377500Y-120210000D01*
G75*
G02*
X126222500Y-120055000I0J155000D01*
G01*
X126222500Y-119745000D01*
G75*
G02*
X126377500Y-119590000I155000J0D01*
G01*
X126802500Y-119590000D01*
G75*
G02*
X126957500Y-119745000I0J-155000D01*
G01*
G37*
%TD.AperFunction*%
%TO.P,C212,1*%
%TO.N,Net-(C209-Pad2)*%
%TA.AperFunction,SMDPad,CuDef*%
G36*
G01*
X128092500Y-119745000D02*
X128092500Y-120055000D01*
G75*
G02*
X127937500Y-120210000I-155000J0D01*
G01*
X127512500Y-120210000D01*
G75*
G02*
X127357500Y-120055000I0J155000D01*
G01*
X127357500Y-119745000D01*
G75*
G02*
X127512500Y-119590000I155000J0D01*
G01*
X127937500Y-119590000D01*
G75*
G02*
X128092500Y-119745000I0J-155000D01*
G01*
G37*
%TD.AperFunction*%
%TD*%
%TO.P,C211,2*%
%TO.N,GND*%
%TA.AperFunction,SMDPad,CuDef*%
G36*
G01*
X128695000Y-120725000D02*
X129005000Y-120725000D01*
G75*
G02*
X129160000Y-120880000I0J-155000D01*
G01*
X129160000Y-121305000D01*
G75*
G02*
X129005000Y-121460000I-155000J0D01*
G01*
X128695000Y-121460000D01*
G75*
G02*
X128540000Y-121305000I0J155000D01*
G01*
X128540000Y-120880000D01*
G75*
G02*
X128695000Y-120725000I155000J0D01*
G01*
G37*
%TD.AperFunction*%
%TO.P,C211,1*%
%TO.N,Net-(C209-Pad2)*%
%TA.AperFunction,SMDPad,CuDef*%
G36*
G01*
X128695000Y-119590000D02*
X129005000Y-119590000D01*
G75*
G02*
X129160000Y-119745000I0J-155000D01*
G01*
X129160000Y-120170000D01*
G75*
G02*
X129005000Y-120325000I-155000J0D01*
G01*
X128695000Y-120325000D01*
G75*
G02*
X128540000Y-120170000I0J155000D01*
G01*
X128540000Y-119745000D01*
G75*
G02*
X128695000Y-119590000I155000J0D01*
G01*
G37*
%TD.AperFunction*%
%TD*%
%TO.P,C210,2*%
%TO.N,GND*%
%TA.AperFunction,SMDPad,CuDef*%
G36*
G01*
X132455000Y-117875000D02*
X132145000Y-117875000D01*
G75*
G02*
X131990000Y-117720000I0J155000D01*
G01*
X131990000Y-117295000D01*
G75*
G02*
X132145000Y-117140000I155000J0D01*
G01*
X132455000Y-117140000D01*
G75*
G02*
X132610000Y-117295000I0J-155000D01*
G01*
X132610000Y-117720000D01*
G75*
G02*
X132455000Y-117875000I-155000J0D01*
G01*
G37*
%TD.AperFunction*%
%TO.P,C210,1*%
%TO.N,Net-(C208-Pad2)*%
%TA.AperFunction,SMDPad,CuDef*%
G36*
G01*
X132455000Y-119010000D02*
X132145000Y-119010000D01*
G75*
G02*
X131990000Y-118855000I0J155000D01*
G01*
X131990000Y-118430000D01*
G75*
G02*
X132145000Y-118275000I155000J0D01*
G01*
X132455000Y-118275000D01*
G75*
G02*
X132610000Y-118430000I0J-155000D01*
G01*
X132610000Y-118855000D01*
G75*
G02*
X132455000Y-119010000I-155000J0D01*
G01*
G37*
%TD.AperFunction*%
%TD*%
%TO.P,C209,2*%
%TO.N,Net-(C209-Pad2)*%
%TA.AperFunction,SMDPad,CuDef*%
G36*
G01*
X130375000Y-120845000D02*
X130375000Y-121155000D01*
G75*
G02*
X130220000Y-121310000I-155000J0D01*
G01*
X129795000Y-121310000D01*
G75*
G02*
X129640000Y-121155000I0J155000D01*
G01*
X129640000Y-120845000D01*
G75*
G02*
X129795000Y-120690000I155000J0D01*
G01*
X130220000Y-120690000D01*
G75*
G02*
X130375000Y-120845000I0J-155000D01*
G01*
G37*
%TD.AperFunction*%
%TO.P,C209,1*%
%TO.N,Net-(C207-Pad1)*%
%TA.AperFunction,SMDPad,CuDef*%
G36*
G01*
X131510000Y-120845000D02*
X131510000Y-121155000D01*
G75*
G02*
X131355000Y-121310000I-155000J0D01*
G01*
X130930000Y-121310000D01*
G75*
G02*
X130775000Y-121155000I0J155000D01*
G01*
X130775000Y-120845000D01*
G75*
G02*
X130930000Y-120690000I155000J0D01*
G01*
X131355000Y-120690000D01*
G75*
G02*
X131510000Y-120845000I0J-155000D01*
G01*
G37*
%TD.AperFunction*%
%TD*%
%TO.P,C208,2*%
%TO.N,Net-(C208-Pad2)*%
%TA.AperFunction,SMDPad,CuDef*%
G36*
G01*
X133832500Y-118520000D02*
X133832500Y-118830000D01*
G75*
G02*
X133677500Y-118985000I-155000J0D01*
G01*
X133252500Y-118985000D01*
G75*
G02*
X133097500Y-118830000I0J155000D01*
G01*
X133097500Y-118520000D01*
G75*
G02*
X133252500Y-118365000I155000J0D01*
G01*
X133677500Y-118365000D01*
G75*
G02*
X133832500Y-118520000I0J-155000D01*
G01*
G37*
%TD.AperFunction*%
%TO.P,C208,1*%
%TO.N,Net-(C208-Pad1)*%
%TA.AperFunction,SMDPad,CuDef*%
G36*
G01*
X134967500Y-118520000D02*
X134967500Y-118830000D01*
G75*
G02*
X134812500Y-118985000I-155000J0D01*
G01*
X134387500Y-118985000D01*
G75*
G02*
X134232500Y-118830000I0J155000D01*
G01*
X134232500Y-118520000D01*
G75*
G02*
X134387500Y-118365000I155000J0D01*
G01*
X134812500Y-118365000D01*
G75*
G02*
X134967500Y-118520000I0J-155000D01*
G01*
G37*
%TD.AperFunction*%
%TD*%
%TO.P,C207,2*%
%TO.N,GND*%
%TA.AperFunction,SMDPad,CuDef*%
G36*
G01*
X132120000Y-120675000D02*
X132430000Y-120675000D01*
G75*
G02*
X132585000Y-120830000I0J-155000D01*
G01*
X132585000Y-121255000D01*
G75*
G02*
X132430000Y-121410000I-155000J0D01*
G01*
X132120000Y-121410000D01*
G75*
G02*
X131965000Y-121255000I0J155000D01*
G01*
X131965000Y-120830000D01*
G75*
G02*
X132120000Y-120675000I155000J0D01*
G01*
G37*
%TD.AperFunction*%
%TO.P,C207,1*%
%TO.N,Net-(C207-Pad1)*%
%TA.AperFunction,SMDPad,CuDef*%
G36*
G01*
X132120000Y-119540000D02*
X132430000Y-119540000D01*
G75*
G02*
X132585000Y-119695000I0J-155000D01*
G01*
X132585000Y-120120000D01*
G75*
G02*
X132430000Y-120275000I-155000J0D01*
G01*
X132120000Y-120275000D01*
G75*
G02*
X131965000Y-120120000I0J155000D01*
G01*
X131965000Y-119695000D01*
G75*
G02*
X132120000Y-119540000I155000J0D01*
G01*
G37*
%TD.AperFunction*%
%TD*%
%TO.P,C206,2*%
%TO.N,GND*%
%TA.AperFunction,SMDPad,CuDef*%
G36*
G01*
X133850000Y-117320000D02*
X133850000Y-117630000D01*
G75*
G02*
X133695000Y-117785000I-155000J0D01*
G01*
X133270000Y-117785000D01*
G75*
G02*
X133115000Y-117630000I0J155000D01*
G01*
X133115000Y-117320000D01*
G75*
G02*
X133270000Y-117165000I155000J0D01*
G01*
X133695000Y-117165000D01*
G75*
G02*
X133850000Y-117320000I0J-155000D01*
G01*
G37*
%TD.AperFunction*%
%TO.P,C206,1*%
%TO.N,Net-(C206-Pad1)*%
%TA.AperFunction,SMDPad,CuDef*%
G36*
G01*
X134985000Y-117320000D02*
X134985000Y-117630000D01*
G75*
G02*
X134830000Y-117785000I-155000J0D01*
G01*
X134405000Y-117785000D01*
G75*
G02*
X134250000Y-117630000I0J155000D01*
G01*
X134250000Y-117320000D01*
G75*
G02*
X134405000Y-117165000I155000J0D01*
G01*
X134830000Y-117165000D01*
G75*
G02*
X134985000Y-117320000I0J-155000D01*
G01*
G37*
%TD.AperFunction*%
%TD*%
%TO.P,C205,2*%
%TO.N,GND*%
%TA.AperFunction,SMDPad,CuDef*%
G36*
G01*
X134370000Y-121800000D02*
X134680000Y-121800000D01*
G75*
G02*
X134835000Y-121955000I0J-155000D01*
G01*
X134835000Y-122380000D01*
G75*
G02*
X134680000Y-122535000I-155000J0D01*
G01*
X134370000Y-122535000D01*
G75*
G02*
X134215000Y-122380000I0J155000D01*
G01*
X134215000Y-121955000D01*
G75*
G02*
X134370000Y-121800000I155000J0D01*
G01*
G37*
%TD.AperFunction*%
%TO.P,C205,1*%
%TO.N,Net-(C204-Pad1)*%
%TA.AperFunction,SMDPad,CuDef*%
G36*
G01*
X134370000Y-120665000D02*
X134680000Y-120665000D01*
G75*
G02*
X134835000Y-120820000I0J-155000D01*
G01*
X134835000Y-121245000D01*
G75*
G02*
X134680000Y-121400000I-155000J0D01*
G01*
X134370000Y-121400000D01*
G75*
G02*
X134215000Y-121245000I0J155000D01*
G01*
X134215000Y-120820000D01*
G75*
G02*
X134370000Y-120665000I155000J0D01*
G01*
G37*
%TD.AperFunction*%
%TD*%
%TO.P,C204,2*%
%TO.N,GND*%
%TA.AperFunction,SMDPad,CuDef*%
G36*
G01*
X135645000Y-121775000D02*
X135955000Y-121775000D01*
G75*
G02*
X136110000Y-121930000I0J-155000D01*
G01*
X136110000Y-122355000D01*
G75*
G02*
X135955000Y-122510000I-155000J0D01*
G01*
X135645000Y-122510000D01*
G75*
G02*
X135490000Y-122355000I0J155000D01*
G01*
X135490000Y-121930000D01*
G75*
G02*
X135645000Y-121775000I155000J0D01*
G01*
G37*
%TD.AperFunction*%
%TO.P,C204,1*%
%TO.N,Net-(C204-Pad1)*%
%TA.AperFunction,SMDPad,CuDef*%
G36*
G01*
X135645000Y-120640000D02*
X135955000Y-120640000D01*
G75*
G02*
X136110000Y-120795000I0J-155000D01*
G01*
X136110000Y-121220000D01*
G75*
G02*
X135955000Y-121375000I-155000J0D01*
G01*
X135645000Y-121375000D01*
G75*
G02*
X135490000Y-121220000I0J155000D01*
G01*
X135490000Y-120795000D01*
G75*
G02*
X135645000Y-120640000I155000J0D01*
G01*
G37*
%TD.AperFunction*%
%TD*%
%TO.P,C203,2*%
%TO.N,GND*%
%TA.AperFunction,SMDPad,CuDef*%
G36*
G01*
X138005000Y-123520000D02*
X138315000Y-123520000D01*
G75*
G02*
X138470000Y-123675000I0J-155000D01*
G01*
X138470000Y-124100000D01*
G75*
G02*
X138315000Y-124255000I-155000J0D01*
G01*
X138005000Y-124255000D01*
G75*
G02*
X137850000Y-124100000I0J155000D01*
G01*
X137850000Y-123675000D01*
G75*
G02*
X138005000Y-123520000I155000J0D01*
G01*
G37*
%TD.AperFunction*%
%TO.P,C203,1*%
%TO.N,+3V3*%
%TA.AperFunction,SMDPad,CuDef*%
G36*
G01*
X138005000Y-122385000D02*
X138315000Y-122385000D01*
G75*
G02*
X138470000Y-122540000I0J-155000D01*
G01*
X138470000Y-122965000D01*
G75*
G02*
X138315000Y-123120000I-155000J0D01*
G01*
X138005000Y-123120000D01*
G75*
G02*
X137850000Y-122965000I0J155000D01*
G01*
X137850000Y-122540000D01*
G75*
G02*
X138005000Y-122385000I155000J0D01*
G01*
G37*
%TD.AperFunction*%
%TD*%
%TO.P,C202,2*%
%TO.N,GND*%
%TA.AperFunction,SMDPad,CuDef*%
G36*
G01*
X143215000Y-117630000D02*
X142905000Y-117630000D01*
G75*
G02*
X142750000Y-117475000I0J155000D01*
G01*
X142750000Y-117050000D01*
G75*
G02*
X142905000Y-116895000I155000J0D01*
G01*
X143215000Y-116895000D01*
G75*
G02*
X143370000Y-117050000I0J-155000D01*
G01*
X143370000Y-117475000D01*
G75*
G02*
X143215000Y-117630000I-155000J0D01*
G01*
G37*
%TD.AperFunction*%
%TO.P,C202,1*%
%TO.N,Net-(C202-Pad1)*%
%TA.AperFunction,SMDPad,CuDef*%
G36*
G01*
X143215000Y-118765000D02*
X142905000Y-118765000D01*
G75*
G02*
X142750000Y-118610000I0J155000D01*
G01*
X142750000Y-118185000D01*
G75*
G02*
X142905000Y-118030000I155000J0D01*
G01*
X143215000Y-118030000D01*
G75*
G02*
X143370000Y-118185000I0J-155000D01*
G01*
X143370000Y-118610000D01*
G75*
G02*
X143215000Y-118765000I-155000J0D01*
G01*
G37*
%TD.AperFunction*%
%TD*%
%TO.P,C201,2*%
%TO.N,GND*%
%TA.AperFunction,SMDPad,CuDef*%
G36*
G01*
X144375000Y-120817500D02*
X144065000Y-120817500D01*
G75*
G02*
X143910000Y-120662500I0J155000D01*
G01*
X143910000Y-120237500D01*
G75*
G02*
X144065000Y-120082500I155000J0D01*
G01*
X144375000Y-120082500D01*
G75*
G02*
X144530000Y-120237500I0J-155000D01*
G01*
X144530000Y-120662500D01*
G75*
G02*
X144375000Y-120817500I-155000J0D01*
G01*
G37*
%TD.AperFunction*%
%TO.P,C201,1*%
%TO.N,Net-(C201-Pad1)*%
%TA.AperFunction,SMDPad,CuDef*%
G36*
G01*
X144375000Y-121952500D02*
X144065000Y-121952500D01*
G75*
G02*
X143910000Y-121797500I0J155000D01*
G01*
X143910000Y-121372500D01*
G75*
G02*
X144065000Y-121217500I155000J0D01*
G01*
X144375000Y-121217500D01*
G75*
G02*
X144530000Y-121372500I0J-155000D01*
G01*
X144530000Y-121797500D01*
G75*
G02*
X144375000Y-121952500I-155000J0D01*
G01*
G37*
%TD.AperFunction*%
%TD*%
%TO.P,C108,2*%
%TO.N,GND*%
%TA.AperFunction,SMDPad,CuDef*%
G36*
G01*
X111245000Y-79967500D02*
X111555000Y-79967500D01*
G75*
G02*
X111710000Y-80122500I0J-155000D01*
G01*
X111710000Y-80547500D01*
G75*
G02*
X111555000Y-80702500I-155000J0D01*
G01*
X111245000Y-80702500D01*
G75*
G02*
X111090000Y-80547500I0J155000D01*
G01*
X111090000Y-80122500D01*
G75*
G02*
X111245000Y-79967500I155000J0D01*
G01*
G37*
%TD.AperFunction*%
%TO.P,C108,1*%
%TO.N,/ANT*%
%TA.AperFunction,SMDPad,CuDef*%
G36*
G01*
X111245000Y-78832500D02*
X111555000Y-78832500D01*
G75*
G02*
X111710000Y-78987500I0J-155000D01*
G01*
X111710000Y-79412500D01*
G75*
G02*
X111555000Y-79567500I-155000J0D01*
G01*
X111245000Y-79567500D01*
G75*
G02*
X111090000Y-79412500I0J155000D01*
G01*
X111090000Y-78987500D01*
G75*
G02*
X111245000Y-78832500I155000J0D01*
G01*
G37*
%TD.AperFunction*%
%TD*%
%TO.P,C107,2*%
%TO.N,GND*%
%TA.AperFunction,SMDPad,CuDef*%
G36*
G01*
X114645000Y-79967500D02*
X114955000Y-79967500D01*
G75*
G02*
X115110000Y-80122500I0J-155000D01*
G01*
X115110000Y-80547500D01*
G75*
G02*
X114955000Y-80702500I-155000J0D01*
G01*
X114645000Y-80702500D01*
G75*
G02*
X114490000Y-80547500I0J155000D01*
G01*
X114490000Y-80122500D01*
G75*
G02*
X114645000Y-79967500I155000J0D01*
G01*
G37*
%TD.AperFunction*%
%TO.P,C107,1*%
%TO.N,/E5_RFIO*%
%TA.AperFunction,SMDPad,CuDef*%
G36*
G01*
X114645000Y-78832500D02*
X114955000Y-78832500D01*
G75*
G02*
X115110000Y-78987500I0J-155000D01*
G01*
X115110000Y-79412500D01*
G75*
G02*
X114955000Y-79567500I-155000J0D01*
G01*
X114645000Y-79567500D01*
G75*
G02*
X114490000Y-79412500I0J155000D01*
G01*
X114490000Y-78987500D01*
G75*
G02*
X114645000Y-78832500I155000J0D01*
G01*
G37*
%TD.AperFunction*%
%TD*%
%TO.P,C106,2*%
%TO.N,+5V*%
%TA.AperFunction,SMDPad,CuDef*%
G36*
G01*
X166495000Y-66432500D02*
X166805000Y-66432500D01*
G75*
G02*
X166960000Y-66587500I0J-155000D01*
G01*
X166960000Y-67012500D01*
G75*
G02*
X166805000Y-67167500I-155000J0D01*
G01*
X166495000Y-67167500D01*
G75*
G02*
X166340000Y-67012500I0J155000D01*
G01*
X166340000Y-66587500D01*
G75*
G02*
X166495000Y-66432500I155000J0D01*
G01*
G37*
%TD.AperFunction*%
%TO.P,C106,1*%
%TO.N,GND*%
%TA.AperFunction,SMDPad,CuDef*%
G36*
G01*
X166495000Y-65297500D02*
X166805000Y-65297500D01*
G75*
G02*
X166960000Y-65452500I0J-155000D01*
G01*
X166960000Y-65877500D01*
G75*
G02*
X166805000Y-66032500I-155000J0D01*
G01*
X166495000Y-66032500D01*
G75*
G02*
X166340000Y-65877500I0J155000D01*
G01*
X166340000Y-65452500D01*
G75*
G02*
X166495000Y-65297500I155000J0D01*
G01*
G37*
%TD.AperFunction*%
%TD*%
%TO.P,C105,2*%
%TO.N,+5V*%
%TA.AperFunction,SMDPad,CuDef*%
G36*
G01*
X165095000Y-66432500D02*
X165405000Y-66432500D01*
G75*
G02*
X165560000Y-66587500I0J-155000D01*
G01*
X165560000Y-67012500D01*
G75*
G02*
X165405000Y-67167500I-155000J0D01*
G01*
X165095000Y-67167500D01*
G75*
G02*
X164940000Y-67012500I0J155000D01*
G01*
X164940000Y-66587500D01*
G75*
G02*
X165095000Y-66432500I155000J0D01*
G01*
G37*
%TD.AperFunction*%
%TO.P,C105,1*%
%TO.N,GND*%
%TA.AperFunction,SMDPad,CuDef*%
G36*
G01*
X165095000Y-65297500D02*
X165405000Y-65297500D01*
G75*
G02*
X165560000Y-65452500I0J-155000D01*
G01*
X165560000Y-65877500D01*
G75*
G02*
X165405000Y-66032500I-155000J0D01*
G01*
X165095000Y-66032500D01*
G75*
G02*
X164940000Y-65877500I0J155000D01*
G01*
X164940000Y-65452500D01*
G75*
G02*
X165095000Y-65297500I155000J0D01*
G01*
G37*
%TD.AperFunction*%
%TD*%
%TO.P,C104,2*%
%TO.N,GND*%
%TA.AperFunction,SMDPad,CuDef*%
G36*
G01*
X127067500Y-102405000D02*
X127067500Y-102095000D01*
G75*
G02*
X127222500Y-101940000I155000J0D01*
G01*
X127647500Y-101940000D01*
G75*
G02*
X127802500Y-102095000I0J-155000D01*
G01*
X127802500Y-102405000D01*
G75*
G02*
X127647500Y-102560000I-155000J0D01*
G01*
X127222500Y-102560000D01*
G75*
G02*
X127067500Y-102405000I0J155000D01*
G01*
G37*
%TD.AperFunction*%
%TO.P,C104,1*%
%TO.N,+3V3*%
%TA.AperFunction,SMDPad,CuDef*%
G36*
G01*
X125932500Y-102405000D02*
X125932500Y-102095000D01*
G75*
G02*
X126087500Y-101940000I155000J0D01*
G01*
X126512500Y-101940000D01*
G75*
G02*
X126667500Y-102095000I0J-155000D01*
G01*
X126667500Y-102405000D01*
G75*
G02*
X126512500Y-102560000I-155000J0D01*
G01*
X126087500Y-102560000D01*
G75*
G02*
X125932500Y-102405000I0J155000D01*
G01*
G37*
%TD.AperFunction*%
%TD*%
%TO.P,C103,2*%
%TO.N,+3V3*%
%TA.AperFunction,SMDPad,CuDef*%
G36*
G01*
X126667500Y-101045000D02*
X126667500Y-101355000D01*
G75*
G02*
X126512500Y-101510000I-155000J0D01*
G01*
X126087500Y-101510000D01*
G75*
G02*
X125932500Y-101355000I0J155000D01*
G01*
X125932500Y-101045000D01*
G75*
G02*
X126087500Y-100890000I155000J0D01*
G01*
X126512500Y-100890000D01*
G75*
G02*
X126667500Y-101045000I0J-155000D01*
G01*
G37*
%TD.AperFunction*%
%TO.P,C103,1*%
%TO.N,GND*%
%TA.AperFunction,SMDPad,CuDef*%
G36*
G01*
X127802500Y-101045000D02*
X127802500Y-101355000D01*
G75*
G02*
X127647500Y-101510000I-155000J0D01*
G01*
X127222500Y-101510000D01*
G75*
G02*
X127067500Y-101355000I0J155000D01*
G01*
X127067500Y-101045000D01*
G75*
G02*
X127222500Y-100890000I155000J0D01*
G01*
X127647500Y-100890000D01*
G75*
G02*
X127802500Y-101045000I0J-155000D01*
G01*
G37*
%TD.AperFunction*%
%TD*%
%TO.P,C102,1*%
%TO.N,GND*%
%TA.AperFunction,SMDPad,CuDef*%
G36*
G01*
X165505000Y-146702500D02*
X165195000Y-146702500D01*
G75*
G02*
X165040000Y-146547500I0J155000D01*
G01*
X165040000Y-146122500D01*
G75*
G02*
X165195000Y-145967500I155000J0D01*
G01*
X165505000Y-145967500D01*
G75*
G02*
X165660000Y-146122500I0J-155000D01*
G01*
X165660000Y-146547500D01*
G75*
G02*
X165505000Y-146702500I-155000J0D01*
G01*
G37*
%TD.AperFunction*%
%TO.P,C102,2*%
%TO.N,V_GPS*%
%TA.AperFunction,SMDPad,CuDef*%
G36*
G01*
X165505000Y-145567500D02*
X165195000Y-145567500D01*
G75*
G02*
X165040000Y-145412500I0J155000D01*
G01*
X165040000Y-144987500D01*
G75*
G02*
X165195000Y-144832500I155000J0D01*
G01*
X165505000Y-144832500D01*
G75*
G02*
X165660000Y-144987500I0J-155000D01*
G01*
X165660000Y-145412500D01*
G75*
G02*
X165505000Y-145567500I-155000J0D01*
G01*
G37*
%TD.AperFunction*%
%TD*%
%TO.P,C101,1*%
%TO.N,GND*%
%TA.AperFunction,SMDPad,CuDef*%
G36*
G01*
X164455000Y-146685000D02*
X164145000Y-146685000D01*
G75*
G02*
X163990000Y-146530000I0J155000D01*
G01*
X163990000Y-146105000D01*
G75*
G02*
X164145000Y-145950000I155000J0D01*
G01*
X164455000Y-145950000D01*
G75*
G02*
X164610000Y-146105000I0J-155000D01*
G01*
X164610000Y-146530000D01*
G75*
G02*
X164455000Y-146685000I-155000J0D01*
G01*
G37*
%TD.AperFunction*%
%TO.P,C101,2*%
%TO.N,V_GPS*%
%TA.AperFunction,SMDPad,CuDef*%
G36*
G01*
X164455000Y-145550000D02*
X164145000Y-145550000D01*
G75*
G02*
X163990000Y-145395000I0J155000D01*
G01*
X163990000Y-144970000D01*
G75*
G02*
X164145000Y-144815000I155000J0D01*
G01*
X164455000Y-144815000D01*
G75*
G02*
X164610000Y-144970000I0J-155000D01*
G01*
X164610000Y-145395000D01*
G75*
G02*
X164455000Y-145550000I-155000J0D01*
G01*
G37*
%TD.AperFunction*%
%TD*%
D36*
%TO.N,GND*%
X110600000Y-118550000D03*
X110600000Y-120050000D03*
X110100000Y-78400000D03*
X110100000Y-79950000D03*
X111400000Y-81375000D03*
X114775000Y-81375000D03*
X115900000Y-79950000D03*
X117025000Y-79950000D03*
X118175000Y-79950000D03*
X115875000Y-78450000D03*
X111375000Y-78050000D03*
X118575000Y-118300000D03*
X117350000Y-118300000D03*
X116150000Y-118525000D03*
X116200000Y-120025000D03*
X117400000Y-120425000D03*
X118625000Y-120400000D03*
X115025000Y-118200000D03*
X113875000Y-118225000D03*
X112750000Y-118200000D03*
X111725000Y-118200000D03*
X112825000Y-120325000D03*
X113975000Y-120300000D03*
X156050000Y-57800000D03*
X123025000Y-118875000D03*
X124125000Y-121000000D03*
X125300000Y-121000000D03*
X126475000Y-121000000D03*
X127675000Y-120950000D03*
X127725000Y-122050000D03*
X130000000Y-122050000D03*
X131175000Y-122050000D03*
X133350000Y-122200000D03*
X133375000Y-123200000D03*
X131100000Y-118850000D03*
X130025000Y-118850000D03*
X128825000Y-118900000D03*
X127675000Y-118900000D03*
X126525000Y-118900000D03*
X125275000Y-118900000D03*
X124075000Y-118900000D03*
X166400000Y-98750000D03*
X166400000Y-111400000D03*
X166400000Y-91100000D03*
X135000000Y-58400000D03*
X118750000Y-63350000D03*
X149100000Y-79500000D03*
X147900000Y-90300000D03*
X158138000Y-87512000D03*
X155125000Y-57800000D03*
X177030000Y-86030000D03*
X176900000Y-106350000D03*
X166650000Y-64350000D03*
X137950000Y-89450000D03*
X113725000Y-80335000D03*
X127435000Y-103435000D03*
X121650000Y-89450000D03*
X160500000Y-134500000D03*
X148300000Y-132950000D03*
X163217500Y-146317500D03*
X160650000Y-142000000D03*
X148300000Y-143450000D03*
X134525000Y-123250000D03*
X132275000Y-122200000D03*
X128825000Y-122150000D03*
X132300000Y-116325000D03*
X133482500Y-116342500D03*
X135800000Y-123250000D03*
X111725000Y-121425000D03*
X115075000Y-121450000D03*
X120837500Y-116107500D03*
X140175000Y-123475000D03*
X143050000Y-125570000D03*
X143060000Y-120450000D03*
X144127500Y-117262500D03*
X172630000Y-124130000D03*
X166440000Y-116510000D03*
X121225000Y-66950000D03*
X183425000Y-143550000D03*
X145925000Y-102375000D03*
X197250000Y-60675000D03*
X112425000Y-78050000D03*
X113700000Y-78050000D03*
X114850000Y-78050000D03*
X138160000Y-125015000D03*
X117025000Y-78450000D03*
X118200000Y-78450000D03*
X119450000Y-78450000D03*
X120700000Y-78450000D03*
X121950000Y-78450000D03*
X123200000Y-78450000D03*
X124475000Y-78450000D03*
X125800000Y-78450000D03*
X126950000Y-78450000D03*
X128125000Y-78450000D03*
X129250000Y-78450000D03*
X130425000Y-78450000D03*
X131462500Y-78837500D03*
X132225000Y-79600000D03*
X132950000Y-80325000D03*
X133712500Y-81087500D03*
X134425000Y-81800000D03*
X134450000Y-82900000D03*
X134450000Y-83950000D03*
X134450000Y-84950000D03*
X112465000Y-80335000D03*
X119475000Y-79950000D03*
X120700000Y-79950000D03*
X121950000Y-79950000D03*
X123225000Y-79950000D03*
X124450000Y-79950000D03*
X125775000Y-79950000D03*
X126950000Y-79950000D03*
X128150000Y-79950000D03*
X129300000Y-79950000D03*
X130325000Y-79950000D03*
X131025000Y-80650000D03*
X131775000Y-81400000D03*
X132550000Y-82175000D03*
X132950000Y-83125000D03*
X132950000Y-84150000D03*
X132950000Y-85150000D03*
X107200000Y-76400000D03*
X107200000Y-82000000D03*
X107750000Y-122200000D03*
X107750000Y-116400000D03*
X144675000Y-132225000D03*
X143650000Y-132250000D03*
X142562500Y-132337500D03*
X141762500Y-133137500D03*
X140987500Y-133912500D03*
X140287500Y-134612500D03*
X139550000Y-135350000D03*
X138862500Y-136037500D03*
X138112500Y-136787500D03*
X137375000Y-137550000D03*
X137375000Y-138550000D03*
X137375000Y-139500000D03*
X144675000Y-130700000D03*
X143675000Y-130700000D03*
X142525000Y-130700000D03*
X141637500Y-131137500D03*
X140887500Y-131887500D03*
X140087500Y-132687500D03*
X139287500Y-133487500D03*
X138537500Y-134237500D03*
X137737500Y-135037500D03*
X136912500Y-135862500D03*
X136125000Y-136625000D03*
X135850000Y-139400000D03*
X135850000Y-137500000D03*
X135850000Y-138500000D03*
X139350000Y-142150000D03*
X133850000Y-142150000D03*
%TO.N,/E5_RX*%
X151975000Y-89400000D03*
X152885000Y-80590000D03*
%TO.N,/~E5_RESET*%
X162550000Y-119100000D03*
X131200000Y-89250000D03*
%TO.N,/PI_SCL*%
X147650000Y-65400000D03*
X147600000Y-71000000D03*
%TO.N,/~PS_CC_CE*%
X164550000Y-96200000D03*
X151400000Y-57800000D03*
%TO.N,/~PS_CC_QON*%
X163525000Y-101275000D03*
X150100000Y-57800000D03*
%TO.N,/~PS_CC_INT*%
X152600000Y-57800000D03*
X165550000Y-93650000D03*
%TO.N,+3V3*%
X121300000Y-63300000D03*
X137600000Y-58500000D03*
X147800000Y-80500000D03*
X174150000Y-74600000D03*
X175400000Y-74600000D03*
X130200000Y-72995000D03*
X130050000Y-68550000D03*
X193175000Y-60600000D03*
X176960000Y-96190000D03*
X126300000Y-103450000D03*
X164300000Y-141100000D03*
X173374999Y-137625001D03*
X137275000Y-122752500D03*
X119825000Y-122325000D03*
%TO.N,+5V*%
X158600000Y-56250000D03*
X142700000Y-52700000D03*
X157600000Y-56250000D03*
X169850000Y-74600000D03*
X168500000Y-74600000D03*
X165250000Y-67950000D03*
%TO.N,/CPPC_INT*%
X127400000Y-58400000D03*
X162500000Y-103800000D03*
%TO.N,/MUX_SELA*%
X150300000Y-79500000D03*
X162500000Y-106400000D03*
%TO.N,/GPS_RX*%
X154225000Y-80500000D03*
X153725000Y-89400000D03*
%TO.N,/CPPC_RX*%
X134275000Y-65750000D03*
X144850501Y-83150501D03*
%TO.N,/LOAD_TX*%
X155400000Y-80500000D03*
X155075000Y-89350000D03*
%TO.N,/CPPC_TX*%
X132050000Y-65725000D03*
X143650000Y-84300000D03*
%TO.N,/MUX_SELB*%
X149100000Y-90300000D03*
X162500000Y-113950000D03*
%TO.N,/SX_DIO3*%
X142990000Y-122950000D03*
%TO.N,/SX_DIO2*%
X118700000Y-114930000D03*
X144080000Y-114920000D03*
%TO.N,/PS_BOOST_PS*%
X153900000Y-57800000D03*
X166480000Y-88570000D03*
%TO.N,/~E5_BOOT*%
X162600000Y-121500000D03*
X126000000Y-91950000D03*
%TO.N,Net-(J107-Pad3)*%
X152440000Y-66480000D03*
%TD*%
D37*
%TO.N,GND*%
X115675000Y-79950000D02*
X115900000Y-79950000D01*
X119475000Y-79950000D02*
X119475000Y-79950000D01*
D38*
X156695000Y-87512000D02*
X158138000Y-87512000D01*
X158138000Y-87512000D02*
X158138000Y-87512000D01*
X174255000Y-86030000D02*
X174825000Y-86030000D01*
X169175000Y-91110000D02*
X169745000Y-91110000D01*
X147805000Y-89095000D02*
X147800000Y-89100000D01*
X147900000Y-87607000D02*
X147805000Y-87512000D01*
X147900000Y-90300000D02*
X147900000Y-87607000D01*
X149075000Y-79525000D02*
X149100000Y-79500000D01*
X149075000Y-82088000D02*
X149075000Y-79525000D01*
D37*
X166410000Y-91110000D02*
X166400000Y-91100000D01*
X169175000Y-91110000D02*
X166410000Y-91110000D01*
X166430000Y-111430000D02*
X166400000Y-111400000D01*
X169175000Y-111430000D02*
X166430000Y-111430000D01*
X166420000Y-98730000D02*
X166400000Y-98750000D01*
X169175000Y-98730000D02*
X166420000Y-98730000D01*
X169745000Y-80950000D02*
X174825000Y-86030000D01*
X169175000Y-80950000D02*
X169745000Y-80950000D01*
X174825000Y-86030000D02*
X177030000Y-86030000D01*
X177030000Y-86030000D02*
X177030000Y-86030000D01*
X174825000Y-106350000D02*
X176900000Y-106350000D01*
X176900000Y-106350000D02*
X176900000Y-106350000D01*
X165250000Y-65665000D02*
X166650000Y-65665000D01*
X166650000Y-65665000D02*
X166650000Y-64350000D01*
X166650000Y-64350000D02*
X166650000Y-64350000D01*
X135950000Y-89450000D02*
X137950000Y-89450000D01*
X137950000Y-89450000D02*
X137950000Y-89450000D01*
X133714998Y-89450000D02*
X135950000Y-89450000D01*
X132450000Y-88185002D02*
X133714998Y-89450000D01*
X132450000Y-87200000D02*
X132450000Y-88185002D01*
X111400000Y-80335000D02*
X112465000Y-80335000D01*
X113115000Y-80335000D02*
X114800000Y-80335000D01*
D39*
X127435000Y-99215000D02*
X127450000Y-99200000D01*
X127435000Y-101200000D02*
X127435000Y-99215000D01*
X127435000Y-102250000D02*
X127435000Y-101200000D01*
X127435000Y-102250000D02*
X127435000Y-103435000D01*
X127435000Y-103435000D02*
X127435000Y-103435000D01*
D37*
X123950000Y-89450000D02*
X121650000Y-89450000D01*
X121650000Y-89450000D02*
X121650000Y-89450000D01*
X160500000Y-134500000D02*
X160500000Y-134500000D01*
X146450000Y-132950000D02*
X148100000Y-132950000D01*
X148300000Y-132950000D02*
X148300000Y-132950000D01*
X163990000Y-146317500D02*
X163972500Y-146300000D01*
X164300000Y-146317500D02*
X163990000Y-146317500D01*
X163217500Y-146317500D02*
X163217500Y-146317500D01*
X160650000Y-142000000D02*
X160650000Y-142000000D01*
D39*
X146450000Y-143450000D02*
X148100000Y-143450000D01*
X148300000Y-143450000D02*
X148300000Y-143450000D01*
D37*
X134550000Y-122142500D02*
X134525000Y-122167500D01*
X135800000Y-122142500D02*
X134550000Y-122142500D01*
X132275000Y-121042500D02*
X132275000Y-121975000D01*
X134525000Y-122167500D02*
X134525000Y-123125000D01*
X134525000Y-122167500D02*
X134525000Y-123325000D01*
X134525000Y-123325000D02*
X134525000Y-123325000D01*
X132275000Y-122200000D02*
X132275000Y-122200000D01*
X128850000Y-121092500D02*
X128850000Y-122200000D01*
X128850000Y-122200000D02*
X128850000Y-122200000D01*
X133450000Y-117507500D02*
X133482500Y-117475000D01*
X132300000Y-117507500D02*
X133450000Y-117507500D01*
X132300000Y-117507500D02*
X132300000Y-116525000D01*
X133482500Y-117475000D02*
X133482500Y-116507500D01*
X138650000Y-118400000D02*
X139400000Y-119150000D01*
X137437500Y-118400000D02*
X138650000Y-118400000D01*
X138650000Y-119900000D02*
X139400000Y-119150000D01*
X138650000Y-121112500D02*
X138650000Y-119900000D01*
X140150000Y-121112500D02*
X140150000Y-119900000D01*
X140150000Y-119900000D02*
X139400000Y-119150000D01*
X141362500Y-119900000D02*
X140150000Y-119900000D01*
X132300000Y-117507500D02*
X132300000Y-116325000D01*
X133482500Y-117475000D02*
X133482500Y-116342500D01*
X131950000Y-116325000D02*
X131950000Y-116325000D01*
X133132500Y-116342500D02*
X133132500Y-116332500D01*
X135800000Y-122142500D02*
X135800000Y-123300000D01*
X135800000Y-123300000D02*
X135800000Y-123300000D01*
X135800000Y-123250000D02*
X135800000Y-122142500D01*
X134525000Y-123250000D02*
X134525000Y-122167500D01*
X132275000Y-122200000D02*
X132275000Y-121042500D01*
X128825000Y-121117500D02*
X128850000Y-121092500D01*
X128825000Y-122150000D02*
X128825000Y-121117500D01*
X111725000Y-120417500D02*
X111725000Y-121325000D01*
X111725000Y-121425000D02*
X111725000Y-121425000D01*
X115075000Y-120417500D02*
X115075000Y-121300000D01*
X115075000Y-121450000D02*
X115075000Y-121450000D01*
X115075000Y-121450000D02*
X115075000Y-120417500D01*
X111725000Y-121425000D02*
X111725000Y-120417500D01*
X120837500Y-116107500D02*
X120837500Y-116107500D01*
X119825000Y-116107500D02*
X120837500Y-116107500D01*
D38*
X141820000Y-125570000D02*
X143050000Y-125570000D01*
X143050000Y-125570000D02*
X143050000Y-125570000D01*
X141621464Y-119900000D02*
X141620874Y-119899410D01*
X141843812Y-119900000D02*
X141621464Y-119900000D01*
X142393812Y-120450000D02*
X141843812Y-119900000D01*
X144220000Y-120450000D02*
X143060000Y-120450000D01*
X143060000Y-120450000D02*
X142393812Y-120450000D01*
X143060000Y-117262500D02*
X144127500Y-117262500D01*
X122625000Y-119275000D02*
X123025000Y-118875000D01*
X121725000Y-119275000D02*
X122625000Y-119275000D01*
X124057500Y-121067500D02*
X124125000Y-121000000D01*
X123025000Y-121067500D02*
X124057500Y-121067500D01*
X174825000Y-124130000D02*
X172630000Y-124130000D01*
X172630000Y-124130000D02*
X172630000Y-124130000D01*
X169175000Y-116510000D02*
X166440000Y-116510000D01*
X166440000Y-116510000D02*
X166440000Y-116510000D01*
D37*
X140420000Y-123720000D02*
X140175000Y-123475000D01*
X140420000Y-124470000D02*
X140420000Y-123720000D01*
X123100000Y-66950000D02*
X121225000Y-66950000D01*
X121225000Y-66950000D02*
X121225000Y-66950000D01*
X185425000Y-143550000D02*
X183425000Y-143550000D01*
X183425000Y-143550000D02*
X183425000Y-143550000D01*
X147925000Y-102375000D02*
X145925000Y-102375000D01*
X145925000Y-102375000D02*
X145925000Y-102375000D01*
X155125000Y-57800000D02*
X155125000Y-56258000D01*
X156050000Y-57800000D02*
X155125000Y-57800000D01*
X197250000Y-60675000D02*
X197250000Y-60675000D01*
X138160000Y-123887500D02*
X138160000Y-125015000D01*
X138160000Y-125015000D02*
X138160000Y-125015000D01*
X134425000Y-81800000D02*
X134425000Y-81800000D01*
X112465000Y-80335000D02*
X113115000Y-80335000D01*
X165332500Y-146317500D02*
X165350000Y-146335000D01*
X164300000Y-146317500D02*
X165332500Y-146317500D01*
X164300000Y-146317500D02*
X163217500Y-146317500D01*
X162450000Y-134500000D02*
X160500000Y-134500000D01*
X162450000Y-142000000D02*
X160650000Y-142000000D01*
X146450000Y-143450000D02*
X148300000Y-143450000D01*
X146450000Y-132950000D02*
X148300000Y-132950000D01*
X118800000Y-63300000D02*
X118750000Y-63350000D01*
X118800000Y-60899999D02*
X118800000Y-63300000D01*
X197250000Y-62400000D02*
X197250000Y-60675000D01*
D38*
X107200000Y-77725000D02*
X107200000Y-76400000D01*
X107200000Y-76400000D02*
X107200000Y-76400000D01*
X107200000Y-80675000D02*
X107200000Y-82000000D01*
X107200000Y-82000000D02*
X107200000Y-82000000D01*
X107750000Y-117825000D02*
X107750000Y-116400000D01*
X107750000Y-120775000D02*
X107750000Y-122200000D01*
X139500000Y-142150000D02*
X139500000Y-142150000D01*
X135125000Y-142150000D02*
X133850000Y-142150000D01*
X133850000Y-142150000D02*
X133850000Y-142150000D01*
X138075000Y-142150000D02*
X139350000Y-142150000D01*
D37*
X134900000Y-52850000D02*
X135060000Y-52690000D01*
D38*
X135000000Y-52750000D02*
X135060000Y-52690000D01*
X135000000Y-58400000D02*
X135000000Y-52750000D01*
D37*
%TO.N,/ANT*%
X112500000Y-79200000D02*
X111400000Y-79200000D01*
D38*
X111400000Y-79200000D02*
X108700000Y-79200000D01*
D37*
%TO.N,/~GPS_RESET*%
X167300000Y-142550000D02*
X177492500Y-132357500D01*
X167300000Y-143500000D02*
X167300000Y-142550000D01*
D39*
X177550000Y-124315000D02*
X177492500Y-124257500D01*
D37*
X177492500Y-124257500D02*
X174825000Y-121590000D01*
X177492500Y-132357500D02*
X177492500Y-124257500D01*
X167300000Y-143500000D02*
X164300000Y-143500000D01*
X164300000Y-143500000D02*
X162450000Y-143500000D01*
D38*
%TO.N,/E5_RFIO*%
X133700000Y-87200000D02*
X133700000Y-82150000D01*
X133700000Y-82150000D02*
X130750000Y-79200000D01*
X130750000Y-79200000D02*
X114800000Y-79200000D01*
D37*
X113695000Y-79200000D02*
X114800000Y-79200000D01*
D38*
%TO.N,/PI_SDA*%
X117656000Y-69756000D02*
X116400000Y-68500000D01*
X139800000Y-69756000D02*
X117656000Y-69756000D01*
X174754758Y-78410000D02*
X174825000Y-78410000D01*
X139800000Y-69756000D02*
X140183701Y-70139701D01*
X174825000Y-78101462D02*
X174825000Y-78410000D01*
D39*
X144950000Y-70100000D02*
X144989701Y-70139701D01*
D38*
X144950000Y-63800000D02*
X144950000Y-70100000D01*
X140183701Y-70139701D02*
X144989701Y-70139701D01*
D37*
X174825000Y-78410000D02*
X173760000Y-78410000D01*
X173760000Y-78410000D02*
X172500000Y-77150000D01*
X168249998Y-77150000D02*
X165525000Y-74425002D01*
X172500000Y-77150000D02*
X168249998Y-77150000D01*
X165525000Y-72679402D02*
X162985299Y-70139701D01*
X165525000Y-74425002D02*
X165525000Y-72679402D01*
D38*
X144989701Y-70139701D02*
X162985299Y-70139701D01*
D39*
%TO.N,/E5_RX*%
X142050000Y-96250000D02*
X142050000Y-95700000D01*
D38*
X152850000Y-82053000D02*
X152885000Y-82088000D01*
D37*
X141500000Y-95700000D02*
X142050000Y-96250000D01*
X135950000Y-95700000D02*
X141500000Y-95700000D01*
X152885000Y-80590000D02*
X152885000Y-80590000D01*
X152885000Y-82088000D02*
X152885000Y-80590000D01*
D38*
X142050000Y-96250000D02*
X146250000Y-96250000D01*
X151975000Y-90525000D02*
X151975000Y-89400000D01*
X146250000Y-96250000D02*
X151975000Y-90525000D01*
D39*
%TO.N,/E5_TX*%
X142050000Y-94400000D02*
X142100000Y-94450000D01*
X142050000Y-93900000D02*
X142050000Y-94400000D01*
D37*
X141500000Y-94450000D02*
X142050000Y-93900000D01*
X135950000Y-94450000D02*
X141500000Y-94450000D01*
D38*
X151235299Y-87891701D02*
X151615000Y-87512000D01*
X151235299Y-89259459D02*
X151235299Y-87891701D01*
X146594758Y-93900000D02*
X151235299Y-89259459D01*
X142050000Y-93900000D02*
X146594758Y-93900000D01*
%TO.N,/~E5_RESET*%
X131200000Y-87200000D02*
X131200000Y-89250000D01*
D37*
X131200000Y-89250000D02*
X131200000Y-89250000D01*
X162550000Y-119100000D02*
X165450000Y-119100000D01*
X169125000Y-119100000D02*
X169175000Y-119050000D01*
X165450000Y-119100000D02*
X169125000Y-119100000D01*
D38*
%TO.N,/~SX_RESET*%
X139650000Y-111790000D02*
X140900000Y-110540000D01*
X139650000Y-117187500D02*
X139650000Y-111790000D01*
%TO.N,/PI_SCL*%
X140600000Y-71000000D02*
X139800000Y-71800000D01*
X162073538Y-71000000D02*
X147600000Y-71000000D01*
X174825000Y-80950000D02*
X174787060Y-80950000D01*
X116950000Y-71800000D02*
X113650000Y-68500000D01*
X139800000Y-71800000D02*
X116950000Y-71800000D01*
X147600000Y-71000000D02*
X140600000Y-71000000D01*
X147650000Y-63850000D02*
X147600000Y-63800000D01*
X147650000Y-65400000D02*
X147650000Y-63850000D01*
D37*
X174825000Y-80950000D02*
X173450000Y-80950000D01*
X173450000Y-80950000D02*
X172100000Y-79600000D01*
X168159998Y-79600000D02*
X164025000Y-75465002D01*
X172100000Y-79600000D02*
X168159998Y-79600000D01*
X164025000Y-72951462D02*
X162073538Y-71000000D01*
X164025000Y-75465002D02*
X164025000Y-72951462D01*
%TO.N,/PI_GPIO22*%
X180600000Y-87875000D02*
X180597500Y-87877500D01*
X180600000Y-66730000D02*
X180600000Y-87875000D01*
X180597500Y-87877500D02*
X174825000Y-93650000D01*
X172870000Y-59000000D02*
X180600000Y-66730000D01*
X172870000Y-55000000D02*
X172860000Y-54990000D01*
X172870000Y-59000000D02*
X172870000Y-55000000D01*
%TO.N,/GPS_SW_EN*%
X179200000Y-137000000D02*
X179175000Y-137025000D01*
X182650000Y-137000000D02*
X179200000Y-137000000D01*
X179175000Y-123400000D02*
X174825000Y-119050000D01*
X179175000Y-137025000D02*
X179175000Y-123400000D01*
D38*
%TO.N,/~PS_CC_CE*%
X151375000Y-57775000D02*
X151400000Y-57800000D01*
X151375000Y-56258000D02*
X151375000Y-57775000D01*
X169165000Y-96200000D02*
X169175000Y-96190000D01*
X164550000Y-96200000D02*
X169165000Y-96200000D01*
%TO.N,/~PS_CC_QON*%
X150125000Y-57775000D02*
X150100000Y-57800000D01*
X150125000Y-56258000D02*
X150125000Y-57775000D01*
X169170000Y-101275000D02*
X169175000Y-101270000D01*
X163525000Y-101275000D02*
X169170000Y-101275000D01*
%TO.N,/~PS_CC_INT*%
X152625000Y-57775000D02*
X152600000Y-57800000D01*
X152625000Y-56258000D02*
X152625000Y-57775000D01*
X169175000Y-93650000D02*
X165550000Y-93650000D01*
D39*
%TO.N,+3V3*%
X174825000Y-74875000D02*
X175150000Y-74550000D01*
X174825000Y-75870000D02*
X174825000Y-74875000D01*
D38*
X147805000Y-80505000D02*
X147800000Y-80500000D01*
X147805000Y-82088000D02*
X147805000Y-80505000D01*
X127850000Y-68550000D02*
X128950000Y-68550000D01*
X127850000Y-72995000D02*
X129000000Y-72995000D01*
X130050000Y-68550000D02*
X130050000Y-68550000D01*
X130005000Y-72995000D02*
X130005000Y-72995000D01*
X129000000Y-72995000D02*
X130200000Y-72995000D01*
X128950000Y-68550000D02*
X130050000Y-68550000D01*
D37*
X174825000Y-96190000D02*
X176960000Y-96190000D01*
X176960000Y-96190000D02*
X176960000Y-96190000D01*
D39*
X126300000Y-99300000D02*
X126200000Y-99200000D01*
X126300000Y-101200000D02*
X126300000Y-99300000D01*
X126300000Y-102250000D02*
X126300000Y-101200000D01*
X126300000Y-102250000D02*
X126300000Y-103450000D01*
X126300000Y-103450000D02*
X126300000Y-103450000D01*
X164300000Y-142305000D02*
X164300000Y-141325000D01*
X164300000Y-141100000D02*
X164300000Y-141100000D01*
D37*
X119825000Y-119925000D02*
X119825000Y-121025000D01*
X119825000Y-121300000D02*
X119825000Y-121300000D01*
X119825000Y-119925000D02*
X119825000Y-121300000D01*
D38*
X138160000Y-121122500D02*
X138150000Y-121112500D01*
X138160000Y-122752500D02*
X138160000Y-121122500D01*
D37*
X119825000Y-119925000D02*
X119825000Y-122325000D01*
X119825000Y-122325000D02*
X119825000Y-122325000D01*
X138160000Y-122752500D02*
X137275000Y-122752500D01*
X173374999Y-139172450D02*
X173374999Y-137625001D01*
X164300000Y-142305000D02*
X164300000Y-141100000D01*
X121300000Y-60899999D02*
X121300000Y-63300000D01*
X193150000Y-60625000D02*
X193175000Y-60600000D01*
X193150000Y-62400000D02*
X193150000Y-60625000D01*
D38*
X137600000Y-58500000D02*
X137600000Y-56000000D01*
D37*
%TO.N,+5V*%
X169175000Y-75870000D02*
X169175000Y-75275000D01*
D39*
X157592000Y-56258000D02*
X157600000Y-56250000D01*
X156375000Y-56258000D02*
X157592000Y-56258000D01*
X158600000Y-56250000D02*
X157600000Y-56250000D01*
D37*
X165250000Y-66800000D02*
X166650000Y-66800000D01*
X165250000Y-67950000D02*
X165250000Y-66800000D01*
D40*
X159100000Y-63820000D02*
X156490000Y-66430000D01*
X159100000Y-58950000D02*
X159100000Y-63820000D01*
X159100000Y-56750000D02*
X158600000Y-56250000D01*
X159100000Y-58950000D02*
X159100000Y-56750000D01*
X142690000Y-52690000D02*
X142700000Y-52700000D01*
X140140000Y-52690000D02*
X142690000Y-52690000D01*
D37*
%TO.N,/CPPC_INT*%
X169175000Y-103810000D02*
X162610000Y-103810000D01*
D38*
X127400000Y-56040000D02*
X127440000Y-56000000D01*
X127400000Y-58400000D02*
X127400000Y-56040000D01*
D37*
%TO.N,V_GPS*%
X164117500Y-145000000D02*
X164300000Y-145182500D01*
X162450000Y-145000000D02*
X164117500Y-145000000D01*
X165332500Y-145182500D02*
X165350000Y-145200000D01*
X164300000Y-145182500D02*
X165332500Y-145182500D01*
X170075000Y-145625000D02*
X173375000Y-145625000D01*
X169650000Y-145200000D02*
X170075000Y-145625000D01*
X165350000Y-145200000D02*
X169650000Y-145200000D01*
D40*
%TO.N,Net-(C201-Pad1)*%
X144220000Y-121585000D02*
X142472490Y-121585000D01*
X142472490Y-121585000D02*
X141362500Y-120475010D01*
X146085000Y-121585000D02*
X146260000Y-121410000D01*
X144220000Y-121585000D02*
X146085000Y-121585000D01*
D38*
%TO.N,Net-(C202-Pad1)*%
X143057500Y-118400000D02*
X143060000Y-118397500D01*
X141820000Y-118900000D02*
X142320000Y-118400000D01*
X141362500Y-118900000D02*
X141820000Y-118900000D01*
X142320000Y-118400000D02*
X143057500Y-118400000D01*
X141362500Y-118400000D02*
X142320000Y-118400000D01*
D37*
%TO.N,Net-(C204-Pad1)*%
X134510000Y-121047500D02*
X134525000Y-121032500D01*
X133375000Y-121047500D02*
X134510000Y-121047500D01*
X135775000Y-121032500D02*
X135800000Y-121007500D01*
X134525000Y-121032500D02*
X135775000Y-121032500D01*
X136830000Y-121007500D02*
X137437500Y-120400000D01*
X135800000Y-121007500D02*
X136830000Y-121007500D01*
%TO.N,Net-(C206-Pad1)*%
X136445010Y-118175010D02*
X135800000Y-117530000D01*
X136445010Y-118445010D02*
X136445010Y-118175010D01*
X136900000Y-118900000D02*
X136445010Y-118445010D01*
X137437500Y-118900000D02*
X136900000Y-118900000D01*
X134672500Y-117530000D02*
X134617500Y-117475000D01*
X135800000Y-117530000D02*
X134672500Y-117530000D01*
%TO.N,Net-(C207-Pad1)*%
X133377500Y-119900000D02*
X133375000Y-119902500D01*
X134577500Y-119900000D02*
X133377500Y-119900000D01*
X132280000Y-119902500D02*
X132275000Y-119907500D01*
X133375000Y-119902500D02*
X132280000Y-119902500D01*
X131155000Y-119907500D02*
X131122500Y-119875000D01*
X132275000Y-119907500D02*
X131155000Y-119907500D01*
X131122500Y-120980000D02*
X131142500Y-121000000D01*
X131122500Y-119875000D02*
X131122500Y-120980000D01*
%TO.N,Net-(C208-Pad2)*%
X132332500Y-118675000D02*
X132300000Y-118642500D01*
X133465000Y-118675000D02*
X132332500Y-118675000D01*
X122225001Y-118124999D02*
X121725000Y-118625000D01*
X131782499Y-118124999D02*
X122225001Y-118124999D01*
X132300000Y-118642500D02*
X131782499Y-118124999D01*
%TO.N,Net-(C209-Pad2)*%
X129977500Y-120970000D02*
X130007500Y-121000000D01*
X129977500Y-119875000D02*
X129977500Y-120970000D01*
X128932500Y-119875000D02*
X128850000Y-119957500D01*
X129977500Y-119875000D02*
X128932500Y-119875000D01*
X127782500Y-119957500D02*
X127725000Y-119900000D01*
X128850000Y-119957500D02*
X127782500Y-119957500D01*
%TO.N,Net-(C212-Pad2)*%
X126590000Y-119900000D02*
X125322500Y-119900000D01*
%TO.N,Net-(C213-Pad1)*%
X123057500Y-119900000D02*
X123025000Y-119932500D01*
X124177500Y-119900000D02*
X123057500Y-119900000D01*
X121732500Y-119932500D02*
X121725000Y-119925000D01*
X123025000Y-119932500D02*
X121732500Y-119932500D01*
%TO.N,Net-(C214-Pad1)*%
X119810000Y-117257500D02*
X119825000Y-117242500D01*
X118700000Y-117257500D02*
X119810000Y-117257500D01*
X119825000Y-118625000D02*
X119825000Y-117242500D01*
%TO.N,Net-(C215-Pad2)*%
X115082500Y-119275000D02*
X115075000Y-119282500D01*
X117407500Y-119275000D02*
X115082500Y-119275000D01*
X114005000Y-119282500D02*
X113972500Y-119250000D01*
X115075000Y-119282500D02*
X114005000Y-119282500D01*
%TO.N,/LoRa Module/ANT*%
X111757500Y-119250000D02*
X111725000Y-119282500D01*
X112827500Y-119250000D02*
X111757500Y-119250000D01*
D38*
X111707500Y-119300000D02*
X109250000Y-119300000D01*
X111725000Y-119282500D02*
X111707500Y-119300000D01*
D37*
%TO.N,Net-(FB101-Pad2)*%
X173374999Y-144072499D02*
X173374999Y-141877550D01*
X173375000Y-144430000D02*
X173374999Y-144072499D01*
D38*
%TO.N,/MUX_SELA*%
X150345000Y-79545000D02*
X150300000Y-79500000D01*
X150345000Y-82088000D02*
X150345000Y-79545000D01*
D37*
X165450000Y-106350000D02*
X169175000Y-106350000D01*
X165400000Y-106400000D02*
X165450000Y-106350000D01*
X162500000Y-106400000D02*
X165400000Y-106400000D01*
D38*
%TO.N,/GPS_RX*%
X156500000Y-125550000D02*
X162450000Y-131500000D01*
X156500000Y-124150000D02*
X156500000Y-125550000D01*
X155300000Y-90975000D02*
X153725000Y-89400000D01*
X155300000Y-121100000D02*
X155300000Y-90975000D01*
X156500000Y-122300000D02*
X155300000Y-121100000D01*
X156500000Y-124150000D02*
X156500000Y-122300000D01*
X154225000Y-82018000D02*
X154155000Y-82088000D01*
X154225000Y-80500000D02*
X154225000Y-82018000D01*
D39*
%TO.N,/CPPC_RX*%
X144850501Y-83150501D02*
X144850501Y-83150501D01*
D37*
X134275000Y-60525000D02*
X134300000Y-60500000D01*
D38*
X134275000Y-65750000D02*
X134275000Y-60525000D01*
X151615000Y-83129900D02*
X151194400Y-83550500D01*
X145250500Y-83550500D02*
X144850501Y-83150501D01*
X151194400Y-83550500D02*
X145250500Y-83550500D01*
X151615000Y-82088000D02*
X151615000Y-83129900D01*
X134300000Y-58994758D02*
X132520000Y-57214758D01*
X132520000Y-57214758D02*
X132520000Y-56000000D01*
X134300000Y-60500000D02*
X134300000Y-58994758D01*
%TO.N,/LOAD_RX*%
X155425000Y-81659038D02*
X155425000Y-82088000D01*
X156350000Y-80734038D02*
X155425000Y-81659038D01*
X156350000Y-79820600D02*
X156350000Y-80734038D01*
X153829400Y-77300000D02*
X156350000Y-79820600D01*
X152850000Y-77300000D02*
X153829400Y-77300000D01*
X152850000Y-73830000D02*
X152930000Y-73750000D01*
X152850000Y-77300000D02*
X152850000Y-73830000D01*
%TO.N,/PI_TXD0*%
X158107000Y-83500000D02*
X156695000Y-82088000D01*
X160450000Y-83500000D02*
X158107000Y-83500000D01*
X169165000Y-83500000D02*
X169175000Y-83490000D01*
X160450000Y-83500000D02*
X169165000Y-83500000D01*
%TO.N,/PI_RXD0*%
X160480000Y-86030000D02*
X160450000Y-86000000D01*
X155425000Y-86470100D02*
X155425000Y-87512000D01*
X155895100Y-86000000D02*
X155425000Y-86470100D01*
X160450000Y-86000000D02*
X155895100Y-86000000D01*
X169175000Y-86030000D02*
X160450000Y-86000000D01*
D37*
%TO.N,/LOAD_TX*%
X154150000Y-87517000D02*
X154155000Y-87512000D01*
D39*
X150350000Y-77300000D02*
X150350000Y-77700000D01*
D37*
X154155000Y-88430000D02*
X155075000Y-89350000D01*
X154155000Y-87512000D02*
X154155000Y-88430000D01*
D38*
X150350000Y-77300000D02*
X150350000Y-77775000D01*
X152335299Y-79760299D02*
X154660299Y-79760299D01*
X154660299Y-79760299D02*
X155400000Y-80500000D01*
X150350000Y-77775000D02*
X152335299Y-79760299D01*
X150350000Y-73790000D02*
X150390000Y-73750000D01*
X150350000Y-77300000D02*
X150350000Y-73790000D01*
%TO.N,/CPPC_TX*%
X132425000Y-60125000D02*
X132050000Y-60500000D01*
D39*
X143650000Y-84300000D02*
X143650000Y-84300000D01*
D38*
X132050000Y-65725000D02*
X132050000Y-60500000D01*
X148174900Y-84300000D02*
X143650000Y-84300000D01*
X150345000Y-86470100D02*
X148174900Y-84300000D01*
X150345000Y-87512000D02*
X150345000Y-86470100D01*
X129980000Y-58430000D02*
X129980000Y-52690000D01*
X132050000Y-60500000D02*
X129980000Y-58430000D01*
%TO.N,/GPS_TX*%
X161200000Y-133000000D02*
X154250000Y-126050000D01*
D37*
X162450000Y-133000000D02*
X161200000Y-133000000D01*
X154250000Y-124200000D02*
X154150000Y-124100000D01*
D38*
X154250000Y-126050000D02*
X154250000Y-124200000D01*
X154150000Y-124100000D02*
X154150000Y-91430000D01*
X152885000Y-90165000D02*
X152885000Y-87512000D01*
X154150000Y-91430000D02*
X152885000Y-90165000D01*
%TO.N,/MUX_SELB*%
X149075000Y-89075000D02*
X149100000Y-89100000D01*
X149100000Y-87537000D02*
X149075000Y-87512000D01*
X149100000Y-90300000D02*
X149100000Y-87537000D01*
D37*
X169155000Y-113950000D02*
X169175000Y-113970000D01*
X165450000Y-113950000D02*
X169155000Y-113950000D01*
X165450000Y-113950000D02*
X162500000Y-113950000D01*
D38*
%TO.N,/SX_DIO3*%
X142990000Y-122950000D02*
X142100000Y-122950000D01*
X140650000Y-121500000D02*
X140650000Y-121112500D01*
X142100000Y-122950000D02*
X140650000Y-121500000D01*
D37*
%TO.N,/SX_DIO2*%
X118700000Y-116062500D02*
X118700000Y-114930000D01*
X118700000Y-114930000D02*
X118700000Y-114930000D01*
D38*
X141362500Y-117637500D02*
X144080000Y-114920000D01*
X141362500Y-117900000D02*
X141362500Y-117637500D01*
%TO.N,/SX_DIO1*%
X140650000Y-115870000D02*
X145980000Y-110540000D01*
X140650000Y-117187500D02*
X140650000Y-115870000D01*
%TO.N,/SX_BUSY*%
X140150000Y-113830000D02*
X143440000Y-110540000D01*
X140150000Y-117187500D02*
X140150000Y-113830000D01*
%TO.N,/SX_SDO*%
X139150000Y-111330000D02*
X138360000Y-110540000D01*
X139150000Y-117187500D02*
X139150000Y-111330000D01*
%TO.N,/SX_SDI*%
X138650000Y-113370000D02*
X135820000Y-110540000D01*
X138650000Y-117187500D02*
X138650000Y-113370000D01*
%TO.N,/SX_SCK*%
X133280000Y-112160000D02*
X133280000Y-110540000D01*
X138150000Y-117030000D02*
X133280000Y-112160000D01*
X138150000Y-117187500D02*
X138150000Y-117030000D01*
%TO.N,/~SX_CS*%
X137437500Y-117237500D02*
X130740000Y-110540000D01*
X137437500Y-117900000D02*
X137437500Y-117237500D01*
%TO.N,/PS_BOOST_PS*%
X153875000Y-57775000D02*
X153900000Y-57800000D01*
X153875000Y-56258000D02*
X153875000Y-57775000D01*
X169175000Y-88570000D02*
X166480000Y-88570000D01*
X166480000Y-88570000D02*
X166480000Y-88570000D01*
%TO.N,/PS_CC_SCL*%
X148875000Y-58675000D02*
X147600000Y-59950000D01*
X148875000Y-56258000D02*
X148875000Y-58675000D01*
X147600000Y-62500000D02*
X147600000Y-59950000D01*
%TO.N,/PS_CC_SDA*%
X147625000Y-57525000D02*
X145150000Y-60000000D01*
X147625000Y-56258000D02*
X147625000Y-57525000D01*
X144950000Y-60200000D02*
X145150000Y-60000000D01*
X144950000Y-62500000D02*
X144950000Y-60200000D01*
%TO.N,/Temp_SDA*%
X116250000Y-60949999D02*
X116300000Y-60899999D01*
X116250000Y-64650000D02*
X116250000Y-60949999D01*
X116400000Y-64800000D02*
X116250000Y-64650000D01*
X116400000Y-67200000D02*
X116400000Y-64800000D01*
%TO.N,/Temp_SCL*%
X113750000Y-60949999D02*
X113800000Y-60899999D01*
X113750000Y-64650000D02*
X113750000Y-60949999D01*
X113650000Y-64750000D02*
X113750000Y-64650000D01*
X113650000Y-67200000D02*
X113650000Y-64750000D01*
D37*
%TO.N,/PI_GPIO17*%
X175563002Y-88570000D02*
X174825000Y-88570000D01*
X177950000Y-86183002D02*
X175563002Y-88570000D01*
X177950000Y-69160000D02*
X177950000Y-86183002D01*
X167790000Y-59000000D02*
X177950000Y-69160000D01*
X167790000Y-55020000D02*
X167800000Y-55010000D01*
X167790000Y-59000000D02*
X167790000Y-55020000D01*
%TO.N,/PI_GPIO13*%
X188110000Y-59000000D02*
X190390000Y-61280000D01*
X190390000Y-100945000D02*
X174825000Y-116510000D01*
X190390000Y-61280000D02*
X190390000Y-100945000D01*
X188110000Y-55010000D02*
X188120000Y-55000000D01*
X188110000Y-59000000D02*
X188110000Y-55010000D01*
%TO.N,/PI_GPIO11*%
X185150000Y-63660000D02*
X185150000Y-93410000D01*
X180490000Y-59000000D02*
X185150000Y-63660000D01*
X174825000Y-103735000D02*
X185150000Y-93410000D01*
X174825000Y-103810000D02*
X174825000Y-103735000D01*
X180490000Y-55000000D02*
X180500000Y-54990000D01*
X180490000Y-59000000D02*
X180490000Y-55000000D01*
%TO.N,/PI_GPIO10*%
X175493002Y-98730000D02*
X174825000Y-98730000D01*
X182030000Y-65620000D02*
X182030000Y-92193002D01*
X182030000Y-92193002D02*
X175493002Y-98730000D01*
X175410000Y-59000000D02*
X182030000Y-65620000D01*
X175410000Y-55010000D02*
X175430000Y-54990000D01*
X175410000Y-59000000D02*
X175410000Y-55010000D01*
%TO.N,/PI_GPIO9*%
X183570000Y-92525000D02*
X183527500Y-92567500D01*
X183570000Y-64620000D02*
X183570000Y-92525000D01*
X183527500Y-92567500D02*
X174825000Y-101270000D01*
X177950000Y-59000000D02*
X183570000Y-64620000D01*
X177950000Y-55010000D02*
X177930000Y-54990000D01*
X177950000Y-59000000D02*
X177950000Y-55010000D01*
%TO.N,/GPS_3DFIX*%
X166250000Y-127055000D02*
X169175000Y-124130000D01*
X166250000Y-139000000D02*
X166250000Y-127055000D01*
X166250000Y-139000000D02*
X162450000Y-139000000D01*
D38*
%TO.N,/~E5_BOOT*%
X123950000Y-91950000D02*
X126000000Y-91950000D01*
D37*
X126000000Y-91950000D02*
X126000000Y-91950000D01*
X162650000Y-121550000D02*
X162600000Y-121500000D01*
X165450000Y-121550000D02*
X162650000Y-121550000D01*
X169135000Y-121550000D02*
X169175000Y-121590000D01*
X165450000Y-121550000D02*
X169135000Y-121550000D01*
D40*
%TO.N,Net-(J107-Pad3)*%
X152440000Y-64630000D02*
X153180000Y-63890000D01*
X152440000Y-66480000D02*
X152440000Y-64630000D01*
D38*
%TO.N,Net-(J109-Pad2)*%
X142375000Y-131450000D02*
X146450000Y-131450000D01*
X136600000Y-140650000D02*
X136600000Y-137225000D01*
X142375000Y-131450000D02*
X136600000Y-137225000D01*
D40*
%TO.N,Net-(L201-Pad2)*%
X146260000Y-119110000D02*
X146134990Y-118984990D01*
D38*
X141382500Y-119420000D02*
X141362500Y-119400000D01*
X142380000Y-119420000D02*
X141382500Y-119420000D01*
D40*
X143729384Y-119420000D02*
X144039384Y-119110000D01*
X144039384Y-119110000D02*
X146260000Y-119110000D01*
X142380000Y-119420000D02*
X143729384Y-119420000D01*
D37*
%TO.N,Net-(L202-Pad1)*%
X135722500Y-119900000D02*
X137437500Y-119900000D01*
%TO.N,Net-(Q101-Pad2)*%
X174325000Y-141604500D02*
X175629500Y-140300000D01*
X174325000Y-141877550D02*
X174325000Y-141604500D01*
X177725000Y-140300000D02*
X179175000Y-138850000D01*
X175629500Y-140300000D02*
X177725000Y-140300000D01*
D38*
%TO.N,Net-(U201-Pad4)*%
X141820000Y-123763812D02*
X139650000Y-121593812D01*
X141820000Y-124470000D02*
X141820000Y-123763812D01*
X139650000Y-121593812D02*
X139650000Y-121112500D01*
%TO.N,Net-(U201-Pad3)*%
X140058538Y-125570000D02*
X139150000Y-124661462D01*
X140420000Y-125570000D02*
X140058538Y-125570000D01*
X139150000Y-124661462D02*
X139150000Y-121112500D01*
D37*
%TO.N,/PI_GPIO27*%
X179300000Y-86635000D02*
X179042500Y-86892500D01*
X179300000Y-67970000D02*
X179300000Y-86635000D01*
X179042500Y-86892500D02*
X174825000Y-91110000D01*
X170330000Y-59000000D02*
X179300000Y-67970000D01*
X170330000Y-55020000D02*
X170360000Y-54990000D01*
X170330000Y-59000000D02*
X170330000Y-55020000D01*
%TO.N,/PI_GPIO4*%
X165250000Y-59000000D02*
X166050998Y-59000000D01*
X174825000Y-83490000D02*
X174825000Y-83375998D01*
X176570499Y-74999501D02*
X176570499Y-81630499D01*
X176555499Y-74984501D02*
X176570499Y-74999501D01*
X176555499Y-69504501D02*
X176555499Y-74984501D01*
X174825000Y-83375998D02*
X176570499Y-81630499D01*
X166050998Y-59000000D02*
X176555499Y-69504501D01*
X165250000Y-55020000D02*
X165260000Y-55010000D01*
X165250000Y-59000000D02*
X165250000Y-55020000D01*
%TO.N,/PI_GPIO5*%
X183030000Y-59000000D02*
X186670000Y-62640000D01*
X186670000Y-99585000D02*
X174825000Y-111430000D01*
X186670000Y-62640000D02*
X186670000Y-99585000D01*
X183030000Y-55010000D02*
X183040000Y-55000000D01*
X183030000Y-59000000D02*
X183030000Y-55010000D01*
%TO.N,/PI_GPIO6*%
X185570000Y-59000000D02*
X188370000Y-61800000D01*
X188370000Y-100425000D02*
X174825000Y-113970000D01*
X188370000Y-61800000D02*
X188370000Y-100425000D01*
X185570000Y-55000000D02*
X185580000Y-54990000D01*
X185570000Y-59000000D02*
X185570000Y-55000000D01*
%TO.N,Net-(C208-Pad1)*%
X136525000Y-119400000D02*
X135800000Y-118675000D01*
X137437500Y-119400000D02*
X136525000Y-119400000D01*
X135800000Y-118675000D02*
X134600000Y-118675000D01*
%TO.N,Net-(C215-Pad1)*%
X119825000Y-119275000D02*
X118542500Y-119275000D01*
%TD*%
D41*
%TO.N,+3V3*%
X175873000Y-75323000D02*
X173777000Y-75323000D01*
X173777000Y-74227000D01*
X175873000Y-74227000D01*
X175873000Y-75323000D01*
%TA.AperFunction,Conductor*%
D42*
G36*
X175873000Y-75323000D02*
G01*
X173777000Y-75323000D01*
X173777000Y-74227000D01*
X175873000Y-74227000D01*
X175873000Y-75323000D01*
G37*
%TD.AperFunction*%
%TD*%
D41*
%TO.N,+5V*%
X170223000Y-75323000D02*
X168127000Y-75323000D01*
X168127000Y-74277000D01*
X170223000Y-74277000D01*
X170223000Y-75323000D01*
%TA.AperFunction,Conductor*%
D42*
G36*
X170223000Y-75323000D02*
G01*
X168127000Y-75323000D01*
X168127000Y-74277000D01*
X170223000Y-74277000D01*
X170223000Y-75323000D01*
G37*
%TD.AperFunction*%
%TD*%
D41*
%TO.N,+5V*%
X158973000Y-56823000D02*
X156827000Y-56823000D01*
X156827000Y-55677000D01*
X158973000Y-55677000D01*
X158973000Y-56823000D01*
%TA.AperFunction,Conductor*%
D42*
G36*
X158973000Y-56823000D02*
G01*
X156827000Y-56823000D01*
X156827000Y-55677000D01*
X158973000Y-55677000D01*
X158973000Y-56823000D01*
G37*
%TD.AperFunction*%
%TD*%
D41*
%TO.N,GND*%
X155423219Y-57207458D02*
X155427110Y-57232048D01*
X155435724Y-57255407D01*
X155448729Y-57276637D01*
X155465626Y-57294921D01*
X155485765Y-57309558D01*
X155519198Y-57323208D01*
X156325883Y-57524879D01*
X156344210Y-58148000D01*
X154852000Y-58148000D01*
X154852000Y-56902000D01*
X155405251Y-56902000D01*
X155423219Y-57207458D01*
%TA.AperFunction,Conductor*%
D42*
G36*
X155423219Y-57207458D02*
G01*
X155427110Y-57232048D01*
X155435724Y-57255407D01*
X155448729Y-57276637D01*
X155465626Y-57294921D01*
X155485765Y-57309558D01*
X155519198Y-57323208D01*
X156325883Y-57524879D01*
X156344210Y-58148000D01*
X154852000Y-58148000D01*
X154852000Y-56902000D01*
X155405251Y-56902000D01*
X155423219Y-57207458D01*
G37*
%TD.AperFunction*%
%TD*%
M02*
